G04*
G04 #@! TF.GenerationSoftware,Altium Limited,Altium Designer,21.7.2 (23)*
G04*
G04 Layer_Color=8421504*
%FSLAX25Y25*%
%MOIN*%
G70*
G04*
G04 #@! TF.SameCoordinates,D0A3D993-BCFD-4162-BC10-8A45587FADB4*
G04*
G04*
G04 #@! TF.FilePolarity,Positive*
G04*
G01*
G75*
%ADD14R,0.02756X0.02362*%
%ADD15R,0.02362X0.02756*%
%ADD16R,0.03150X0.03937*%
%ADD17R,0.03937X0.03150*%
G04:AMPARAMS|DCode=18|XSize=9.84mil|YSize=27.56mil|CornerRadius=0.49mil|HoleSize=0mil|Usage=FLASHONLY|Rotation=90.000|XOffset=0mil|YOffset=0mil|HoleType=Round|Shape=RoundedRectangle|*
%AMROUNDEDRECTD18*
21,1,0.00984,0.02657,0,0,90.0*
21,1,0.00886,0.02756,0,0,90.0*
1,1,0.00098,0.01329,0.00443*
1,1,0.00098,0.01329,-0.00443*
1,1,0.00098,-0.01329,-0.00443*
1,1,0.00098,-0.01329,0.00443*
%
%ADD18ROUNDEDRECTD18*%
G04:AMPARAMS|DCode=19|XSize=9.84mil|YSize=27.56mil|CornerRadius=0.49mil|HoleSize=0mil|Usage=FLASHONLY|Rotation=180.000|XOffset=0mil|YOffset=0mil|HoleType=Round|Shape=RoundedRectangle|*
%AMROUNDEDRECTD19*
21,1,0.00984,0.02657,0,0,180.0*
21,1,0.00886,0.02756,0,0,180.0*
1,1,0.00098,-0.00443,0.01329*
1,1,0.00098,0.00443,0.01329*
1,1,0.00098,0.00443,-0.01329*
1,1,0.00098,-0.00443,-0.01329*
%
%ADD19ROUNDEDRECTD19*%
G04:AMPARAMS|DCode=20|XSize=135.83mil|YSize=135.83mil|CornerRadius=6.79mil|HoleSize=0mil|Usage=FLASHONLY|Rotation=180.000|XOffset=0mil|YOffset=0mil|HoleType=Round|Shape=RoundedRectangle|*
%AMROUNDEDRECTD20*
21,1,0.13583,0.12224,0,0,180.0*
21,1,0.12224,0.13583,0,0,180.0*
1,1,0.01358,-0.06112,0.06112*
1,1,0.01358,0.06112,0.06112*
1,1,0.01358,0.06112,-0.06112*
1,1,0.01358,-0.06112,-0.06112*
%
%ADD20ROUNDEDRECTD20*%
%ADD21R,0.02362X0.05906*%
%ADD22R,0.01181X0.05906*%
G04:AMPARAMS|DCode=23|XSize=35.43mil|YSize=31.5mil|CornerRadius=1.58mil|HoleSize=0mil|Usage=FLASHONLY|Rotation=180.000|XOffset=0mil|YOffset=0mil|HoleType=Round|Shape=RoundedRectangle|*
%AMROUNDEDRECTD23*
21,1,0.03543,0.02835,0,0,180.0*
21,1,0.03228,0.03150,0,0,180.0*
1,1,0.00315,-0.01614,0.01417*
1,1,0.00315,0.01614,0.01417*
1,1,0.00315,0.01614,-0.01417*
1,1,0.00315,-0.01614,-0.01417*
%
%ADD23ROUNDEDRECTD23*%
%ADD24R,0.02362X0.04724*%
%ADD25R,0.04134X0.02559*%
%ADD26R,0.04134X0.02362*%
D14*
X52500Y90469D02*
D03*
Y86532D02*
D03*
X77000Y76531D02*
D03*
Y80468D02*
D03*
X84000Y76531D02*
D03*
Y80468D02*
D03*
X28000Y61532D02*
D03*
Y65469D02*
D03*
X47500Y61532D02*
D03*
Y65469D02*
D03*
X5000Y33031D02*
D03*
Y36968D02*
D03*
X72500Y143968D02*
D03*
Y140032D02*
D03*
Y151532D02*
D03*
Y155468D02*
D03*
X44500Y23469D02*
D03*
Y19532D02*
D03*
D15*
X75468Y102000D02*
D03*
X71531D02*
D03*
X8969Y46000D02*
D03*
X5032D02*
D03*
X55032Y20000D02*
D03*
X58969D02*
D03*
X41532Y54000D02*
D03*
X45469D02*
D03*
X28032D02*
D03*
X31969D02*
D03*
X41532Y46000D02*
D03*
X45469D02*
D03*
X82032Y87500D02*
D03*
X85969D02*
D03*
X82032Y102000D02*
D03*
X85969D02*
D03*
X82032Y94750D02*
D03*
X85969D02*
D03*
X35531Y65500D02*
D03*
X39469D02*
D03*
X40532Y97500D02*
D03*
X44469D02*
D03*
X40532Y90500D02*
D03*
X44469D02*
D03*
X64468Y116000D02*
D03*
X60532D02*
D03*
X44469Y83500D02*
D03*
X40532D02*
D03*
X61532Y109000D02*
D03*
X65469D02*
D03*
X61468Y102500D02*
D03*
X57531D02*
D03*
X40532Y75000D02*
D03*
X44469D02*
D03*
X30531Y20000D02*
D03*
X34468D02*
D03*
D16*
X25547Y46000D02*
D03*
X31453D02*
D03*
X81953Y132000D02*
D03*
X76047D02*
D03*
X81953Y123500D02*
D03*
X76047D02*
D03*
X66047Y95500D02*
D03*
X71953D02*
D03*
D17*
X45000Y6547D02*
D03*
Y12453D02*
D03*
X55000D02*
D03*
Y6547D02*
D03*
X34500Y12453D02*
D03*
Y6547D02*
D03*
D18*
X66102Y64280D02*
D03*
Y62311D02*
D03*
Y60343D02*
D03*
Y58374D02*
D03*
Y56406D02*
D03*
Y54437D02*
D03*
Y52469D02*
D03*
Y50500D02*
D03*
X85000D02*
D03*
Y52469D02*
D03*
Y54437D02*
D03*
Y56406D02*
D03*
Y58374D02*
D03*
Y60343D02*
D03*
Y62311D02*
D03*
Y64280D02*
D03*
D19*
X68661Y47941D02*
D03*
X70630D02*
D03*
X72598D02*
D03*
X74567D02*
D03*
X76535D02*
D03*
X78504D02*
D03*
X80472D02*
D03*
X82441D02*
D03*
Y66839D02*
D03*
X80472D02*
D03*
X78504D02*
D03*
X76535D02*
D03*
X74567D02*
D03*
X72598D02*
D03*
X70630D02*
D03*
X68661D02*
D03*
D20*
X75551Y57390D02*
D03*
D21*
X55949Y133280D02*
D03*
X59098D02*
D03*
X33902D02*
D03*
X37051D02*
D03*
D22*
X53390D02*
D03*
X51421D02*
D03*
X49453D02*
D03*
X39610D02*
D03*
X41579D02*
D03*
X43547D02*
D03*
X45516D02*
D03*
X47484D02*
D03*
D23*
X68142Y88354D02*
D03*
X60858D02*
D03*
X68142Y82646D02*
D03*
X60858D02*
D03*
D24*
X41260Y107972D02*
D03*
X45000D02*
D03*
X48740D02*
D03*
Y117028D02*
D03*
X45000D02*
D03*
X41260D02*
D03*
D25*
X30169Y28268D02*
D03*
X13831D02*
D03*
X30169Y36732D02*
D03*
X13831D02*
D03*
D26*
X71784Y116240D02*
D03*
Y112500D02*
D03*
Y108760D02*
D03*
X82217D02*
D03*
Y116240D02*
D03*
M02*
