G04*
G04 #@! TF.GenerationSoftware,Altium Limited,Altium Designer,21.7.2 (23)*
G04*
G04 Layer_Color=32896*
%FSLAX25Y25*%
%MOIN*%
G70*
G04*
G04 #@! TF.SameCoordinates,D0A3D993-BCFD-4162-BC10-8A45587FADB4*
G04*
G04*
G04 #@! TF.FilePolarity,Positive*
G04*
G01*
G75*
%ADD12C,0.01181*%
%ADD53C,0.00500*%
G36*
X11127Y135789D02*
X11253D01*
Y135747D01*
X11296D01*
Y135704D01*
X11380D01*
Y135662D01*
X11423D01*
Y135620D01*
X11465D01*
Y135535D01*
X11507D01*
Y135493D01*
X11549D01*
Y135408D01*
X11592D01*
Y135239D01*
X11634D01*
Y135070D01*
X11592D01*
Y134901D01*
X11549D01*
Y134817D01*
X11507D01*
Y134732D01*
X11465D01*
Y134690D01*
X11423D01*
Y134648D01*
X11380D01*
Y134606D01*
X11338D01*
Y134563D01*
X11253D01*
Y134521D01*
X11169D01*
Y134479D01*
X11000D01*
Y134437D01*
X10746D01*
Y134394D01*
X10577D01*
Y134352D01*
X10366D01*
Y134310D01*
X10155D01*
Y134268D01*
X9901D01*
Y134225D01*
X9732D01*
Y134183D01*
X9690D01*
Y134225D01*
X9648D01*
Y134183D01*
X9521D01*
Y134141D01*
X9310D01*
Y134099D01*
X9056D01*
Y134056D01*
X8845D01*
Y134014D01*
X8676D01*
Y133972D01*
X8465D01*
Y133930D01*
X8253D01*
Y133887D01*
X8042D01*
Y133845D01*
X7831D01*
Y133803D01*
X7620D01*
Y133761D01*
X7408D01*
Y133718D01*
X7197D01*
Y133676D01*
X6690D01*
Y133718D01*
X6606D01*
Y133761D01*
X6521D01*
Y133803D01*
X6479D01*
Y133845D01*
X6437D01*
Y133887D01*
X6394D01*
Y133930D01*
X6352D01*
Y133972D01*
X6310D01*
Y134056D01*
X6268D01*
Y134183D01*
X6225D01*
Y134479D01*
X6268D01*
Y134606D01*
X6310D01*
Y134690D01*
X6352D01*
Y134775D01*
X6394D01*
Y134817D01*
X6437D01*
Y134859D01*
X6479D01*
Y134901D01*
X6563D01*
Y134944D01*
X6606D01*
Y134986D01*
X6732D01*
Y135028D01*
X6944D01*
Y135070D01*
X7155D01*
Y135113D01*
X7366D01*
Y135155D01*
X7577D01*
Y135197D01*
X7789D01*
Y135239D01*
X8000D01*
Y135282D01*
X8211D01*
Y135324D01*
X8422D01*
Y135366D01*
X8591D01*
Y135408D01*
X8845D01*
Y135451D01*
X9056D01*
Y135493D01*
X9225D01*
Y135535D01*
X9437D01*
Y135577D01*
X9648D01*
Y135620D01*
X9901D01*
Y135662D01*
X10070D01*
Y135704D01*
X10282D01*
Y135747D01*
X10493D01*
Y135789D01*
X10704D01*
Y135831D01*
X11127D01*
Y135789D01*
D02*
G37*
G36*
X8253Y140986D02*
X8380D01*
Y140944D01*
X8465D01*
Y140901D01*
X8507D01*
Y140859D01*
X8591D01*
Y140817D01*
X8676D01*
Y140775D01*
X8718D01*
Y140732D01*
X8803D01*
Y140690D01*
X8845D01*
Y140648D01*
X8930D01*
Y140606D01*
X8972D01*
Y140563D01*
X9056D01*
Y140521D01*
X9099D01*
Y140479D01*
X9141D01*
Y140437D01*
X9225D01*
Y140394D01*
X9310D01*
Y140352D01*
X9352D01*
Y140310D01*
X9437D01*
Y140268D01*
X9479D01*
Y140225D01*
X9521D01*
Y140183D01*
X9606D01*
Y140141D01*
X9690D01*
Y140099D01*
X9732D01*
Y140056D01*
X9817D01*
Y140014D01*
X9859D01*
Y139972D01*
X9944D01*
Y139930D01*
X9986D01*
Y139887D01*
X10070D01*
Y139845D01*
X10113D01*
Y139803D01*
X10197D01*
Y139761D01*
X10239D01*
Y139718D01*
X10324D01*
Y139676D01*
X10366D01*
Y139634D01*
X10451D01*
Y139592D01*
X10493D01*
Y139549D01*
X10577D01*
Y139507D01*
X10620D01*
Y139465D01*
X10704D01*
Y139423D01*
X10746D01*
Y139380D01*
X10789D01*
Y139338D01*
X10873D01*
Y139296D01*
X10958D01*
Y139253D01*
X11000D01*
Y139211D01*
X11084D01*
Y139169D01*
X11127D01*
Y139127D01*
X11211D01*
Y139084D01*
X11253D01*
Y139042D01*
X11338D01*
Y139000D01*
X11380D01*
Y138958D01*
X11465D01*
Y138916D01*
X11507D01*
Y138873D01*
X11592D01*
Y138831D01*
X11634D01*
Y138789D01*
X11718D01*
Y138747D01*
X11761D01*
Y138704D01*
X11845D01*
Y138662D01*
X11887D01*
Y138620D01*
X11972D01*
Y138577D01*
X12014D01*
Y138535D01*
X12056D01*
Y138451D01*
X12099D01*
Y138366D01*
X12141D01*
Y138282D01*
X12183D01*
Y137901D01*
X12141D01*
Y137775D01*
X12099D01*
Y137690D01*
X12056D01*
Y137648D01*
X12014D01*
Y137606D01*
X11972D01*
Y137563D01*
X11930D01*
Y137521D01*
X11887D01*
Y137479D01*
X11803D01*
Y137437D01*
X11676D01*
Y137394D01*
X11338D01*
Y137437D01*
X11211D01*
Y137479D01*
X11127D01*
Y137521D01*
X11084D01*
Y137563D01*
X11042D01*
Y137606D01*
X10958D01*
Y137648D01*
X10873D01*
Y137690D01*
X10831D01*
Y137732D01*
X10746D01*
Y137775D01*
X10704D01*
Y137817D01*
X10620D01*
Y137859D01*
X10577D01*
Y137901D01*
X10493D01*
Y137944D01*
X10451D01*
Y137986D01*
X10366D01*
Y138028D01*
X10324D01*
Y138070D01*
X10282D01*
Y138113D01*
X10197D01*
Y138155D01*
X10113D01*
Y138197D01*
X10070D01*
Y138239D01*
X9986D01*
Y138282D01*
X9944D01*
Y138324D01*
X9901D01*
Y138366D01*
X9817D01*
Y138408D01*
X9732D01*
Y138451D01*
X9690D01*
Y138493D01*
X9606D01*
Y138535D01*
X9563D01*
Y138577D01*
X9479D01*
Y138620D01*
X9437D01*
Y138662D01*
X9352D01*
Y138704D01*
X9310D01*
Y138747D01*
X9225D01*
Y138789D01*
X9183D01*
Y138831D01*
X9099D01*
Y138873D01*
X9056D01*
Y138916D01*
X8972D01*
Y138958D01*
X8930D01*
Y139000D01*
X8845D01*
Y139042D01*
X8803D01*
Y139084D01*
X8718D01*
Y139127D01*
X8676D01*
Y139169D01*
X8591D01*
Y139211D01*
X8549D01*
Y139253D01*
X8465D01*
Y139296D01*
X8380D01*
Y139338D01*
X8338D01*
Y139380D01*
X8296D01*
Y139423D01*
X8211D01*
Y139465D01*
X8169D01*
Y139507D01*
X8084D01*
Y139549D01*
X8042D01*
Y139592D01*
X7958D01*
Y139634D01*
X7915D01*
Y139676D01*
X7831D01*
Y139718D01*
X7789D01*
Y139761D01*
X7704D01*
Y139803D01*
X7662D01*
Y139845D01*
X7620D01*
Y139887D01*
X7577D01*
Y139930D01*
X7535D01*
Y139972D01*
X7493D01*
Y140056D01*
X7451D01*
Y140183D01*
X7408D01*
Y140521D01*
X7451D01*
Y140648D01*
X7493D01*
Y140690D01*
X7535D01*
Y140775D01*
X7577D01*
Y140817D01*
X7620D01*
Y140859D01*
X7662D01*
Y140901D01*
X7746D01*
Y140944D01*
X7789D01*
Y140986D01*
X7915D01*
Y141028D01*
X8253D01*
Y140986D01*
D02*
G37*
G36*
X12563Y144028D02*
Y144113D01*
X12606D01*
Y144197D01*
X12648D01*
Y144239D01*
X12690D01*
Y144282D01*
X12732D01*
Y144324D01*
X12817D01*
Y144366D01*
X12901D01*
Y144408D01*
X12986D01*
Y144451D01*
X13324D01*
Y144408D01*
X13493D01*
Y144366D01*
X13535D01*
Y144324D01*
X13620D01*
Y144282D01*
X13662D01*
Y144239D01*
X13704D01*
Y144197D01*
X13747D01*
Y144113D01*
X13789D01*
Y144028D01*
X13831D01*
Y143901D01*
X13873D01*
Y143732D01*
X13916D01*
Y143521D01*
X13958D01*
Y143268D01*
X14000D01*
Y143099D01*
X14042D01*
Y142887D01*
X14085D01*
Y142676D01*
X14127D01*
Y142422D01*
X14169D01*
Y142253D01*
X14211D01*
Y142042D01*
X14254D01*
Y141831D01*
X14296D01*
Y141620D01*
X14338D01*
Y141408D01*
X14380D01*
Y141197D01*
X14423D01*
Y140986D01*
X14465D01*
Y140775D01*
X14507D01*
Y140563D01*
X14549D01*
Y140352D01*
X14592D01*
Y140183D01*
X14634D01*
Y139972D01*
X14676D01*
Y139549D01*
X14634D01*
Y139465D01*
X14592D01*
Y139380D01*
X14549D01*
Y139296D01*
X14507D01*
Y139253D01*
X14465D01*
Y139211D01*
X14380D01*
Y139169D01*
X14338D01*
Y139127D01*
X14254D01*
Y139084D01*
X14085D01*
Y139042D01*
X13873D01*
Y139084D01*
X13704D01*
Y139127D01*
X13620D01*
Y139169D01*
X13577D01*
Y139211D01*
X13535D01*
Y139253D01*
X13493D01*
Y139296D01*
X13451D01*
Y139338D01*
X13408D01*
Y139380D01*
X13366D01*
Y139465D01*
X13324D01*
Y139634D01*
X13282D01*
Y139803D01*
X13239D01*
Y140014D01*
X13197D01*
Y140225D01*
X13155D01*
Y140479D01*
X13113D01*
Y140648D01*
X13070D01*
Y140859D01*
X13028D01*
Y141070D01*
X12986D01*
Y141324D01*
X12944D01*
Y141493D01*
X12901D01*
Y141704D01*
X12859D01*
Y141916D01*
X12817D01*
Y142127D01*
X12775D01*
Y142338D01*
X12732D01*
Y142549D01*
X12690D01*
Y142761D01*
X12648D01*
Y142972D01*
X12606D01*
Y143141D01*
X12563D01*
Y143352D01*
X12521D01*
Y143606D01*
X12479D01*
Y143901D01*
X12521D01*
Y144028D01*
X12563D01*
D02*
G37*
G36*
X20761Y131099D02*
X20718D01*
Y131141D01*
X20676D01*
Y131183D01*
X20592D01*
Y131225D01*
X20549D01*
Y131268D01*
X20465D01*
Y131310D01*
X20423D01*
Y131352D01*
X20338D01*
Y131394D01*
X20296D01*
Y131437D01*
X20211D01*
Y131479D01*
X20169D01*
Y131521D01*
X20085D01*
Y131563D01*
X20042D01*
Y131606D01*
X19958D01*
Y131648D01*
X19916D01*
Y131690D01*
X19831D01*
Y131732D01*
X19789D01*
Y131775D01*
X19747D01*
Y131817D01*
X19662D01*
Y131859D01*
X19578D01*
Y131901D01*
X19535D01*
Y131944D01*
X19451D01*
Y131986D01*
X19408D01*
Y132028D01*
X19324D01*
Y132070D01*
X19282D01*
Y132113D01*
X19197D01*
Y132155D01*
X19155D01*
Y132197D01*
X19070D01*
Y132239D01*
X19028D01*
Y132282D01*
X18944D01*
Y132324D01*
X18901D01*
Y132366D01*
X18817D01*
Y132408D01*
X18775D01*
Y132451D01*
X18690D01*
Y132493D01*
X18648D01*
Y132535D01*
X18563D01*
Y132578D01*
X18521D01*
Y132620D01*
X18437D01*
Y132662D01*
X18394D01*
Y132704D01*
X18310D01*
Y132747D01*
X18268D01*
Y132789D01*
X18183D01*
Y132831D01*
X18141D01*
Y132873D01*
X18056D01*
Y132915D01*
X18014D01*
Y132958D01*
X17930D01*
Y133000D01*
X17887D01*
Y133042D01*
X17803D01*
Y133084D01*
X17718D01*
Y133127D01*
X17676D01*
Y133169D01*
X17634D01*
Y133211D01*
X17549D01*
Y133254D01*
X17507D01*
Y133296D01*
X17465D01*
Y133380D01*
X17423D01*
Y133423D01*
X17380D01*
Y133507D01*
X17338D01*
Y133718D01*
X17296D01*
Y133803D01*
X17338D01*
Y134014D01*
X17380D01*
Y134099D01*
X17423D01*
Y134183D01*
X17465D01*
Y134225D01*
X17507D01*
Y134268D01*
X17549D01*
Y134310D01*
X17592D01*
Y134352D01*
X17676D01*
Y134394D01*
X17761D01*
Y134437D01*
X18268D01*
Y134394D01*
X18352D01*
Y134352D01*
X18394D01*
Y134310D01*
X18479D01*
Y134268D01*
X18521D01*
Y134225D01*
X18606D01*
Y134183D01*
X18690D01*
Y134141D01*
X18732D01*
Y134099D01*
X18775D01*
Y134056D01*
X18859D01*
Y134014D01*
X18944D01*
Y133972D01*
X18986D01*
Y133930D01*
X19028D01*
Y133887D01*
X19113D01*
Y133845D01*
X19197D01*
Y133803D01*
X19239D01*
Y133761D01*
X19324D01*
Y133718D01*
X19366D01*
Y133676D01*
X19408D01*
Y133634D01*
X19493D01*
Y133592D01*
X19535D01*
Y133549D01*
X19620D01*
Y133507D01*
X19704D01*
Y133465D01*
X19747D01*
Y133423D01*
X19789D01*
Y133380D01*
X19873D01*
Y133338D01*
X19916D01*
Y133296D01*
X20000D01*
Y133254D01*
X20085D01*
Y133211D01*
X20127D01*
Y133169D01*
X20211D01*
Y133127D01*
X20254D01*
Y133084D01*
X20296D01*
Y133042D01*
X20380D01*
Y133000D01*
X20465D01*
Y132958D01*
X20507D01*
Y132915D01*
X20549D01*
Y132873D01*
X20634D01*
Y132831D01*
X20718D01*
Y132789D01*
X20761D01*
Y132747D01*
X20803D01*
Y132704D01*
X20887D01*
Y132662D01*
X20972D01*
Y132620D01*
X21014D01*
Y132578D01*
X21099D01*
Y132535D01*
X21141D01*
Y132493D01*
X21225D01*
Y132451D01*
X21268D01*
Y132408D01*
X21352D01*
Y132366D01*
X21394D01*
Y132324D01*
X21479D01*
Y132282D01*
X21521D01*
Y132239D01*
X21606D01*
Y132197D01*
X21648D01*
Y132155D01*
X21732D01*
Y132113D01*
X21775D01*
Y132070D01*
X21859D01*
Y132028D01*
X21901D01*
Y131986D01*
X21944D01*
Y131944D01*
X21986D01*
Y131859D01*
X22028D01*
Y131817D01*
X22070D01*
Y131690D01*
X22113D01*
Y131310D01*
X22070D01*
Y131225D01*
X22028D01*
Y131141D01*
X21986D01*
Y131056D01*
X21944D01*
Y131014D01*
X21901D01*
Y130972D01*
X21859D01*
Y130930D01*
X21775D01*
Y130887D01*
X21690D01*
Y130845D01*
X21563D01*
Y130803D01*
X21268D01*
Y130845D01*
X21141D01*
Y130887D01*
X21056D01*
Y130930D01*
X20972D01*
Y130972D01*
X20930D01*
Y131014D01*
X20845D01*
Y131056D01*
X20803D01*
Y131099D01*
X20761D01*
D02*
G37*
G36*
X22704Y138155D02*
X22873D01*
Y138113D01*
X22958D01*
Y138070D01*
X23000D01*
Y138028D01*
X23042D01*
Y137986D01*
X23085D01*
Y137944D01*
X23127D01*
Y137901D01*
X23169D01*
Y137859D01*
X23211D01*
Y137775D01*
X23254D01*
Y137606D01*
X23296D01*
Y137437D01*
X23254D01*
Y137225D01*
X23211D01*
Y137141D01*
X23169D01*
Y137099D01*
X23127D01*
Y137056D01*
X23085D01*
Y137014D01*
X23042D01*
Y136972D01*
X23000D01*
Y136930D01*
X22916D01*
Y136887D01*
X22873D01*
Y136845D01*
X22704D01*
Y136803D01*
X22662D01*
Y136845D01*
X22620D01*
Y136803D01*
X22451D01*
Y136761D01*
X22239D01*
Y136718D01*
X22070D01*
Y136676D01*
X21859D01*
Y136634D01*
X21648D01*
Y136592D01*
X21437D01*
Y136549D01*
X21225D01*
Y136507D01*
X21014D01*
Y136465D01*
X20803D01*
Y136423D01*
X20592D01*
Y136380D01*
X20380D01*
Y136338D01*
X20169D01*
Y136296D01*
X19958D01*
Y136253D01*
X19747D01*
Y136211D01*
X19535D01*
Y136169D01*
X19324D01*
Y136127D01*
X19155D01*
Y136084D01*
X18901D01*
Y136042D01*
X18690D01*
Y136000D01*
X18521D01*
Y136042D01*
X18310D01*
Y136084D01*
X18225D01*
Y136127D01*
X18183D01*
Y136169D01*
X18141D01*
Y136211D01*
X18099D01*
Y136253D01*
X18056D01*
Y136296D01*
X18014D01*
Y136338D01*
X17972D01*
Y136423D01*
X17930D01*
Y136592D01*
X17887D01*
Y136634D01*
X17930D01*
Y136676D01*
X17887D01*
Y136718D01*
X17930D01*
Y136761D01*
X17887D01*
Y136803D01*
X17930D01*
Y136972D01*
X17972D01*
Y137014D01*
X18014D01*
Y137099D01*
X18056D01*
Y137141D01*
X18099D01*
Y137183D01*
X18141D01*
Y137225D01*
X18183D01*
Y137268D01*
X18225D01*
Y137310D01*
X18352D01*
Y137352D01*
X18479D01*
Y137394D01*
X18690D01*
Y137437D01*
X18901D01*
Y137479D01*
X19113D01*
Y137521D01*
X19324D01*
Y137563D01*
X19535D01*
Y137606D01*
X19747D01*
Y137648D01*
X19958D01*
Y137690D01*
X20169D01*
Y137732D01*
X20380D01*
Y137775D01*
X20592D01*
Y137817D01*
X20718D01*
Y137775D01*
X20761D01*
Y137817D01*
X20803D01*
Y137859D01*
X21014D01*
Y137901D01*
X21183D01*
Y137944D01*
X21437D01*
Y137986D01*
X21648D01*
Y138028D01*
X21859D01*
Y138070D01*
X22028D01*
Y138113D01*
X22282D01*
Y138155D01*
X22451D01*
Y138197D01*
X22704D01*
Y138155D01*
D02*
G37*
G36*
X19366Y143225D02*
X19493D01*
Y143183D01*
X19535D01*
Y143141D01*
X19620D01*
Y143099D01*
X19662D01*
Y143056D01*
X19704D01*
Y143014D01*
X19747D01*
Y142930D01*
X19789D01*
Y142887D01*
X19831D01*
Y142761D01*
X19873D01*
Y142422D01*
X19831D01*
Y142296D01*
X19789D01*
Y142211D01*
X19747D01*
Y142169D01*
X19704D01*
Y142085D01*
X19662D01*
Y142042D01*
X19620D01*
Y141958D01*
X19578D01*
Y141916D01*
X19535D01*
Y141831D01*
X19493D01*
Y141789D01*
X19451D01*
Y141704D01*
X19408D01*
Y141662D01*
X19366D01*
Y141577D01*
X19324D01*
Y141493D01*
X19282D01*
Y141451D01*
X19239D01*
Y141366D01*
X19197D01*
Y141324D01*
X19155D01*
Y141239D01*
X19113D01*
Y141197D01*
X19070D01*
Y141155D01*
X19028D01*
Y141070D01*
X18986D01*
Y140986D01*
X18944D01*
Y140944D01*
X18901D01*
Y140859D01*
X18859D01*
Y140817D01*
X18817D01*
Y140732D01*
X18775D01*
Y140690D01*
X18732D01*
Y140606D01*
X18690D01*
Y140563D01*
X18648D01*
Y140521D01*
X18606D01*
Y140437D01*
X18563D01*
Y140352D01*
X18521D01*
Y140310D01*
X18479D01*
Y140268D01*
X18437D01*
Y140183D01*
X18394D01*
Y140141D01*
X18352D01*
Y140056D01*
X18310D01*
Y139972D01*
X18268D01*
Y139930D01*
X18225D01*
Y139887D01*
X18183D01*
Y139803D01*
X18141D01*
Y139718D01*
X18099D01*
Y139676D01*
X18056D01*
Y139592D01*
X18014D01*
Y139549D01*
X17972D01*
Y139465D01*
X17930D01*
Y139423D01*
X17887D01*
Y139338D01*
X17845D01*
Y139296D01*
X17803D01*
Y139211D01*
X17761D01*
Y139169D01*
X17718D01*
Y139084D01*
X17676D01*
Y139042D01*
X17634D01*
Y138958D01*
X17592D01*
Y138916D01*
X17549D01*
Y138831D01*
X17507D01*
Y138789D01*
X17465D01*
Y138747D01*
X17423D01*
Y138704D01*
Y138662D01*
X17338D01*
Y138620D01*
X17296D01*
Y138577D01*
X17211D01*
Y138535D01*
X17127D01*
Y138493D01*
X16704D01*
Y138535D01*
X16620D01*
Y138577D01*
X16535D01*
Y138620D01*
X16493D01*
Y138662D01*
X16451D01*
Y138704D01*
X16408D01*
Y138747D01*
X16366D01*
Y138789D01*
X16324D01*
Y138873D01*
X16282D01*
Y138958D01*
X16239D01*
Y139380D01*
X16282D01*
Y139465D01*
X16324D01*
Y139549D01*
X16366D01*
Y139634D01*
X16408D01*
Y139676D01*
X16451D01*
Y139761D01*
X16493D01*
Y139803D01*
X16535D01*
Y139887D01*
X16578D01*
Y139930D01*
X16620D01*
Y140014D01*
X16662D01*
Y140056D01*
X16704D01*
Y140141D01*
X16747D01*
Y140183D01*
X16789D01*
Y140268D01*
X16831D01*
Y140310D01*
X16873D01*
Y140394D01*
X16916D01*
Y140437D01*
X16958D01*
Y140521D01*
X17000D01*
Y140563D01*
X17042D01*
Y140648D01*
X17085D01*
Y140690D01*
X17127D01*
Y140775D01*
X17169D01*
Y140817D01*
X17211D01*
Y140901D01*
X17254D01*
Y140944D01*
X17296D01*
Y141028D01*
X17338D01*
Y141070D01*
X17380D01*
Y141155D01*
X17423D01*
Y141197D01*
X17465D01*
Y141282D01*
X17507D01*
Y141324D01*
X17549D01*
Y141408D01*
X17592D01*
Y141451D01*
X17634D01*
Y141535D01*
X17676D01*
Y141577D01*
X17718D01*
Y141662D01*
X17761D01*
Y141704D01*
X17803D01*
Y141789D01*
X17845D01*
Y141831D01*
X17887D01*
Y141916D01*
X17930D01*
Y141958D01*
X17972D01*
Y142042D01*
X18014D01*
Y142085D01*
X18056D01*
Y142169D01*
X18099D01*
Y142211D01*
X18141D01*
Y142296D01*
X18183D01*
Y142338D01*
X18225D01*
Y142422D01*
X18268D01*
Y142465D01*
X18310D01*
Y142549D01*
X18352D01*
Y142592D01*
X18394D01*
Y142676D01*
X18437D01*
Y142718D01*
X18479D01*
Y142803D01*
X18521D01*
Y142845D01*
X18563D01*
Y142930D01*
X18606D01*
Y142972D01*
X18648D01*
Y143056D01*
X18690D01*
Y143099D01*
X18775D01*
Y143141D01*
X18817D01*
Y143183D01*
X18901D01*
Y143225D01*
X19028D01*
Y143268D01*
X19366D01*
Y143225D01*
D02*
G37*
%LPC*%
G36*
X9690Y135239D02*
X9648D01*
Y135197D01*
X9690D01*
Y135239D01*
D02*
G37*
G36*
X10366Y134732D02*
X10324D01*
Y134690D01*
X10366D01*
Y134732D01*
D02*
G37*
G36*
X9944Y134648D02*
X9901D01*
Y134606D01*
X9944D01*
Y134648D01*
D02*
G37*
G36*
X7408Y134521D02*
X7366D01*
Y134479D01*
X7408D01*
Y134521D01*
D02*
G37*
G36*
X8127Y134352D02*
X8084D01*
Y134310D01*
X8127D01*
Y134352D01*
D02*
G37*
G36*
X7282D02*
X7239D01*
Y134310D01*
X7282D01*
Y134352D01*
D02*
G37*
G36*
X10324Y135451D02*
X10282D01*
Y135408D01*
X10324D01*
Y135451D01*
D02*
G37*
G36*
X11000Y138239D02*
X10958D01*
Y138197D01*
X11000D01*
Y138239D01*
D02*
G37*
G36*
X8253Y140268D02*
X8211D01*
Y140225D01*
X8253D01*
Y140268D01*
D02*
G37*
G36*
X21775Y137563D02*
X21732D01*
Y137521D01*
X21775D01*
Y137479D01*
X21817D01*
Y137521D01*
X21775Y137563D01*
D02*
G37*
G36*
X20972Y137437D02*
X20930D01*
Y137394D01*
X20972D01*
Y137437D01*
D02*
G37*
G36*
X22789Y137352D02*
X22747D01*
Y137310D01*
X22789D01*
Y137352D01*
D02*
G37*
G36*
X20972D02*
X20930D01*
Y137310D01*
X20972D01*
Y137352D01*
D02*
G37*
G36*
X20592Y136930D02*
X20549D01*
Y136887D01*
X20592D01*
Y136930D01*
D02*
G37*
G36*
X18606Y142085D02*
X18563D01*
Y142042D01*
X18606D01*
Y142085D01*
D02*
G37*
G36*
X18986Y141873D02*
X18944D01*
Y141831D01*
X18986D01*
Y141873D01*
D02*
G37*
G36*
X18521Y141789D02*
X18479D01*
Y141746D01*
X18521D01*
Y141789D01*
D02*
G37*
G36*
X18225Y141408D02*
X18183D01*
Y141366D01*
X18225D01*
Y141408D01*
D02*
G37*
G36*
X17211Y140014D02*
X17169D01*
Y139972D01*
X17211D01*
Y140014D01*
D02*
G37*
G36*
X19155Y142296D02*
X19113D01*
Y142253D01*
X19155D01*
Y142296D01*
D02*
G37*
%LPD*%
D12*
X28784Y128752D02*
X64217D01*
X25831Y131705D02*
X28784Y128752D01*
X64217D02*
X67169Y131705D01*
Y157295D01*
X25831Y131705D02*
Y157295D01*
D53*
X59501Y20999D02*
X61500D01*
Y18000D01*
X59501D01*
X61500Y19499D02*
X60500D01*
X58501Y18000D02*
X57501D01*
X58001D01*
Y20999D01*
X58501Y20499D01*
X56002D02*
X55502Y20999D01*
X54502D01*
X54002Y20499D01*
Y19999D01*
X54502Y19499D01*
X54002Y19000D01*
Y18500D01*
X54502Y18000D01*
X55502D01*
X56002Y18500D01*
Y19000D01*
X55502Y19499D01*
X56002Y19999D01*
Y20499D01*
X55502Y19499D02*
X54502D01*
X53003Y18000D02*
X52003D01*
X52503D01*
Y20999D01*
X53003Y20499D01*
X50504Y18000D02*
X49504D01*
X50004D01*
Y20999D01*
X50504Y20499D01*
X46005D02*
X46505Y20999D01*
X47504D01*
X48004Y20499D01*
Y19999D01*
X47504Y19499D01*
X46505D01*
X46005Y19000D01*
Y18500D01*
X46505Y18000D01*
X47504D01*
X48004Y18500D01*
X43006Y20999D02*
X45005D01*
Y18000D01*
X43006D01*
X45005Y19499D02*
X44006D01*
X42006Y18000D02*
Y20999D01*
X40007Y18000D01*
Y20999D01*
X37008Y20499D02*
X37508Y20999D01*
X38507D01*
X39007Y20499D01*
Y19999D01*
X38507Y19499D01*
X37508D01*
X37008Y19000D01*
Y18500D01*
X37508Y18000D01*
X38507D01*
X39007Y18500D01*
X34009Y20999D02*
X36008D01*
Y18000D01*
X34009D01*
X36008Y19499D02*
X35009D01*
X33009Y17500D02*
X31010D01*
X30010Y18000D02*
X29010D01*
X29510D01*
Y20999D01*
X30010Y20499D01*
M02*
