G04*
G04 #@! TF.GenerationSoftware,Altium Limited,Altium Designer,21.7.2 (23)*
G04*
G04 Layer_Physical_Order=1*
G04 Layer_Color=255*
%FSLAX25Y25*%
%MOIN*%
G70*
G04*
G04 #@! TF.SameCoordinates,D0A3D993-BCFD-4162-BC10-8A45587FADB4*
G04*
G04*
G04 #@! TF.FilePolarity,Positive*
G04*
G01*
G75*
%ADD14R,0.02756X0.02362*%
%ADD15R,0.02362X0.02756*%
%ADD16R,0.03150X0.03937*%
%ADD17R,0.03937X0.03150*%
G04:AMPARAMS|DCode=18|XSize=9.84mil|YSize=27.56mil|CornerRadius=0.49mil|HoleSize=0mil|Usage=FLASHONLY|Rotation=90.000|XOffset=0mil|YOffset=0mil|HoleType=Round|Shape=RoundedRectangle|*
%AMROUNDEDRECTD18*
21,1,0.00984,0.02657,0,0,90.0*
21,1,0.00886,0.02756,0,0,90.0*
1,1,0.00098,0.01329,0.00443*
1,1,0.00098,0.01329,-0.00443*
1,1,0.00098,-0.01329,-0.00443*
1,1,0.00098,-0.01329,0.00443*
%
%ADD18ROUNDEDRECTD18*%
G04:AMPARAMS|DCode=19|XSize=9.84mil|YSize=27.56mil|CornerRadius=0.49mil|HoleSize=0mil|Usage=FLASHONLY|Rotation=180.000|XOffset=0mil|YOffset=0mil|HoleType=Round|Shape=RoundedRectangle|*
%AMROUNDEDRECTD19*
21,1,0.00984,0.02657,0,0,180.0*
21,1,0.00886,0.02756,0,0,180.0*
1,1,0.00098,-0.00443,0.01329*
1,1,0.00098,0.00443,0.01329*
1,1,0.00098,0.00443,-0.01329*
1,1,0.00098,-0.00443,-0.01329*
%
%ADD19ROUNDEDRECTD19*%
G04:AMPARAMS|DCode=20|XSize=135.83mil|YSize=135.83mil|CornerRadius=6.79mil|HoleSize=0mil|Usage=FLASHONLY|Rotation=180.000|XOffset=0mil|YOffset=0mil|HoleType=Round|Shape=RoundedRectangle|*
%AMROUNDEDRECTD20*
21,1,0.13583,0.12224,0,0,180.0*
21,1,0.12224,0.13583,0,0,180.0*
1,1,0.01358,-0.06112,0.06112*
1,1,0.01358,0.06112,0.06112*
1,1,0.01358,0.06112,-0.06112*
1,1,0.01358,-0.06112,-0.06112*
%
%ADD20ROUNDEDRECTD20*%
%ADD21R,0.02362X0.05906*%
%ADD22R,0.01181X0.05906*%
G04:AMPARAMS|DCode=23|XSize=35.43mil|YSize=31.5mil|CornerRadius=1.58mil|HoleSize=0mil|Usage=FLASHONLY|Rotation=180.000|XOffset=0mil|YOffset=0mil|HoleType=Round|Shape=RoundedRectangle|*
%AMROUNDEDRECTD23*
21,1,0.03543,0.02835,0,0,180.0*
21,1,0.03228,0.03150,0,0,180.0*
1,1,0.00315,-0.01614,0.01417*
1,1,0.00315,0.01614,0.01417*
1,1,0.00315,0.01614,-0.01417*
1,1,0.00315,-0.01614,-0.01417*
%
%ADD23ROUNDEDRECTD23*%
%ADD24R,0.02362X0.04724*%
%ADD25R,0.04134X0.02559*%
%ADD26R,0.04134X0.02362*%
%ADD45R,0.19291X0.03543*%
%ADD46R,0.01968X0.19685*%
%ADD47R,0.19291X0.01968*%
%ADD48R,0.10394X0.01968*%
%ADD49R,0.01968X0.07874*%
%ADD50R,0.01968X0.10630*%
%ADD51R,0.15512X0.01968*%
%ADD52C,0.01500*%
%ADD53C,0.00500*%
%ADD54C,0.01000*%
%ADD55O,0.19685X0.07874*%
%ADD56C,0.02362*%
%ADD57O,0.03937X0.08661*%
%ADD58O,0.03937X0.07480*%
%ADD59C,0.02000*%
%ADD60C,0.02559*%
G36*
X20142Y160000D02*
X23000Y160000D01*
X69858Y160000D01*
X69858Y160000D01*
X69858Y160000D01*
X70738Y159913D01*
X72471Y159567D01*
X74163Y159053D01*
X75796Y158375D01*
X77355Y157541D01*
X78825Y156558D01*
X80190Y155435D01*
X81440Y154184D01*
X82000Y153500D01*
X85000Y150000D01*
X85000Y150000D01*
X85357Y149557D01*
X85981Y148606D01*
X86509Y147599D01*
X86935Y146544D01*
X87256Y145453D01*
X87468Y144336D01*
X87570Y143203D01*
X87561Y142066D01*
X87500Y141500D01*
X87500Y140500D01*
X87500Y113785D01*
X87000Y113578D01*
X86818Y113760D01*
X86274Y113985D01*
X84808Y115451D01*
Y115809D01*
X84784Y115932D01*
Y117921D01*
X83359D01*
Y121031D01*
X84028D01*
Y125969D01*
X83359D01*
Y129532D01*
X84028D01*
Y134468D01*
X79878D01*
Y129532D01*
X80810D01*
Y125969D01*
X79878D01*
Y121031D01*
X80810D01*
Y117921D01*
X79650D01*
Y114559D01*
X82331D01*
X82356Y114436D01*
X82632Y114022D01*
X84471Y112183D01*
X84694Y111645D01*
Y110441D01*
X79650D01*
Y109774D01*
X79000D01*
X78729Y109721D01*
X78480Y109873D01*
X78308Y110041D01*
X78275Y110101D01*
Y114000D01*
X78177Y114488D01*
X77901Y114901D01*
X75888Y116914D01*
X75474Y117191D01*
X74987Y117288D01*
X74350D01*
Y117921D01*
X69217D01*
Y117395D01*
X66150D01*
Y117878D01*
X62787D01*
X62787Y114648D01*
X62420Y114302D01*
X62213Y114357D01*
Y114438D01*
X62213Y114483D01*
Y117878D01*
X58850D01*
Y117274D01*
X57275D01*
Y124467D01*
X57478Y124680D01*
X58075Y124635D01*
X58099Y124599D01*
X58507Y124326D01*
X60234Y122599D01*
X60648Y122322D01*
X61135Y122225D01*
X76047D01*
X76535Y122322D01*
X76948Y122599D01*
X77225Y123012D01*
X77322Y123500D01*
X77225Y123988D01*
X76948Y124401D01*
X76535Y124678D01*
X76047Y124775D01*
X61663D01*
X60324Y126114D01*
Y133032D01*
X60373Y133280D01*
X60276Y133767D01*
X60000Y134181D01*
X59586Y134457D01*
X59098Y134554D01*
X58611Y134457D01*
X58197Y134181D01*
X58148Y134132D01*
X58130Y134104D01*
X57630Y134256D01*
Y136520D01*
X58252D01*
X58870Y136776D01*
X59342Y137249D01*
X59598Y137866D01*
Y138535D01*
X59342Y139153D01*
X58870Y139626D01*
X58252Y139882D01*
X57583D01*
X56965Y139626D01*
X56492Y139153D01*
X56236Y138535D01*
Y137866D01*
X56492Y137249D01*
X56508Y137232D01*
X56301Y136732D01*
X52265D01*
Y141683D01*
X53785Y143204D01*
X56706D01*
X56728Y143150D01*
X57150Y142728D01*
X57702Y142500D01*
X58298D01*
X58850Y142728D01*
X59272Y143150D01*
X59294Y143204D01*
X70622D01*
Y142287D01*
X74378D01*
Y145650D01*
X70622D01*
Y144733D01*
X59320D01*
X59272Y144850D01*
X58850Y145272D01*
X58298Y145500D01*
X57702D01*
X57150Y145272D01*
X56728Y144850D01*
X56680Y144733D01*
X53469D01*
X53176Y144675D01*
X52928Y144509D01*
X50959Y142541D01*
X50793Y142293D01*
X50735Y142000D01*
Y141539D01*
X50235Y141319D01*
X49798Y141500D01*
X49202D01*
X48650Y141272D01*
X48228Y140850D01*
X48000Y140298D01*
Y139702D01*
X48228Y139150D01*
X48650Y138728D01*
X48712Y138703D01*
Y137252D01*
X48212Y137203D01*
X48191Y137308D01*
X48025Y137557D01*
X47541Y138041D01*
X47293Y138207D01*
X47000Y138265D01*
X44537D01*
X44403Y138595D01*
X44386Y138765D01*
X44772Y139150D01*
X45000Y139702D01*
Y140298D01*
X44772Y140850D01*
X44350Y141272D01*
X43798Y141500D01*
X43202D01*
X42650Y141272D01*
X42228Y140850D01*
X42000Y140298D01*
Y139702D01*
X42228Y139150D01*
X42650Y138728D01*
X42783Y138674D01*
Y136732D01*
X40375D01*
Y145293D01*
X42317Y147235D01*
X44193D01*
X44228Y147150D01*
X44650Y146728D01*
X45202Y146500D01*
X45798D01*
X46350Y146728D01*
X46772Y147150D01*
X46807Y147235D01*
X71000D01*
X71293Y147293D01*
X71541Y147459D01*
X73041Y148959D01*
X73207Y149207D01*
X73265Y149500D01*
Y149850D01*
X74378D01*
Y153213D01*
X70622D01*
Y149850D01*
X71062D01*
X71269Y149350D01*
X70683Y148765D01*
X65463D01*
X65339Y149265D01*
X65853Y150033D01*
X66044Y150996D01*
Y154539D01*
X65853Y155502D01*
X65307Y156319D01*
X64491Y156865D01*
X63528Y157056D01*
X62564Y156865D01*
X61748Y156319D01*
X61202Y155502D01*
X61011Y154539D01*
Y150996D01*
X61202Y150033D01*
X61716Y149265D01*
X61592Y148765D01*
X46807D01*
X46772Y148850D01*
X46350Y149272D01*
X45798Y149500D01*
X45202D01*
X44650Y149272D01*
X44228Y148850D01*
X44193Y148765D01*
X42000D01*
X41707Y148706D01*
X41459Y148541D01*
X39070Y146151D01*
X38904Y145903D01*
X38846Y145610D01*
Y136732D01*
X36699D01*
X36492Y137232D01*
X36508Y137249D01*
X36764Y137866D01*
Y138535D01*
X36508Y139153D01*
X36035Y139626D01*
X35417Y139882D01*
X34748D01*
X34130Y139626D01*
X33658Y139153D01*
X33402Y138535D01*
Y137866D01*
X33658Y137249D01*
X34130Y136776D01*
X34748Y136520D01*
X35370D01*
Y134256D01*
X34870Y134104D01*
X34852Y134132D01*
X34803Y134181D01*
X34389Y134457D01*
X33902Y134554D01*
X33414Y134457D01*
X33000Y134181D01*
X32724Y133767D01*
X32627Y133280D01*
X32676Y133032D01*
Y125549D01*
X32773Y125062D01*
X33050Y124648D01*
X33099Y124599D01*
X33512Y124322D01*
X34000Y124225D01*
X34488Y124322D01*
X34901Y124599D01*
X35091Y124883D01*
X35552Y124896D01*
X35638Y124869D01*
X35728Y124650D01*
X36150Y124228D01*
X36702Y124000D01*
X37298D01*
X37850Y124228D01*
X38272Y124650D01*
X38500Y125202D01*
Y125798D01*
X38274Y126343D01*
Y129827D01*
X42783D01*
Y123864D01*
X40719Y121801D01*
X40553Y121553D01*
X40495Y121260D01*
Y119890D01*
X39579D01*
Y114165D01*
X42941D01*
Y114165D01*
X43319D01*
Y114165D01*
X43980D01*
Y113086D01*
X44058Y112696D01*
X44279Y112365D01*
X44865Y111779D01*
X45196Y111558D01*
X45586Y111480D01*
X51776D01*
X52012Y111322D01*
X52500Y111225D01*
X52988Y111322D01*
X53401Y111599D01*
X55795Y113993D01*
X56257Y113801D01*
Y104378D01*
X55850D01*
Y100622D01*
X59213D01*
Y104378D01*
X58806D01*
Y113640D01*
X58850Y114122D01*
X61757D01*
X61761Y114122D01*
X61761Y114122D01*
X61876Y114122D01*
X61876Y114122D01*
X61949Y113730D01*
X61626Y113398D01*
X60750Y112522D01*
X60474Y112109D01*
X60377Y111621D01*
Y109537D01*
X60322Y109456D01*
X60225Y108968D01*
Y105750D01*
Y102658D01*
X60194Y102500D01*
X60291Y102012D01*
X60567Y101599D01*
X60981Y101322D01*
X61468Y101225D01*
X61956Y101322D01*
X62370Y101599D01*
X62401Y101630D01*
X62678Y102044D01*
X62774Y102532D01*
Y105750D01*
Y108551D01*
X62829Y108632D01*
X62926Y109120D01*
Y111093D01*
X63058Y111225D01*
X63431D01*
X63787Y110878D01*
X63787Y110725D01*
Y107122D01*
X64194D01*
Y102747D01*
X64291Y102259D01*
X64567Y101846D01*
X64773Y101640D01*
Y97969D01*
X63972D01*
Y93032D01*
X68122D01*
Y97969D01*
X67322D01*
Y102168D01*
X67225Y102656D01*
X66948Y103069D01*
X66743Y103275D01*
Y107122D01*
X67150D01*
Y107605D01*
X69217D01*
Y107079D01*
X74350D01*
Y107485D01*
X75476D01*
X75683Y106985D01*
X74567Y105870D01*
X74291Y105456D01*
X74194Y104969D01*
Y103878D01*
X73787D01*
Y100122D01*
X77150D01*
Y103878D01*
X76743D01*
Y104441D01*
X79217Y106915D01*
X79650Y107079D01*
X79650Y107079D01*
Y107079D01*
X79650Y107079D01*
X84694D01*
Y103878D01*
X84287D01*
Y100122D01*
X84694D01*
Y96628D01*
X84287D01*
Y92872D01*
X84694D01*
Y89378D01*
X84287D01*
Y86000D01*
X84287Y85622D01*
X83838Y85500D01*
X83702D01*
X83150Y85272D01*
X82728Y84850D01*
X82500Y84298D01*
Y83702D01*
X82726Y83157D01*
Y82150D01*
X82122D01*
Y78787D01*
X85878D01*
Y82150D01*
X85274D01*
Y83157D01*
X85500Y83702D01*
Y84298D01*
X85272Y84850D01*
X84999Y85122D01*
X85206Y85622D01*
X87500D01*
X87500Y73751D01*
X87000Y73417D01*
X86798Y73500D01*
X86202D01*
X85650Y73272D01*
X85228Y72850D01*
X85000Y72298D01*
Y71702D01*
X85035Y71617D01*
X83142Y69724D01*
X83113Y69681D01*
X82195Y68762D01*
X81998D01*
X81930Y68734D01*
X81430Y69068D01*
Y69849D01*
X82117Y70535D01*
X82202Y70500D01*
X82798D01*
X83350Y70728D01*
X83772Y71150D01*
X84000Y71702D01*
Y72298D01*
X83772Y72850D01*
X83350Y73272D01*
X82798Y73500D01*
X82757D01*
X82550Y74000D01*
X83400Y74850D01*
X85878D01*
Y78213D01*
X82122D01*
Y75735D01*
X77963Y71576D01*
X77798Y71328D01*
X77300Y71391D01*
Y74850D01*
X78878D01*
Y78213D01*
X75332D01*
Y78787D01*
X78878D01*
Y82150D01*
X78275D01*
Y83157D01*
X78500Y83702D01*
Y84298D01*
X78272Y84850D01*
X77850Y85272D01*
X77298Y85500D01*
X76702D01*
X76150Y85272D01*
X75728Y84850D01*
X75500Y84298D01*
Y83702D01*
X75726Y83157D01*
Y82377D01*
X75523Y82307D01*
X75226Y82293D01*
X75108Y82470D01*
X70426Y87151D01*
Y89772D01*
X70375Y90028D01*
X70230Y90246D01*
X70012Y90391D01*
X69756Y90442D01*
X66939D01*
X65340Y92041D01*
X65092Y92207D01*
X64799Y92265D01*
X59317D01*
X53541Y98041D01*
X53293Y98207D01*
X53000Y98265D01*
X46150D01*
Y99378D01*
X42787D01*
Y95622D01*
X46150D01*
Y96735D01*
X52683D01*
X56668Y92751D01*
X56562Y92452D01*
X56447Y92264D01*
X56012Y92177D01*
X55599Y91901D01*
X55322Y91488D01*
X55225Y91000D01*
X55322Y90512D01*
X55599Y90099D01*
X58099Y87599D01*
X58512Y87322D01*
X59000Y87226D01*
X60298D01*
X60370Y87177D01*
X60858Y87080D01*
X61346Y87177D01*
X61760Y87453D01*
X62036Y87867D01*
X62133Y88354D01*
X62036Y88842D01*
X61760Y89255D01*
X61614Y89401D01*
X61200Y89678D01*
X60713Y89775D01*
X59528D01*
X59067Y90235D01*
X59274Y90735D01*
X64482D01*
X65857Y89361D01*
Y86937D01*
X65908Y86681D01*
X66053Y86463D01*
X66271Y86318D01*
X66528Y86267D01*
X69148D01*
X73802Y81612D01*
Y75582D01*
X73302Y75550D01*
X73228Y76111D01*
X72781Y77190D01*
X72070Y78117D01*
X71143Y78829D01*
X70064Y79276D01*
X68906Y79428D01*
X57095D01*
X55936Y79276D01*
X54857Y78829D01*
X53930Y78117D01*
X53219Y77190D01*
X52830Y76251D01*
X46150D01*
Y76878D01*
X45743D01*
Y81622D01*
X46150D01*
Y85378D01*
X42787D01*
Y81622D01*
X43194D01*
Y76878D01*
X42787D01*
Y73122D01*
X46150D01*
Y73702D01*
X52810D01*
X53219Y72715D01*
X53930Y71788D01*
X54612Y71265D01*
X54443Y70765D01*
X53807D01*
X53772Y70850D01*
X53350Y71272D01*
X52798Y71500D01*
X52202D01*
X51650Y71272D01*
X51228Y70850D01*
X51000Y70298D01*
Y69702D01*
X51228Y69150D01*
X51650Y68728D01*
X52202Y68500D01*
X52798D01*
X53350Y68728D01*
X53772Y69150D01*
X53807Y69235D01*
X68155D01*
X68218Y68762D01*
X67798Y68588D01*
X67624Y68167D01*
Y68113D01*
X58504D01*
X57960Y68339D01*
X57363D01*
X56812Y68110D01*
X56390Y67688D01*
X56161Y67137D01*
Y66540D01*
X56390Y65989D01*
X56580Y65799D01*
X56372Y65299D01*
X49378D01*
Y67150D01*
X45622D01*
Y66504D01*
X41150D01*
Y67378D01*
X37787D01*
Y63622D01*
X41150D01*
Y64465D01*
X45622D01*
Y63787D01*
X47936D01*
X48165Y63559D01*
X48496Y63337D01*
X48886Y63260D01*
X63848D01*
X64182Y62760D01*
X64179Y62754D01*
Y61868D01*
X64182Y61862D01*
X63848Y61362D01*
X56343D01*
X55952Y61285D01*
X55622Y61063D01*
X49578Y55020D01*
X47150D01*
Y55878D01*
X43787D01*
Y52122D01*
X44449D01*
Y47878D01*
X43787D01*
Y44122D01*
X47139D01*
Y39817D01*
X44820Y37497D01*
X32736D01*
Y38512D01*
X27602D01*
Y37752D01*
X16398D01*
Y38512D01*
X11264D01*
Y37870D01*
X6878D01*
Y38650D01*
X6035D01*
Y44122D01*
X6713D01*
Y47878D01*
X3350D01*
Y44122D01*
X3996D01*
Y38650D01*
X3122D01*
Y35287D01*
X6878D01*
Y35831D01*
X11264D01*
Y34953D01*
X16398D01*
Y35713D01*
X27602D01*
Y34953D01*
X32736D01*
Y35968D01*
X45136D01*
X45429Y36026D01*
X45677Y36192D01*
X48235Y38750D01*
X48735Y38543D01*
Y8317D01*
X47969Y7550D01*
X47469Y7757D01*
Y8622D01*
X42531D01*
Y4472D01*
X47469D01*
Y5782D01*
X48047D01*
X48340Y5841D01*
X48588Y6007D01*
X49969Y7388D01*
X50150Y7449D01*
X50607Y7406D01*
X52007Y6007D01*
X52255Y5841D01*
X52531Y5786D01*
Y4472D01*
X57468D01*
Y8622D01*
X52531D01*
Y8411D01*
X52068Y8209D01*
X51765Y8455D01*
Y44683D01*
X54258Y47176D01*
X67624D01*
Y46612D01*
X67798Y46192D01*
X68218Y46018D01*
X69104D01*
X69269Y46086D01*
X69646Y46166D01*
X70022Y46086D01*
X70187Y46018D01*
X71073D01*
X71238Y46086D01*
X71361Y46112D01*
X71834Y45879D01*
Y43902D01*
X71892Y43609D01*
X72058Y43361D01*
X74459Y40959D01*
X74707Y40793D01*
X75000Y40735D01*
X75000Y40735D01*
X82735D01*
Y15317D01*
X70183Y2765D01*
X42317D01*
X40765Y4317D01*
Y5193D01*
X40850Y5228D01*
X41272Y5650D01*
X41500Y6202D01*
Y6798D01*
X41272Y7350D01*
X40850Y7772D01*
X40298Y8000D01*
X39702D01*
X39214Y7798D01*
X36968D01*
Y8622D01*
X32032D01*
Y4472D01*
X36968D01*
Y5249D01*
X39130D01*
X39150Y5228D01*
X39235Y5193D01*
Y4000D01*
X39294Y3707D01*
X39459Y3459D01*
X40457Y2462D01*
X40265Y2000D01*
X24142D01*
X24142Y2000D01*
X23126Y1996D01*
X21104Y2188D01*
X19110Y2576D01*
X17164Y3159D01*
X15284Y3929D01*
X13489Y4880D01*
X11796Y6002D01*
X10221Y7284D01*
X9500Y8000D01*
X5000Y13000D01*
X5000D01*
X4601Y13460D01*
X3896Y14453D01*
X3293Y15511D01*
X2796Y16623D01*
X2411Y17779D01*
X2141Y18967D01*
X1989Y20175D01*
X1956Y21393D01*
X2000Y22000D01*
X2000Y50500D01*
X2000Y50500D01*
X2038Y50985D01*
X2115Y51375D01*
X2341Y51921D01*
X2670Y52413D01*
X3087Y52830D01*
X3579Y53159D01*
X4125Y53385D01*
X4704Y53500D01*
X5000Y53500D01*
X19726Y53500D01*
X19823Y53012D01*
X20099Y52599D01*
X20512Y52323D01*
X21000Y52226D01*
X21135D01*
X21623Y52323D01*
X22037Y52599D01*
X22163Y52725D01*
X26726D01*
Y49374D01*
X24646Y47295D01*
X24370Y46881D01*
X24273Y46394D01*
Y46000D01*
X24370Y45512D01*
X24646Y45099D01*
X25060Y44822D01*
X25547Y44725D01*
X26035Y44822D01*
X26449Y45099D01*
X26725Y45512D01*
X26788Y45832D01*
X28878Y47922D01*
X28977Y47916D01*
X29378Y47759D01*
Y45713D01*
X29333Y45683D01*
X26425Y42775D01*
X13996D01*
X10650Y46121D01*
Y47878D01*
X7287D01*
Y44122D01*
X9044D01*
X12567Y40599D01*
X12981Y40323D01*
X13468Y40225D01*
X26953D01*
X27441Y40323D01*
X27854Y40599D01*
X30787Y43532D01*
X33528D01*
Y48469D01*
X32985D01*
Y52122D01*
X33650D01*
Y52725D01*
X36157D01*
X36702Y52500D01*
X37298D01*
X37843Y52725D01*
X39850D01*
Y52122D01*
X43213D01*
Y55878D01*
X39850D01*
Y55274D01*
X37843D01*
X37298Y55500D01*
X36702D01*
X36157Y55274D01*
X33650D01*
Y55878D01*
X30287D01*
Y52122D01*
X30436D01*
Y48469D01*
X29709D01*
X29297Y48827D01*
X29274Y48926D01*
Y53842D01*
X29306Y54000D01*
X29290Y54079D01*
Y61516D01*
X29193Y62003D01*
X28917Y62417D01*
X28901Y62433D01*
X28488Y62709D01*
X28000Y62806D01*
X27921Y62790D01*
X24965D01*
X24758Y63290D01*
X25079Y63611D01*
X25415Y64423D01*
X26122D01*
Y63787D01*
X29878D01*
Y64465D01*
X33850D01*
Y63622D01*
X37213D01*
Y67378D01*
X33850D01*
Y66504D01*
X29878D01*
Y67150D01*
X26122D01*
Y66462D01*
X25537D01*
X25500Y66500D01*
X25500Y66500D01*
X25500Y66500D01*
X25471Y66793D01*
X25403Y66956D01*
X25247Y67334D01*
X24833Y67747D01*
X24293Y67971D01*
X24000Y68000D01*
X23702Y68000D01*
X23150Y68228D01*
X22728Y68650D01*
X22500Y69202D01*
X22500Y69500D01*
Y115000D01*
X2500D01*
Y138500D01*
X2500Y138500D01*
X2500Y138500D01*
X2585Y139645D01*
X2977Y141906D01*
X3587Y144119D01*
X4409Y146262D01*
X5436Y148315D01*
X6657Y150259D01*
X8061Y152074D01*
X9635Y153745D01*
X10500Y154500D01*
X14000Y158000D01*
X14000Y158000D01*
X14000Y158000D01*
X14632Y158540D01*
X16082Y159353D01*
X17662Y159868D01*
X19313Y160065D01*
X20142Y160000D01*
D02*
G37*
G36*
X54700Y126281D02*
X54500Y125798D01*
Y125202D01*
X54725Y124657D01*
Y116528D01*
X51717Y113520D01*
X46020D01*
Y114165D01*
X46681D01*
Y114165D01*
X47059D01*
Y114165D01*
X50421D01*
Y119890D01*
X49505D01*
Y120760D01*
X49447Y121053D01*
X49281Y121301D01*
X46280Y124301D01*
Y126592D01*
X48856D01*
X49149Y126650D01*
X49397Y126816D01*
X49994Y127412D01*
X50159Y127660D01*
X50217Y127953D01*
Y129827D01*
X54700D01*
Y126281D01*
D02*
G37*
G36*
X87500Y70249D02*
X87500Y21142D01*
X87500Y21142D01*
X87529Y20484D01*
X87459Y19169D01*
X87260Y17868D01*
X86934Y16592D01*
X86484Y15354D01*
X85916Y14166D01*
X85234Y13040D01*
X84444Y11986D01*
X84000Y11500D01*
X79000Y6500D01*
X78547Y6000D01*
X77548Y5093D01*
X76464Y4288D01*
X75307Y3594D01*
X74088Y3016D01*
X72817Y2561D01*
X72573Y2992D01*
X84041Y14459D01*
X84041Y14459D01*
X84206Y14707D01*
X84265Y15000D01*
X84265Y15000D01*
Y41183D01*
X85541Y42459D01*
X85707Y42707D01*
X85765Y43000D01*
Y49463D01*
X86329D01*
X86749Y49637D01*
X86923Y50057D01*
Y50943D01*
X86855Y51108D01*
X86775Y51484D01*
X86855Y51861D01*
X86923Y52026D01*
Y52911D01*
X86855Y53076D01*
X86775Y53453D01*
X86855Y53829D01*
X86923Y53994D01*
Y54880D01*
X86855Y55045D01*
X86775Y55421D01*
X86855Y55798D01*
X86923Y55963D01*
Y56848D01*
X86855Y57013D01*
X86775Y57390D01*
X86855Y57766D01*
X86923Y57931D01*
Y58817D01*
X86855Y58982D01*
X86775Y59358D01*
X86855Y59735D01*
X86923Y59900D01*
Y60785D01*
X86749Y61206D01*
X86749Y61448D01*
X86923Y61868D01*
Y62754D01*
X86855Y62919D01*
X86775Y63295D01*
X86855Y63672D01*
X86923Y63837D01*
Y64722D01*
X86749Y65143D01*
X86329Y65317D01*
X83940D01*
X83614Y65453D01*
X83478Y65778D01*
Y67883D01*
X84224Y68628D01*
X84252Y68671D01*
X86117Y70535D01*
X86202Y70500D01*
X86798D01*
X87000Y70583D01*
X87500Y70249D01*
D02*
G37*
G36*
X26741Y55274D02*
X21635D01*
X21500Y55248D01*
X21000Y55634D01*
Y59747D01*
X21401Y60000D01*
X21813Y60241D01*
X26741D01*
Y55274D01*
D02*
G37*
G36*
X70187Y64915D02*
X71073D01*
X71238Y64984D01*
X71614Y65064D01*
X71991Y64984D01*
X72155Y64915D01*
X73041D01*
X73206Y64984D01*
X73583Y65064D01*
X73959Y64984D01*
X74124Y64915D01*
X75010D01*
X75175Y64984D01*
X75551Y65064D01*
X75928Y64984D01*
X76092Y64915D01*
X76978D01*
X77143Y64984D01*
X77520Y65064D01*
X77896Y64984D01*
X78061Y64915D01*
X78947D01*
X79112Y64984D01*
X79488Y65064D01*
X79865Y64984D01*
X80029Y64915D01*
X80915D01*
X81080Y64984D01*
X81457Y65064D01*
X81833Y64984D01*
X81998Y64915D01*
X82616D01*
X82941Y64779D01*
X83077Y64454D01*
Y63837D01*
X83145Y63672D01*
X83225Y63295D01*
X83145Y62919D01*
X83077Y62754D01*
Y61868D01*
X83251Y61448D01*
X83251Y61206D01*
X83077Y60785D01*
Y59900D01*
X83145Y59735D01*
X83225Y59358D01*
X83145Y58982D01*
X83077Y58817D01*
Y57931D01*
X83145Y57766D01*
X83225Y57390D01*
X83145Y57013D01*
X83077Y56848D01*
Y55963D01*
X83145Y55798D01*
X83225Y55421D01*
X83145Y55045D01*
X83077Y54880D01*
Y53994D01*
X83145Y53829D01*
X83225Y53453D01*
X83145Y53076D01*
X83077Y52911D01*
Y52026D01*
X83145Y51861D01*
X83225Y51484D01*
X83145Y51108D01*
X83077Y50943D01*
Y50325D01*
X82941Y50000D01*
X82616Y49864D01*
X81998D01*
X81833Y49796D01*
X81457Y49716D01*
X81080Y49796D01*
X80915Y49864D01*
X80029D01*
X79865Y49796D01*
X79488Y49716D01*
X79112Y49796D01*
X78947Y49864D01*
X78061D01*
X77896Y49796D01*
X77520Y49716D01*
X77143Y49796D01*
X76978Y49864D01*
X76092D01*
X75928Y49796D01*
X75551Y49716D01*
X75175Y49796D01*
X75010Y49864D01*
X74124D01*
X73959Y49796D01*
X73583Y49716D01*
X73206Y49796D01*
X73041Y49864D01*
X72155D01*
X71991Y49796D01*
X71614Y49716D01*
X71238Y49796D01*
X71073Y49864D01*
X70187D01*
X70022Y49796D01*
X69646Y49716D01*
X69269Y49796D01*
X69104Y49864D01*
X68487D01*
X68162Y50000D01*
X68026Y50325D01*
Y50943D01*
X67957Y51108D01*
X67877Y51484D01*
X67957Y51861D01*
X68026Y52026D01*
Y52911D01*
X67957Y53076D01*
X67877Y53453D01*
X67957Y53829D01*
X68026Y53994D01*
Y54880D01*
X67957Y55045D01*
X67877Y55421D01*
X67957Y55798D01*
X68026Y55963D01*
Y56848D01*
X67957Y57013D01*
X67877Y57390D01*
X67957Y57766D01*
X68026Y57931D01*
Y58817D01*
X67852Y59237D01*
X67851Y59479D01*
X68026Y59900D01*
Y60785D01*
X67957Y60950D01*
X67877Y61327D01*
X67957Y61703D01*
X68026Y61868D01*
Y62754D01*
X67852Y63174D01*
X67851Y63416D01*
X68026Y63837D01*
Y64454D01*
X68162Y64779D01*
X68487Y64915D01*
X69104D01*
X69525Y65089D01*
X69767Y65089D01*
X70187Y64915D01*
D02*
G37*
G36*
X64182Y58823D02*
X64179Y58817D01*
Y57931D01*
X64353Y57511D01*
X64353Y57269D01*
X64179Y56848D01*
Y55963D01*
X64353Y55542D01*
X64353Y55300D01*
X64179Y54880D01*
Y53994D01*
X64287Y53733D01*
X64040Y53233D01*
X52873D01*
X52580Y53175D01*
X52332Y53009D01*
X47518Y48195D01*
X47150Y47878D01*
X46488D01*
Y52122D01*
X47150D01*
Y52980D01*
X50000D01*
X50390Y53058D01*
X50721Y53279D01*
X56765Y59323D01*
X63848D01*
X64182Y58823D01*
D02*
G37*
%LPC*%
G36*
X29472Y157056D02*
X28509Y156865D01*
X27693Y156319D01*
X27147Y155502D01*
X26956Y154539D01*
Y150996D01*
X27147Y150033D01*
X27693Y149216D01*
X28509Y148671D01*
X29472Y148479D01*
X30436Y148671D01*
X31252Y149216D01*
X31798Y150033D01*
X31989Y150996D01*
Y154539D01*
X31798Y155502D01*
X31252Y156319D01*
X30436Y156865D01*
X29472Y157056D01*
D02*
G37*
G36*
X75000Y156774D02*
X72531D01*
X72044Y156677D01*
X71630Y156401D01*
X71599Y156370D01*
X71323Y155956D01*
X71226Y155468D01*
X71323Y154981D01*
X71599Y154567D01*
X72012Y154291D01*
X72500Y154194D01*
X72658Y154226D01*
X74472D01*
X75726Y152972D01*
Y142528D01*
X74472Y141274D01*
X72658D01*
X72500Y141306D01*
X72012Y141209D01*
X71599Y140933D01*
X71323Y140519D01*
X71226Y140032D01*
Y135941D01*
X71323Y135453D01*
X71599Y135040D01*
X74806Y131833D01*
X74870Y131512D01*
X75146Y131099D01*
X75560Y130823D01*
X76047Y130726D01*
X76535Y130823D01*
X76948Y131099D01*
X77225Y131512D01*
X77322Y132000D01*
Y132394D01*
X77225Y132881D01*
X76948Y133295D01*
X73774Y136469D01*
Y138725D01*
X75000D01*
X75488Y138822D01*
X75901Y139099D01*
X77901Y141099D01*
X78177Y141512D01*
X78275Y142000D01*
Y153500D01*
X78177Y153988D01*
X77901Y154401D01*
X75901Y156401D01*
X75488Y156677D01*
X75000Y156774D01*
D02*
G37*
G36*
X63528Y141111D02*
X62564Y140920D01*
X61748Y140374D01*
X61202Y139558D01*
X61011Y138594D01*
Y133870D01*
X61202Y132907D01*
X61748Y132090D01*
X62564Y131545D01*
X63528Y131353D01*
X64491Y131545D01*
X65307Y132090D01*
X65853Y132907D01*
X66044Y133870D01*
Y138594D01*
X65853Y139558D01*
X65307Y140374D01*
X64491Y140920D01*
X63528Y141111D01*
D02*
G37*
G36*
X29472D02*
X28509Y140920D01*
X27693Y140374D01*
X27147Y139558D01*
X26956Y138594D01*
Y133870D01*
X27147Y132907D01*
X27693Y132090D01*
X28509Y131545D01*
X29472Y131353D01*
X30436Y131545D01*
X31252Y132090D01*
X31798Y132907D01*
X31989Y133870D01*
Y138594D01*
X31798Y139558D01*
X31252Y140374D01*
X30436Y140920D01*
X29472Y141111D01*
D02*
G37*
G36*
X42941Y110835D02*
X39579D01*
Y105110D01*
X40495D01*
Y104567D01*
X40410Y104532D01*
X39988Y104110D01*
X39760Y103558D01*
Y102962D01*
X39988Y102410D01*
X40410Y101988D01*
X40962Y101760D01*
X41558D01*
X42110Y101988D01*
X42531Y102410D01*
X42760Y102962D01*
Y103558D01*
X42531Y104110D01*
X42110Y104532D01*
X42024Y104567D01*
Y105110D01*
X42941D01*
Y110835D01*
D02*
G37*
G36*
X50421D02*
X47059D01*
Y105110D01*
X47976D01*
Y104547D01*
X47890Y104512D01*
X47469Y104090D01*
X47240Y103539D01*
Y102942D01*
X47469Y102391D01*
X47890Y101969D01*
X48442Y101740D01*
X49038D01*
X49590Y101969D01*
X50012Y102391D01*
X50240Y102942D01*
Y103539D01*
X50012Y104090D01*
X49590Y104512D01*
X49505Y104547D01*
Y105110D01*
X50421D01*
Y110835D01*
D02*
G37*
G36*
X45000Y109247D02*
X44512Y109150D01*
X44099Y108874D01*
X43823Y108460D01*
X43725Y107972D01*
Y103000D01*
X43823Y102512D01*
X44099Y102099D01*
X44512Y101822D01*
X45000Y101725D01*
X45488Y101822D01*
X45901Y102099D01*
X46178Y102512D01*
X46275Y103000D01*
Y107972D01*
X46178Y108460D01*
X45901Y108874D01*
X45488Y109150D01*
X45000Y109247D01*
D02*
G37*
G36*
X40532Y98774D02*
X40044Y98677D01*
X39630Y98401D01*
X39354Y97988D01*
X39257Y97500D01*
Y91774D01*
X31500D01*
X31012Y91677D01*
X30599Y91401D01*
X30323Y90988D01*
X30226Y90500D01*
X30323Y90012D01*
X30599Y89599D01*
X31012Y89323D01*
X31500Y89226D01*
X40532D01*
X41019Y89323D01*
X41433Y89599D01*
X41709Y90012D01*
X41806Y90500D01*
Y97500D01*
X41709Y97988D01*
X41433Y98401D01*
X41019Y98677D01*
X40532Y98774D01*
D02*
G37*
G36*
X71531Y103275D02*
X71044Y103177D01*
X70630Y102901D01*
X70354Y102488D01*
X70257Y102000D01*
X70354Y101512D01*
X70468Y101342D01*
Y98750D01*
Y95711D01*
X70565Y95223D01*
X70841Y94809D01*
X71426Y94224D01*
X71840Y93947D01*
X72328Y93850D01*
X80757D01*
Y87500D01*
X80854Y87012D01*
X81130Y86599D01*
X81544Y86322D01*
X82032Y86225D01*
X82519Y86322D01*
X82933Y86599D01*
X83209Y87012D01*
X83306Y87500D01*
Y94750D01*
X83209Y95238D01*
X82933Y95651D01*
X82558Y96026D01*
X82144Y96302D01*
X81656Y96399D01*
X73017D01*
Y98750D01*
Y101789D01*
X72920Y102277D01*
X72643Y102691D01*
X72433Y102901D01*
X72019Y103177D01*
X71531Y103275D01*
D02*
G37*
G36*
X42213Y85378D02*
X38850D01*
Y84775D01*
X35843D01*
X35298Y85000D01*
X34702D01*
X34150Y84772D01*
X33728Y84350D01*
X33500Y83798D01*
Y83202D01*
X33728Y82650D01*
X34150Y82228D01*
X34702Y82000D01*
X35298D01*
X35843Y82226D01*
X38850D01*
Y81622D01*
X42213D01*
Y85378D01*
D02*
G37*
G36*
X46150Y92378D02*
X42787D01*
Y88622D01*
X46150D01*
Y89735D01*
X50622D01*
Y88787D01*
X53057D01*
X53109Y88713D01*
X52850Y88213D01*
X50622D01*
Y84850D01*
X51735D01*
Y83307D01*
X51650Y83272D01*
X51228Y82850D01*
X51000Y82298D01*
Y81702D01*
X51228Y81150D01*
X51650Y80728D01*
X52202Y80500D01*
X52798D01*
X53350Y80728D01*
X53772Y81150D01*
X54000Y81702D01*
Y82298D01*
X53772Y82850D01*
X53350Y83272D01*
X53265Y83307D01*
Y84850D01*
X54378D01*
Y87194D01*
X54840Y87386D01*
X58574Y83652D01*
Y81228D01*
X58625Y80972D01*
X58770Y80754D01*
X58988Y80609D01*
X59244Y80558D01*
X62472D01*
X62729Y80609D01*
X62946Y80754D01*
X63092Y80972D01*
X63143Y81228D01*
Y84063D01*
X63092Y84320D01*
X62946Y84537D01*
X62729Y84682D01*
X62472Y84733D01*
X59655D01*
X54378Y90011D01*
Y92150D01*
X50622D01*
Y91265D01*
X46150D01*
Y92378D01*
D02*
G37*
G36*
X40532Y76275D02*
X32000D01*
X31512Y76178D01*
X31099Y75901D01*
X30823Y75488D01*
X30725Y75000D01*
X30823Y74512D01*
X31099Y74099D01*
X31512Y73822D01*
X32000Y73725D01*
X40532D01*
X41019Y73822D01*
X41433Y74099D01*
X41709Y74512D01*
X41806Y75000D01*
X41709Y75488D01*
X41433Y75901D01*
X41019Y76178D01*
X40532Y76275D01*
D02*
G37*
G36*
X47500Y62806D02*
X42531D01*
X42044Y62709D01*
X41630Y62433D01*
X40099Y60901D01*
X39823Y60488D01*
X39726Y60000D01*
X39823Y59512D01*
X40099Y59099D01*
X40512Y58823D01*
X41000Y58726D01*
X41488Y58823D01*
X41901Y59099D01*
X43059Y60257D01*
X47500D01*
X47988Y60354D01*
X48401Y60630D01*
X48678Y61044D01*
X48774Y61532D01*
X48678Y62019D01*
X48401Y62433D01*
X47988Y62709D01*
X47500Y62806D01*
D02*
G37*
G36*
X41532Y47275D02*
X37000D01*
X36512Y47177D01*
X36099Y46901D01*
X35822Y46488D01*
X35726Y46000D01*
X35822Y45512D01*
X36099Y45099D01*
X36512Y44822D01*
X37000Y44725D01*
X41532D01*
X42019Y44822D01*
X42433Y45099D01*
X42709Y45512D01*
X42806Y46000D01*
X42709Y46488D01*
X42433Y46901D01*
X42019Y47177D01*
X41532Y47275D01*
D02*
G37*
G36*
X44500Y29774D02*
X44012Y29678D01*
X43599Y29401D01*
X43323Y28988D01*
X43225Y28500D01*
Y23469D01*
X43323Y22981D01*
X43599Y22567D01*
X44012Y22291D01*
X44500Y22194D01*
X44988Y22291D01*
X45401Y22567D01*
X45678Y22981D01*
X45774Y23469D01*
Y28500D01*
X45678Y28988D01*
X45401Y29401D01*
X44988Y29678D01*
X44500Y29774D01*
D02*
G37*
G36*
X64000Y21274D02*
X58969D01*
X58481Y21178D01*
X58067Y20901D01*
X57791Y20488D01*
X57694Y20000D01*
X57791Y19512D01*
X58067Y19099D01*
X58481Y18823D01*
X58969Y18725D01*
X64000D01*
X64488Y18823D01*
X64901Y19099D01*
X65178Y19512D01*
X65275Y20000D01*
X65178Y20488D01*
X64901Y20901D01*
X64488Y21178D01*
X64000Y21274D01*
D02*
G37*
G36*
X8628Y34306D02*
X5000D01*
X4512Y34209D01*
X4099Y33933D01*
X3822Y33519D01*
X3726Y33031D01*
X3822Y32544D01*
X4099Y32130D01*
X4512Y31854D01*
X5000Y31757D01*
X8100D01*
X11284Y28573D01*
X11336Y28310D01*
X11613Y27896D01*
X12142Y27367D01*
X12556Y27090D01*
X13043Y26993D01*
X29076D01*
Y20181D01*
X29173Y19693D01*
X29449Y19280D01*
X29630Y19099D01*
X30044Y18823D01*
X30531Y18725D01*
X31019Y18823D01*
X31433Y19099D01*
X31709Y19512D01*
X31806Y20000D01*
X31709Y20488D01*
X31625Y20614D01*
Y26993D01*
X36268D01*
X36755Y27090D01*
X37169Y27367D01*
X37445Y27780D01*
X37542Y28268D01*
X37445Y28756D01*
X37169Y29169D01*
X36755Y29445D01*
X36268Y29542D01*
X13709D01*
X13691Y29633D01*
X13415Y30047D01*
X9529Y33933D01*
X9116Y34209D01*
X8628Y34306D01*
D02*
G37*
G36*
X56713Y21878D02*
X53350D01*
Y18122D01*
X54012D01*
Y14527D01*
X52531D01*
Y10378D01*
X57468D01*
Y14527D01*
X56051D01*
Y18122D01*
X56713D01*
Y21878D01*
D02*
G37*
G36*
X46378Y21213D02*
X42622D01*
Y17850D01*
X43480D01*
Y14527D01*
X42531D01*
Y10378D01*
X47469D01*
Y14527D01*
X45520D01*
Y17850D01*
X46378D01*
Y21213D01*
D02*
G37*
G36*
X36150Y21878D02*
X32787D01*
Y18122D01*
X33480D01*
Y14527D01*
X32032D01*
Y10378D01*
X36968D01*
Y14527D01*
X35520D01*
Y18122D01*
X36150D01*
Y21878D01*
D02*
G37*
G36*
X80000Y22541D02*
X74000D01*
X73816Y22465D01*
X73630Y22395D01*
X73626Y22386D01*
X73617Y22383D01*
X73541Y22199D01*
X73459Y22018D01*
X73434Y21259D01*
X73238Y19765D01*
X72850Y18317D01*
X72276Y16932D01*
X71527Y15634D01*
X70614Y14446D01*
X69555Y13386D01*
X68366Y12473D01*
X67068Y11724D01*
X65683Y11150D01*
X64235Y10763D01*
X62740Y10566D01*
X61982Y10541D01*
X61801Y10459D01*
X61617Y10383D01*
X61614Y10374D01*
X61605Y10370D01*
X61535Y10184D01*
X61459Y10000D01*
Y4000D01*
X61617Y3617D01*
X62000Y3459D01*
X63180D01*
X63214Y3473D01*
X63250Y3463D01*
X65590Y3771D01*
X65622Y3790D01*
X65659Y3785D01*
X67938Y4396D01*
X67968Y4419D01*
X68005D01*
X70185Y5322D01*
X70212Y5348D01*
X70249Y5353D01*
X72292Y6533D01*
X72315Y6562D01*
X72351Y6572D01*
X74223Y8009D01*
X74242Y8041D01*
X74276Y8055D01*
X75945Y9724D01*
X75959Y9758D01*
X75991Y9777D01*
X77428Y11649D01*
X77438Y11685D01*
X77467Y11708D01*
X78647Y13751D01*
X78652Y13788D01*
X78678Y13815D01*
X79581Y15995D01*
Y16032D01*
X79604Y16062D01*
X80215Y18341D01*
X80210Y18378D01*
X80229Y18410D01*
X80537Y20750D01*
X80527Y20786D01*
X80541Y20820D01*
Y22000D01*
X80383Y22383D01*
X80000Y22541D01*
D02*
G37*
G36*
X16000D02*
X10000D01*
X9617Y22383D01*
X9459Y22000D01*
Y20820D01*
X9473Y20786D01*
X9463Y20750D01*
X9771Y18410D01*
X9790Y18378D01*
X9785Y18341D01*
X10396Y16062D01*
X10419Y16032D01*
Y15995D01*
X11322Y13815D01*
X11348Y13788D01*
X11353Y13751D01*
X12533Y11708D01*
X12562Y11685D01*
X12572Y11649D01*
X14008Y9777D01*
X14041Y9758D01*
X14055Y9724D01*
X15724Y8055D01*
X15758Y8041D01*
X15777Y8009D01*
X17649Y6572D01*
X17685Y6562D01*
X17708Y6533D01*
X19751Y5353D01*
X19788Y5348D01*
X19815Y5322D01*
X21995Y4419D01*
X22032D01*
X22062Y4396D01*
X24341Y3785D01*
X24378Y3790D01*
X24410Y3771D01*
X26750Y3463D01*
X26786Y3473D01*
X26820Y3459D01*
X28000D01*
X28383Y3617D01*
X28541Y4000D01*
Y10000D01*
X28465Y10184D01*
X28395Y10370D01*
X28386Y10374D01*
X28383Y10383D01*
X28199Y10459D01*
X28018Y10541D01*
X27259Y10566D01*
X25765Y10763D01*
X24317Y11150D01*
X22932Y11724D01*
X21634Y12473D01*
X20446Y13386D01*
X19386Y14446D01*
X18473Y15634D01*
X17724Y16932D01*
X17150Y18317D01*
X16762Y19765D01*
X16566Y21259D01*
X16541Y22018D01*
X16459Y22199D01*
X16383Y22383D01*
X16374Y22386D01*
X16370Y22395D01*
X16184Y22465D01*
X16000Y22541D01*
D02*
G37*
%LPD*%
D14*
X52500Y90469D02*
D03*
Y86532D02*
D03*
X77000Y76531D02*
D03*
Y80468D02*
D03*
X84000Y76531D02*
D03*
Y80468D02*
D03*
X28000Y61532D02*
D03*
Y65469D02*
D03*
X47500Y61532D02*
D03*
Y65469D02*
D03*
X5000Y33031D02*
D03*
Y36968D02*
D03*
X72500Y143968D02*
D03*
Y140032D02*
D03*
Y151532D02*
D03*
Y155468D02*
D03*
X44500Y23469D02*
D03*
Y19532D02*
D03*
D15*
X75468Y102000D02*
D03*
X71531D02*
D03*
X8969Y46000D02*
D03*
X5032D02*
D03*
X55032Y20000D02*
D03*
X58969D02*
D03*
X41532Y54000D02*
D03*
X45469D02*
D03*
X28032D02*
D03*
X31969D02*
D03*
X41532Y46000D02*
D03*
X45469D02*
D03*
X82032Y87500D02*
D03*
X85969D02*
D03*
X82032Y102000D02*
D03*
X85969D02*
D03*
X82032Y94750D02*
D03*
X85969D02*
D03*
X35531Y65500D02*
D03*
X39469D02*
D03*
X40532Y97500D02*
D03*
X44469D02*
D03*
X40532Y90500D02*
D03*
X44469D02*
D03*
X64468Y116000D02*
D03*
X60532D02*
D03*
X44469Y83500D02*
D03*
X40532D02*
D03*
X61532Y109000D02*
D03*
X65469D02*
D03*
X61468Y102500D02*
D03*
X57531D02*
D03*
X40532Y75000D02*
D03*
X44469D02*
D03*
X30531Y20000D02*
D03*
X34468D02*
D03*
D16*
X25547Y46000D02*
D03*
X31453D02*
D03*
X81953Y132000D02*
D03*
X76047D02*
D03*
X81953Y123500D02*
D03*
X76047D02*
D03*
X66047Y95500D02*
D03*
X71953D02*
D03*
D17*
X45000Y6547D02*
D03*
Y12453D02*
D03*
X55000D02*
D03*
Y6547D02*
D03*
X34500Y12453D02*
D03*
Y6547D02*
D03*
D18*
X66102Y64280D02*
D03*
Y62311D02*
D03*
Y60343D02*
D03*
Y58374D02*
D03*
Y56406D02*
D03*
Y54437D02*
D03*
Y52469D02*
D03*
Y50500D02*
D03*
X85000D02*
D03*
Y52469D02*
D03*
Y54437D02*
D03*
Y56406D02*
D03*
Y58374D02*
D03*
Y60343D02*
D03*
Y62311D02*
D03*
Y64280D02*
D03*
D19*
X68661Y47941D02*
D03*
X70630D02*
D03*
X72598D02*
D03*
X74567D02*
D03*
X76535D02*
D03*
X78504D02*
D03*
X80472D02*
D03*
X82441D02*
D03*
Y66839D02*
D03*
X80472D02*
D03*
X78504D02*
D03*
X76535D02*
D03*
X74567D02*
D03*
X72598D02*
D03*
X70630D02*
D03*
X68661D02*
D03*
D20*
X75551Y57390D02*
D03*
D21*
X55949Y133280D02*
D03*
X59098D02*
D03*
X33902D02*
D03*
X37051D02*
D03*
D22*
X53390D02*
D03*
X51421D02*
D03*
X49453D02*
D03*
X39610D02*
D03*
X41579D02*
D03*
X43547D02*
D03*
X45516D02*
D03*
X47484D02*
D03*
D23*
X68142Y88354D02*
D03*
X60858D02*
D03*
X68142Y82646D02*
D03*
X60858D02*
D03*
D24*
X41260Y107972D02*
D03*
X45000D02*
D03*
X48740D02*
D03*
Y117028D02*
D03*
X45000D02*
D03*
X41260D02*
D03*
D25*
X30169Y28268D02*
D03*
X13831D02*
D03*
X30169Y36732D02*
D03*
X13831D02*
D03*
D26*
X71784Y116240D02*
D03*
Y112500D02*
D03*
Y108760D02*
D03*
X82217D02*
D03*
Y116240D02*
D03*
D45*
X12736Y57150D02*
D03*
D46*
X2106Y65220D02*
D03*
D47*
X12736Y65417D02*
D03*
D48*
X8287Y74079D02*
D03*
Y83921D02*
D03*
Y92583D02*
D03*
Y102425D02*
D03*
D49*
X12500Y79000D02*
D03*
Y97504D02*
D03*
D50*
X2106Y88252D02*
D03*
Y106756D02*
D03*
D51*
X10847Y111087D02*
D03*
D52*
X84000Y80468D02*
Y84000D01*
X77000Y80468D02*
Y84000D01*
X72500Y140032D02*
X72531Y140000D01*
X75000D01*
X77000Y142000D01*
Y153500D01*
X75000Y155500D02*
X77000Y153500D01*
X72531Y155500D02*
X75000D01*
X72500Y155468D02*
X72531Y155500D01*
X72500Y135941D02*
Y140032D01*
Y135941D02*
X76047Y132394D01*
Y132000D02*
Y132394D01*
X59000Y125500D02*
X59135D01*
X61135Y123500D02*
X76047D01*
X59135Y125500D02*
X61135Y123500D01*
X61500Y108968D02*
X61651Y109120D01*
X62530Y112500D02*
X71784D01*
X61651Y109120D02*
Y111621D01*
X62530Y112500D01*
X61500Y105750D02*
Y108968D01*
Y102532D02*
Y105750D01*
X71742Y98750D02*
Y101789D01*
Y95711D02*
Y98750D01*
X72328Y95125D02*
X81656D01*
X71953Y95500D02*
X72328Y95125D01*
X81656D02*
X82032Y94750D01*
Y87500D02*
Y94750D01*
X56500Y91000D02*
X59000Y88500D01*
X60713D02*
X60858Y88354D01*
X59000Y88500D02*
X60713D01*
X45000Y103000D02*
Y107972D01*
X31500Y90500D02*
X40532D01*
Y97500D01*
X32000Y75000D02*
X40532D01*
X8628Y33031D02*
X12514Y29146D01*
Y28797D02*
X13043Y28268D01*
X5000Y33031D02*
X8628D01*
X12514Y28797D02*
Y29146D01*
X13043Y28268D02*
X13831D01*
X28000Y53969D02*
X28032Y54000D01*
X25547Y46394D02*
X28000Y48846D01*
X25547Y46000D02*
Y46394D01*
X28000Y48846D02*
Y53969D01*
X21135Y53500D02*
X21635Y54000D01*
X28032D01*
X21000Y53500D02*
X21135D01*
X21016Y61516D02*
X27984D01*
X21000Y61500D02*
X21016Y61516D01*
X27984D02*
X28000Y61532D01*
X28016Y54016D02*
Y61516D01*
X28000Y61532D02*
X28016Y61516D01*
Y54016D02*
X28032Y54000D01*
X42531Y61532D02*
X47500D01*
X41000Y60000D02*
X42531Y61532D01*
X37000Y46000D02*
X41532D01*
X58969Y20000D02*
X64000D01*
X30169Y28268D02*
X36268D01*
X44500Y23469D02*
Y28500D01*
X30350Y20181D02*
X30531Y20000D01*
X30350Y20181D02*
Y28087D01*
X30169Y28268D02*
X30350Y28087D01*
X34524Y6524D02*
X39976D01*
X34500Y6547D02*
X34524Y6524D01*
X39976D02*
X40000Y6500D01*
X37000Y54000D02*
X41532D01*
X31969D02*
X37000D01*
X35000Y83500D02*
X40532D01*
X57661Y66839D02*
X68661D01*
X70630D01*
X13468Y41500D02*
X26953D01*
X9596Y45372D02*
X13468Y41500D01*
X9400Y45372D02*
X9596D01*
X8969Y45803D02*
X9400Y45372D01*
X8969Y45803D02*
Y46000D01*
X30628Y44782D02*
X31453Y45606D01*
Y46000D01*
X30234Y44782D02*
X30628D01*
X26953Y41500D02*
X30234Y44782D01*
X82085Y116372D02*
Y131868D01*
Y116372D02*
X82217Y116240D01*
X81953Y132000D02*
X82085Y131868D01*
X85969Y102000D02*
Y112488D01*
Y94750D02*
Y102000D01*
Y87500D02*
Y94750D01*
X83534Y114923D02*
Y115809D01*
Y114923D02*
X85969Y112488D01*
X82217Y116240D02*
X83102D01*
X83534Y115809D01*
X81957Y108500D02*
X82217Y108760D01*
X79000Y108500D02*
X81957D01*
X75468Y104969D02*
X79000Y108500D01*
X75468Y102000D02*
Y104969D01*
X71742Y95711D02*
X71953Y95500D01*
X71531Y102000D02*
X71742Y101789D01*
X61468Y102500D02*
X61500Y102532D01*
X56000Y116000D02*
Y125500D01*
X57000Y116000D02*
X60532D01*
X56000D02*
X57000D01*
X57531Y115469D01*
Y102500D02*
Y115469D01*
X65469Y108197D02*
X65900Y108628D01*
X65469Y102747D02*
X66047Y102168D01*
X65469Y102747D02*
Y108197D01*
X66047Y95500D02*
Y102168D01*
X71663Y108880D02*
X71784Y108760D01*
X65469Y109000D02*
X65589Y108880D01*
X71663D01*
X44469Y75000D02*
Y83500D01*
X44469Y83500D02*
X44469Y83500D01*
X44492Y74976D02*
X62976D01*
X63000Y74953D01*
X44469Y75000D02*
X44492Y74976D01*
X13831Y28268D02*
X30169D01*
X31711Y46258D02*
Y53742D01*
X31453Y46000D02*
X31711Y46258D01*
Y53742D02*
X31969Y54000D01*
X71784Y116240D02*
X72010Y116013D01*
X74987D01*
X77000Y114000D01*
Y110000D02*
Y114000D01*
X75760Y108760D02*
X77000Y110000D01*
X71784Y108760D02*
X75760D01*
X64468Y116000D02*
X64589Y116120D01*
X71663D01*
X71784Y116240D01*
X33951Y125549D02*
Y133230D01*
X33902Y133280D02*
X33951Y133230D01*
Y125549D02*
X34000Y125500D01*
X59049Y125549D02*
Y133230D01*
X59000Y125500D02*
X59049Y125549D01*
Y133230D02*
X59098Y133280D01*
X37000Y125500D02*
Y133228D01*
X52500Y112500D02*
X56000Y116000D01*
X55974Y125526D02*
Y133254D01*
D53*
X40000Y4000D02*
X42000Y2000D01*
X40000Y4000D02*
Y6500D01*
X42000Y2000D02*
X70500D01*
X83500Y15000D01*
Y41500D01*
X80486Y43514D02*
Y47927D01*
X80472Y47941D02*
X80486Y47927D01*
Y43514D02*
X80500Y43500D01*
X75000Y41500D02*
X83500D01*
X72598Y43902D02*
Y47941D01*
Y43902D02*
X75000Y41500D01*
X83500D02*
X85000Y43000D01*
Y50500D01*
X83683Y69183D02*
X86500Y72000D01*
X83683Y69169D02*
Y69183D01*
X80665Y70165D02*
X82500Y72000D01*
X80665Y67032D02*
Y70165D01*
X82683Y67081D02*
Y68169D01*
X82441Y66839D02*
X82683Y67081D01*
Y68169D02*
X83683Y69169D01*
X82872Y75600D02*
X83803Y76531D01*
X78504Y66839D02*
Y71035D01*
X82872Y75403D01*
X83803Y76531D02*
X84000D01*
X82872Y75403D02*
Y75600D01*
X80472Y66839D02*
X80665Y67032D01*
X48740Y103240D02*
Y107972D01*
X41260Y103260D02*
Y107972D01*
X52500Y70000D02*
X71500D01*
X72598Y66839D02*
Y68902D01*
X71500Y70000D02*
X72598Y68902D01*
X52500Y82000D02*
Y86532D01*
X59000Y91500D02*
X64799D01*
X53000Y97500D02*
X59000Y91500D01*
X64799D02*
X67945Y88354D01*
X44469Y97500D02*
X53000D01*
X67945Y88354D02*
X68142D01*
X52469Y90500D02*
X52500Y90469D01*
X44469Y90500D02*
X52469D01*
X53431Y89537D02*
X53770D01*
X52500Y90469D02*
X53431Y89537D01*
X60661Y82646D02*
X60858D01*
X53770Y89537D02*
X60661Y82646D01*
X69663Y86833D02*
Y87029D01*
Y86833D02*
X74567Y81929D01*
X68142Y88354D02*
X68339D01*
X69663Y87029D01*
X74567Y66839D02*
Y81929D01*
X76535Y66839D02*
Y76067D01*
X77000Y76531D01*
X49476Y133303D02*
Y139976D01*
X49500Y140000D01*
X49453Y133280D02*
X49476Y133303D01*
X43547Y137047D02*
Y139953D01*
X43500Y140000D02*
X43547Y139953D01*
X44000Y137500D02*
X47000D01*
X47484Y137016D01*
Y133280D02*
Y137016D01*
X53469Y143968D02*
X72500D01*
X45500Y148000D02*
X71000D01*
X42000D02*
X45500D01*
X52873Y52469D02*
X66102D01*
X53000Y50500D02*
X66102D01*
X53941Y47941D02*
X68661D01*
X47904Y47500D02*
X52873Y52469D01*
X45136Y36732D02*
X47904Y39500D01*
X30169Y36732D02*
X45136D01*
X47904Y39500D02*
Y47500D01*
X52547Y6547D02*
X55000D01*
X51000Y8095D02*
X52547Y6547D01*
X51000Y8095D02*
Y45000D01*
X53941Y47941D01*
X49500Y47000D02*
X53000Y50500D01*
X49500Y8000D02*
Y47000D01*
X44500Y6547D02*
X48047D01*
X49500Y8000D01*
X51421Y133280D02*
X51500Y133358D01*
Y142000D01*
X53469Y143968D01*
X72500Y149500D02*
Y151532D01*
X71000Y148000D02*
X72500Y149500D01*
X39610Y133280D02*
Y145610D01*
X42000Y148000D01*
X37000Y133228D02*
X37051Y133280D01*
X43547D02*
Y137047D01*
X44000Y137500D01*
X45516Y133280D02*
X45606Y133370D01*
X45516Y123984D02*
Y127356D01*
X48740Y117028D02*
Y120760D01*
X45516Y123984D02*
X48740Y120760D01*
X45516Y127356D02*
Y133280D01*
X48856Y127356D02*
X49453Y127953D01*
Y133280D01*
X45516Y127356D02*
X48856D01*
X43547Y123547D02*
Y133280D01*
X41260Y121260D02*
X43547Y123547D01*
X41260Y117028D02*
Y121260D01*
D54*
X5016Y36984D02*
Y45984D01*
X5000Y36968D02*
X5016Y36984D01*
Y45984D02*
X5032Y46000D01*
X5000Y36968D02*
X5118Y36850D01*
X13713D02*
X13831Y36732D01*
X5118Y36850D02*
X13713D01*
X66000Y60343D02*
Y61987D01*
X56343Y60343D02*
X65224D01*
X13831Y36732D02*
X30169D01*
X45469Y46000D02*
Y54000D01*
X50000D02*
X56343Y60343D01*
X45469Y54000D02*
X50000D01*
X47697Y65469D02*
X48886Y64280D01*
X47500Y65469D02*
X47697D01*
X48886Y64280D02*
X66102D01*
X27974Y65443D02*
X28000Y65469D01*
X12736Y65417D02*
X12762Y65443D01*
X27974D01*
X35516Y65484D02*
X35531Y65500D01*
X28016Y65484D02*
X35516D01*
X28000Y65469D02*
X28016Y65484D01*
X39469Y65500D02*
X39484Y65484D01*
X47484D01*
X47500Y65469D01*
X34500Y12453D02*
Y18772D01*
X55000Y12453D02*
X55032Y12484D01*
Y20000D01*
X44500Y12453D02*
Y19532D01*
X45586Y112500D02*
X52500D01*
X45000Y113086D02*
X45586Y112500D01*
X45000Y113086D02*
Y117028D01*
X55949Y133280D02*
X55974Y133254D01*
Y125526D02*
X56000Y125500D01*
D55*
X63000Y40307D02*
D03*
Y74953D02*
D03*
D56*
X57917Y138201D02*
D03*
X35083D02*
D03*
D03*
X57917D02*
D03*
D57*
X29472Y136232D02*
D03*
X63528D02*
D03*
D03*
X29472D02*
D03*
D58*
X63528Y152768D02*
D03*
X29472D02*
D03*
D03*
X63528D02*
D03*
D59*
X84000Y84000D02*
D03*
X77000D02*
D03*
X48000Y79000D02*
D03*
X24500Y90500D02*
D03*
X29000Y83500D02*
D03*
X26500Y72500D02*
D03*
X36500Y41000D02*
D03*
X63000Y30500D02*
D03*
X78000Y36500D02*
D03*
Y26500D02*
D03*
X70000Y19500D02*
D03*
X22500Y20000D02*
D03*
X4000Y22000D02*
D03*
X24500Y100500D02*
D03*
X34000Y117000D02*
D03*
X24500D02*
D03*
X5500D02*
D03*
Y141000D02*
D03*
X19500Y157000D02*
D03*
X68000Y123500D02*
D03*
X72500Y135941D02*
D03*
X77000Y152500D02*
D03*
Y144000D02*
D03*
X82032Y91125D02*
D03*
X71742Y98750D02*
D03*
X61500Y105750D02*
D03*
X56500Y91000D02*
D03*
X45000Y103000D02*
D03*
X31500Y90500D02*
D03*
X32000Y75000D02*
D03*
X41000Y60000D02*
D03*
X37000Y46000D02*
D03*
X64000Y20000D02*
D03*
X36268Y28268D02*
D03*
X44500Y28500D02*
D03*
X80500Y43500D02*
D03*
X40000Y6500D02*
D03*
X37000Y54000D02*
D03*
X35000Y83500D02*
D03*
X85969Y112488D02*
D03*
X57661Y66839D02*
D03*
X86500Y72000D02*
D03*
X82500D02*
D03*
X21000Y53500D02*
D03*
Y61500D02*
D03*
X22500Y57000D02*
D03*
X48740Y103240D02*
D03*
X41260Y103260D02*
D03*
X52500Y70000D02*
D03*
Y82000D02*
D03*
X49500Y140000D02*
D03*
X43500D02*
D03*
X58000Y144000D02*
D03*
X45500Y148000D02*
D03*
X34000Y125500D02*
D03*
X59000D02*
D03*
X37000D02*
D03*
X56000D02*
D03*
D60*
X80472Y52469D02*
D03*
Y57390D02*
D03*
Y62311D02*
D03*
X70630D02*
D03*
Y57390D02*
D03*
Y52469D02*
D03*
X75551D02*
D03*
Y62311D02*
D03*
Y57390D02*
D03*
M02*
