G04*
G04 #@! TF.GenerationSoftware,Altium Limited,Altium Designer,21.7.2 (23)*
G04*
G04 Layer_Physical_Order=2*
G04 Layer_Color=16711680*
%FSLAX25Y25*%
%MOIN*%
G70*
G04*
G04 #@! TF.SameCoordinates,D0A3D993-BCFD-4162-BC10-8A45587FADB4*
G04*
G04*
G04 #@! TF.FilePolarity,Positive*
G04*
G01*
G75*
%ADD21R,0.02362X0.05906*%
%ADD22R,0.01181X0.05906*%
%ADD52C,0.01500*%
%ADD53C,0.00500*%
%ADD55O,0.19685X0.07874*%
%ADD56C,0.02362*%
%ADD57O,0.03937X0.08661*%
%ADD58O,0.03937X0.07480*%
%ADD59C,0.02000*%
%ADD60C,0.02559*%
G36*
X69858Y160000D02*
X69858Y160000D01*
X69858Y160000D01*
X70612Y159965D01*
X72105Y159748D01*
X73571Y159385D01*
X74993Y158880D01*
X76359Y158238D01*
X77656Y157465D01*
X78871Y156569D01*
X79992Y155558D01*
X80500Y155000D01*
X85000Y150000D01*
X85000Y150000D01*
X85357Y149557D01*
X85981Y148606D01*
X86509Y147599D01*
X86935Y146544D01*
X87256Y145453D01*
X87468Y144336D01*
X87570Y143203D01*
X87561Y142066D01*
X87500Y141500D01*
X87500Y140500D01*
X87500Y113785D01*
X87000Y113578D01*
X86818Y113760D01*
X86267Y113988D01*
X85670D01*
X85154Y113775D01*
X43000D01*
X42512Y113678D01*
X42099Y113401D01*
X34099Y105401D01*
X33823Y104988D01*
X33726Y104500D01*
Y84343D01*
X33500Y83798D01*
Y83202D01*
X33726Y82657D01*
Y73500D01*
Y56000D01*
X33823Y55512D01*
X34099Y55099D01*
X35503Y53695D01*
X35728Y53150D01*
X36150Y52728D01*
X36464Y52599D01*
X38726Y50337D01*
Y7343D01*
X38500Y6798D01*
Y6202D01*
X38728Y5650D01*
X39150Y5228D01*
X39702Y5000D01*
X40298D01*
X40850Y5228D01*
X41272Y5650D01*
X41500Y6202D01*
Y6798D01*
X41274Y7343D01*
Y50865D01*
X41177Y51352D01*
X40901Y51766D01*
X38500Y54167D01*
Y54298D01*
X38272Y54850D01*
X37850Y55272D01*
X37305Y55497D01*
X36274Y56528D01*
Y69770D01*
X36736Y69961D01*
X40760Y65937D01*
X41174Y65661D01*
X41661Y65564D01*
X56819D01*
X57363Y65339D01*
X57960D01*
X58511Y65567D01*
X58933Y65989D01*
X59161Y66540D01*
Y67137D01*
X58933Y67688D01*
X58511Y68110D01*
X57960Y68339D01*
X57363D01*
X56819Y68113D01*
X53171D01*
X53071Y68613D01*
X53350Y68728D01*
X53772Y69150D01*
X54000Y69702D01*
Y70298D01*
X53772Y70850D01*
X53350Y71272D01*
X52798Y71500D01*
X52202D01*
X51765Y71319D01*
X51402Y71479D01*
X51265Y71593D01*
Y79683D01*
X52117Y80535D01*
X52202Y80500D01*
X52798D01*
X53350Y80728D01*
X53772Y81150D01*
X54000Y81702D01*
Y82298D01*
X53772Y82850D01*
X53350Y83272D01*
X52798Y83500D01*
X52202D01*
X51650Y83272D01*
X51228Y82850D01*
X51000Y82298D01*
Y81702D01*
X51035Y81617D01*
X49959Y80541D01*
X49793Y80293D01*
X49735Y80000D01*
Y71000D01*
X49793Y70707D01*
X49959Y70459D01*
X50722Y69697D01*
X50970Y69531D01*
X51080Y69509D01*
X51228Y69150D01*
X51650Y68728D01*
X51929Y68613D01*
X51829Y68113D01*
X42189D01*
X36274Y74028D01*
Y82657D01*
X36500Y83202D01*
Y83798D01*
X36274Y84343D01*
Y103972D01*
X43528Y111225D01*
X85110D01*
X85119Y111216D01*
X85670Y110988D01*
X86267D01*
X86818Y111216D01*
X87000Y111398D01*
X87500Y111191D01*
X87500Y73751D01*
X87000Y73417D01*
X86798Y73500D01*
X86202D01*
X86117Y73465D01*
X77528Y82054D01*
X77645Y82644D01*
X77850Y82728D01*
X78272Y83150D01*
X78500Y83702D01*
Y84298D01*
X78272Y84850D01*
X77850Y85272D01*
X77298Y85500D01*
X76702D01*
X76150Y85272D01*
X75728Y84850D01*
X75644Y84645D01*
X75054Y84528D01*
X70541Y89041D01*
X70293Y89206D01*
X70000Y89265D01*
X63797D01*
X50205Y102857D01*
X50240Y102942D01*
Y103539D01*
X50012Y104090D01*
X49590Y104512D01*
X49038Y104740D01*
X48442D01*
X47890Y104512D01*
X47469Y104090D01*
X47240Y103539D01*
Y102942D01*
X47469Y102391D01*
X47890Y101969D01*
X48442Y101740D01*
X49038D01*
X49123Y101775D01*
X62940Y87959D01*
X63188Y87793D01*
X63480Y87735D01*
X69683D01*
X85035Y72383D01*
X85000Y72298D01*
Y71702D01*
X85228Y71150D01*
X85650Y70728D01*
X86202Y70500D01*
X86798D01*
X87000Y70583D01*
X87500Y70249D01*
X87500Y21142D01*
X87500Y21142D01*
X87547Y20526D01*
X87519Y19291D01*
X87370Y18065D01*
X87102Y16860D01*
X86717Y15686D01*
X86218Y14556D01*
X85612Y13480D01*
X84903Y12468D01*
X84500Y12000D01*
X79000Y6500D01*
X78547Y6000D01*
X77548Y5093D01*
X76464Y4288D01*
X75307Y3594D01*
X74088Y3016D01*
X72817Y2561D01*
X71509Y2232D01*
X70174Y2034D01*
X69500Y2000D01*
X24142D01*
X24142Y2000D01*
X23252Y1944D01*
X21470Y2007D01*
X19703Y2245D01*
X17967Y2654D01*
X16280Y3232D01*
X14658Y3972D01*
X13116Y4868D01*
X11669Y5910D01*
X11000Y6500D01*
X5500Y12500D01*
X5500D01*
X5059Y12977D01*
X4275Y14014D01*
X3596Y15123D01*
X3030Y16292D01*
X2581Y17512D01*
X2253Y18769D01*
X2050Y20053D01*
X1974Y21351D01*
X2000Y22000D01*
X2000Y50500D01*
X2000Y50500D01*
X2038Y50985D01*
X2115Y51375D01*
X2341Y51921D01*
X2670Y52413D01*
X3087Y52830D01*
X3579Y53159D01*
X4125Y53385D01*
X4704Y53500D01*
X5000Y53500D01*
X20000Y53500D01*
X20195Y53519D01*
X20556Y53668D01*
X20831Y53944D01*
X20981Y54305D01*
X21000Y54500D01*
X21000Y62500D01*
X23000D01*
X23488Y62548D01*
X24389Y62921D01*
X25079Y63611D01*
X25452Y64512D01*
X25500Y65000D01*
X25500Y66500D01*
X25500Y66500D01*
X25500Y66500D01*
X25500Y66501D01*
X25471Y66793D01*
X25405Y66952D01*
X25247Y67333D01*
X24833Y67747D01*
X24293Y67971D01*
X24000Y68000D01*
X24000Y68000D01*
X23702Y68000D01*
X23150Y68228D01*
X22728Y68650D01*
X22500Y69202D01*
X22500Y69500D01*
Y115000D01*
X2500D01*
Y138500D01*
X2500Y138500D01*
X2500D01*
X2507Y139406D01*
X2698Y141208D01*
X3065Y142982D01*
X3604Y144713D01*
X4310Y146381D01*
X5176Y147973D01*
X6194Y149472D01*
X7355Y150864D01*
X8000Y151500D01*
X10000Y154000D01*
X10000Y154000D01*
Y154000D01*
X10454Y154605D01*
X11476Y155720D01*
X12603Y156730D01*
X13823Y157624D01*
X15125Y158394D01*
X16496Y159033D01*
X17924Y159534D01*
X19393Y159893D01*
X20142Y160000D01*
X23000Y160000D01*
X69858Y160000D01*
D02*
G37*
%LPC*%
G36*
X63528Y157056D02*
X62564Y156865D01*
X61748Y156319D01*
X61202Y155502D01*
X61011Y154539D01*
Y150996D01*
X61202Y150033D01*
X61748Y149216D01*
X62564Y148671D01*
X63528Y148479D01*
X64491Y148671D01*
X65307Y149216D01*
X65853Y150033D01*
X66044Y150996D01*
Y154539D01*
X65853Y155502D01*
X65307Y156319D01*
X64491Y156865D01*
X63528Y157056D01*
D02*
G37*
G36*
X29472D02*
X28509Y156865D01*
X27693Y156319D01*
X27147Y155502D01*
X26956Y154539D01*
Y150996D01*
X27147Y150033D01*
X27693Y149216D01*
X28509Y148671D01*
X29472Y148479D01*
X30436Y148671D01*
X31252Y149216D01*
X31798Y150033D01*
X31989Y150996D01*
Y154539D01*
X31798Y155502D01*
X31252Y156319D01*
X30436Y156865D01*
X29472Y157056D01*
D02*
G37*
G36*
X45798Y149500D02*
X45202D01*
X44650Y149272D01*
X44228Y148850D01*
X44000Y148298D01*
Y147702D01*
X44228Y147150D01*
X44650Y146728D01*
X45202Y146500D01*
X45798D01*
X46350Y146728D01*
X46772Y147150D01*
X46807Y147235D01*
X60683D01*
X61735Y146183D01*
Y144317D01*
X60183Y142765D01*
X59539D01*
X59319Y143265D01*
X59500Y143702D01*
Y144298D01*
X59272Y144850D01*
X58850Y145272D01*
X58298Y145500D01*
X57702D01*
X57150Y145272D01*
X56728Y144850D01*
X56693Y144765D01*
X41500D01*
X41500Y144765D01*
X41207Y144706D01*
X40959Y144541D01*
X38959Y142541D01*
X38794Y142293D01*
X38735Y142000D01*
Y139000D01*
X38794Y138707D01*
X38959Y138459D01*
X40224Y137194D01*
X40033Y136732D01*
X36699D01*
X36492Y137232D01*
X36508Y137249D01*
X36764Y137866D01*
Y138535D01*
X36508Y139153D01*
X36035Y139626D01*
X35417Y139882D01*
X34748D01*
X34130Y139626D01*
X33658Y139153D01*
X33402Y138535D01*
Y137866D01*
X33658Y137249D01*
X34130Y136776D01*
X34748Y136520D01*
X35370D01*
Y134256D01*
X34870Y134104D01*
X34852Y134132D01*
X34803Y134181D01*
X34389Y134457D01*
X33902Y134554D01*
X33414Y134457D01*
X33000Y134181D01*
X32724Y133767D01*
X32627Y133280D01*
X32676Y133032D01*
Y125549D01*
X32773Y125062D01*
X33050Y124648D01*
X33099Y124599D01*
X33512Y124322D01*
X34000Y124225D01*
X34488Y124322D01*
X34901Y124599D01*
X35091Y124883D01*
X35552Y124896D01*
X35638Y124869D01*
X35728Y124650D01*
X36150Y124228D01*
X36702Y124000D01*
X37298D01*
X37843Y124225D01*
X55157D01*
X55702Y124000D01*
X56298D01*
X56850Y124228D01*
X57272Y124650D01*
X57362Y124869D01*
X57448Y124896D01*
X57909Y124883D01*
X58099Y124599D01*
X58512Y124322D01*
X59000Y124225D01*
X59488Y124322D01*
X59901Y124599D01*
X59950Y124648D01*
X60227Y125062D01*
X60324Y125549D01*
Y133032D01*
X60373Y133280D01*
X60276Y133767D01*
X60000Y134181D01*
X59586Y134457D01*
X59098Y134554D01*
X58611Y134457D01*
X58197Y134181D01*
X58148Y134132D01*
X58130Y134104D01*
X57630Y134256D01*
Y136520D01*
X58252D01*
X58870Y136776D01*
X59342Y137249D01*
X59598Y137866D01*
Y138535D01*
X59342Y139153D01*
X58870Y139626D01*
X58252Y139882D01*
X57583D01*
X56965Y139626D01*
X56492Y139153D01*
X56236Y138535D01*
Y137866D01*
X56492Y137249D01*
X56508Y137232D01*
X56301Y136732D01*
X54154D01*
Y138573D01*
X56817Y141235D01*
X60500D01*
X60793Y141294D01*
X61041Y141459D01*
X63041Y143459D01*
X63206Y143707D01*
X63265Y144000D01*
X63265Y144000D01*
Y146500D01*
X63206Y146793D01*
X63041Y147041D01*
X61541Y148541D01*
X61293Y148706D01*
X61000Y148765D01*
X46807D01*
X46772Y148850D01*
X46350Y149272D01*
X45798Y149500D01*
D02*
G37*
G36*
X63528Y141111D02*
X62564Y140920D01*
X61748Y140374D01*
X61202Y139558D01*
X61011Y138594D01*
Y133870D01*
X61202Y132907D01*
X61748Y132090D01*
X62564Y131545D01*
X63528Y131353D01*
X64491Y131545D01*
X65307Y132090D01*
X65853Y132907D01*
X66044Y133870D01*
Y138594D01*
X65853Y139558D01*
X65307Y140374D01*
X64491Y140920D01*
X63528Y141111D01*
D02*
G37*
G36*
X29472D02*
X28509Y140920D01*
X27693Y140374D01*
X27147Y139558D01*
X26956Y138594D01*
Y133870D01*
X27147Y132907D01*
X27693Y132090D01*
X28509Y131545D01*
X29472Y131353D01*
X30436Y131545D01*
X31252Y132090D01*
X31798Y132907D01*
X31989Y133870D01*
Y138594D01*
X31798Y139558D01*
X31252Y140374D01*
X30436Y140920D01*
X29472Y141111D01*
D02*
G37*
G36*
X84298Y85500D02*
X83702D01*
X83150Y85272D01*
X82728Y84850D01*
X82500Y84298D01*
Y83702D01*
X82728Y83150D01*
X83150Y82728D01*
X83702Y82500D01*
X84298D01*
X84850Y82728D01*
X85272Y83150D01*
X85500Y83702D01*
Y84298D01*
X85272Y84850D01*
X84850Y85272D01*
X84298Y85500D01*
D02*
G37*
G36*
X41558Y104760D02*
X40962D01*
X40410Y104532D01*
X39988Y104110D01*
X39760Y103558D01*
Y102962D01*
X39988Y102410D01*
X40410Y101988D01*
X40962Y101760D01*
X41558D01*
X41643Y101795D01*
X57979Y85459D01*
X58227Y85294D01*
X58520Y85235D01*
X68183D01*
X81035Y72383D01*
X81000Y72298D01*
Y71702D01*
X81228Y71150D01*
X81650Y70728D01*
X82202Y70500D01*
X82798D01*
X83350Y70728D01*
X83772Y71150D01*
X84000Y71702D01*
Y72298D01*
X83772Y72850D01*
X83350Y73272D01*
X82798Y73500D01*
X82202D01*
X82117Y73465D01*
X69041Y86541D01*
X68793Y86707D01*
X68500Y86765D01*
X58836D01*
X42725Y102876D01*
X42760Y102962D01*
Y103558D01*
X42531Y104110D01*
X42110Y104532D01*
X41558Y104760D01*
D02*
G37*
G36*
X68906Y79428D02*
X57095D01*
X55936Y79276D01*
X54857Y78829D01*
X53930Y78117D01*
X53219Y77190D01*
X52772Y76111D01*
X52619Y74953D01*
X52772Y73795D01*
X53219Y72715D01*
X53930Y71788D01*
X54857Y71077D01*
X55936Y70630D01*
X57095Y70477D01*
X62235D01*
Y53500D01*
X62293Y53207D01*
X62459Y52959D01*
X72459Y42959D01*
X72459Y42959D01*
X72707Y42794D01*
X73000Y42735D01*
X73000Y42735D01*
X79193D01*
X79228Y42650D01*
X79650Y42228D01*
X80202Y42000D01*
X80798D01*
X81350Y42228D01*
X81772Y42650D01*
X82000Y43202D01*
Y43798D01*
X81772Y44350D01*
X81350Y44772D01*
X80798Y45000D01*
X80202D01*
X79650Y44772D01*
X79228Y44350D01*
X79193Y44265D01*
X73317D01*
X63765Y53817D01*
Y70477D01*
X68906D01*
X70064Y70630D01*
X71143Y71077D01*
X72070Y71788D01*
X72781Y72715D01*
X73228Y73795D01*
X73381Y74953D01*
X73228Y76111D01*
X72781Y77190D01*
X72070Y78117D01*
X71143Y78829D01*
X70064Y79276D01*
X68906Y79428D01*
D02*
G37*
G36*
X80000Y22541D02*
X74000D01*
X73816Y22465D01*
X73630Y22395D01*
X73626Y22386D01*
X73617Y22383D01*
X73541Y22199D01*
X73459Y22018D01*
X73434Y21259D01*
X73238Y19765D01*
X72850Y18317D01*
X72276Y16932D01*
X71527Y15634D01*
X70614Y14446D01*
X69555Y13386D01*
X68366Y12473D01*
X67068Y11724D01*
X65683Y11150D01*
X64235Y10763D01*
X62740Y10566D01*
X61982Y10541D01*
X61801Y10459D01*
X61617Y10383D01*
X61614Y10374D01*
X61605Y10370D01*
X61535Y10184D01*
X61459Y10000D01*
Y4000D01*
X61617Y3617D01*
X62000Y3459D01*
X63180D01*
X63214Y3473D01*
X63250Y3463D01*
X65590Y3771D01*
X65622Y3790D01*
X65659Y3785D01*
X67938Y4396D01*
X67968Y4419D01*
X68005D01*
X70185Y5322D01*
X70212Y5348D01*
X70249Y5353D01*
X72292Y6533D01*
X72315Y6562D01*
X72351Y6572D01*
X74223Y8009D01*
X74242Y8041D01*
X74276Y8055D01*
X75945Y9724D01*
X75959Y9758D01*
X75991Y9777D01*
X77428Y11649D01*
X77438Y11685D01*
X77467Y11708D01*
X78647Y13751D01*
X78652Y13788D01*
X78678Y13815D01*
X79581Y15995D01*
Y16032D01*
X79604Y16062D01*
X80215Y18341D01*
X80210Y18378D01*
X80229Y18410D01*
X80537Y20750D01*
X80527Y20786D01*
X80541Y20820D01*
Y22000D01*
X80383Y22383D01*
X80000Y22541D01*
D02*
G37*
G36*
X16000D02*
X10000D01*
X9617Y22383D01*
X9459Y22000D01*
Y20820D01*
X9473Y20786D01*
X9463Y20750D01*
X9771Y18410D01*
X9790Y18378D01*
X9785Y18341D01*
X10396Y16062D01*
X10419Y16032D01*
Y15995D01*
X11322Y13815D01*
X11348Y13788D01*
X11353Y13751D01*
X12533Y11708D01*
X12562Y11685D01*
X12572Y11649D01*
X14008Y9777D01*
X14041Y9758D01*
X14055Y9724D01*
X15724Y8055D01*
X15758Y8041D01*
X15777Y8009D01*
X17649Y6572D01*
X17685Y6562D01*
X17708Y6533D01*
X19751Y5353D01*
X19788Y5348D01*
X19815Y5322D01*
X21995Y4419D01*
X22032D01*
X22062Y4396D01*
X24341Y3785D01*
X24378Y3790D01*
X24410Y3771D01*
X26750Y3463D01*
X26786Y3473D01*
X26820Y3459D01*
X28000D01*
X28383Y3617D01*
X28541Y4000D01*
Y10000D01*
X28465Y10184D01*
X28395Y10370D01*
X28386Y10374D01*
X28383Y10383D01*
X28199Y10459D01*
X28018Y10541D01*
X27259Y10566D01*
X25765Y10763D01*
X24317Y11150D01*
X22932Y11724D01*
X21634Y12473D01*
X20446Y13386D01*
X19386Y14446D01*
X18473Y15634D01*
X17724Y16932D01*
X17150Y18317D01*
X16762Y19765D01*
X16566Y21259D01*
X16541Y22018D01*
X16459Y22199D01*
X16383Y22383D01*
X16374Y22386D01*
X16370Y22395D01*
X16184Y22465D01*
X16000Y22541D01*
D02*
G37*
%LPD*%
G36*
X56352Y142735D02*
X56207Y142707D01*
X55959Y142541D01*
X55959Y142541D01*
X52849Y139430D01*
X52683Y139182D01*
X52625Y138890D01*
Y136732D01*
X50217D01*
Y137047D01*
X50159Y137340D01*
X49994Y137588D01*
X49581Y138000D01*
X49788Y138500D01*
X49798D01*
X50350Y138728D01*
X50772Y139150D01*
X51000Y139702D01*
Y140298D01*
X50772Y140850D01*
X50350Y141272D01*
X49798Y141500D01*
X49202D01*
X49117Y141465D01*
X47846Y142735D01*
X48053Y143235D01*
X56303D01*
X56352Y142735D01*
D02*
G37*
D21*
X37051Y133280D02*
D03*
X33902D02*
D03*
X59098D02*
D03*
X55949D02*
D03*
D22*
X39610D02*
D03*
X41579D02*
D03*
X43547D02*
D03*
X53390D02*
D03*
X51421D02*
D03*
X49453D02*
D03*
X47484D02*
D03*
X45516D02*
D03*
D52*
X40000Y6500D02*
Y50865D01*
X37000Y53865D02*
X40000Y50865D01*
X37000Y53865D02*
Y54000D01*
X35000Y56000D02*
X37000Y54000D01*
X35000Y56000D02*
Y73500D01*
Y83500D02*
Y104500D01*
Y73500D02*
Y83500D01*
X85957Y112500D02*
X85969Y112488D01*
X43000Y112500D02*
X85957D01*
X35000Y104500D02*
X43000Y112500D01*
X35000Y73500D02*
X41661Y66839D01*
X57661D01*
X37000Y125500D02*
X56000D01*
X59049Y125549D02*
Y133230D01*
X59000Y125500D02*
X59049Y125549D01*
Y133230D02*
X59098Y133280D01*
X55974Y125526D02*
Y133254D01*
X55949Y133280D02*
X55974Y133254D01*
Y125526D02*
X56000Y125500D01*
X33951Y125549D02*
X34000Y125500D01*
X33902Y133280D02*
X33951Y133230D01*
Y125549D02*
Y133230D01*
X37026Y125526D02*
Y133254D01*
X37000Y125500D02*
X37026Y125526D01*
Y133254D02*
X37051Y133280D01*
D53*
X63000Y53500D02*
Y74953D01*
X73000Y43500D02*
X80500D01*
X63000Y53500D02*
X73000Y43500D01*
X58520Y86000D02*
X68500D01*
X82500Y72000D01*
X70000Y88500D02*
X86500Y72000D01*
X63480Y88500D02*
X70000D01*
X48740Y103240D02*
X63480Y88500D01*
X41260Y103260D02*
X58520Y86000D01*
X51263Y70237D02*
X52263D01*
X52500Y70000D01*
X50500Y71000D02*
X51263Y70237D01*
X50500Y71000D02*
Y80000D01*
X52500Y82000D01*
X39500Y142000D02*
X41500Y144000D01*
X39500Y139000D02*
Y142000D01*
Y139000D02*
X41579Y136921D01*
Y133280D02*
Y136921D01*
X42500Y142500D02*
X47000D01*
X49500Y140000D01*
X41500Y141500D02*
X42500Y142500D01*
X41500Y139094D02*
Y141500D01*
Y139094D02*
X43547Y137047D01*
X41500Y144000D02*
X58000D01*
X43500Y140000D02*
X46500D01*
X49453Y133280D02*
Y137047D01*
X46500Y140000D02*
X49453Y137047D01*
Y128746D02*
Y133280D01*
X48207Y127500D02*
X49453Y128746D01*
X46532Y127500D02*
X48207D01*
X45516Y128516D02*
X46532Y127500D01*
X45516Y128516D02*
Y133280D01*
X62500Y144000D02*
Y146500D01*
X60500Y142000D02*
X62500Y144000D01*
X56500Y142000D02*
X60500D01*
X61000Y148000D02*
X62500Y146500D01*
X45500Y148000D02*
X61000D01*
X53390Y138890D02*
X56500Y142000D01*
X53390Y133280D02*
Y138890D01*
X47484Y133280D02*
Y137016D01*
X47000Y137500D02*
X47484Y137016D01*
X44000Y137500D02*
X47000D01*
X43547Y137047D02*
X44000Y137500D01*
X43547Y133280D02*
Y137047D01*
D55*
X63000Y40307D02*
D03*
Y74953D02*
D03*
D56*
X57917Y138201D02*
D03*
X35083D02*
D03*
D03*
X57917D02*
D03*
D57*
X29472Y136232D02*
D03*
X63528D02*
D03*
D03*
X29472D02*
D03*
D58*
X63528Y152768D02*
D03*
X29472D02*
D03*
D03*
X63528D02*
D03*
D59*
X84000Y84000D02*
D03*
X77000D02*
D03*
X48000Y79000D02*
D03*
X24500Y90500D02*
D03*
X29000Y83500D02*
D03*
X26500Y72500D02*
D03*
X36500Y41000D02*
D03*
X63000Y30500D02*
D03*
X78000Y36500D02*
D03*
Y26500D02*
D03*
X70000Y19500D02*
D03*
X22500Y20000D02*
D03*
X4000Y22000D02*
D03*
X24500Y100500D02*
D03*
X34000Y117000D02*
D03*
X24500D02*
D03*
X5500D02*
D03*
Y141000D02*
D03*
X19500Y157000D02*
D03*
X68000Y123500D02*
D03*
X72500Y135941D02*
D03*
X77000Y152500D02*
D03*
Y144000D02*
D03*
X82032Y91125D02*
D03*
X71742Y98750D02*
D03*
X61500Y105750D02*
D03*
X56500Y91000D02*
D03*
X45000Y103000D02*
D03*
X31500Y90500D02*
D03*
X32000Y75000D02*
D03*
X41000Y60000D02*
D03*
X37000Y46000D02*
D03*
X64000Y20000D02*
D03*
X36268Y28268D02*
D03*
X44500Y28500D02*
D03*
X80500Y43500D02*
D03*
X40000Y6500D02*
D03*
X37000Y54000D02*
D03*
X35000Y83500D02*
D03*
X85969Y112488D02*
D03*
X57661Y66839D02*
D03*
X86500Y72000D02*
D03*
X82500D02*
D03*
X21000Y53500D02*
D03*
Y61500D02*
D03*
X22500Y57000D02*
D03*
X48740Y103240D02*
D03*
X41260Y103260D02*
D03*
X52500Y70000D02*
D03*
Y82000D02*
D03*
X49500Y140000D02*
D03*
X43500D02*
D03*
X58000Y144000D02*
D03*
X45500Y148000D02*
D03*
X34000Y125500D02*
D03*
X59000D02*
D03*
X37000D02*
D03*
X56000D02*
D03*
D60*
X80472Y52469D02*
D03*
Y57390D02*
D03*
Y62311D02*
D03*
X70630D02*
D03*
Y57390D02*
D03*
Y52469D02*
D03*
X75551D02*
D03*
Y62311D02*
D03*
Y57390D02*
D03*
M02*
