M48
;Layer_Color=9474304
;FILE_FORMAT=2:5
INCH,LZ
;TYPE=PLATED
T1F00S00C0.00787
T2F00S00C0.01000
;TYPE=NON_PLATED
T5F00S00C0.02362
%
T01
X007063Y0052469
Y005739
Y0062311
X0075551
X0080472
Y005739
Y0052469
X0075551
Y005739
T02
X00445Y00285
X0063Y00305
X0064Y002
X007Y00195
X0078Y00265
Y00365
X00805Y00435
X00825Y0072
X00865
X0084Y0084
X0077
X0082032Y0091125
X0071742Y009875
X00615Y010575
X004874Y010324
X0045Y0103
X00565Y0091
X00525Y0082
X0048Y0079
X00525Y007
X0057661Y0066839
X0059Y01255
X0056
X0068Y01235
X00725Y0135941
X0077Y0144
X0058
X00495Y014
X00455Y0148
X0085969Y0112488
X004126Y010326
X00245Y01005
Y00905
X00315
X0029Y00835
X0035
X0032Y0075
X00265Y00725
X0021Y00615
X00225Y0057
X0021Y00535
X0037Y0054
Y0046
X00365Y0041
X0036268Y0028268
X00225Y002
X0004Y0022
X004Y00065
X0041Y006
X0034Y0117
Y01255
X0037
X00245Y0117
X00055
Y0141
X00435Y014
X00195Y0157
X0077Y01525
T05
X0057917Y0138201
X0035083
M30
