G04*
G04 #@! TF.GenerationSoftware,Altium Limited,Altium Designer,21.7.2 (23)*
G04*
G04 Layer_Color=65535*
%FSLAX25Y25*%
%MOIN*%
G70*
G04*
G04 #@! TF.SameCoordinates,D0A3D993-BCFD-4162-BC10-8A45587FADB4*
G04*
G04*
G04 #@! TF.FilePolarity,Positive*
G04*
G01*
G75*
%ADD10C,0.00984*%
%ADD11C,0.00787*%
%ADD12C,0.01181*%
%ADD13C,0.00200*%
G36*
X15912Y143559D02*
X15809D01*
Y143353D01*
X15706D01*
Y143147D01*
X15603D01*
Y142941D01*
X15500D01*
Y142838D01*
X15397D01*
Y142632D01*
X15294D01*
Y142427D01*
X15191D01*
Y142324D01*
X15088D01*
Y142118D01*
X14985D01*
Y141912D01*
X14882D01*
Y141809D01*
X14779D01*
Y141603D01*
X14676D01*
Y141397D01*
X14573D01*
Y141294D01*
X14471D01*
Y141088D01*
X14368D01*
Y140882D01*
X14265D01*
Y140779D01*
X14162D01*
Y140574D01*
X14059D01*
Y140471D01*
X13956D01*
Y140368D01*
X13853D01*
Y140162D01*
X13750D01*
Y140059D01*
X13647D01*
Y139956D01*
X13750D01*
Y139853D01*
X14162D01*
Y139956D01*
X14573D01*
Y140059D01*
X14779D01*
Y140162D01*
X14985D01*
Y140265D01*
X15191D01*
Y140368D01*
X15397D01*
Y140471D01*
X15500D01*
Y140574D01*
X15809D01*
Y140676D01*
X16015D01*
Y140779D01*
X16221D01*
Y140882D01*
X16529D01*
Y140985D01*
X16838D01*
Y141088D01*
X17147D01*
Y141191D01*
X17559D01*
Y141294D01*
X18177D01*
Y141191D01*
X18382D01*
Y141088D01*
X18485D01*
Y140882D01*
X18588D01*
Y140676D01*
X18691D01*
Y140471D01*
X18794D01*
Y140265D01*
X18897D01*
Y139956D01*
X19000D01*
Y139750D01*
X19103D01*
Y139544D01*
X19206D01*
Y139338D01*
X19309D01*
Y139132D01*
X19412D01*
Y138926D01*
X19515D01*
Y138618D01*
X19618D01*
Y138309D01*
X19721D01*
Y138000D01*
X19824D01*
Y137588D01*
X19927D01*
Y137074D01*
X20029D01*
Y136250D01*
X20132D01*
Y134500D01*
X20029D01*
Y133882D01*
X19927D01*
Y133471D01*
X19824D01*
Y133162D01*
X19721D01*
Y132853D01*
X19618D01*
Y132544D01*
X19515D01*
Y132338D01*
X19412D01*
Y132132D01*
X19309D01*
Y131927D01*
X19206D01*
Y131721D01*
X19103D01*
Y131618D01*
X19000D01*
Y131412D01*
X18897D01*
Y131309D01*
X18794D01*
Y131103D01*
X18691D01*
Y131000D01*
X18588D01*
Y130897D01*
X18485D01*
Y130794D01*
X18382D01*
Y130588D01*
X18279D01*
Y130485D01*
X18177D01*
Y130382D01*
X18074D01*
Y130279D01*
X17971D01*
Y130176D01*
X17868D01*
Y130073D01*
X17765D01*
Y129971D01*
X17559D01*
Y129868D01*
X17456D01*
Y129765D01*
X17250D01*
Y129662D01*
X17147D01*
Y129559D01*
X16941D01*
Y129456D01*
X16735D01*
Y129353D01*
X16427D01*
Y129250D01*
X16118D01*
Y129147D01*
X15603D01*
Y129044D01*
X13338D01*
Y129147D01*
X12721D01*
Y129250D01*
X12309D01*
Y129353D01*
X12000D01*
Y129456D01*
X11691D01*
Y129559D01*
X11382D01*
Y129662D01*
X11176D01*
Y129765D01*
X10868D01*
Y129868D01*
X10662D01*
Y129971D01*
X10456D01*
Y130073D01*
X10250D01*
Y130176D01*
X10044D01*
Y130279D01*
X9941D01*
Y130382D01*
X9735D01*
Y130485D01*
X9529D01*
Y130588D01*
X9426D01*
Y130691D01*
X9221D01*
Y130794D01*
X9015D01*
Y130897D01*
X8809D01*
Y131000D01*
X8706D01*
Y131103D01*
X8500D01*
Y131206D01*
X8294D01*
Y131309D01*
X8088D01*
Y131412D01*
X7882D01*
Y131515D01*
X7779D01*
Y131618D01*
X7574D01*
Y131721D01*
X7368D01*
Y131618D01*
X7265D01*
Y131515D01*
X7162D01*
Y131309D01*
X7059D01*
Y131206D01*
X6956D01*
Y131103D01*
X6853D01*
Y131000D01*
X6750D01*
Y130897D01*
X6647D01*
Y130794D01*
X6544D01*
Y130691D01*
X6441D01*
Y130588D01*
X6338D01*
Y130897D01*
X6441D01*
Y131103D01*
X6647D01*
Y131206D01*
X6750D01*
Y131309D01*
X6853D01*
Y131412D01*
X6956D01*
Y131515D01*
X7059D01*
Y131618D01*
X7162D01*
Y131721D01*
X7265D01*
Y131927D01*
X7162D01*
Y132029D01*
X7059D01*
Y132132D01*
X6956D01*
Y132338D01*
X7059D01*
Y132441D01*
X7265D01*
Y132544D01*
X7985D01*
Y132647D01*
X8088D01*
Y132750D01*
X8191D01*
Y132853D01*
X8294D01*
Y132956D01*
X8397D01*
Y133059D01*
X8500D01*
Y133162D01*
X8603D01*
Y133265D01*
X8706D01*
Y133471D01*
X8809D01*
Y133573D01*
X8912D01*
Y133677D01*
X9015D01*
Y133779D01*
X9118D01*
Y133985D01*
X9221D01*
Y134088D01*
X9324D01*
Y134191D01*
X9426D01*
Y134294D01*
X9529D01*
Y134500D01*
X9632D01*
Y134603D01*
X9735D01*
Y134706D01*
X9838D01*
Y134912D01*
X9941D01*
Y135015D01*
X10044D01*
Y135118D01*
X10147D01*
Y135324D01*
X10250D01*
Y135426D01*
X10353D01*
Y135632D01*
X10456D01*
Y135735D01*
X10559D01*
Y135941D01*
X10662D01*
Y136044D01*
X10765D01*
Y136250D01*
X10868D01*
Y136353D01*
X10971D01*
Y136559D01*
X11073D01*
Y136662D01*
X11176D01*
Y136868D01*
X11279D01*
Y136971D01*
X11382D01*
Y137074D01*
X11485D01*
Y137279D01*
X11588D01*
Y137382D01*
X11691D01*
Y137588D01*
X11794D01*
Y137691D01*
X11897D01*
Y137794D01*
X12000D01*
Y138000D01*
X12103D01*
Y138103D01*
X12206D01*
Y138309D01*
X12309D01*
Y138412D01*
X12412D01*
Y138618D01*
X12515D01*
Y138721D01*
X12618D01*
Y138926D01*
X12721D01*
Y139029D01*
X12823D01*
Y139235D01*
X12926D01*
Y139338D01*
X13029D01*
Y139441D01*
X13132D01*
Y139647D01*
X13235D01*
Y139853D01*
X13132D01*
Y139956D01*
X13029D01*
Y140162D01*
X12926D01*
Y140985D01*
X13029D01*
Y141397D01*
X13132D01*
Y141603D01*
X13235D01*
Y141809D01*
X13338D01*
Y142015D01*
X13441D01*
Y142221D01*
X13544D01*
Y142427D01*
X13647D01*
Y142529D01*
X13750D01*
Y142735D01*
X13853D01*
Y142838D01*
X13956D01*
Y142941D01*
X14059D01*
Y143044D01*
X14162D01*
Y143250D01*
X14265D01*
Y143353D01*
X14368D01*
Y143456D01*
X14471D01*
Y143559D01*
X14676D01*
Y143662D01*
X14779D01*
Y143765D01*
X14882D01*
Y143868D01*
X15088D01*
Y143971D01*
X15191D01*
Y144073D01*
X15397D01*
Y144176D01*
X15912D01*
Y143559D01*
D02*
G37*
%LPC*%
G36*
X18177Y141088D02*
X17559D01*
Y140985D01*
X17147D01*
Y140882D01*
X16838D01*
Y140779D01*
X16529D01*
Y140676D01*
X16323D01*
Y140574D01*
X16015D01*
Y140471D01*
X15809D01*
Y140368D01*
X15603D01*
Y140265D01*
X15397D01*
Y140162D01*
X15191D01*
Y140059D01*
X14985D01*
Y139956D01*
X14882D01*
Y139853D01*
X14573D01*
Y139750D01*
X14265D01*
Y139647D01*
X13647D01*
Y139750D01*
X13441D01*
Y139544D01*
X13338D01*
Y139441D01*
X13235D01*
Y139235D01*
X13132D01*
Y139132D01*
X13029D01*
Y138926D01*
X12926D01*
Y138823D01*
X12823D01*
Y138618D01*
X12721D01*
Y138515D01*
X12618D01*
Y138309D01*
X12515D01*
Y138206D01*
X12412D01*
Y138103D01*
X12309D01*
Y137897D01*
X12206D01*
Y137794D01*
X12103D01*
Y137588D01*
X12000D01*
Y137485D01*
X11897D01*
Y137279D01*
X11794D01*
Y137177D01*
X11691D01*
Y137074D01*
X11588D01*
Y136868D01*
X11485D01*
Y136765D01*
X11382D01*
Y136662D01*
X11279D01*
Y136456D01*
X11176D01*
Y136353D01*
X11073D01*
Y136147D01*
X10971D01*
Y136044D01*
X10868D01*
Y135838D01*
X10765D01*
Y135735D01*
X10662D01*
Y135529D01*
X10559D01*
Y135426D01*
X10456D01*
Y135221D01*
X10353D01*
Y135118D01*
X10250D01*
Y134912D01*
X10147D01*
Y134809D01*
X10044D01*
Y134706D01*
X9941D01*
Y134500D01*
X9838D01*
Y134397D01*
X9735D01*
Y134294D01*
X9632D01*
Y134088D01*
X9529D01*
Y133985D01*
X9426D01*
Y133882D01*
X9324D01*
Y133779D01*
X9221D01*
Y133573D01*
X9118D01*
Y133471D01*
X9015D01*
Y133368D01*
X8912D01*
Y133265D01*
X8809D01*
Y133162D01*
X8706D01*
Y132956D01*
X8603D01*
Y132853D01*
X8500D01*
Y132750D01*
X8397D01*
Y132647D01*
X8809D01*
Y132750D01*
X9324D01*
Y132853D01*
X9838D01*
Y132956D01*
X10250D01*
Y133059D01*
X10868D01*
Y133162D01*
X11485D01*
Y133265D01*
X12103D01*
Y133368D01*
X12618D01*
Y133471D01*
X13132D01*
Y133573D01*
X13441D01*
Y134088D01*
X13544D01*
Y134397D01*
X13647D01*
Y134603D01*
X13750D01*
Y134912D01*
X13853D01*
Y135221D01*
X13956D01*
Y135529D01*
X14059D01*
Y135735D01*
X14162D01*
Y136044D01*
X14265D01*
Y136250D01*
X14368D01*
Y136456D01*
X14471D01*
Y136662D01*
X14573D01*
Y136868D01*
X14676D01*
Y137074D01*
X14779D01*
Y137279D01*
X14676D01*
Y137177D01*
X14573D01*
Y137074D01*
X14471D01*
Y136971D01*
X14368D01*
Y136868D01*
X14265D01*
Y136662D01*
X14162D01*
Y136559D01*
X14059D01*
Y136456D01*
X13956D01*
Y136250D01*
X13853D01*
Y136147D01*
X13750D01*
Y135941D01*
X13647D01*
Y135735D01*
X13544D01*
Y135529D01*
X13441D01*
Y135324D01*
X13338D01*
Y135221D01*
X13235D01*
Y135324D01*
X13132D01*
Y135426D01*
X13235D01*
Y135632D01*
X13338D01*
Y135838D01*
X13441D01*
Y136044D01*
X13544D01*
Y136250D01*
X13647D01*
Y136353D01*
X13750D01*
Y136559D01*
X13853D01*
Y136868D01*
X13956D01*
Y137177D01*
X13647D01*
Y137074D01*
X13544D01*
Y136971D01*
X13441D01*
Y136868D01*
X13338D01*
Y136765D01*
X13235D01*
Y136662D01*
X13132D01*
Y136456D01*
X13029D01*
Y136353D01*
X12926D01*
Y136250D01*
X12823D01*
Y136044D01*
X12721D01*
Y135941D01*
X12618D01*
Y135735D01*
X12515D01*
Y135529D01*
X12412D01*
Y135221D01*
X12309D01*
Y135015D01*
X12206D01*
Y134706D01*
X12103D01*
Y134397D01*
X12000D01*
Y134191D01*
X11897D01*
Y133985D01*
X11691D01*
Y134397D01*
X11794D01*
Y134706D01*
X11897D01*
Y134912D01*
X12000D01*
Y135118D01*
X12103D01*
Y135324D01*
X12206D01*
Y135632D01*
X12309D01*
Y135838D01*
X12412D01*
Y136147D01*
X12515D01*
Y136456D01*
X12618D01*
Y136971D01*
X12515D01*
Y136868D01*
X12309D01*
Y136765D01*
X12206D01*
Y136662D01*
X12103D01*
Y136559D01*
X12000D01*
Y136456D01*
X11897D01*
Y136353D01*
X11794D01*
Y136250D01*
X11691D01*
Y136147D01*
X11588D01*
Y135941D01*
X11485D01*
Y135735D01*
X11382D01*
Y135529D01*
X11279D01*
Y135941D01*
X11382D01*
Y136147D01*
X11485D01*
Y136353D01*
X11588D01*
Y136456D01*
X11691D01*
Y136559D01*
X11794D01*
Y136662D01*
X11897D01*
Y136765D01*
X12000D01*
Y136868D01*
X12103D01*
Y136971D01*
X12206D01*
Y137074D01*
X12412D01*
Y137177D01*
X12823D01*
Y136559D01*
X12926D01*
Y136662D01*
X13029D01*
Y136868D01*
X13132D01*
Y136971D01*
X13235D01*
Y137074D01*
X13338D01*
Y137177D01*
X13441D01*
Y137279D01*
X13647D01*
Y137382D01*
X14059D01*
Y137177D01*
X14162D01*
Y137074D01*
X14265D01*
Y137177D01*
X14368D01*
Y137279D01*
X14471D01*
Y137382D01*
X14573D01*
Y137485D01*
X14676D01*
Y137588D01*
X14779D01*
Y137691D01*
X14882D01*
Y137794D01*
X14985D01*
Y137897D01*
X15191D01*
Y137382D01*
X15088D01*
Y137177D01*
X14985D01*
Y136971D01*
X14882D01*
Y136765D01*
X14779D01*
Y136559D01*
X14676D01*
Y136353D01*
X14573D01*
Y136147D01*
X14471D01*
Y135941D01*
X14368D01*
Y135735D01*
X14265D01*
Y135426D01*
X14162D01*
Y135221D01*
X14059D01*
Y134912D01*
X13956D01*
Y134603D01*
X13853D01*
Y134294D01*
X13750D01*
Y133985D01*
X13647D01*
Y133677D01*
X14265D01*
Y133779D01*
X14676D01*
Y133882D01*
X14985D01*
Y133985D01*
X15191D01*
Y134088D01*
X15397D01*
Y134191D01*
X15912D01*
Y134294D01*
X16323D01*
Y134088D01*
X16118D01*
Y133985D01*
X15912D01*
Y133882D01*
X15603D01*
Y133779D01*
X15294D01*
Y133677D01*
X15088D01*
Y133573D01*
X14882D01*
Y133471D01*
X14676D01*
Y133368D01*
X14573D01*
Y133265D01*
X14368D01*
Y133162D01*
X14162D01*
Y133059D01*
X14059D01*
Y132956D01*
X13647D01*
Y133059D01*
X13544D01*
Y133265D01*
X13441D01*
Y133368D01*
X13338D01*
Y133265D01*
X12823D01*
Y133162D01*
X12309D01*
Y133059D01*
X11691D01*
Y132956D01*
X11073D01*
Y132853D01*
X10456D01*
Y132750D01*
X9941D01*
Y132647D01*
X9426D01*
Y132544D01*
X8912D01*
Y132441D01*
X8294D01*
Y132338D01*
X7985D01*
Y132235D01*
X7882D01*
Y132132D01*
X7779D01*
Y132029D01*
X7677D01*
Y131824D01*
X7882D01*
Y131721D01*
X7985D01*
Y131618D01*
X8191D01*
Y131515D01*
X8397D01*
Y131412D01*
X8603D01*
Y131309D01*
X8809D01*
Y131206D01*
X8912D01*
Y131103D01*
X9118D01*
Y131000D01*
X9324D01*
Y130897D01*
X9529D01*
Y130794D01*
X9632D01*
Y130691D01*
X9838D01*
Y130588D01*
X10044D01*
Y130485D01*
X10147D01*
Y130382D01*
X10353D01*
Y130279D01*
X10559D01*
Y130176D01*
X10765D01*
Y130073D01*
X10971D01*
Y129971D01*
X11279D01*
Y129868D01*
X11485D01*
Y129765D01*
X11794D01*
Y129662D01*
X12103D01*
Y129559D01*
X12515D01*
Y129456D01*
X12926D01*
Y129353D01*
X13544D01*
Y129250D01*
X15397D01*
Y129353D01*
X16015D01*
Y129456D01*
X16323D01*
Y129559D01*
X16529D01*
Y129662D01*
X16838D01*
Y129765D01*
X17044D01*
Y129868D01*
X17147D01*
Y129971D01*
X17353D01*
Y130073D01*
X17456D01*
Y130176D01*
X17559D01*
Y130279D01*
X17765D01*
Y130382D01*
X17868D01*
Y130485D01*
X17971D01*
Y130588D01*
X18074D01*
Y130691D01*
X18177D01*
Y130897D01*
X18279D01*
Y131000D01*
X18382D01*
Y131103D01*
X18485D01*
Y131206D01*
X18588D01*
Y131412D01*
X18691D01*
Y131515D01*
X18794D01*
Y131721D01*
X18897D01*
Y131927D01*
X19000D01*
Y132029D01*
X19103D01*
Y132235D01*
X19206D01*
Y132441D01*
X19309D01*
Y132647D01*
X19412D01*
Y132956D01*
X19515D01*
Y133265D01*
X19618D01*
Y133573D01*
X19721D01*
Y134088D01*
X19824D01*
Y134809D01*
X19927D01*
Y135941D01*
X19824D01*
Y136868D01*
X19721D01*
Y137485D01*
X19618D01*
Y137897D01*
X19515D01*
Y138206D01*
X19412D01*
Y138515D01*
X19309D01*
Y138823D01*
X19206D01*
Y139029D01*
X19103D01*
Y139235D01*
X19000D01*
Y139441D01*
X18897D01*
Y139647D01*
X18794D01*
Y139956D01*
X18691D01*
Y140162D01*
X18588D01*
Y140368D01*
X18485D01*
Y140574D01*
X18382D01*
Y140779D01*
X18279D01*
Y140985D01*
X18177D01*
Y141088D01*
D02*
G37*
G36*
X14882Y137382D02*
X14779D01*
Y137279D01*
X14882D01*
Y137382D01*
D02*
G37*
G36*
X14265Y133471D02*
X13853D01*
Y133368D01*
X13750D01*
Y133162D01*
X13853D01*
Y133265D01*
X14059D01*
Y133368D01*
X14265D01*
Y133471D01*
D02*
G37*
G36*
X7677Y132338D02*
X7368D01*
Y132235D01*
X7265D01*
Y132132D01*
X7368D01*
Y132029D01*
X7574D01*
Y132132D01*
X7677D01*
Y132235D01*
Y132338D01*
D02*
G37*
G36*
X15706Y143971D02*
X15500D01*
Y143868D01*
X15294D01*
Y143765D01*
X15088D01*
Y143662D01*
X14985D01*
Y143559D01*
X14882D01*
Y143456D01*
X14676D01*
Y143353D01*
X14573D01*
Y143250D01*
X14471D01*
Y143147D01*
X14368D01*
Y142941D01*
X14265D01*
Y142838D01*
X14162D01*
Y142735D01*
X14059D01*
Y142632D01*
X13956D01*
Y142427D01*
X13853D01*
Y142324D01*
X13750D01*
Y142118D01*
X13647D01*
Y142015D01*
X13544D01*
Y141809D01*
X13441D01*
Y141603D01*
X13338D01*
Y141294D01*
X13235D01*
Y140985D01*
X13132D01*
Y140265D01*
X13235D01*
Y140059D01*
X13338D01*
Y139956D01*
X13441D01*
Y140059D01*
X13544D01*
Y140265D01*
X13647D01*
Y140368D01*
X13750D01*
Y140574D01*
X13853D01*
Y140676D01*
X13956D01*
Y140882D01*
X14059D01*
Y140985D01*
X14162D01*
Y141191D01*
X14265D01*
Y141397D01*
X14368D01*
Y141500D01*
X14471D01*
Y141706D01*
X14573D01*
Y141912D01*
X14676D01*
Y142015D01*
X14779D01*
Y142221D01*
X14882D01*
Y142324D01*
X14985D01*
Y142529D01*
X15088D01*
Y142735D01*
X15191D01*
Y142838D01*
X15294D01*
Y143044D01*
X15397D01*
Y143147D01*
X15500D01*
Y143353D01*
X15603D01*
Y143559D01*
X15706D01*
Y143971D01*
D02*
G37*
%LPD*%
D10*
X38405Y107972D02*
G03*
X38405Y107972I-492J0D01*
G01*
X72276Y119587D02*
G03*
X72276Y119587I-492J0D01*
G01*
D11*
X48150Y12650D02*
Y15405D01*
X41850Y12650D02*
Y15405D01*
X48150D01*
X58201Y80140D02*
Y83925D01*
Y80140D02*
X62357D01*
X38898Y111909D02*
Y113091D01*
X51102Y111909D02*
Y113091D01*
X38898Y111909D02*
X51102D01*
X38898Y113091D02*
X51102D01*
X27118Y34075D02*
X29480D01*
X27118D02*
Y38012D01*
X16882D02*
X27118D01*
X16882Y34075D02*
Y38012D01*
X14520Y34075D02*
X16882D01*
X14520Y30925D02*
Y34075D01*
Y30925D02*
X16882D01*
Y26988D02*
Y30925D01*
Y26988D02*
X27118D01*
Y30925D01*
X29480D01*
Y34075D01*
X75425Y118209D02*
X78575D01*
X75425Y106791D02*
X78575D01*
X75425D02*
Y118209D01*
X78575Y106791D02*
Y118209D01*
X58150Y12650D02*
Y15405D01*
X51850Y12650D02*
Y15405D01*
X58150D01*
X31350D02*
X37650D01*
X31350Y12650D02*
Y15405D01*
X37650Y12650D02*
Y15405D01*
D12*
X64724Y68217D02*
X66693D01*
X64724Y66248D02*
Y68217D01*
X28784Y128752D02*
X64217D01*
X67169Y131705D01*
X25831D02*
X28784Y128752D01*
X25831Y131705D02*
Y157295D01*
X67169Y131705D02*
Y157295D01*
D13*
X76200Y87700D02*
X76866D01*
X76533D01*
Y86700D01*
X77200Y87700D02*
X77866Y86700D01*
Y87700D02*
X77200Y86700D01*
M02*
