G04*
G04 #@! TF.GenerationSoftware,Altium Limited,Altium Designer,21.7.2 (23)*
G04*
G04 Layer_Color=16711935*
%FSLAX25Y25*%
%MOIN*%
G70*
G04*
G04 #@! TF.SameCoordinates,D0A3D993-BCFD-4162-BC10-8A45587FADB4*
G04*
G04*
G04 #@! TF.FilePolarity,Negative*
G04*
G01*
G75*
%ADD34R,0.03465X0.07008*%
%ADD35R,0.02913X0.06457*%
%ADD36R,0.02284X0.07008*%
%ADD40O,0.20485X0.08674*%
%ADD41C,0.04724*%
%ADD42O,0.04331X0.09055*%
%ADD43O,0.04331X0.07874*%
%ADD44C,0.02800*%
D34*
X37051Y133280D02*
D03*
X55949D02*
D03*
D35*
X33902D02*
D03*
X59098D02*
D03*
D36*
X39610D02*
D03*
X41579D02*
D03*
X43547D02*
D03*
X53390D02*
D03*
X51421D02*
D03*
X49453D02*
D03*
X47484D02*
D03*
X45516D02*
D03*
D40*
X63000Y40307D02*
D03*
Y74953D02*
D03*
D41*
X57917Y138201D02*
D03*
X35083D02*
D03*
D03*
X57917D02*
D03*
D42*
X29472Y136232D02*
D03*
X63528D02*
D03*
D03*
X29472D02*
D03*
D43*
X63528Y152768D02*
D03*
X29472D02*
D03*
D03*
X63528D02*
D03*
D44*
X84000Y84000D02*
D03*
X77000D02*
D03*
X48000Y79000D02*
D03*
X24500Y90500D02*
D03*
X29000Y83500D02*
D03*
X26500Y72500D02*
D03*
X36500Y41000D02*
D03*
X63000Y30500D02*
D03*
X78000Y36500D02*
D03*
Y26500D02*
D03*
X70000Y19500D02*
D03*
X22500Y20000D02*
D03*
X4000Y22000D02*
D03*
X24500Y100500D02*
D03*
X34000Y117000D02*
D03*
X24500D02*
D03*
X5500D02*
D03*
Y141000D02*
D03*
X19500Y157000D02*
D03*
X68000Y123500D02*
D03*
X72500Y135941D02*
D03*
X77000Y152500D02*
D03*
Y144000D02*
D03*
X82032Y91125D02*
D03*
X71742Y98750D02*
D03*
X61500Y105750D02*
D03*
X56500Y91000D02*
D03*
X45000Y103000D02*
D03*
X31500Y90500D02*
D03*
X32000Y75000D02*
D03*
X41000Y60000D02*
D03*
X37000Y46000D02*
D03*
X64000Y20000D02*
D03*
X36268Y28268D02*
D03*
X44500Y28500D02*
D03*
X80500Y43500D02*
D03*
X40000Y6500D02*
D03*
X37000Y54000D02*
D03*
X35000Y83500D02*
D03*
X85969Y112488D02*
D03*
X57661Y66839D02*
D03*
X86500Y72000D02*
D03*
X82500D02*
D03*
X21000Y53500D02*
D03*
Y61500D02*
D03*
X22500Y57000D02*
D03*
X48740Y103240D02*
D03*
X41260Y103260D02*
D03*
X52500Y70000D02*
D03*
Y82000D02*
D03*
X49500Y140000D02*
D03*
X43500D02*
D03*
X58000Y144000D02*
D03*
X45500Y148000D02*
D03*
X34000Y125500D02*
D03*
X59000D02*
D03*
X37000D02*
D03*
X56000D02*
D03*
M02*
