G04*
G04 #@! TF.GenerationSoftware,Altium Limited,Altium Designer,21.7.2 (23)*
G04*
G04 Layer_Color=8421504*
%FSLAX25Y25*%
%MOIN*%
G70*
G04*
G04 #@! TF.SameCoordinates,2DF3D4ED-E0DB-4B01-A8BF-79668011FF23*
G04*
G04*
G04 #@! TF.FilePolarity,Positive*
G04*
G01*
G75*
%ADD14R,0.07677X0.02165*%
%ADD15R,0.02362X0.04134*%
%ADD16R,0.07362X0.04134*%
%ADD17R,0.05709X0.04528*%
%ADD18R,0.03937X0.05709*%
%ADD19R,0.03347X0.01968*%
%ADD20R,0.05709X0.03937*%
D14*
X74496Y70000D02*
D03*
Y75000D02*
D03*
Y80000D02*
D03*
Y85000D02*
D03*
Y90000D02*
D03*
Y95000D02*
D03*
Y100000D02*
D03*
Y105000D02*
D03*
Y110000D02*
D03*
Y115000D02*
D03*
Y120000D02*
D03*
Y125000D02*
D03*
X111504D02*
D03*
Y120000D02*
D03*
Y115000D02*
D03*
Y110000D02*
D03*
Y105000D02*
D03*
Y100000D02*
D03*
Y95000D02*
D03*
Y90000D02*
D03*
Y85000D02*
D03*
Y80000D02*
D03*
Y75000D02*
D03*
Y70000D02*
D03*
D15*
X329500Y100937D02*
D03*
X344500D02*
D03*
X329500Y122000D02*
D03*
X344500D02*
D03*
D16*
X337000Y100937D02*
D03*
Y122000D02*
D03*
D17*
X376000Y117043D02*
D03*
Y109957D02*
D03*
X250000Y110043D02*
D03*
Y102957D02*
D03*
D18*
X30260Y173500D02*
D03*
X37740D02*
D03*
D19*
X256339Y17000D02*
D03*
X248661Y14441D02*
D03*
Y19559D02*
D03*
D20*
X237000Y20740D02*
D03*
Y13260D02*
D03*
M02*
