G04*
G04 #@! TF.GenerationSoftware,Altium Limited,Altium Designer,21.7.2 (23)*
G04*
G04 Layer_Color=65535*
%FSLAX25Y25*%
%MOIN*%
G70*
G04*
G04 #@! TF.SameCoordinates,2DF3D4ED-E0DB-4B01-A8BF-79668011FF23*
G04*
G04*
G04 #@! TF.FilePolarity,Positive*
G04*
G01*
G75*
%ADD10C,0.00984*%
%ADD11C,0.00591*%
%ADD12C,0.00787*%
%ADD13C,0.01000*%
D10*
X67606Y125000D02*
G03*
X67606Y125000I-492J0D01*
G01*
X249153Y22709D02*
G03*
X249153Y22709I-492J0D01*
G01*
D11*
X379150Y113303D02*
Y113697D01*
X372850Y113303D02*
Y113697D01*
X253150Y106303D02*
Y106697D01*
X246850Y106303D02*
Y106697D01*
X33409Y176453D02*
X34591D01*
X33409Y170547D02*
X34591D01*
X239953Y16409D02*
Y17591D01*
X234047Y16409D02*
Y17591D01*
D12*
X78039Y127657D02*
Y128209D01*
Y66791D02*
Y67343D01*
Y66791D02*
X107961D01*
Y127657D02*
Y128209D01*
Y66791D02*
Y67343D01*
X78039Y128209D02*
X107961D01*
X415556Y175000D02*
X447445D01*
X415556Y135000D02*
X447445D01*
Y175000D01*
X415556Y135000D02*
Y175000D01*
Y111000D02*
X447445D01*
X415556Y71000D02*
X447445D01*
Y111000D01*
X415556Y71000D02*
Y111000D01*
X255157Y12669D02*
Y14441D01*
X252008Y12669D02*
X255157D01*
Y19559D02*
Y21331D01*
X252008D02*
X255157D01*
D13*
X256499Y95499D02*
X255999Y95999D01*
X255000D01*
X254500Y95499D01*
Y93500D01*
X255000Y93000D01*
X255999D01*
X256499Y93500D01*
Y94499D01*
X255500D01*
X257499Y93000D02*
Y95999D01*
X259498Y93000D01*
Y95999D01*
X260498D02*
Y93000D01*
X261998D01*
X262497Y93500D01*
Y95499D01*
X261998Y95999D01*
X260498D01*
X265000Y118999D02*
Y117000D01*
X266000Y116000D01*
X266999Y117000D01*
Y118999D01*
X269998Y117999D02*
X268499D01*
X267999Y117499D01*
Y116500D01*
X268499Y116000D01*
X269998D01*
X272997Y117999D02*
X271498D01*
X270998Y117499D01*
Y116500D01*
X271498Y116000D01*
X272997D01*
X250999Y163998D02*
X247000D01*
Y158000D01*
X250999D01*
X247000Y160999D02*
X248999D01*
X252998Y158000D02*
X254997D01*
X253998D01*
Y163998D01*
X252998Y162998D01*
X257996D02*
X258996Y163998D01*
X260996D01*
X261995Y162998D01*
Y161998D01*
X260996Y160999D01*
X261995Y159999D01*
Y158999D01*
X260996Y158000D01*
X258996D01*
X257996Y158999D01*
Y159999D01*
X258996Y160999D01*
X257996Y161998D01*
Y162998D01*
X258996Y160999D02*
X260996D01*
X263995Y158000D02*
X265994D01*
X264994D01*
Y163998D01*
X263995Y162998D01*
X268993Y158000D02*
X270992D01*
X269993D01*
Y163998D01*
X268993Y162998D01*
X273991Y163998D02*
Y158000D01*
Y160999D01*
X277990D01*
Y163998D01*
Y158000D01*
X279989Y163998D02*
Y158999D01*
X280989Y158000D01*
X282988D01*
X283988Y158999D01*
Y163998D01*
X285987D02*
Y158000D01*
X288986D01*
X289986Y158999D01*
Y159999D01*
X288986Y160999D01*
X285987D01*
X288986D01*
X289986Y161998D01*
Y162998D01*
X288986Y163998D01*
X285987D01*
X291985Y158000D02*
Y163998D01*
X294985D01*
X295984Y162998D01*
Y160999D01*
X294985Y159999D01*
X291985D01*
X301982Y162998D02*
X300982Y163998D01*
X298983D01*
X297984Y162998D01*
Y158999D01*
X298983Y158000D01*
X300982D01*
X301982Y158999D01*
X303982Y163998D02*
Y158000D01*
X306981D01*
X307980Y158999D01*
Y159999D01*
X306981Y160999D01*
X303982D01*
X306981D01*
X307980Y161998D01*
Y162998D01*
X306981Y163998D01*
X303982D01*
X309980Y158000D02*
X311979D01*
X310979D01*
Y163998D01*
X309980Y162998D01*
X314978Y157000D02*
X318977D01*
X324975Y163998D02*
X320976D01*
Y160999D01*
X322975Y161998D01*
X323975D01*
X324975Y160999D01*
Y158999D01*
X323975Y158000D01*
X321976D01*
X320976Y158999D01*
X406000Y49500D02*
X411998D01*
X406000Y45501D01*
X411998D01*
Y40503D02*
Y42502D01*
X410998Y43502D01*
X407000D01*
X406000Y42502D01*
Y40503D01*
X407000Y39503D01*
X410998D01*
X411998Y40503D01*
X410998Y31501D02*
X411998Y32501D01*
Y34500D01*
X410998Y35500D01*
X407000D01*
X406000Y34500D01*
Y32501D01*
X407000Y31501D01*
X411998Y26503D02*
Y28502D01*
X410998Y29502D01*
X407000D01*
X406000Y28502D01*
Y26503D01*
X407000Y25503D01*
X410998D01*
X411998Y26503D01*
X406000Y23504D02*
X411998D01*
X409999Y21505D01*
X411998Y19505D01*
X406000D01*
Y15000D02*
X411998D01*
X406000Y11001D01*
X411998D01*
X410998Y5003D02*
X411998Y6003D01*
Y8002D01*
X410998Y9002D01*
X407000D01*
X406000Y8002D01*
Y6003D01*
X407000Y5003D01*
X303003Y125999D02*
Y120001D01*
X307002D01*
X309001Y125999D02*
Y122000D01*
X311001Y120001D01*
X313000Y122000D01*
Y125999D01*
X314999Y120001D02*
Y125999D01*
X317998D01*
X318998Y124999D01*
Y123000D01*
X317998Y122000D01*
X314999D01*
X316999D02*
X318998Y120001D01*
X320997D02*
X322997D01*
X321997D01*
Y125999D01*
X320997Y124999D01*
X250999Y121498D02*
X249999Y122498D01*
X248000D01*
X247000Y121498D01*
Y117500D01*
X248000Y116500D01*
X249999D01*
X250999Y117500D01*
X256997Y116500D02*
X252998D01*
X256997Y120499D01*
Y121498D01*
X255997Y122498D01*
X253998D01*
X252998Y121498D01*
X367000Y126999D02*
X366000Y127999D01*
X364001D01*
X363001Y126999D01*
Y123001D01*
X364001Y122001D01*
X366000D01*
X367000Y123001D01*
X368999Y122001D02*
X370999D01*
X369999D01*
Y127999D01*
X368999Y126999D01*
X66501Y141499D02*
Y136501D01*
X67501Y135501D01*
X69500D01*
X70500Y136501D01*
Y141499D01*
X72499Y135501D02*
X74499D01*
X73499D01*
Y141499D01*
X72499Y140499D01*
X128899Y175598D02*
X126899D01*
X127899D01*
Y170600D01*
X126899Y169600D01*
X125900D01*
X124900Y170600D01*
X133897Y169600D02*
Y175598D01*
X130898Y172599D01*
X134897D01*
X402000Y108499D02*
X400001D01*
X401001D01*
Y103501D01*
X400001Y102501D01*
X399001D01*
X398002Y103501D01*
X407998Y102501D02*
X404000D01*
X407998Y106500D01*
Y107499D01*
X406999Y108499D01*
X404999D01*
X404000Y107499D01*
X285012Y52972D02*
X284995Y58970D01*
X287994Y58979D01*
X288996Y57982D01*
X289002Y55983D01*
X288005Y54980D01*
X285006Y54972D01*
X287005Y54977D02*
X289011Y52984D01*
X290993Y58987D02*
X291010Y52990D01*
X295009Y53001D01*
X296991Y59005D02*
X296994Y58005D01*
X298999Y56011D01*
X300992Y58017D01*
X300989Y59016D01*
X298999Y56011D02*
X299007Y53013D01*
X303006Y53024D02*
X305005Y53030D01*
X304006Y53027D01*
X303989Y59025D01*
X302992Y58022D01*
X46502Y171001D02*
Y176999D01*
X49501D01*
X50500Y175999D01*
Y174000D01*
X49501Y173000D01*
X46502D01*
X48501D02*
X50500Y171001D01*
X56498Y176999D02*
X52500D01*
Y174000D01*
X54499Y175000D01*
X55499D01*
X56498Y174000D01*
Y172001D01*
X55499Y171001D01*
X53499D01*
X52500Y172001D01*
X232501Y29501D02*
Y35499D01*
X235500D01*
X236500Y34499D01*
Y32500D01*
X235500Y31500D01*
X232501D01*
X234501D02*
X236500Y29501D01*
X238499D02*
X240499D01*
X239499D01*
Y35499D01*
X238499Y34499D01*
X252500Y30501D02*
Y34499D01*
X251500Y35499D01*
X249501D01*
X248501Y34499D01*
Y30501D01*
X249501Y29501D01*
X251500D01*
X250501Y31500D02*
X252500Y29501D01*
X251500D02*
X252500Y30501D01*
X254499Y29501D02*
X256499D01*
X255499D01*
Y35499D01*
X254499Y34499D01*
X7000Y176999D02*
X5001D01*
X6001D01*
Y172001D01*
X5001Y171001D01*
X4001D01*
X3002Y172001D01*
X9000Y176999D02*
X12998D01*
Y175999D01*
X9000Y172001D01*
Y171001D01*
X379500Y61499D02*
X377501D01*
X378501D01*
Y56501D01*
X377501Y55501D01*
X376501D01*
X375502Y56501D01*
X381500Y60499D02*
X382499Y61499D01*
X384499D01*
X385498Y60499D01*
Y59500D01*
X384499Y58500D01*
X383499D01*
X384499D01*
X385498Y57500D01*
Y56501D01*
X384499Y55501D01*
X382499D01*
X381500Y56501D01*
X404500Y171499D02*
X402501D01*
X403500D01*
Y166501D01*
X402501Y165501D01*
X401501D01*
X400501Y166501D01*
X406499Y165501D02*
X408499D01*
X407499D01*
Y171499D01*
X406499Y170499D01*
M02*
