G04*
G04 #@! TF.GenerationSoftware,Altium Limited,Altium Designer,21.7.2 (23)*
G04*
G04 Layer_Color=65535*
%FSLAX25Y25*%
%MOIN*%
G70*
G04*
G04 #@! TF.SameCoordinates,FD6F4078-F35A-45E9-9C0A-15F470774422*
G04*
G04*
G04 #@! TF.FilePolarity,Positive*
G04*
G01*
G75*
%ADD10C,0.01000*%
%ADD11C,0.00500*%
D10*
X199709Y18925D02*
X221756D01*
Y46484D01*
X199709D02*
X221756D01*
X199709Y18925D02*
Y46484D01*
X191500Y58500D02*
Y69500D01*
Y58500D02*
X196500D01*
Y69500D01*
X191500D02*
X196500D01*
X27200Y113498D02*
Y108500D01*
X28200Y107500D01*
X30199D01*
X31199Y108500D01*
Y113498D01*
X37197Y107500D02*
X33198D01*
X37197Y111499D01*
Y112498D01*
X36197Y113498D01*
X34198D01*
X33198Y112498D01*
X199609Y56648D02*
X197610D01*
X198609D01*
Y51650D01*
X197610Y50650D01*
X196610D01*
X195610Y51650D01*
X205607Y56648D02*
X203608Y55649D01*
X201608Y53649D01*
Y51650D01*
X202608Y50650D01*
X204607D01*
X205607Y51650D01*
Y52650D01*
X204607Y53649D01*
X201608D01*
X56500Y151999D02*
X54501D01*
X55501D01*
Y147001D01*
X54501Y146001D01*
X53501D01*
X52502Y147001D01*
X62498Y151999D02*
X58500D01*
Y149000D01*
X60499Y150000D01*
X61499D01*
X62498Y149000D01*
Y147001D01*
X61499Y146001D01*
X59499D01*
X58500Y147001D01*
D11*
X19999Y111999D02*
X19500Y112499D01*
X18500D01*
X18000Y111999D01*
Y110000D01*
X18500Y109500D01*
X19500D01*
X19999Y110000D01*
Y111000D01*
X19000D01*
X20999Y109500D02*
Y112499D01*
X22998Y109500D01*
Y112499D01*
X23998D02*
Y109500D01*
X25498D01*
X25997Y110000D01*
Y111999D01*
X25498Y112499D01*
X23998D01*
X19999Y121999D02*
X19500Y122499D01*
X18500D01*
X18000Y121999D01*
Y120000D01*
X18500Y119500D01*
X19500D01*
X19999Y120000D01*
Y121000D01*
X19000D01*
X20999Y119500D02*
Y122499D01*
X22998Y119500D01*
Y122499D01*
X23998D02*
Y119500D01*
X25498D01*
X25997Y120000D01*
Y121999D01*
X25498Y122499D01*
X23998D01*
X18000Y142499D02*
Y140500D01*
X19000Y139500D01*
X19999Y140500D01*
Y142499D01*
X22998Y141999D02*
X22499Y142499D01*
X21499D01*
X20999Y141999D01*
Y140000D01*
X21499Y139500D01*
X22499D01*
X22998Y140000D01*
X25997Y141999D02*
X25498Y142499D01*
X24498D01*
X23998Y141999D01*
Y140000D01*
X24498Y139500D01*
X25498D01*
X25997Y140000D01*
X18000Y152499D02*
Y150500D01*
X19000Y149500D01*
X19999Y150500D01*
Y152499D01*
X22998Y151999D02*
X22499Y152499D01*
X21499D01*
X20999Y151999D01*
Y150000D01*
X21499Y149500D01*
X22499D01*
X22998Y150000D01*
X25997Y151999D02*
X25498Y152499D01*
X24498D01*
X23998Y151999D01*
Y150000D01*
X24498Y149500D01*
X25498D01*
X25997Y150000D01*
M02*
