G04*
G04 #@! TF.GenerationSoftware,Altium Limited,Altium Designer,21.7.2 (23)*
G04*
G04 Layer_Physical_Order=2*
G04 Layer_Color=16711680*
%FSLAX25Y25*%
%MOIN*%
G70*
G04*
G04 #@! TF.SameCoordinates,FD6F4078-F35A-45E9-9C0A-15F470774422*
G04*
G04*
G04 #@! TF.FilePolarity,Positive*
G04*
G01*
G75*
%ADD10C,0.01000*%
%ADD19C,0.06000*%
%ADD20C,0.05000*%
G36*
X228000Y2000D02*
X2000D01*
Y158000D01*
X109239D01*
X109313Y157500D01*
X109308Y157499D01*
X108092Y156849D01*
X107026Y155974D01*
X106151Y154908D01*
X105501Y153692D01*
X105101Y152372D01*
X104966Y151000D01*
X105101Y149628D01*
X105501Y148308D01*
X106151Y147092D01*
X107026Y146026D01*
X108092Y145151D01*
X109308Y144501D01*
X110628Y144101D01*
X112000Y143966D01*
X113372Y144101D01*
X114692Y144501D01*
X115908Y145151D01*
X116974Y146026D01*
X117849Y147092D01*
X118499Y148308D01*
X118899Y149628D01*
X119034Y151000D01*
X118899Y152372D01*
X118499Y153692D01*
X117849Y154908D01*
X116974Y155974D01*
X115908Y156849D01*
X114692Y157499D01*
X114687Y157500D01*
X114761Y158000D01*
X228000D01*
Y2000D01*
D02*
G37*
%LPC*%
G36*
X12000Y155034D02*
X10956Y154897D01*
X9983Y154494D01*
X9147Y153853D01*
X8506Y153017D01*
X8103Y152044D01*
X7965Y151000D01*
X8103Y149956D01*
X8506Y148983D01*
X9147Y148147D01*
X9983Y147506D01*
X10956Y147103D01*
X12000Y146966D01*
X13044Y147103D01*
X14017Y147506D01*
X14853Y148147D01*
X15494Y148983D01*
X15897Y149956D01*
X16035Y151000D01*
X15897Y152044D01*
X15494Y153017D01*
X14853Y153853D01*
X14017Y154494D01*
X13044Y154897D01*
X12000Y155034D01*
D02*
G37*
G36*
X40000Y157034D02*
X38628Y156899D01*
X37308Y156499D01*
X36092Y155849D01*
X35026Y154974D01*
X34152Y153908D01*
X33501Y152692D01*
X33101Y151372D01*
X32966Y150000D01*
X33101Y148628D01*
X33501Y147308D01*
X34152Y146092D01*
X35026Y145026D01*
X36092Y144151D01*
X37308Y143501D01*
X38628Y143101D01*
X40000Y142966D01*
X41372Y143101D01*
X42692Y143501D01*
X43908Y144151D01*
X44974Y145026D01*
X45849Y146092D01*
X46499Y147308D01*
X46899Y148628D01*
X47034Y150000D01*
X46899Y151372D01*
X46499Y152692D01*
X45849Y153908D01*
X44974Y154974D01*
X43908Y155849D01*
X42692Y156499D01*
X41372Y156899D01*
X40000Y157034D01*
D02*
G37*
G36*
X12000Y145035D02*
X10956Y144897D01*
X9983Y144494D01*
X9147Y143853D01*
X8506Y143017D01*
X8103Y142044D01*
X7965Y141000D01*
X8103Y139956D01*
X8506Y138983D01*
X9147Y138147D01*
X9983Y137506D01*
X10956Y137103D01*
X12000Y136966D01*
X13044Y137103D01*
X14017Y137506D01*
X14853Y138147D01*
X15494Y138983D01*
X15897Y139956D01*
X16035Y141000D01*
X15897Y142044D01*
X15494Y143017D01*
X14853Y143853D01*
X14017Y144494D01*
X13044Y144897D01*
X12000Y145035D01*
D02*
G37*
G36*
Y135035D02*
X10956Y134897D01*
X9983Y134494D01*
X9147Y133853D01*
X8506Y133017D01*
X8103Y132044D01*
X7965Y131000D01*
X8103Y129956D01*
X8506Y128983D01*
X9147Y128147D01*
X9983Y127506D01*
X10956Y127103D01*
X12000Y126965D01*
X13044Y127103D01*
X14017Y127506D01*
X14853Y128147D01*
X15494Y128983D01*
X15897Y129956D01*
X16035Y131000D01*
X15897Y132044D01*
X15494Y133017D01*
X14853Y133853D01*
X14017Y134494D01*
X13044Y134897D01*
X12000Y135035D01*
D02*
G37*
G36*
Y105034D02*
X10956Y104897D01*
X9983Y104494D01*
X9147Y103853D01*
X8506Y103017D01*
X8103Y102044D01*
X7965Y101000D01*
X8103Y99956D01*
X8506Y98983D01*
X9147Y98147D01*
X9983Y97506D01*
X10956Y97103D01*
X12000Y96965D01*
X13044Y97103D01*
X14017Y97506D01*
X14853Y98147D01*
X15494Y98983D01*
X15897Y99956D01*
X16035Y101000D01*
X15897Y102044D01*
X15494Y103017D01*
X14853Y103853D01*
X14017Y104494D01*
X13044Y104897D01*
X12000Y105034D01*
D02*
G37*
G36*
X192000Y102798D02*
X190956Y102661D01*
X189983Y102258D01*
X189147Y101617D01*
X188506Y100781D01*
X188103Y99808D01*
X187966Y98764D01*
X188103Y97720D01*
X188506Y96746D01*
X189147Y95911D01*
X189983Y95270D01*
X190956Y94867D01*
X192000Y94729D01*
X193044Y94867D01*
X194017Y95270D01*
X194853Y95911D01*
X195494Y96746D01*
X195897Y97720D01*
X196035Y98764D01*
X195897Y99808D01*
X195494Y100781D01*
X194853Y101617D01*
X194017Y102258D01*
X193044Y102661D01*
X192000Y102798D01*
D02*
G37*
G36*
X182000D02*
X180956Y102661D01*
X179983Y102258D01*
X179147Y101617D01*
X178506Y100781D01*
X178103Y99808D01*
X177965Y98764D01*
X178103Y97720D01*
X178506Y96746D01*
X179147Y95911D01*
X179983Y95270D01*
X180956Y94867D01*
X182000Y94729D01*
X183044Y94867D01*
X184017Y95270D01*
X184853Y95911D01*
X185494Y96746D01*
X185897Y97720D01*
X186035Y98764D01*
X185897Y99808D01*
X185494Y100781D01*
X184853Y101617D01*
X184017Y102258D01*
X183044Y102661D01*
X182000Y102798D01*
D02*
G37*
G36*
X172000D02*
X170956Y102661D01*
X169983Y102258D01*
X169147Y101617D01*
X168506Y100781D01*
X168103Y99808D01*
X167965Y98764D01*
X168103Y97720D01*
X168506Y96746D01*
X169147Y95911D01*
X169983Y95270D01*
X170956Y94867D01*
X172000Y94729D01*
X173044Y94867D01*
X174017Y95270D01*
X174853Y95911D01*
X175494Y96746D01*
X175897Y97720D01*
X176034Y98764D01*
X175897Y99808D01*
X175494Y100781D01*
X174853Y101617D01*
X174017Y102258D01*
X173044Y102661D01*
X172000Y102798D01*
D02*
G37*
G36*
X162000D02*
X160956Y102661D01*
X159983Y102258D01*
X159147Y101617D01*
X158506Y100781D01*
X158103Y99808D01*
X157966Y98764D01*
X158103Y97720D01*
X158506Y96746D01*
X159147Y95911D01*
X159983Y95270D01*
X160956Y94867D01*
X162000Y94729D01*
X163044Y94867D01*
X164017Y95270D01*
X164853Y95911D01*
X165494Y96746D01*
X165897Y97720D01*
X166034Y98764D01*
X165897Y99808D01*
X165494Y100781D01*
X164853Y101617D01*
X164017Y102258D01*
X163044Y102661D01*
X162000Y102798D01*
D02*
G37*
G36*
X152000D02*
X150956Y102661D01*
X149983Y102258D01*
X149147Y101617D01*
X148506Y100781D01*
X148103Y99808D01*
X147966Y98764D01*
X148103Y97720D01*
X148506Y96746D01*
X149147Y95911D01*
X149983Y95270D01*
X150956Y94867D01*
X152000Y94729D01*
X153044Y94867D01*
X154017Y95270D01*
X154853Y95911D01*
X155494Y96746D01*
X155897Y97720D01*
X156035Y98764D01*
X155897Y99808D01*
X155494Y100781D01*
X154853Y101617D01*
X154017Y102258D01*
X153044Y102661D01*
X152000Y102798D01*
D02*
G37*
G36*
X142000D02*
X140956Y102661D01*
X139983Y102258D01*
X139147Y101617D01*
X138506Y100781D01*
X138103Y99808D01*
X137966Y98764D01*
X138103Y97720D01*
X138506Y96746D01*
X139147Y95911D01*
X139983Y95270D01*
X140956Y94867D01*
X142000Y94729D01*
X143044Y94867D01*
X144017Y95270D01*
X144853Y95911D01*
X145494Y96746D01*
X145897Y97720D01*
X146035Y98764D01*
X145897Y99808D01*
X145494Y100781D01*
X144853Y101617D01*
X144017Y102258D01*
X143044Y102661D01*
X142000Y102798D01*
D02*
G37*
G36*
X132000D02*
X130956Y102661D01*
X129983Y102258D01*
X129147Y101617D01*
X128506Y100781D01*
X128103Y99808D01*
X127965Y98764D01*
X128103Y97720D01*
X128506Y96746D01*
X129147Y95911D01*
X129983Y95270D01*
X130956Y94867D01*
X132000Y94729D01*
X133044Y94867D01*
X134017Y95270D01*
X134853Y95911D01*
X135494Y96746D01*
X135897Y97720D01*
X136035Y98764D01*
X135897Y99808D01*
X135494Y100781D01*
X134853Y101617D01*
X134017Y102258D01*
X133044Y102661D01*
X132000Y102798D01*
D02*
G37*
G36*
X122000D02*
X120956Y102661D01*
X119983Y102258D01*
X119147Y101617D01*
X118506Y100781D01*
X118103Y99808D01*
X117965Y98764D01*
X118103Y97720D01*
X118506Y96746D01*
X119147Y95911D01*
X119983Y95270D01*
X120956Y94867D01*
X122000Y94729D01*
X123044Y94867D01*
X124017Y95270D01*
X124853Y95911D01*
X125494Y96746D01*
X125897Y97720D01*
X126034Y98764D01*
X125897Y99808D01*
X125494Y100781D01*
X124853Y101617D01*
X124017Y102258D01*
X123044Y102661D01*
X122000Y102798D01*
D02*
G37*
G36*
X102000D02*
X100956Y102661D01*
X99983Y102258D01*
X99147Y101617D01*
X98506Y100781D01*
X98103Y99808D01*
X97966Y98764D01*
X98103Y97720D01*
X98506Y96746D01*
X99147Y95911D01*
X99983Y95270D01*
X100956Y94867D01*
X102000Y94729D01*
X103044Y94867D01*
X104017Y95270D01*
X104853Y95911D01*
X105494Y96746D01*
X105897Y97720D01*
X106035Y98764D01*
X105897Y99808D01*
X105494Y100781D01*
X104853Y101617D01*
X104017Y102258D01*
X103044Y102661D01*
X102000Y102798D01*
D02*
G37*
G36*
X92000D02*
X90956Y102661D01*
X89983Y102258D01*
X89147Y101617D01*
X88506Y100781D01*
X88103Y99808D01*
X87966Y98764D01*
X88103Y97720D01*
X88506Y96746D01*
X89147Y95911D01*
X89983Y95270D01*
X90956Y94867D01*
X92000Y94729D01*
X93044Y94867D01*
X94017Y95270D01*
X94853Y95911D01*
X95494Y96746D01*
X95897Y97720D01*
X96034Y98764D01*
X95897Y99808D01*
X95494Y100781D01*
X94853Y101617D01*
X94017Y102258D01*
X93044Y102661D01*
X92000Y102798D01*
D02*
G37*
G36*
X82000D02*
X80956Y102661D01*
X79983Y102258D01*
X79147Y101617D01*
X78506Y100781D01*
X78103Y99808D01*
X77965Y98764D01*
X78103Y97720D01*
X78506Y96746D01*
X79147Y95911D01*
X79983Y95270D01*
X80956Y94867D01*
X82000Y94729D01*
X83044Y94867D01*
X84017Y95270D01*
X84853Y95911D01*
X85494Y96746D01*
X85897Y97720D01*
X86035Y98764D01*
X85897Y99808D01*
X85494Y100781D01*
X84853Y101617D01*
X84017Y102258D01*
X83044Y102661D01*
X82000Y102798D01*
D02*
G37*
G36*
X72000D02*
X70956Y102661D01*
X69983Y102258D01*
X69147Y101617D01*
X68506Y100781D01*
X68103Y99808D01*
X67966Y98764D01*
X68103Y97720D01*
X68506Y96746D01*
X69147Y95911D01*
X69983Y95270D01*
X70956Y94867D01*
X72000Y94729D01*
X73044Y94867D01*
X74017Y95270D01*
X74853Y95911D01*
X75494Y96746D01*
X75897Y97720D01*
X76034Y98764D01*
X75897Y99808D01*
X75494Y100781D01*
X74853Y101617D01*
X74017Y102258D01*
X73044Y102661D01*
X72000Y102798D01*
D02*
G37*
G36*
X62000D02*
X60956Y102661D01*
X59983Y102258D01*
X59147Y101617D01*
X58506Y100781D01*
X58103Y99808D01*
X57965Y98764D01*
X58103Y97720D01*
X58506Y96746D01*
X59147Y95911D01*
X59983Y95270D01*
X60956Y94867D01*
X62000Y94729D01*
X63044Y94867D01*
X64017Y95270D01*
X64853Y95911D01*
X65494Y96746D01*
X65897Y97720D01*
X66035Y98764D01*
X65897Y99808D01*
X65494Y100781D01*
X64853Y101617D01*
X64017Y102258D01*
X63044Y102661D01*
X62000Y102798D01*
D02*
G37*
G36*
X52000D02*
X50956Y102661D01*
X49983Y102258D01*
X49147Y101617D01*
X48506Y100781D01*
X48103Y99808D01*
X47965Y98764D01*
X48103Y97720D01*
X48506Y96746D01*
X49147Y95911D01*
X49983Y95270D01*
X50956Y94867D01*
X52000Y94729D01*
X53044Y94867D01*
X54017Y95270D01*
X54853Y95911D01*
X55494Y96746D01*
X55897Y97720D01*
X56034Y98764D01*
X55897Y99808D01*
X55494Y100781D01*
X54853Y101617D01*
X54017Y102258D01*
X53044Y102661D01*
X52000Y102798D01*
D02*
G37*
G36*
X12000Y95034D02*
X10956Y94897D01*
X9983Y94494D01*
X9147Y93853D01*
X8506Y93017D01*
X8103Y92044D01*
X7965Y91000D01*
X8103Y89956D01*
X8506Y88983D01*
X9147Y88147D01*
X9983Y87506D01*
X10956Y87103D01*
X12000Y86966D01*
X13044Y87103D01*
X14017Y87506D01*
X14853Y88147D01*
X15494Y88983D01*
X15897Y89956D01*
X16035Y91000D01*
X15897Y92044D01*
X15494Y93017D01*
X14853Y93853D01*
X14017Y94494D01*
X13044Y94897D01*
X12000Y95034D01*
D02*
G37*
G36*
Y85035D02*
X10956Y84897D01*
X9983Y84494D01*
X9147Y83853D01*
X8506Y83017D01*
X8103Y82044D01*
X7965Y81000D01*
X8103Y79956D01*
X8506Y78983D01*
X9147Y78147D01*
X9983Y77506D01*
X10956Y77103D01*
X12000Y76965D01*
X13044Y77103D01*
X14017Y77506D01*
X14853Y78147D01*
X15494Y78983D01*
X15897Y79956D01*
X16035Y81000D01*
X15897Y82044D01*
X15494Y83017D01*
X14853Y83853D01*
X14017Y84494D01*
X13044Y84897D01*
X12000Y85035D01*
D02*
G37*
G36*
Y75034D02*
X10956Y74897D01*
X9983Y74494D01*
X9147Y73853D01*
X8506Y73017D01*
X8103Y72044D01*
X7965Y71000D01*
X8103Y69956D01*
X8506Y68983D01*
X9147Y68147D01*
X9983Y67506D01*
X10956Y67103D01*
X12000Y66966D01*
X13044Y67103D01*
X14017Y67506D01*
X14853Y68147D01*
X15494Y68983D01*
X15897Y69956D01*
X16035Y71000D01*
X15897Y72044D01*
X15494Y73017D01*
X14853Y73853D01*
X14017Y74494D01*
X13044Y74897D01*
X12000Y75034D01*
D02*
G37*
G36*
Y65035D02*
X10956Y64897D01*
X9983Y64494D01*
X9147Y63853D01*
X8506Y63017D01*
X8103Y62044D01*
X7965Y61000D01*
X8103Y59956D01*
X8506Y58983D01*
X9147Y58147D01*
X9983Y57506D01*
X10956Y57103D01*
X12000Y56966D01*
X13044Y57103D01*
X14017Y57506D01*
X14853Y58147D01*
X15494Y58983D01*
X15897Y59956D01*
X16035Y61000D01*
X15897Y62044D01*
X15494Y63017D01*
X14853Y63853D01*
X14017Y64494D01*
X13044Y64897D01*
X12000Y65035D01*
D02*
G37*
G36*
X214000Y63034D02*
X212628Y62899D01*
X211308Y62498D01*
X210092Y61848D01*
X209026Y60974D01*
X208152Y59908D01*
X207502Y58692D01*
X207101Y57372D01*
X206966Y56000D01*
X207101Y54628D01*
X207502Y53308D01*
X208152Y52092D01*
X209026Y51026D01*
X210092Y50151D01*
X211308Y49501D01*
X212628Y49101D01*
X214000Y48966D01*
X215372Y49101D01*
X216692Y49501D01*
X217908Y50151D01*
X218974Y51026D01*
X219848Y52092D01*
X220498Y53308D01*
X220899Y54628D01*
X221034Y56000D01*
X220899Y57372D01*
X220498Y58692D01*
X219848Y59908D01*
X218974Y60974D01*
X217908Y61848D01*
X216692Y62498D01*
X215372Y62899D01*
X214000Y63034D01*
D02*
G37*
G36*
X12000Y55035D02*
X10956Y54897D01*
X9983Y54494D01*
X9147Y53853D01*
X8506Y53017D01*
X8103Y52044D01*
X7965Y51000D01*
X8103Y49956D01*
X8506Y48983D01*
X9147Y48147D01*
X9983Y47506D01*
X10956Y47103D01*
X12000Y46966D01*
X13044Y47103D01*
X14017Y47506D01*
X14853Y48147D01*
X15494Y48983D01*
X15897Y49956D01*
X16035Y51000D01*
X15897Y52044D01*
X15494Y53017D01*
X14853Y53853D01*
X14017Y54494D01*
X13044Y54897D01*
X12000Y55035D01*
D02*
G37*
G36*
Y45035D02*
X10956Y44897D01*
X9983Y44494D01*
X9147Y43853D01*
X8506Y43017D01*
X8103Y42044D01*
X7965Y41000D01*
X8103Y39956D01*
X8506Y38983D01*
X9147Y38147D01*
X9983Y37506D01*
X10956Y37103D01*
X12000Y36966D01*
X13044Y37103D01*
X14017Y37506D01*
X14853Y38147D01*
X15494Y38983D01*
X15897Y39956D01*
X16035Y41000D01*
X15897Y42044D01*
X15494Y43017D01*
X14853Y43853D01*
X14017Y44494D01*
X13044Y44897D01*
X12000Y45035D01*
D02*
G37*
G36*
X62000Y118030D02*
X61086Y117910D01*
X60235Y117557D01*
X59504Y116996D01*
X58943Y116265D01*
X58590Y115414D01*
X58470Y114500D01*
X58590Y113586D01*
X58943Y112735D01*
X59504Y112004D01*
X60235Y111443D01*
X61086Y111090D01*
X62000Y110970D01*
X62914Y111090D01*
X63765Y111443D01*
X64496Y112004D01*
X65046Y112721D01*
X185617D01*
X197471Y100866D01*
Y56134D01*
X174649Y33312D01*
X174414Y33410D01*
X173500Y33530D01*
X172586Y33410D01*
X171735Y33057D01*
X171004Y32496D01*
X170443Y31765D01*
X170090Y30914D01*
X169970Y30000D01*
X170090Y29086D01*
X170443Y28235D01*
X171004Y27504D01*
X171735Y26943D01*
X172586Y26590D01*
X173500Y26470D01*
X174414Y26590D01*
X175265Y26943D01*
X175996Y27504D01*
X176557Y28235D01*
X176910Y29086D01*
X177030Y30000D01*
X176910Y30914D01*
X176812Y31149D01*
X200081Y54419D01*
X200413Y54915D01*
X200529Y55500D01*
Y101500D01*
X200413Y102085D01*
X200081Y102581D01*
X187331Y115331D01*
X186835Y115663D01*
X186250Y115779D01*
X65258D01*
X65057Y116265D01*
X64496Y116996D01*
X63765Y117557D01*
X62914Y117910D01*
X62000Y118030D01*
D02*
G37*
G36*
X12000Y35034D02*
X10956Y34897D01*
X9983Y34494D01*
X9147Y33853D01*
X8506Y33017D01*
X8103Y32044D01*
X7965Y31000D01*
X8103Y29956D01*
X8506Y28983D01*
X9147Y28147D01*
X9983Y27506D01*
X10956Y27103D01*
X12000Y26965D01*
X13044Y27103D01*
X14017Y27506D01*
X14853Y28147D01*
X15494Y28983D01*
X15897Y29956D01*
X16035Y31000D01*
X15897Y32044D01*
X15494Y33017D01*
X14853Y33853D01*
X14017Y34494D01*
X13044Y34897D01*
X12000Y35034D01*
D02*
G37*
G36*
Y25034D02*
X10956Y24897D01*
X9983Y24494D01*
X9147Y23853D01*
X8506Y23017D01*
X8103Y22044D01*
X7965Y21000D01*
X8103Y19956D01*
X8506Y18983D01*
X9147Y18147D01*
X9983Y17506D01*
X10956Y17103D01*
X12000Y16965D01*
X13044Y17103D01*
X14017Y17506D01*
X14853Y18147D01*
X15494Y18983D01*
X15897Y19956D01*
X16035Y21000D01*
X15897Y22044D01*
X15494Y23017D01*
X14853Y23853D01*
X14017Y24494D01*
X13044Y24897D01*
X12000Y25034D01*
D02*
G37*
G36*
Y15034D02*
X10956Y14897D01*
X9983Y14494D01*
X9147Y13853D01*
X8506Y13017D01*
X8103Y12044D01*
X7965Y11000D01*
X8103Y9956D01*
X8506Y8983D01*
X9147Y8147D01*
X9983Y7506D01*
X10956Y7103D01*
X12000Y6966D01*
X13044Y7103D01*
X14017Y7506D01*
X14853Y8147D01*
X15494Y8983D01*
X15897Y9956D01*
X16035Y11000D01*
X15897Y12044D01*
X15494Y13017D01*
X14853Y13853D01*
X14017Y14494D01*
X13044Y14897D01*
X12000Y15034D01*
D02*
G37*
G36*
X192000Y13035D02*
X190956Y12897D01*
X189983Y12494D01*
X189147Y11853D01*
X188506Y11017D01*
X188103Y10044D01*
X187966Y9000D01*
X188103Y7956D01*
X188506Y6983D01*
X189147Y6147D01*
X189983Y5506D01*
X190956Y5103D01*
X192000Y4966D01*
X193044Y5103D01*
X194017Y5506D01*
X194853Y6147D01*
X195494Y6983D01*
X195897Y7956D01*
X196035Y9000D01*
X195897Y10044D01*
X195494Y11017D01*
X194853Y11853D01*
X194017Y12494D01*
X193044Y12897D01*
X192000Y13035D01*
D02*
G37*
G36*
X172000D02*
X170956Y12897D01*
X169983Y12494D01*
X169147Y11853D01*
X168506Y11017D01*
X168103Y10044D01*
X167965Y9000D01*
X168103Y7956D01*
X168506Y6983D01*
X169147Y6147D01*
X169983Y5506D01*
X170956Y5103D01*
X172000Y4966D01*
X173044Y5103D01*
X174017Y5506D01*
X174853Y6147D01*
X175494Y6983D01*
X175897Y7956D01*
X176034Y9000D01*
X175897Y10044D01*
X175494Y11017D01*
X174853Y11853D01*
X174017Y12494D01*
X173044Y12897D01*
X172000Y13035D01*
D02*
G37*
G36*
X162000D02*
X160956Y12897D01*
X159983Y12494D01*
X159147Y11853D01*
X158506Y11017D01*
X158103Y10044D01*
X157966Y9000D01*
X158103Y7956D01*
X158506Y6983D01*
X159147Y6147D01*
X159983Y5506D01*
X160956Y5103D01*
X162000Y4966D01*
X163044Y5103D01*
X164017Y5506D01*
X164853Y6147D01*
X165494Y6983D01*
X165897Y7956D01*
X166034Y9000D01*
X165897Y10044D01*
X165494Y11017D01*
X164853Y11853D01*
X164017Y12494D01*
X163044Y12897D01*
X162000Y13035D01*
D02*
G37*
G36*
X152000D02*
X150956Y12897D01*
X149983Y12494D01*
X149147Y11853D01*
X148506Y11017D01*
X148103Y10044D01*
X147966Y9000D01*
X148103Y7956D01*
X148506Y6983D01*
X149147Y6147D01*
X149983Y5506D01*
X150956Y5103D01*
X152000Y4966D01*
X153044Y5103D01*
X154017Y5506D01*
X154853Y6147D01*
X155494Y6983D01*
X155897Y7956D01*
X156035Y9000D01*
X155897Y10044D01*
X155494Y11017D01*
X154853Y11853D01*
X154017Y12494D01*
X153044Y12897D01*
X152000Y13035D01*
D02*
G37*
G36*
X142000D02*
X140956Y12897D01*
X139983Y12494D01*
X139147Y11853D01*
X138506Y11017D01*
X138103Y10044D01*
X137966Y9000D01*
X138103Y7956D01*
X138506Y6983D01*
X139147Y6147D01*
X139983Y5506D01*
X140956Y5103D01*
X142000Y4966D01*
X143044Y5103D01*
X144017Y5506D01*
X144853Y6147D01*
X145494Y6983D01*
X145897Y7956D01*
X146035Y9000D01*
X145897Y10044D01*
X145494Y11017D01*
X144853Y11853D01*
X144017Y12494D01*
X143044Y12897D01*
X142000Y13035D01*
D02*
G37*
G36*
X132000D02*
X130956Y12897D01*
X129983Y12494D01*
X129147Y11853D01*
X128506Y11017D01*
X128103Y10044D01*
X127965Y9000D01*
X128103Y7956D01*
X128506Y6983D01*
X129147Y6147D01*
X129983Y5506D01*
X130956Y5103D01*
X132000Y4966D01*
X133044Y5103D01*
X134017Y5506D01*
X134853Y6147D01*
X135494Y6983D01*
X135897Y7956D01*
X136035Y9000D01*
X135897Y10044D01*
X135494Y11017D01*
X134853Y11853D01*
X134017Y12494D01*
X133044Y12897D01*
X132000Y13035D01*
D02*
G37*
G36*
X122000D02*
X120956Y12897D01*
X119983Y12494D01*
X119147Y11853D01*
X118506Y11017D01*
X118103Y10044D01*
X117965Y9000D01*
X118103Y7956D01*
X118506Y6983D01*
X119147Y6147D01*
X119983Y5506D01*
X120956Y5103D01*
X122000Y4966D01*
X123044Y5103D01*
X124017Y5506D01*
X124853Y6147D01*
X125494Y6983D01*
X125897Y7956D01*
X126034Y9000D01*
X125897Y10044D01*
X125494Y11017D01*
X124853Y11853D01*
X124017Y12494D01*
X123044Y12897D01*
X122000Y13035D01*
D02*
G37*
G36*
X112000D02*
X110956Y12897D01*
X109983Y12494D01*
X109147Y11853D01*
X108506Y11017D01*
X108103Y10044D01*
X107966Y9000D01*
X108103Y7956D01*
X108506Y6983D01*
X109147Y6147D01*
X109983Y5506D01*
X110956Y5103D01*
X112000Y4966D01*
X113044Y5103D01*
X114017Y5506D01*
X114853Y6147D01*
X115494Y6983D01*
X115897Y7956D01*
X116034Y9000D01*
X115897Y10044D01*
X115494Y11017D01*
X114853Y11853D01*
X114017Y12494D01*
X113044Y12897D01*
X112000Y13035D01*
D02*
G37*
G36*
X102000D02*
X100956Y12897D01*
X99983Y12494D01*
X99147Y11853D01*
X98506Y11017D01*
X98103Y10044D01*
X97966Y9000D01*
X98103Y7956D01*
X98506Y6983D01*
X99147Y6147D01*
X99983Y5506D01*
X100956Y5103D01*
X102000Y4966D01*
X103044Y5103D01*
X104017Y5506D01*
X104853Y6147D01*
X105494Y6983D01*
X105897Y7956D01*
X106035Y9000D01*
X105897Y10044D01*
X105494Y11017D01*
X104853Y11853D01*
X104017Y12494D01*
X103044Y12897D01*
X102000Y13035D01*
D02*
G37*
G36*
X92000D02*
X90956Y12897D01*
X89983Y12494D01*
X89147Y11853D01*
X88506Y11017D01*
X88103Y10044D01*
X87966Y9000D01*
X88103Y7956D01*
X88506Y6983D01*
X89147Y6147D01*
X89983Y5506D01*
X90956Y5103D01*
X92000Y4966D01*
X93044Y5103D01*
X94017Y5506D01*
X94853Y6147D01*
X95494Y6983D01*
X95897Y7956D01*
X96034Y9000D01*
X95897Y10044D01*
X95494Y11017D01*
X94853Y11853D01*
X94017Y12494D01*
X93044Y12897D01*
X92000Y13035D01*
D02*
G37*
G36*
X82000D02*
X80956Y12897D01*
X79983Y12494D01*
X79147Y11853D01*
X78506Y11017D01*
X78103Y10044D01*
X77965Y9000D01*
X78103Y7956D01*
X78506Y6983D01*
X79147Y6147D01*
X79983Y5506D01*
X80956Y5103D01*
X82000Y4966D01*
X83044Y5103D01*
X84017Y5506D01*
X84853Y6147D01*
X85494Y6983D01*
X85897Y7956D01*
X86035Y9000D01*
X85897Y10044D01*
X85494Y11017D01*
X84853Y11853D01*
X84017Y12494D01*
X83044Y12897D01*
X82000Y13035D01*
D02*
G37*
G36*
X72000D02*
X70956Y12897D01*
X69983Y12494D01*
X69147Y11853D01*
X68506Y11017D01*
X68103Y10044D01*
X67966Y9000D01*
X68103Y7956D01*
X68506Y6983D01*
X69147Y6147D01*
X69983Y5506D01*
X70956Y5103D01*
X72000Y4966D01*
X73044Y5103D01*
X74017Y5506D01*
X74853Y6147D01*
X75494Y6983D01*
X75897Y7956D01*
X76034Y9000D01*
X75897Y10044D01*
X75494Y11017D01*
X74853Y11853D01*
X74017Y12494D01*
X73044Y12897D01*
X72000Y13035D01*
D02*
G37*
G36*
X62000D02*
X60956Y12897D01*
X59983Y12494D01*
X59147Y11853D01*
X58506Y11017D01*
X58103Y10044D01*
X57965Y9000D01*
X58103Y7956D01*
X58506Y6983D01*
X59147Y6147D01*
X59983Y5506D01*
X60956Y5103D01*
X62000Y4966D01*
X63044Y5103D01*
X64017Y5506D01*
X64853Y6147D01*
X65494Y6983D01*
X65897Y7956D01*
X66035Y9000D01*
X65897Y10044D01*
X65494Y11017D01*
X64853Y11853D01*
X64017Y12494D01*
X63044Y12897D01*
X62000Y13035D01*
D02*
G37*
G36*
X52000D02*
X50956Y12897D01*
X49983Y12494D01*
X49147Y11853D01*
X48506Y11017D01*
X48103Y10044D01*
X47965Y9000D01*
X48103Y7956D01*
X48506Y6983D01*
X49147Y6147D01*
X49983Y5506D01*
X50956Y5103D01*
X52000Y4966D01*
X53044Y5103D01*
X54017Y5506D01*
X54853Y6147D01*
X55494Y6983D01*
X55897Y7956D01*
X56034Y9000D01*
X55897Y10044D01*
X55494Y11017D01*
X54853Y11853D01*
X54017Y12494D01*
X53044Y12897D01*
X52000Y13035D01*
D02*
G37*
%LPD*%
D10*
X62250Y114250D02*
X186250D01*
X199000Y101500D01*
Y55500D02*
Y101500D01*
X173500Y30000D02*
X199000Y55500D01*
X62000Y114500D02*
X62250Y114250D01*
D19*
X52000Y9000D02*
D03*
X62000D02*
D03*
X72000D02*
D03*
X82000D02*
D03*
X92000D02*
D03*
X102000D02*
D03*
X112000D02*
D03*
X122000D02*
D03*
X132000D02*
D03*
X142000D02*
D03*
X152000D02*
D03*
X162000D02*
D03*
X172000D02*
D03*
X182000D02*
D03*
X192000D02*
D03*
Y98764D02*
D03*
X182000D02*
D03*
X172000D02*
D03*
X162000D02*
D03*
X152000D02*
D03*
X142000D02*
D03*
X132000D02*
D03*
X122000D02*
D03*
X111500D02*
D03*
X102000D02*
D03*
X92000D02*
D03*
X82000D02*
D03*
X72000D02*
D03*
X62000D02*
D03*
X52000D02*
D03*
X112000Y151000D02*
D03*
X214000Y56000D02*
D03*
X40000Y150000D02*
D03*
X12000Y151000D02*
D03*
Y141000D02*
D03*
Y131000D02*
D03*
Y11000D02*
D03*
Y21000D02*
D03*
Y31000D02*
D03*
Y41000D02*
D03*
Y51000D02*
D03*
Y61000D02*
D03*
Y71000D02*
D03*
Y81000D02*
D03*
Y91000D02*
D03*
Y101000D02*
D03*
Y111000D02*
D03*
Y121000D02*
D03*
D20*
X173500Y30000D02*
D03*
X62000Y114500D02*
D03*
M02*
