G04*
G04 #@! TF.GenerationSoftware,Altium Limited,Altium Designer,21.7.2 (23)*
G04*
G04 Layer_Physical_Order=1*
G04 Layer_Color=255*
%FSLAX25Y25*%
%MOIN*%
G70*
G04*
G04 #@! TF.SameCoordinates,FD6F4078-F35A-45E9-9C0A-15F470774422*
G04*
G04*
G04 #@! TF.FilePolarity,Positive*
G04*
G01*
G75*
%ADD10C,0.01000*%
%ADD12R,0.07087X0.04724*%
%ADD13R,0.06693X0.02362*%
%ADD18C,0.02000*%
%ADD19C,0.06000*%
%ADD20C,0.05000*%
D10*
X6000Y124500D02*
X12000Y130500D01*
X6000Y8000D02*
Y124500D01*
Y8000D02*
X8500Y5500D01*
X26000D01*
X12000Y51000D02*
X53000D01*
X72000Y70000D01*
Y98764D01*
X27500Y11000D02*
X63500Y47000D01*
X107500D02*
X152000Y91500D01*
X63500Y47000D02*
X107500D01*
X106000Y49000D02*
X142000Y85000D01*
X61781Y49000D02*
X106000D01*
X33781Y21000D02*
X61781Y49000D01*
X60062Y51000D02*
X104500D01*
X132000Y78500D01*
X40062Y31000D02*
X60062Y51000D01*
X26000Y5500D02*
X41000Y20500D01*
X70500D01*
X12000Y11000D02*
X27500D01*
X174343Y30343D02*
X198331D01*
X92000Y9000D02*
X117280Y34280D01*
X198331D01*
X182000Y22000D02*
X186406Y26406D01*
X182000Y9000D02*
Y22000D01*
X186406Y26406D02*
X198331D01*
X82000Y98764D02*
Y112000D01*
X72500Y121500D02*
X82000Y112000D01*
X54000Y121500D02*
X72500D01*
X44000Y93500D02*
Y111500D01*
X54000Y121500D01*
X12000Y61000D02*
Y61500D01*
X44000Y93500D01*
X62000Y98764D02*
Y114500D01*
X70500Y20500D02*
X82000Y9000D01*
X12000Y130500D02*
Y131000D01*
Y41000D02*
X46343D01*
X46343D02*
X58343Y53000D01*
X103672D02*
X122086Y71414D01*
X58343Y53000D02*
X103672D01*
X122000Y98764D02*
X122086Y98678D01*
Y71414D02*
Y98678D01*
X132000Y78500D02*
Y98764D01*
X12000Y31000D02*
X40062D01*
X12000Y21000D02*
X33781D01*
X142000Y85000D02*
Y98764D01*
X152000Y91500D02*
Y98764D01*
X12000Y131000D02*
X12500Y131500D01*
X12000Y71000D02*
X12700Y71700D01*
X12000Y81000D02*
Y81500D01*
D12*
X219000Y44909D02*
D03*
Y20500D02*
D03*
D13*
X198331Y38217D02*
D03*
Y34280D02*
D03*
Y30343D02*
D03*
Y26406D02*
D03*
D18*
Y38217D02*
X198512Y38035D01*
X202465D02*
X206000Y34500D01*
X198512Y38035D02*
X202465D01*
X200781Y21500D02*
X206000Y26719D01*
Y34500D01*
X194000Y21500D02*
X200781D01*
X192000Y19500D02*
X194000Y21500D01*
X198331Y38217D02*
X198819D01*
X177000Y135500D02*
X199000Y113500D01*
X198819Y38217D02*
X199000Y38398D01*
Y113500D01*
X17500Y135500D02*
X177000D01*
X12000Y141000D02*
X17500Y135500D01*
X12000Y141000D02*
Y151000D01*
X192000Y9000D02*
Y19500D01*
D19*
X52000Y9000D02*
D03*
X62000D02*
D03*
X72000D02*
D03*
X82000D02*
D03*
X92000D02*
D03*
X102000D02*
D03*
X112000D02*
D03*
X122000D02*
D03*
X132000D02*
D03*
X142000D02*
D03*
X152000D02*
D03*
X162000D02*
D03*
X172000D02*
D03*
X182000D02*
D03*
X192000D02*
D03*
Y98764D02*
D03*
X182000D02*
D03*
X172000D02*
D03*
X162000D02*
D03*
X152000D02*
D03*
X142000D02*
D03*
X132000D02*
D03*
X122000D02*
D03*
X111500D02*
D03*
X102000D02*
D03*
X92000D02*
D03*
X82000D02*
D03*
X72000D02*
D03*
X62000D02*
D03*
X52000D02*
D03*
X112000Y151000D02*
D03*
X214000Y56000D02*
D03*
X40000Y150000D02*
D03*
X12000Y151000D02*
D03*
Y141000D02*
D03*
Y131000D02*
D03*
Y11000D02*
D03*
Y21000D02*
D03*
Y31000D02*
D03*
Y41000D02*
D03*
Y51000D02*
D03*
Y61000D02*
D03*
Y71000D02*
D03*
Y81000D02*
D03*
Y91000D02*
D03*
Y101000D02*
D03*
Y111000D02*
D03*
Y121000D02*
D03*
D20*
X173500Y30000D02*
D03*
X62000Y114500D02*
D03*
M02*
