G04*
G04 #@! TF.GenerationSoftware,Altium Limited,Altium Designer,20.0.14 (345)*
G04*
G04 Layer_Color=8388736*
%FSLAX25Y25*%
%MOIN*%
G70*
G01*
G75*
%ADD11C,0.06800*%
%ADD12C,0.05800*%
D11*
X214000Y56000D02*
D03*
X40000Y150000D02*
D03*
X12000Y151000D02*
D03*
Y141000D02*
D03*
Y131000D02*
D03*
Y11000D02*
D03*
Y21000D02*
D03*
Y31000D02*
D03*
Y41000D02*
D03*
Y51000D02*
D03*
Y61000D02*
D03*
Y71000D02*
D03*
Y81000D02*
D03*
Y91000D02*
D03*
Y101000D02*
D03*
Y111000D02*
D03*
Y121000D02*
D03*
X52000Y10500D02*
D03*
X62000D02*
D03*
X72000D02*
D03*
X82000D02*
D03*
X92000D02*
D03*
X102000D02*
D03*
X112000D02*
D03*
X122000D02*
D03*
X132000D02*
D03*
X142000D02*
D03*
X152000D02*
D03*
X162000D02*
D03*
X172000D02*
D03*
X182000D02*
D03*
X192000D02*
D03*
Y100264D02*
D03*
X182000D02*
D03*
X172000D02*
D03*
X162000D02*
D03*
X152000D02*
D03*
X142000D02*
D03*
X132000D02*
D03*
X122000D02*
D03*
X111500D02*
D03*
X102000D02*
D03*
X92000D02*
D03*
X82000D02*
D03*
X72000D02*
D03*
X62000D02*
D03*
X52000D02*
D03*
D12*
X166000Y125000D02*
D03*
X149000Y141000D02*
D03*
M02*
