M48
;Layer_Color=9474304
;FILE_FORMAT=2:5
INCH,LZ
;TYPE=PLATED
T1F00S00C0.02800
T2F00S00C0.03000
T3F00S00C0.12000
%
T01
X0149Y0141
X0166Y0125
T02
X0012Y0011
Y0021
Y0031
Y0041
Y0051
X0052Y00105
X0062
X0072
X0082
X0092
X0102
X0112
X0122
X0132
X0142
X0152
X0162
X0172
X0182
X0192
Y0100264
X0182
X0172
X0162
X0152
X0142
X0132
X0122
X01115
X0102
X0092
X0082
X0072
X0062
X0052
X0012Y0101
Y0091
Y0081
Y0071
Y0061
Y0111
Y0121
Y0131
Y0141
Y0151
T03
X0214Y0056
X004Y015
M30
