G04*
G04 #@! TF.GenerationSoftware,Altium Limited,Altium Designer,20.0.14 (345)*
G04*
G04 Layer_Physical_Order=2*
G04 Layer_Color=16711680*
%FSLAX25Y25*%
%MOIN*%
G70*
G01*
G75*
%ADD10C,0.01000*%
%ADD21C,0.06890*%
%ADD22C,0.06000*%
%ADD23C,0.05000*%
%ADD24C,0.03000*%
%ADD25R,0.03937X0.05709*%
%ADD26R,0.05709X0.04528*%
%ADD27R,0.04528X0.05709*%
%ADD28R,0.05709X0.03937*%
%ADD29R,0.05906X0.03937*%
D10*
X106795Y143000D02*
X120000D01*
X107000Y138000D02*
Y142000D01*
X73000Y114500D02*
X76000Y117500D01*
Y127000D02*
X83500Y134500D01*
X76000Y117500D02*
Y127000D01*
X44500Y114500D02*
X66000D01*
X37000Y107000D02*
X44500Y114500D01*
X44780Y82000D02*
X45764D01*
X37000Y89780D02*
X44780Y82000D01*
X37000Y89780D02*
Y107000D01*
X46043Y29500D02*
X51500D01*
X61000Y97000D02*
X98236D01*
X58000Y100000D02*
X61000Y97000D01*
X80500Y114000D02*
X111760D01*
X74000Y107500D02*
X80500Y114000D01*
X62000Y107500D02*
X74000D01*
X103500Y134500D02*
X107000Y138000D01*
X83500Y134500D02*
X103500D01*
X66000Y114500D02*
X73000D01*
X120000Y143000D02*
X138000Y125000D01*
Y107000D02*
Y125000D01*
X131500Y100500D02*
X138000Y107000D01*
X119240Y114000D02*
X129000D01*
X106795Y125142D02*
X111760Y120177D01*
Y114000D02*
Y120177D01*
X66500Y53000D02*
X75000Y61500D01*
X59280Y53000D02*
X66500D01*
X68000Y75740D02*
X68886D01*
X75000Y69626D01*
Y61500D02*
Y69626D01*
X135500Y90740D02*
X136386D01*
X141500Y85626D01*
Y67500D02*
Y85626D01*
Y61740D02*
X142386D01*
X147000Y57126D01*
Y46500D02*
Y57126D01*
X140500Y40000D02*
X147000Y46500D01*
X115500Y34248D02*
X121252Y40000D01*
X140500D01*
X76780Y35500D02*
X77764D01*
X59280Y53000D02*
X76780Y35500D01*
X51764Y53000D02*
X59280D01*
X22000Y82000D02*
X26236D01*
X20000Y80000D02*
X22000Y82000D01*
X31252Y46701D02*
X32236D01*
X20000Y57953D02*
X31252Y46701D01*
X20000Y57953D02*
Y80000D01*
X26236Y88299D02*
X34201D01*
X40500Y82000D01*
Y72000D02*
Y82000D01*
X44043Y68457D02*
X59000D01*
X40500Y72000D02*
X44043Y68457D01*
X59197Y68260D02*
X68000D01*
X59000Y68457D02*
X59197Y68260D01*
X45921Y75543D02*
X59000D01*
X45764Y75701D02*
X45921Y75543D01*
X45764Y82000D02*
X60854D01*
X67114Y75740D01*
X68000D01*
X34500Y26086D02*
Y42000D01*
X35732Y43232D01*
X35810D01*
X36689Y44189D02*
X37500Y45000D01*
X35810Y43232D02*
X36689Y44111D01*
Y44189D01*
X37500Y45000D02*
Y48720D01*
X57252Y29201D02*
X58236D01*
X50551Y22500D02*
X57252Y29201D01*
X34500Y26086D02*
X38086Y22500D01*
X50551D01*
X32236Y53000D02*
X33220D01*
X37500Y48720D01*
X39701Y59299D02*
X44000Y55000D01*
X32236Y59299D02*
X39701D01*
X46240Y48461D02*
X50779Y53000D01*
X46240Y38500D02*
Y48461D01*
X44000Y44626D02*
Y55000D01*
X38760Y38500D02*
Y39386D01*
X44000Y44626D01*
X38760Y29697D02*
Y38500D01*
Y29697D02*
X38957Y29500D01*
X46043D02*
Y30091D01*
X51764Y35811D01*
Y46701D01*
X50779Y53000D02*
X51764D01*
X58236Y35500D02*
X66500D01*
X70500Y31500D01*
Y7000D02*
X73500Y4000D01*
X70500Y7000D02*
Y31500D01*
X73500Y4000D02*
X90500D01*
X93500Y7000D01*
Y24000D01*
X87236Y30264D02*
Y35701D01*
Y30264D02*
X93500Y24000D01*
X58236Y41799D02*
X58535Y41500D01*
X64500D01*
X72500Y14866D02*
Y33500D01*
X64500Y41500D02*
X72500Y33500D01*
X77409Y9957D02*
X78000D01*
X72500Y14866D02*
X77409Y9957D01*
X77764Y35500D02*
X78748D01*
X87000Y27248D01*
Y17240D02*
Y27248D01*
X78000Y9957D02*
X78197Y9760D01*
X87000D01*
X78000Y17043D02*
Y28965D01*
X77764Y29201D02*
X78000Y28965D01*
X103937Y62000D02*
X104236Y61701D01*
X86500Y62000D02*
X103937D01*
X81500Y46752D02*
Y57000D01*
X86500Y62000D01*
X86252Y42000D02*
X87236D01*
X81500Y46752D02*
X86252Y42000D01*
X87236Y48299D02*
X96701D01*
X101500Y43500D01*
Y15500D02*
Y43500D01*
X102543Y14457D02*
X107000D01*
X101500Y15500D02*
X102543Y14457D01*
X107197Y14260D02*
X115500D01*
X107000Y14457D02*
X107197Y14260D01*
X106764Y42000D02*
X107748D01*
X115500Y34248D01*
Y21740D02*
Y34248D01*
X107000Y21543D02*
Y35465D01*
X106764Y35701D02*
X107000Y35465D01*
X103252Y68000D02*
X104236D01*
X98236Y73016D02*
X103252Y68000D01*
X98236Y73016D02*
Y90701D01*
X104236Y74299D02*
X114701D01*
X119000Y70000D01*
Y58500D02*
Y70000D01*
X123043Y54457D02*
X133000D01*
X119000Y58500D02*
X123043Y54457D01*
X133000D02*
X141303D01*
X141500Y54260D01*
Y61740D02*
Y67500D01*
X131000Y71500D02*
X137500D01*
X141500Y67500D01*
X127500Y68000D02*
X131000Y71500D01*
X123764Y68000D02*
X127500D01*
X132843Y61701D02*
X133000Y61543D01*
X132500Y62043D02*
X132843Y61701D01*
X132500Y62043D02*
Y67000D01*
X123764Y61701D02*
X132843D01*
X121000Y97000D02*
X124500Y100500D01*
X117764Y97000D02*
X121000D01*
X124500Y100500D02*
X131500D01*
X135500Y90740D02*
Y96500D01*
X131500Y100500D02*
X135500Y96500D01*
X126500Y90543D02*
Y96000D01*
X98236Y103299D02*
X98535Y103000D01*
X109000D02*
X113000Y99000D01*
X98535Y103000D02*
X109000D01*
X113000Y87000D02*
Y99000D01*
X116543Y83457D02*
X126500D01*
X113000Y87000D02*
X116543Y83457D01*
X126500D02*
X126697Y83260D01*
X135500D01*
X117764Y90701D02*
X126342D01*
X126500Y90543D01*
D21*
X81205Y125142D02*
D03*
X106795D02*
D03*
X81205Y142858D02*
D03*
X106795D02*
D03*
D22*
X125000Y25000D02*
D03*
Y125000D02*
D03*
X25000D02*
D03*
Y25000D02*
D03*
D23*
X51500Y29500D02*
D03*
X62000Y107500D02*
D03*
X58000Y100000D02*
D03*
X66000Y114500D02*
D03*
X129000Y114000D02*
D03*
X52461Y75543D02*
D03*
X78000Y23004D02*
D03*
X107000Y28504D02*
D03*
D24*
X132500Y67500D02*
D03*
X126500Y96000D02*
D03*
D25*
X119240Y114000D02*
D03*
X111760D02*
D03*
X46240Y38500D02*
D03*
X38760D02*
D03*
D26*
X59000Y75543D02*
D03*
Y68457D02*
D03*
X78000Y17043D02*
D03*
Y9957D02*
D03*
X107000Y21543D02*
D03*
Y14457D02*
D03*
X133000Y61543D02*
D03*
Y54457D02*
D03*
X126500Y90543D02*
D03*
Y83457D02*
D03*
D27*
X46043Y29500D02*
D03*
X38957D02*
D03*
D28*
X87000Y17240D02*
D03*
Y9760D02*
D03*
X114500Y21740D02*
D03*
Y14260D02*
D03*
X141500Y61740D02*
D03*
Y54260D02*
D03*
X68000Y75740D02*
D03*
Y68260D02*
D03*
X135500Y90740D02*
D03*
Y83260D02*
D03*
D29*
X77764Y35500D02*
D03*
Y41799D02*
D03*
Y29201D02*
D03*
X58236Y41799D02*
D03*
Y35500D02*
D03*
Y29201D02*
D03*
X51764Y53000D02*
D03*
Y59299D02*
D03*
Y46701D02*
D03*
X32236Y59299D02*
D03*
Y53000D02*
D03*
Y46701D02*
D03*
X117764Y97000D02*
D03*
Y103299D02*
D03*
Y90701D02*
D03*
X98236Y103299D02*
D03*
Y97000D02*
D03*
Y90701D02*
D03*
X123764Y68000D02*
D03*
Y74299D02*
D03*
Y61701D02*
D03*
X104236Y74299D02*
D03*
Y68000D02*
D03*
Y61701D02*
D03*
X106764Y42000D02*
D03*
Y48299D02*
D03*
Y35701D02*
D03*
X87236Y48299D02*
D03*
Y42000D02*
D03*
Y35701D02*
D03*
X45764Y82000D02*
D03*
Y88299D02*
D03*
Y75701D02*
D03*
X26236Y88299D02*
D03*
Y82000D02*
D03*
Y75701D02*
D03*
M02*
