G04*
G04 #@! TF.GenerationSoftware,Altium Limited,Altium Designer,20.0.14 (345)*
G04*
G04 Layer_Color=8388736*
%FSLAX25Y25*%
%MOIN*%
G70*
G01*
G75*
%ADD15R,0.07505X0.02977*%
%ADD20R,0.07874X0.02362*%
%ADD21R,0.09265X0.22453*%
%ADD22R,0.04737X0.06509*%
%ADD23R,0.04147X0.02769*%
%ADD24R,0.06509X0.04737*%
%ADD25C,0.06800*%
%ADD26C,0.07690*%
%ADD27R,0.07887X0.07887*%
%ADD28C,0.07887*%
%ADD29C,0.08674*%
%ADD30C,0.00800*%
%ADD31O,0.00800X0.06800*%
%ADD32C,0.09658*%
%ADD33C,0.05800*%
%ADD34C,0.02800*%
D15*
X387500Y102209D02*
D03*
Y115791D02*
D03*
X376500Y102209D02*
D03*
Y115791D02*
D03*
X250000Y102209D02*
D03*
Y115791D02*
D03*
D20*
X111504Y125000D02*
D03*
Y120000D02*
D03*
Y115000D02*
D03*
Y110000D02*
D03*
Y105000D02*
D03*
Y100000D02*
D03*
Y95000D02*
D03*
Y90000D02*
D03*
Y85000D02*
D03*
Y80000D02*
D03*
Y75000D02*
D03*
Y70000D02*
D03*
X74496D02*
D03*
Y75000D02*
D03*
Y80000D02*
D03*
Y85000D02*
D03*
Y90000D02*
D03*
Y95000D02*
D03*
Y100000D02*
D03*
Y105000D02*
D03*
Y110000D02*
D03*
Y115000D02*
D03*
Y120000D02*
D03*
Y125000D02*
D03*
D21*
X357579Y116500D02*
D03*
X342421D02*
D03*
D22*
X30260Y173500D02*
D03*
X37740D02*
D03*
D23*
X256339Y17000D02*
D03*
X248661Y14441D02*
D03*
Y19559D02*
D03*
D24*
X237000Y20740D02*
D03*
Y13260D02*
D03*
D25*
X228500Y161000D02*
D03*
X155000Y156000D02*
D03*
X330000Y64000D02*
D03*
X128500Y161000D02*
D03*
Y151000D02*
D03*
Y141000D02*
D03*
Y21000D02*
D03*
Y31000D02*
D03*
Y41000D02*
D03*
Y51000D02*
D03*
Y61000D02*
D03*
Y71000D02*
D03*
Y81000D02*
D03*
Y91000D02*
D03*
Y101000D02*
D03*
Y111000D02*
D03*
Y121000D02*
D03*
Y131000D02*
D03*
X8500Y15657D02*
D03*
Y30618D02*
D03*
Y45579D02*
D03*
Y60539D02*
D03*
Y75500D02*
D03*
Y90461D02*
D03*
Y105421D02*
D03*
Y120382D02*
D03*
Y135343D02*
D03*
X53382Y23138D02*
D03*
X53594Y38098D02*
D03*
X53382Y53059D02*
D03*
Y68020D02*
D03*
Y82980D02*
D03*
Y97941D02*
D03*
Y112902D02*
D03*
Y127862D02*
D03*
X8500Y150303D02*
D03*
X53382Y142823D02*
D03*
Y157783D02*
D03*
X262588Y49637D02*
D03*
D26*
X278000Y115500D02*
D03*
Y105500D02*
D03*
Y95500D02*
D03*
D27*
X431500Y145000D02*
D03*
Y81000D02*
D03*
D28*
Y165000D02*
D03*
Y101000D02*
D03*
D29*
X419000Y13441D02*
D03*
Y27220D02*
D03*
Y41000D02*
D03*
D30*
X103319Y19134D02*
D03*
X205025Y44408D02*
D03*
D31*
X154500Y19134D02*
D03*
D32*
X289090Y42500D02*
D03*
X363500D02*
D03*
X388697D02*
D03*
X376098Y12500D02*
D03*
X289090D02*
D03*
D33*
X250000Y94500D02*
D03*
X70000Y130500D02*
D03*
X229500Y14500D02*
D03*
D34*
X84000Y75000D02*
D03*
Y80000D02*
D03*
M02*
