G04*
G04 #@! TF.GenerationSoftware,Altium Limited,Altium Designer,20.0.14 (345)*
G04*
G04 Layer_Color=8421504*
%FSLAX25Y25*%
%MOIN*%
G70*
G01*
G75*
%ADD14R,0.07677X0.02165*%
%ADD15R,0.07505X0.02977*%
%ADD16R,0.08465X0.21654*%
%ADD17R,0.03937X0.05709*%
%ADD18R,0.03347X0.01968*%
%ADD19R,0.05709X0.03937*%
D14*
X74496Y70000D02*
D03*
Y75000D02*
D03*
Y80000D02*
D03*
Y85000D02*
D03*
Y90000D02*
D03*
Y95000D02*
D03*
Y100000D02*
D03*
Y105000D02*
D03*
Y110000D02*
D03*
Y115000D02*
D03*
Y120000D02*
D03*
Y125000D02*
D03*
X111504D02*
D03*
Y120000D02*
D03*
Y115000D02*
D03*
Y110000D02*
D03*
Y105000D02*
D03*
Y100000D02*
D03*
Y95000D02*
D03*
Y90000D02*
D03*
Y85000D02*
D03*
Y80000D02*
D03*
Y75000D02*
D03*
Y70000D02*
D03*
D15*
X387500Y102209D02*
D03*
Y115791D02*
D03*
X376500Y102209D02*
D03*
Y115791D02*
D03*
X250000Y102209D02*
D03*
Y115791D02*
D03*
D16*
X357579Y116500D02*
D03*
X342421D02*
D03*
D17*
X30260Y173500D02*
D03*
X37740D02*
D03*
D18*
X256339Y17000D02*
D03*
X248661Y14441D02*
D03*
Y19559D02*
D03*
D19*
X237000Y20740D02*
D03*
Y13260D02*
D03*
M02*
