G04*
G04 #@! TF.GenerationSoftware,Altium Limited,Altium Designer,20.0.14 (345)*
G04*
G04 Layer_Physical_Order=1*
G04 Layer_Color=255*
%FSLAX25Y25*%
%MOIN*%
G70*
G01*
G75*
%ADD10C,0.01000*%
%ADD12R,0.07087X0.04724*%
%ADD13R,0.06693X0.02362*%
%ADD18C,0.04000*%
%ADD19C,0.06000*%
%ADD20C,0.05000*%
D10*
X209500Y14500D02*
Y30414D01*
X198331Y38217D02*
X199012Y37535D01*
X202379D01*
X209500Y30414D01*
X199000Y4000D02*
X209500Y14500D01*
X160636Y4000D02*
X199000D01*
X156500Y8136D02*
X160636Y4000D01*
X152864Y8136D02*
X156500D01*
X152000Y9000D02*
X152864Y8136D01*
X174343Y30343D02*
X198331D01*
X192000Y44020D02*
Y98764D01*
Y44020D02*
X196984Y39035D01*
X92000Y9000D02*
X117280Y34280D01*
X198331D01*
X182000Y22000D02*
X186406Y26406D01*
X182000Y9000D02*
Y22000D01*
X186406Y26406D02*
X198331D01*
X82000Y98764D02*
Y112000D01*
X72500Y121500D02*
X82000Y112000D01*
X54000Y121500D02*
X72500D01*
X44000Y93500D02*
Y111500D01*
X54000Y121500D01*
X12000Y61000D02*
Y61500D01*
X44000Y93500D01*
X62000Y98764D02*
Y114500D01*
X70500Y20500D02*
X82000Y9000D01*
X40000Y20500D02*
X70500D01*
X10000Y5500D02*
X25000D01*
X40000Y20500D01*
X4500Y11000D02*
X10000Y5500D01*
X4500Y11000D02*
Y123000D01*
X12000Y130500D02*
Y131000D01*
X4500Y123000D02*
X12000Y130500D01*
X72000Y77500D02*
Y98764D01*
X45500Y51000D02*
X72000Y77500D01*
X12000Y51000D02*
X45500D01*
X12000Y41000D02*
X46343D01*
X58343Y53000D01*
X103672D02*
X122086Y71414D01*
X58343Y53000D02*
X103672D01*
X122000Y98764D02*
X122086Y98678D01*
Y71414D02*
Y98678D01*
X132000Y78500D02*
Y98764D01*
X104000Y50500D02*
X132000Y78500D01*
X12000Y31000D02*
X39172D01*
X58672Y50500D01*
X104000D01*
X59500Y48500D02*
X105500D01*
X12000Y21000D02*
X32000D01*
X59500Y48500D01*
X27500Y11000D02*
X63000Y46500D01*
X107000D01*
X152000Y91500D01*
X142000Y85000D02*
Y98764D01*
X105500Y48500D02*
X142000Y85000D01*
X152000Y91500D02*
Y98764D01*
X12000Y11000D02*
X27500D01*
X12000Y131000D02*
X12500Y131500D01*
X12000Y71000D02*
X12700Y71700D01*
X12000Y81000D02*
Y81500D01*
D12*
X219000Y44909D02*
D03*
Y20500D02*
D03*
D13*
X198331Y38217D02*
D03*
Y34280D02*
D03*
Y30343D02*
D03*
Y26406D02*
D03*
D18*
X102000Y98764D02*
Y141000D01*
X149764D01*
X12000D02*
X102000D01*
X149764D02*
X192000Y98764D01*
X12000Y141000D02*
Y151000D01*
D19*
X112000D02*
D03*
X52000Y9000D02*
D03*
X62000D02*
D03*
X72000D02*
D03*
X82000D02*
D03*
X92000D02*
D03*
X102000D02*
D03*
X112000D02*
D03*
X122000D02*
D03*
X132000D02*
D03*
X142000D02*
D03*
X152000D02*
D03*
X162000D02*
D03*
X172000D02*
D03*
X182000D02*
D03*
X192000D02*
D03*
Y98764D02*
D03*
X182000D02*
D03*
X172000D02*
D03*
X162000D02*
D03*
X152000D02*
D03*
X142000D02*
D03*
X132000D02*
D03*
X122000D02*
D03*
X111500D02*
D03*
X102000D02*
D03*
X92000D02*
D03*
X82000D02*
D03*
X72000D02*
D03*
X62000D02*
D03*
X52000D02*
D03*
X214000Y56000D02*
D03*
X40000Y150000D02*
D03*
X12000Y151000D02*
D03*
Y141000D02*
D03*
Y131000D02*
D03*
Y11000D02*
D03*
Y21000D02*
D03*
Y31000D02*
D03*
Y41000D02*
D03*
Y51000D02*
D03*
Y61000D02*
D03*
Y71000D02*
D03*
Y81000D02*
D03*
Y91000D02*
D03*
Y101000D02*
D03*
Y111000D02*
D03*
Y121000D02*
D03*
D20*
X173500Y30000D02*
D03*
X62000Y114500D02*
D03*
M02*
