G04*
G04 #@! TF.GenerationSoftware,Altium Limited,Altium Designer,20.0.14 (345)*
G04*
G04 Layer_Color=32896*
%FSLAX25Y25*%
%MOIN*%
G70*
G01*
G75*
%ADD28C,0.01500*%
D28*
X59689Y38831D02*
X53500D01*
Y28833D01*
X59689D01*
X53500Y34070D02*
X57309D01*
X61356Y36926D02*
X62308Y37402D01*
X63736Y38831D01*
Y28833D01*
X71068Y38831D02*
X69639Y38354D01*
X69163Y37402D01*
Y36450D01*
X69639Y35498D01*
X70592Y35022D01*
X72496Y34546D01*
X73924Y34070D01*
X74876Y33117D01*
X75353Y32165D01*
Y30737D01*
X74876Y29785D01*
X74400Y29309D01*
X72972Y28833D01*
X71068D01*
X69639Y29309D01*
X69163Y29785D01*
X68687Y30737D01*
Y32165D01*
X69163Y33117D01*
X70116Y34070D01*
X71544Y34546D01*
X73448Y35022D01*
X74400Y35498D01*
X74876Y36450D01*
Y37402D01*
X74400Y38354D01*
X72972Y38831D01*
X71068D01*
X77590Y36926D02*
X78542Y37402D01*
X79971Y38831D01*
Y28833D01*
X84922Y36926D02*
X85874Y37402D01*
X87302Y38831D01*
Y28833D01*
X98443Y38831D02*
X92254D01*
Y28833D01*
X98443D01*
X92254Y34070D02*
X96062D01*
X100109Y38831D02*
Y28833D01*
Y38831D02*
X103442D01*
X104870Y38354D01*
X105822Y37402D01*
X106298Y36450D01*
X106774Y35022D01*
Y32641D01*
X106298Y31213D01*
X105822Y30261D01*
X104870Y29309D01*
X103442Y28833D01*
X100109D01*
X116153Y36450D02*
X115677Y37402D01*
X114725Y38354D01*
X113773Y38831D01*
X111868D01*
X110916Y38354D01*
X109964Y37402D01*
X109488Y36450D01*
X109012Y35022D01*
Y32641D01*
X109488Y31213D01*
X109964Y30261D01*
X110916Y29309D01*
X111868Y28833D01*
X113773D01*
X114725Y29309D01*
X115677Y30261D01*
X116153Y31213D01*
Y32641D01*
X113773D02*
X116153D01*
X124628Y38831D02*
X118438D01*
Y28833D01*
X124628D01*
X118438Y34070D02*
X122247D01*
X126294Y33593D02*
X130579D01*
X132007Y34070D01*
X132483Y34546D01*
X132959Y35498D01*
Y36926D01*
X132483Y37878D01*
X132007Y38354D01*
X130579Y38831D01*
X126294D01*
Y28833D01*
X142338Y36450D02*
X141862Y37402D01*
X140910Y38354D01*
X139958Y38831D01*
X138053D01*
X137101Y38354D01*
X136149Y37402D01*
X135673Y36450D01*
X135197Y35022D01*
Y32641D01*
X135673Y31213D01*
X136149Y30261D01*
X137101Y29309D01*
X138053Y28833D01*
X139958D01*
X140910Y29309D01*
X141862Y30261D01*
X142338Y31213D01*
X145147Y38831D02*
Y28833D01*
Y38831D02*
X149432D01*
X150860Y38354D01*
X151336Y37878D01*
X151812Y36926D01*
Y35974D01*
X151336Y35022D01*
X150860Y34546D01*
X149432Y34070D01*
X145147D02*
X149432D01*
X150860Y33593D01*
X151336Y33117D01*
X151812Y32165D01*
Y30737D01*
X151336Y29785D01*
X150860Y29309D01*
X149432Y28833D01*
X145147D01*
X161667D02*
X157859Y38831D01*
X154050Y28833D01*
X155478Y32165D02*
X160239D01*
X164476Y36450D02*
Y36926D01*
X164952Y37878D01*
X165428Y38354D01*
X166381Y38831D01*
X168285D01*
X169237Y38354D01*
X169713Y37878D01*
X170189Y36926D01*
Y35974D01*
X169713Y35022D01*
X168761Y33593D01*
X164000Y28833D01*
X170665D01*
X172903Y25500D02*
X180520D01*
X184662Y38831D02*
X183234Y38354D01*
X182282Y36926D01*
X181806Y34546D01*
Y33117D01*
X182282Y30737D01*
X183234Y29309D01*
X184662Y28833D01*
X185615D01*
X187043Y29309D01*
X187995Y30737D01*
X188471Y33117D01*
Y34546D01*
X187995Y36926D01*
X187043Y38354D01*
X185615Y38831D01*
X184662D01*
M02*
