G04*
G04 #@! TF.GenerationSoftware,Altium Limited,Altium Designer,20.0.14 (345)*
G04*
G04 Layer_Physical_Order=1*
G04 Layer_Color=255*
%FSLAX25Y25*%
%MOIN*%
G70*
G01*
G75*
%ADD11C,0.01000*%
%ADD12R,0.03937X0.05709*%
%ADD13R,0.06693X0.02362*%
%ADD14R,0.07087X0.04724*%
%ADD15R,0.05709X0.03937*%
%ADD16R,0.05709X0.04528*%
%ADD17R,0.05906X0.03937*%
%ADD26C,0.06890*%
%ADD27C,0.05000*%
D11*
X20000Y24500D02*
X22842Y21657D01*
X27669D01*
X20000Y24500D02*
Y49000D01*
X30858Y59858D02*
X32295D01*
X20000Y49000D02*
X30858Y59858D01*
X32295D02*
X46402D01*
X46760Y59500D01*
X29835Y25594D02*
X65595D01*
X27669D02*
X29835D01*
X32295Y28055D02*
Y42142D01*
X29835Y25594D02*
X32295Y28055D01*
X216500Y65500D02*
X224329Y57671D01*
X200000Y57000D02*
X208500Y65500D01*
X242000D02*
X252500D01*
X216500D02*
X242000D01*
X208500D02*
X216500D01*
X83500D02*
X208500D01*
X73000D02*
X83500D01*
X258000Y52339D02*
Y60000D01*
X252500Y65500D02*
X258000Y60000D01*
X234500Y58000D02*
X242000Y65500D01*
X234500Y24252D02*
Y58000D01*
X241252Y17500D02*
X242236D01*
X234500Y24252D02*
X241252Y17500D01*
X224329Y52339D02*
Y57671D01*
X207252Y17500D02*
X208236D01*
X200000Y24752D02*
X207252Y17500D01*
X200000Y24752D02*
Y57000D01*
X191500Y52240D02*
Y57000D01*
X183500Y65000D02*
X191500Y57000D01*
X166500D02*
X174500Y65000D01*
X183500D01*
X166500Y24252D02*
Y57000D01*
X173252Y17500D02*
X174236D01*
X166500Y24252D02*
X173252Y17500D01*
X156987Y52339D02*
Y57513D01*
X149500Y65000D02*
X156987Y57513D01*
X139000Y65000D02*
X149500D01*
X131500Y57500D02*
X139000Y65000D01*
X131500Y25252D02*
Y57500D01*
X139252Y17500D02*
X140236D01*
X131500Y25252D02*
X139252Y17500D01*
X105500Y65000D02*
X116500D01*
X123316Y52339D02*
Y58184D01*
X116500Y65000D02*
X123316Y58184D01*
X99000Y58500D02*
X105500Y65000D01*
X99000Y23752D02*
Y58500D01*
X105252Y17500D02*
X106236D01*
X99000Y23752D02*
X105252Y17500D01*
X27669Y13783D02*
X27811Y13642D01*
X38358D01*
X38500Y13500D01*
X66000Y26000D02*
Y58500D01*
Y22752D02*
Y26000D01*
X65595Y25594D02*
X66000Y26000D01*
X241355Y52043D02*
X241398Y52000D01*
X249500D01*
X207684Y52043D02*
X207727Y52000D01*
X216000D01*
X176000Y52043D02*
X176043Y52000D01*
X183500D01*
X140342Y52043D02*
X140385Y52000D01*
X148500D01*
X106671Y52043D02*
X106714Y52000D01*
X115000D01*
X73000Y52043D02*
X73043Y52000D01*
X81500D01*
X89645Y52339D02*
Y59355D01*
X83500Y65500D02*
X89645Y59355D01*
X66000Y58500D02*
X73000Y65500D01*
X71252Y17500D02*
X72236D01*
X66000Y22752D02*
X71252Y17500D01*
X260780D02*
X261764D01*
X248280Y5000D02*
X260780Y17500D01*
X234949Y5000D02*
X248280D01*
X227764Y11201D02*
X228748D01*
X234949Y5000D01*
X200949D02*
X214280D01*
X220156Y10876D01*
Y10876D01*
X226780Y17500D02*
X227764D01*
X220156Y10876D02*
X226780Y17500D01*
X193764Y11201D02*
X194748D01*
X200949Y5000D01*
X166949D02*
X180500D01*
X187113Y11613D02*
Y11833D01*
X180500Y5000D02*
X187113Y11613D01*
X192780Y17500D02*
X193764D01*
X187113Y11833D02*
X192780Y17500D01*
X159764Y11201D02*
X160748D01*
X166949Y5000D01*
X242035Y11000D02*
X242236Y11201D01*
X235500Y11000D02*
X242035D01*
X208035D02*
X208236Y11201D01*
X201000Y11000D02*
X208035D01*
X174035D02*
X174236Y11201D01*
X167000Y11000D02*
X174035D01*
X140035D02*
X140236Y11201D01*
X133000Y11000D02*
X140035D01*
X98500D02*
X105437D01*
X98843Y5000D02*
X112500D01*
X92748Y11095D02*
X98843Y5000D01*
X92748Y11095D02*
Y11701D01*
X105437Y11000D02*
X105937Y11500D01*
X106236Y11201D01*
X72035Y11000D02*
X72236Y11201D01*
X64500Y11000D02*
X72035D01*
X133080Y5000D02*
X145500D01*
X127133Y10816D02*
Y10947D01*
Y10816D02*
X128217Y9732D01*
X128348D01*
X133080Y5000D01*
X158295Y16032D02*
X159764Y17500D01*
X156532Y16032D02*
X158295D01*
X145500Y5000D02*
X156532Y16032D01*
X159000Y24563D02*
X159764Y23799D01*
X157531Y44858D02*
X159000Y43390D01*
X156987Y44858D02*
X157531D01*
X159000Y24563D02*
Y43390D01*
X123316Y44858D02*
X124031D01*
X125500Y24597D02*
Y43390D01*
X124031Y44858D02*
X125500Y43390D01*
X124779Y17500D02*
X125764D01*
X123311Y16032D02*
X124779Y17500D01*
X123311Y15811D02*
Y16032D01*
X112500Y5000D02*
X123311Y15811D01*
X27669Y17720D02*
X41280D01*
X54000Y5000D01*
X90780Y18000D02*
X91764D01*
X77780Y5000D02*
X90780Y18000D01*
X54000Y5000D02*
X77780D01*
X161279Y17500D02*
X162264D01*
X258000Y44858D02*
X258886D01*
X260354Y43390D01*
Y42504D02*
Y43390D01*
Y42504D02*
X261764Y41094D01*
Y24799D02*
Y41094D01*
X241355Y44957D02*
X257902D01*
X258000Y44858D01*
X224329D02*
X225215D01*
X226683Y43390D01*
Y42504D02*
Y43390D01*
Y42504D02*
X228764Y40423D01*
Y24299D02*
Y40423D01*
X207684Y44957D02*
X224231D01*
X224329Y44858D01*
X190658Y27421D02*
Y44858D01*
Y27421D02*
X194280Y23799D01*
X195264D01*
X176000Y44957D02*
X176098Y44858D01*
X190658D01*
X140342Y44957D02*
X156888D01*
X156987Y44858D01*
X106671Y44957D02*
X123217D01*
X123316Y44858D01*
X89645D02*
X90295D01*
X91764Y43390D01*
Y24299D02*
Y43390D01*
X73000Y44957D02*
X89547D01*
X89645Y44858D01*
D12*
X46760Y59500D02*
D03*
X54240D02*
D03*
D13*
X27669Y25594D02*
D03*
Y21657D02*
D03*
Y17720D02*
D03*
Y13783D02*
D03*
D14*
X7000Y31500D02*
D03*
Y7091D02*
D03*
D15*
X89645Y44858D02*
D03*
Y52339D02*
D03*
X156987Y44858D02*
D03*
Y52339D02*
D03*
X123316Y44858D02*
D03*
Y52339D02*
D03*
X258000Y44858D02*
D03*
Y52339D02*
D03*
X224329Y44858D02*
D03*
Y52339D02*
D03*
X191500Y44760D02*
D03*
Y52240D02*
D03*
D16*
X73000Y44957D02*
D03*
Y52043D02*
D03*
X140342Y44957D02*
D03*
Y52043D02*
D03*
X106671Y44957D02*
D03*
Y52043D02*
D03*
X241355Y44957D02*
D03*
Y52043D02*
D03*
X207684Y44957D02*
D03*
Y52043D02*
D03*
X176000Y44957D02*
D03*
Y52043D02*
D03*
D17*
X159764Y11201D02*
D03*
Y17500D02*
D03*
Y23799D02*
D03*
X140236Y11201D02*
D03*
Y23799D02*
D03*
Y17500D02*
D03*
X125764Y11201D02*
D03*
Y17500D02*
D03*
Y23799D02*
D03*
X106236Y11201D02*
D03*
Y23799D02*
D03*
Y17500D02*
D03*
X91764Y11201D02*
D03*
Y17500D02*
D03*
Y23799D02*
D03*
X72236Y11201D02*
D03*
Y23799D02*
D03*
Y17500D02*
D03*
X261764Y11201D02*
D03*
Y17500D02*
D03*
Y23799D02*
D03*
X242236Y11201D02*
D03*
Y23799D02*
D03*
Y17500D02*
D03*
X227764Y11201D02*
D03*
Y17500D02*
D03*
Y23799D02*
D03*
X208236Y11201D02*
D03*
Y23799D02*
D03*
Y17500D02*
D03*
X193764Y11201D02*
D03*
Y17500D02*
D03*
Y23799D02*
D03*
X174236Y11201D02*
D03*
Y23799D02*
D03*
Y17500D02*
D03*
D26*
X32295Y42142D02*
D03*
X6705D02*
D03*
X32295Y59858D02*
D03*
X6705D02*
D03*
D27*
X61000Y59500D02*
D03*
X38500Y13500D02*
D03*
X249500Y52000D02*
D03*
X216000D02*
D03*
X183500D02*
D03*
X148500D02*
D03*
X115000D02*
D03*
X81500D02*
D03*
X98500Y11000D02*
D03*
X235500D02*
D03*
X201000D02*
D03*
X167000D02*
D03*
X133000D02*
D03*
X64500D02*
D03*
M02*
