G04*
G04 #@! TF.GenerationSoftware,Altium Limited,Altium Designer,20.0.14 (345)*
G04*
G04 Layer_Color=16711935*
%FSLAX25Y25*%
%MOIN*%
G70*
G01*
G75*
%ADD25C,0.00394*%
D25*
X28768Y28539D02*
X37232D01*
X28768Y33461D02*
X37232D01*
X28768Y28539D02*
Y33461D01*
X37232Y28539D02*
Y33461D01*
X28768Y98539D02*
X37232D01*
X28768Y103461D02*
X37232D01*
X28768Y98539D02*
Y103461D01*
X37232Y98539D02*
Y103461D01*
X28768Y88539D02*
X37232D01*
X28768Y93461D02*
X37232D01*
X28768Y88539D02*
Y93461D01*
X37232Y88539D02*
Y93461D01*
X28768Y78539D02*
X37232D01*
X28768Y83461D02*
X37232D01*
X28768Y78539D02*
Y83461D01*
X37232Y78539D02*
Y83461D01*
X28768Y68539D02*
X37232D01*
X28768Y73461D02*
X37232D01*
X28768Y68539D02*
Y73461D01*
X37232Y68539D02*
Y73461D01*
X28768Y58539D02*
X37232D01*
X28768Y63461D02*
X37232D01*
X28768Y58539D02*
Y63461D01*
X37232Y58539D02*
Y63461D01*
X28768Y48539D02*
X37232D01*
X28768Y53461D02*
X37232D01*
X28768Y48539D02*
Y53461D01*
X37232Y48539D02*
Y53461D01*
X28768Y18539D02*
X37232D01*
X28768Y23461D02*
X37232D01*
X28768Y18539D02*
Y23461D01*
X37232Y18539D02*
Y23461D01*
X28768Y38539D02*
X37232D01*
X28768Y43461D02*
X37232D01*
X28768Y38539D02*
Y43461D01*
X37232Y38539D02*
Y43461D01*
X28768Y8539D02*
X37232D01*
X28768Y13461D02*
X37232D01*
X28768Y8539D02*
Y13461D01*
X37232Y8539D02*
Y13461D01*
M02*
