G04*
G04 #@! TF.GenerationSoftware,Altium Limited,Altium Designer,20.0.14 (345)*
G04*
G04 Layer_Physical_Order=1*
G04 Layer_Color=255*
%FSLAX25Y25*%
%MOIN*%
G70*
G01*
G75*
%ADD10C,0.01000*%
%ADD11R,0.06693X0.02362*%
%ADD12R,0.07087X0.04724*%
%ADD17C,0.01500*%
%ADD18C,0.03000*%
%ADD19C,0.04000*%
%ADD20C,0.06000*%
%ADD21C,0.05000*%
D10*
X204500Y52000D02*
Y121500D01*
X103500Y32000D02*
X184500D01*
X204500Y52000D01*
X194500Y131500D02*
X204500Y121500D01*
X12500Y131500D02*
X194500D01*
X12000Y131000D02*
X12500Y131500D01*
X12000Y101000D02*
X40500Y129500D01*
X132764D01*
X162000Y100264D01*
X82000Y10500D02*
X103500Y32000D01*
X12000Y11000D02*
X12500Y11500D01*
X22500D01*
X39500Y28500D02*
Y92500D01*
X22500Y11500D02*
X39500Y28500D01*
Y92500D02*
X47264Y100264D01*
X52000D01*
X12000Y21000D02*
X37500Y46500D01*
Y97500D01*
X58914Y111586D02*
X62000Y108500D01*
X51586Y111586D02*
X58914D01*
X37500Y97500D02*
X51586Y111586D01*
X62000Y100264D02*
Y108500D01*
X12000Y31000D02*
X35000Y54000D01*
Y98500D01*
X50500Y114000D02*
X68000D01*
X35000Y98500D02*
X50500Y114000D01*
X72000Y100264D02*
Y110000D01*
X68000Y114000D02*
X72000Y110000D01*
X12000Y41000D02*
X32836Y61836D01*
Y99336D01*
X49500Y116000D01*
X77500D01*
X82000Y111500D01*
Y100264D02*
Y111500D01*
X12000Y51000D02*
X30000Y69000D01*
Y99500D01*
X48500Y118000D01*
X86000D01*
X92000Y112000D01*
Y100264D02*
Y112000D01*
X27500Y76500D02*
Y101000D01*
X12000Y61000D02*
X27500Y76500D01*
X24900Y80100D02*
Y101900D01*
X16500Y71700D02*
X24900Y80100D01*
X27500Y101000D02*
X46500Y120000D01*
X112000D01*
X122000Y110000D01*
Y100264D02*
Y110000D01*
X12000Y71000D02*
X12700Y71700D01*
X16500D01*
X24900Y101900D02*
X45500Y122500D01*
X116000D01*
X132000Y106500D01*
Y100264D02*
Y106500D01*
X12000Y81000D02*
Y81500D01*
X22728Y92228D02*
Y102728D01*
X12000Y81500D02*
X22728Y92228D01*
Y102728D02*
X45000Y125000D01*
X117264D01*
X20728Y99728D02*
Y105728D01*
X42000Y127000D01*
X125264D01*
X152000Y100264D01*
X12000Y91000D02*
X20728Y99728D01*
X117264Y125000D02*
X132665Y109599D01*
Y109599D02*
Y109599D01*
Y109599D02*
X142000Y100264D01*
D11*
X202331Y23996D02*
D03*
Y27933D02*
D03*
Y31870D02*
D03*
Y35807D02*
D03*
D12*
X223000Y18090D02*
D03*
Y42500D02*
D03*
D17*
X193500Y32500D02*
X194130Y31870D01*
X202331D01*
X182000Y10500D02*
X188500Y17000D01*
X205000D02*
X213000Y25000D01*
X188500Y17000D02*
X205000D01*
X202331Y35807D02*
X202762Y35376D01*
X205827D01*
X213000Y28203D01*
Y25000D02*
Y28203D01*
X165496Y23996D02*
X202331D01*
X152000Y10500D02*
X165496Y23996D01*
X92000Y10500D02*
X109433Y27933D01*
X202331D01*
X166000Y125000D02*
X166632D01*
X191368Y100264D02*
X192000D01*
D18*
X12000Y141000D02*
X12812D01*
X14312Y139500D01*
X146959D01*
X148076Y140617D01*
X148214D01*
X148756Y140076D01*
X166632Y125000D02*
X191368Y100264D01*
X130000Y56500D02*
X162500D01*
X102000Y84500D02*
Y100264D01*
Y84500D02*
X130000Y56500D01*
X192000Y86000D02*
Y100264D01*
X162500Y56500D02*
X192000Y86000D01*
D19*
X12000Y141000D02*
Y151000D01*
D20*
X214000Y56000D02*
D03*
X40000Y150000D02*
D03*
X12000Y151000D02*
D03*
Y141000D02*
D03*
Y131000D02*
D03*
Y11000D02*
D03*
Y21000D02*
D03*
Y31000D02*
D03*
Y41000D02*
D03*
Y51000D02*
D03*
Y61000D02*
D03*
Y71000D02*
D03*
Y81000D02*
D03*
Y91000D02*
D03*
Y101000D02*
D03*
Y111000D02*
D03*
Y121000D02*
D03*
X52000Y10500D02*
D03*
X62000D02*
D03*
X72000D02*
D03*
X82000D02*
D03*
X92000D02*
D03*
X102000D02*
D03*
X112000D02*
D03*
X122000D02*
D03*
X132000D02*
D03*
X142000D02*
D03*
X152000D02*
D03*
X162000D02*
D03*
X172000D02*
D03*
X182000D02*
D03*
X192000D02*
D03*
Y100264D02*
D03*
X182000D02*
D03*
X172000D02*
D03*
X162000D02*
D03*
X152000D02*
D03*
X142000D02*
D03*
X132000D02*
D03*
X122000D02*
D03*
X111500D02*
D03*
X102000D02*
D03*
X92000D02*
D03*
X82000D02*
D03*
X72000D02*
D03*
X62000D02*
D03*
X52000D02*
D03*
D21*
X193500Y32500D02*
D03*
X166000Y125000D02*
D03*
X149000Y141000D02*
D03*
M02*
