G04*
G04 #@! TF.GenerationSoftware,Altium Limited,Altium Designer,20.0.14 (345)*
G04*
G04 Layer_Color=32896*
%FSLAX25Y25*%
%MOIN*%
G70*
G01*
G75*
%ADD10C,0.01000*%
%ADD24C,0.00591*%
D10*
X92666Y145835D02*
X90000D01*
Y149834D01*
X92666D01*
X90000Y147834D02*
X91333D01*
X93999Y149834D02*
X95332D01*
X94665D01*
Y145835D01*
X93999Y146501D01*
X97331D02*
X97997Y145835D01*
X99330D01*
X99997Y146501D01*
Y147168D01*
X99330Y147834D01*
X99997Y148501D01*
Y149167D01*
X99330Y149834D01*
X97997D01*
X97331Y149167D01*
Y148501D01*
X97997Y147834D01*
X97331Y147168D01*
Y146501D01*
X97997Y147834D02*
X99330D01*
X101330Y149834D02*
X102663D01*
X101996D01*
Y145835D01*
X101330Y146501D01*
X104662Y149834D02*
X105995D01*
X105328D01*
Y145835D01*
X104662Y146501D01*
X107994Y149834D02*
Y145835D01*
X109994D01*
X110660Y146501D01*
Y147834D01*
X109994Y148501D01*
X107994D01*
X114659Y146501D02*
X113992Y145835D01*
X112659D01*
X111993Y146501D01*
Y149167D01*
X112659Y149834D01*
X113992D01*
X114659Y149167D01*
X115992Y145835D02*
Y149834D01*
X117991D01*
X118657Y149167D01*
Y148501D01*
X117991Y147834D01*
X115992D01*
X117991D01*
X118657Y147168D01*
Y146501D01*
X117991Y145835D01*
X115992D01*
X119990Y149834D02*
Y147168D01*
X121323Y145835D01*
X122656Y147168D01*
Y149834D01*
Y147834D01*
X119990D01*
X123989Y149834D02*
X125322D01*
X124655D01*
Y145835D01*
X123989Y146501D01*
X127321Y150500D02*
X129987D01*
X131320Y149834D02*
X132653D01*
X131986D01*
Y145835D01*
X131320Y146501D01*
X42002Y103999D02*
X42002Y98001D01*
X45002Y98001D01*
X46001Y99001D01*
X46001Y101000D01*
X45002Y102000D01*
X42002Y102000D01*
X44002Y102000D02*
X46001Y103999D01*
X48000Y103999D02*
X50000Y103999D01*
X49000Y103999D01*
X49000Y98001D01*
X48000Y99001D01*
X56998Y103999D02*
X52999Y103999D01*
X56998Y100000D01*
X56998Y99001D01*
X55998Y98001D01*
X53999Y98001D01*
X52999Y99001D01*
X43002Y53999D02*
Y48001D01*
X46001D01*
X47001Y49001D01*
Y51000D01*
X46001Y52000D01*
X43002D01*
X45002D02*
X47001Y53999D01*
X49000D02*
X50999D01*
X50000D01*
Y48001D01*
X49000Y49001D01*
X53999Y53999D02*
X55998D01*
X54998D01*
Y48001D01*
X53999Y49001D01*
X44002Y93999D02*
Y88001D01*
X47001D01*
X48000Y89001D01*
Y91000D01*
X47001Y92000D01*
X44002D01*
X46001D02*
X48000Y93999D01*
X50000Y92999D02*
X50999Y93999D01*
X52999D01*
X53998Y92999D01*
Y89001D01*
X52999Y88001D01*
X50999D01*
X50000Y89001D01*
Y90000D01*
X50999Y91000D01*
X53998D01*
X43011Y44015D02*
X42992Y38017D01*
X45991Y38007D01*
X46994Y39004D01*
X47000Y41003D01*
X46004Y42006D01*
X43005Y42015D01*
X45004Y42009D02*
X47010Y44002D01*
X48993Y38998D02*
X49990Y37995D01*
X51989Y37988D01*
X52992Y38985D01*
X52995Y39985D01*
X51999Y40988D01*
X53001Y41984D01*
X53005Y42984D01*
X52008Y43986D01*
X50009Y43993D01*
X49006Y42996D01*
X49003Y41996D01*
X49999Y40994D01*
X48997Y39997D01*
X48993Y38998D01*
X49999Y40994D02*
X51999Y40988D01*
X43035Y84054D02*
X42969Y78056D01*
X45968Y78023D01*
X46979Y79012D01*
X47000Y81011D01*
X46012Y82021D01*
X43013Y82054D01*
X45012Y82032D02*
X47033Y84010D01*
X52965Y77947D02*
X50977Y78968D01*
X49000Y80989D01*
X49022Y82988D01*
X50032Y83977D01*
X52031Y83955D01*
X53020Y82945D01*
X53009Y81945D01*
X51999Y80956D01*
X49000Y80989D01*
X42534Y34052D02*
X42470Y28054D01*
X45469Y28022D01*
X46479Y29011D01*
X46500Y31010D01*
X45511Y32021D01*
X42513Y32052D01*
X44512Y32031D02*
X46532Y34009D01*
X52466Y27948D02*
X48468Y27991D01*
X48500Y30989D01*
X50488Y29969D01*
X51488Y29958D01*
X52498Y30947D01*
X52519Y32946D01*
X51530Y33957D01*
X49531Y33978D01*
X48521Y32989D01*
X43002Y73999D02*
Y68001D01*
X46001D01*
X47000Y69001D01*
Y71000D01*
X46001Y72000D01*
X43002D01*
X45001D02*
X47000Y73999D01*
X51999D02*
Y68001D01*
X49000Y71000D01*
X52998D01*
X42261Y23499D02*
Y17501D01*
X45261D01*
X46260Y18501D01*
Y20500D01*
X45261Y21500D01*
X42261D01*
X44261D02*
X46260Y23499D01*
X48259Y18501D02*
X49259Y17501D01*
X51259D01*
X52258Y18501D01*
Y19500D01*
X51259Y20500D01*
X50259D01*
X51259D01*
X52258Y21500D01*
Y22499D01*
X51259Y23499D01*
X49259D01*
X48259Y22499D01*
X42502Y63999D02*
Y58001D01*
X45501D01*
X46500Y59001D01*
Y61000D01*
X45501Y62000D01*
X42502D01*
X44501D02*
X46500Y63999D01*
X52498D02*
X48500D01*
X52498Y60000D01*
Y59001D01*
X51499Y58001D01*
X49499D01*
X48500Y59001D01*
X42001Y13999D02*
Y8001D01*
X45000D01*
X46000Y9001D01*
Y11000D01*
X45000Y12000D01*
X42001D01*
X44001D02*
X46000Y13999D01*
X47999D02*
X49999D01*
X48999D01*
Y8001D01*
X47999Y9001D01*
D24*
X32409Y28047D02*
X33591D01*
X32409Y33953D02*
X33591D01*
X32409Y98047D02*
X33591D01*
X32409Y103953D02*
X33591D01*
X32409Y88047D02*
X33591D01*
X32409Y93953D02*
X33591D01*
X32409Y78047D02*
X33591D01*
X32409Y83953D02*
X33591D01*
X32409Y68047D02*
X33590D01*
X32409Y73953D02*
X33590D01*
X32409Y58047D02*
X33591D01*
X32409Y63953D02*
X33591D01*
X32409Y48047D02*
X33591D01*
X32409Y53953D02*
X33591D01*
X32409Y18047D02*
X33591D01*
X32409Y23953D02*
X33591D01*
X32409Y38047D02*
X33591D01*
X32409Y43953D02*
X33591D01*
X32409Y8047D02*
X33591D01*
X32409Y13953D02*
X33591D01*
M02*
