G04*
G04 #@! TF.GenerationSoftware,Altium Limited,Altium Designer,20.0.14 (345)*
G04*
G04 Layer_Color=65535*
%FSLAX25Y25*%
%MOIN*%
G70*
G01*
G75*
%ADD10C,0.01000*%
%ADD11C,0.00500*%
%ADD12C,0.00800*%
G36*
X7747Y9809D02*
X7830D01*
X7923Y9800D01*
X8117Y9763D01*
X8127D01*
X8163Y9754D01*
X8210Y9745D01*
X8275Y9726D01*
X8348Y9708D01*
X8422Y9689D01*
X8580Y9634D01*
X8589D01*
X8617Y9624D01*
X8654Y9606D01*
X8700Y9588D01*
X8811Y9541D01*
X8922Y9486D01*
X8931D01*
X8941Y9477D01*
X8996Y9439D01*
X9061Y9393D01*
X9107Y9347D01*
X9116Y9338D01*
X9135Y9319D01*
X9162Y9273D01*
X9181Y9227D01*
X9190Y9217D01*
X9200Y9181D01*
X9209Y9116D01*
Y9032D01*
Y9023D01*
Y8986D01*
Y8940D01*
X9200Y8894D01*
Y8884D01*
X9190Y8866D01*
X9172Y8801D01*
Y8792D01*
X9162Y8783D01*
X9126Y8746D01*
X9116D01*
X9079Y8737D01*
X9070D01*
X9042Y8746D01*
X8996Y8764D01*
X8922Y8811D01*
X8913D01*
X8903Y8820D01*
X8876Y8838D01*
X8839Y8857D01*
X8746Y8912D01*
X8617Y8977D01*
X8608D01*
X8580Y8996D01*
X8543Y9014D01*
X8487Y9032D01*
X8422Y9060D01*
X8348Y9088D01*
X8256Y9116D01*
X8163Y9144D01*
X8154D01*
X8117Y9153D01*
X8062Y9171D01*
X7988Y9190D01*
X7904Y9199D01*
X7794Y9217D01*
X7683Y9227D01*
X7479D01*
X7396Y9217D01*
X7294Y9208D01*
X7174Y9190D01*
X7044Y9162D01*
X6905Y9125D01*
X6776Y9070D01*
X6758Y9060D01*
X6720Y9042D01*
X6656Y9005D01*
X6582Y8958D01*
X6489Y8894D01*
X6397Y8820D01*
X6295Y8737D01*
X6202Y8635D01*
X6193Y8625D01*
X6165Y8589D01*
X6119Y8524D01*
X6073Y8450D01*
X6018Y8357D01*
X5953Y8237D01*
X5897Y8117D01*
X5842Y7978D01*
X5833Y7959D01*
X5823Y7913D01*
X5805Y7839D01*
X5786Y7738D01*
X5759Y7608D01*
X5740Y7469D01*
X5731Y7321D01*
X5722Y7155D01*
Y7146D01*
Y7136D01*
Y7108D01*
Y7072D01*
X5731Y6979D01*
X5740Y6859D01*
X5749Y6729D01*
X5777Y6581D01*
X5805Y6424D01*
X5851Y6276D01*
X5860Y6257D01*
X5879Y6211D01*
X5906Y6146D01*
X5953Y6054D01*
X6008Y5952D01*
X6073Y5841D01*
X6147Y5730D01*
X6230Y5629D01*
X6239Y5619D01*
X6277Y5582D01*
X6323Y5536D01*
X6397Y5480D01*
X6480Y5416D01*
X6582Y5351D01*
X6693Y5286D01*
X6813Y5231D01*
X6831Y5221D01*
X6878Y5212D01*
X6943Y5194D01*
X7035Y5166D01*
X7146Y5138D01*
X7276Y5120D01*
X7414Y5111D01*
X7562Y5101D01*
X7655D01*
X7710Y5111D01*
X7784D01*
X7868Y5129D01*
X8053Y5157D01*
X8062D01*
X8099Y5166D01*
X8145Y5184D01*
X8201Y5203D01*
X8275Y5221D01*
X8358Y5258D01*
X8515Y5333D01*
Y6840D01*
X7294D01*
X7266Y6849D01*
X7229Y6868D01*
X7202Y6905D01*
Y6914D01*
X7192Y6961D01*
X7183Y7025D01*
X7174Y7118D01*
Y7127D01*
Y7164D01*
Y7201D01*
Y7247D01*
Y7256D01*
X7183Y7275D01*
X7192Y7303D01*
X7202Y7331D01*
Y7340D01*
X7211Y7349D01*
X7238Y7386D01*
X7248D01*
X7257Y7395D01*
X7303Y7405D01*
X8978D01*
X9033Y7386D01*
X9042D01*
X9061Y7377D01*
X9116Y7331D01*
X9126Y7321D01*
X9135Y7312D01*
X9153Y7284D01*
X9172Y7247D01*
X9181Y7238D01*
X9190Y7210D01*
X9200Y7173D01*
Y7118D01*
Y5147D01*
Y5129D01*
Y5083D01*
X9181Y5027D01*
X9162Y4963D01*
X9153Y4953D01*
X9126Y4916D01*
X9079Y4879D01*
X9005Y4833D01*
X8996D01*
X8987Y4824D01*
X8959Y4814D01*
X8931Y4796D01*
X8829Y4759D01*
X8709Y4704D01*
X8700D01*
X8681Y4694D01*
X8644Y4685D01*
X8589Y4667D01*
X8534Y4648D01*
X8469Y4629D01*
X8321Y4592D01*
X8311D01*
X8284Y4583D01*
X8247D01*
X8201Y4574D01*
X8136Y4565D01*
X8071Y4546D01*
X7923Y4528D01*
X7886D01*
X7849Y4518D01*
X7803D01*
X7673Y4509D01*
X7535Y4500D01*
X7433D01*
X7377Y4509D01*
X7322D01*
X7174Y4528D01*
X7007Y4546D01*
X6831Y4574D01*
X6646Y4620D01*
X6461Y4685D01*
X6452D01*
X6443Y4694D01*
X6387Y4722D01*
X6295Y4759D01*
X6184Y4824D01*
X6064Y4898D01*
X5925Y4990D01*
X5796Y5092D01*
X5666Y5212D01*
X5647Y5231D01*
X5610Y5277D01*
X5555Y5342D01*
X5481Y5443D01*
X5398Y5564D01*
X5314Y5703D01*
X5240Y5860D01*
X5167Y6036D01*
Y6045D01*
X5157Y6054D01*
X5148Y6082D01*
X5139Y6119D01*
X5111Y6221D01*
X5083Y6350D01*
X5055Y6507D01*
X5028Y6692D01*
X5009Y6896D01*
X5000Y7108D01*
Y7118D01*
Y7136D01*
Y7164D01*
Y7210D01*
X5009Y7266D01*
Y7331D01*
X5028Y7479D01*
X5046Y7645D01*
X5074Y7839D01*
X5120Y8024D01*
X5185Y8219D01*
Y8228D01*
X5194Y8237D01*
X5204Y8265D01*
X5222Y8302D01*
X5259Y8394D01*
X5324Y8514D01*
X5389Y8644D01*
X5481Y8792D01*
X5583Y8931D01*
X5703Y9070D01*
X5722Y9088D01*
X5768Y9125D01*
X5833Y9190D01*
X5934Y9273D01*
X6055Y9365D01*
X6193Y9458D01*
X6351Y9541D01*
X6517Y9624D01*
X6526D01*
X6536Y9634D01*
X6563Y9643D01*
X6600Y9652D01*
X6693Y9689D01*
X6822Y9726D01*
X6979Y9754D01*
X7155Y9791D01*
X7350Y9809D01*
X7562Y9819D01*
X7673D01*
X7747Y9809D01*
D02*
G37*
D10*
X31709Y2075D02*
Y24122D01*
Y2075D02*
X59268D01*
Y24122D01*
X31709D02*
X59268D01*
X55784Y33331D02*
Y31332D01*
Y32331D01*
X60783D01*
X61782Y31332D01*
Y30332D01*
X60783Y29332D01*
Y35330D02*
X61782Y36330D01*
Y38329D01*
X60783Y39329D01*
X56784D01*
X55784Y38329D01*
Y36330D01*
X56784Y35330D01*
X57784D01*
X58784Y36330D01*
Y39329D01*
D11*
X7800Y7400D02*
Y8400D01*
X8133Y8066D01*
X8467Y8400D01*
Y7400D01*
D12*
X76799Y5799D02*
X74800D01*
Y2800D01*
X76799D01*
X74800Y4299D02*
X75800D01*
X77799Y2800D02*
X78799D01*
X78299D01*
Y5799D01*
X77799Y5299D01*
X80298D02*
X80798Y5799D01*
X81798D01*
X82298Y5299D01*
Y4799D01*
X81798Y4299D01*
X82298Y3799D01*
Y3300D01*
X81798Y2800D01*
X80798D01*
X80298Y3300D01*
Y3799D01*
X80798Y4299D01*
X80298Y4799D01*
Y5299D01*
X80798Y4299D02*
X81798D01*
X83297Y2800D02*
X84297D01*
X83797D01*
Y5799D01*
X83297Y5299D01*
X85796Y2800D02*
X86796D01*
X86296D01*
Y5799D01*
X85796Y5299D01*
X90295Y5799D02*
X88296D01*
Y2800D01*
X90295D01*
X88296Y4299D02*
X89295D01*
X91295Y5799D02*
Y2800D01*
X92794D01*
X93294Y3300D01*
Y5299D01*
X92794Y5799D01*
X91295D01*
X96293Y5299D02*
X95793Y5799D01*
X94793D01*
X94294Y5299D01*
Y3300D01*
X94793Y2800D01*
X95793D01*
X96293Y3300D01*
Y4299D01*
X95293D01*
X99292Y5799D02*
X97293D01*
Y2800D01*
X99292D01*
X97293Y4299D02*
X98292D01*
X100292Y2800D02*
Y5799D01*
X101791D01*
X102291Y5299D01*
Y4299D01*
X101791Y3799D01*
X100292D01*
X105290Y5299D02*
X104790Y5799D01*
X103791D01*
X103291Y5299D01*
Y3300D01*
X103791Y2800D01*
X104790D01*
X105290Y3300D01*
X106290Y5799D02*
Y2800D01*
X107789D01*
X108289Y3300D01*
Y3799D01*
X107789Y4299D01*
X106290D01*
X107789D01*
X108289Y4799D01*
Y5299D01*
X107789Y5799D01*
X106290D01*
X109289Y2800D02*
Y4799D01*
X110289Y5799D01*
X111288Y4799D01*
Y2800D01*
Y4299D01*
X109289D01*
X114287Y2800D02*
X112288D01*
X114287Y4799D01*
Y5299D01*
X113787Y5799D01*
X112788D01*
X112288Y5299D01*
X115287Y2300D02*
X117286D01*
X120285Y2800D02*
X118286D01*
X120285Y4799D01*
Y5299D01*
X119785Y5799D01*
X118786D01*
X118286Y5299D01*
M02*
