G04*
G04 #@! TF.GenerationSoftware,Altium Limited,Altium Designer,20.0.14 (345)*
G04*
G04 Layer_Color=16711935*
%FSLAX25Y25*%
%MOIN*%
G70*
G01*
G75*
%ADD17C,0.07690*%
%ADD18C,0.06800*%
%ADD19C,0.05800*%
%ADD20C,0.03800*%
%ADD30R,0.04737X0.06509*%
%ADD31R,0.06509X0.05328*%
%ADD32R,0.05328X0.06509*%
%ADD33R,0.06509X0.04737*%
%ADD34R,0.06706X0.04737*%
D17*
X81205Y125142D02*
D03*
X106795D02*
D03*
X81205Y142858D02*
D03*
X106795D02*
D03*
D18*
X125000Y25000D02*
D03*
Y125000D02*
D03*
X25000D02*
D03*
Y25000D02*
D03*
D19*
X52461Y75543D02*
D03*
X51500Y33000D02*
D03*
X62000Y107500D02*
D03*
X58000Y100000D02*
D03*
X66000Y114500D02*
D03*
X129000Y114000D02*
D03*
X78000Y23004D02*
D03*
X107000Y28504D02*
D03*
D20*
X132500Y67500D02*
D03*
X126500Y96000D02*
D03*
D30*
X119240Y114000D02*
D03*
X111760D02*
D03*
X46240Y38500D02*
D03*
X38760D02*
D03*
D31*
X59000Y75543D02*
D03*
Y68457D02*
D03*
X78000Y17043D02*
D03*
Y9957D02*
D03*
X107000Y21543D02*
D03*
Y14457D02*
D03*
X133000Y61543D02*
D03*
Y54457D02*
D03*
X126500Y90543D02*
D03*
Y83457D02*
D03*
D32*
X46043Y29500D02*
D03*
X38957D02*
D03*
D33*
X87000Y17240D02*
D03*
Y9760D02*
D03*
X114500Y21740D02*
D03*
Y14260D02*
D03*
X141500Y61740D02*
D03*
Y54260D02*
D03*
X68000Y75740D02*
D03*
Y68260D02*
D03*
X135500Y90740D02*
D03*
Y83260D02*
D03*
D34*
X77764Y35500D02*
D03*
Y41799D02*
D03*
Y29201D02*
D03*
X58236Y41799D02*
D03*
Y35500D02*
D03*
Y29201D02*
D03*
X51764Y53000D02*
D03*
Y59299D02*
D03*
Y46701D02*
D03*
X32236Y59299D02*
D03*
Y53000D02*
D03*
Y46701D02*
D03*
X117764Y97000D02*
D03*
Y103299D02*
D03*
Y90701D02*
D03*
X98236Y103299D02*
D03*
Y97000D02*
D03*
Y90701D02*
D03*
X123764Y68000D02*
D03*
Y74299D02*
D03*
Y61701D02*
D03*
X104236Y74299D02*
D03*
Y68000D02*
D03*
Y61701D02*
D03*
X106764Y42000D02*
D03*
Y48299D02*
D03*
Y35701D02*
D03*
X87236Y48299D02*
D03*
Y42000D02*
D03*
Y35701D02*
D03*
X45764Y82000D02*
D03*
Y88299D02*
D03*
Y75701D02*
D03*
X26236Y88299D02*
D03*
Y82000D02*
D03*
Y75701D02*
D03*
M02*
