G04*
G04 #@! TF.GenerationSoftware,Altium Limited,Altium Designer,20.0.14 (345)*
G04*
G04 Layer_Physical_Order=1*
G04 Layer_Color=255*
%FSLAX25Y25*%
%MOIN*%
G70*
G01*
G75*
%ADD10C,0.01000*%
%ADD13R,0.04724X0.07087*%
%ADD14R,0.02362X0.06693*%
%ADD21C,0.06890*%
%ADD22C,0.06000*%
%ADD23C,0.05000*%
%ADD24C,0.03000*%
G36*
X147500Y2500D02*
X61055D01*
Y9374D01*
X54331D01*
Y2500D01*
X36646D01*
Y9374D01*
X29921D01*
Y2500D01*
X2500D01*
Y147500D01*
X79489D01*
X79589Y147000D01*
X78963Y146741D01*
X78035Y146028D01*
X77322Y145100D01*
X76874Y144019D01*
X76722Y142858D01*
X76874Y141698D01*
X77322Y140617D01*
X78035Y139688D01*
X78963Y138976D01*
X80044Y138528D01*
X81205Y138375D01*
X82365Y138528D01*
X83446Y138976D01*
X84375Y139688D01*
X85087Y140617D01*
X85535Y141698D01*
X85688Y142858D01*
X85535Y144019D01*
X85087Y145100D01*
X84375Y146028D01*
X83446Y146741D01*
X82821Y147000D01*
X82920Y147500D01*
X105080D01*
X105179Y147000D01*
X104554Y146741D01*
X103625Y146028D01*
X102913Y145100D01*
X102465Y144019D01*
X102312Y142858D01*
X102465Y141698D01*
X102913Y140617D01*
X103625Y139688D01*
X104554Y138976D01*
X105635Y138528D01*
X106795Y138375D01*
X107956Y138528D01*
X109037Y138976D01*
X109965Y139688D01*
X110678Y140617D01*
X111126Y141698D01*
X111278Y142858D01*
X111126Y144019D01*
X110678Y145100D01*
X109965Y146028D01*
X109037Y146741D01*
X108411Y147000D01*
X108511Y147500D01*
X147500D01*
Y2500D01*
D02*
G37*
%LPC*%
G36*
X106795Y129625D02*
X105635Y129472D01*
X104554Y129024D01*
X103625Y128312D01*
X102913Y127383D01*
X102465Y126302D01*
X102312Y125142D01*
X102465Y123981D01*
X102913Y122900D01*
X103625Y121972D01*
X104554Y121259D01*
X105635Y120811D01*
X106795Y120659D01*
X107956Y120811D01*
X109037Y121259D01*
X109965Y121972D01*
X110678Y122900D01*
X111126Y123981D01*
X111278Y125142D01*
X111126Y126302D01*
X110678Y127383D01*
X109965Y128312D01*
X109037Y129024D01*
X107956Y129472D01*
X106795Y129625D01*
D02*
G37*
G36*
X81205D02*
X80044Y129472D01*
X78963Y129024D01*
X78035Y128312D01*
X77322Y127383D01*
X76874Y126302D01*
X76722Y125142D01*
X76874Y123981D01*
X77322Y122900D01*
X78035Y121972D01*
X78963Y121259D01*
X80044Y120811D01*
X81205Y120659D01*
X82365Y120811D01*
X83446Y121259D01*
X84375Y121972D01*
X85087Y122900D01*
X85535Y123981D01*
X85688Y125142D01*
X85535Y126302D01*
X85087Y127383D01*
X84375Y128312D01*
X83446Y129024D01*
X82365Y129472D01*
X81205Y129625D01*
D02*
G37*
G36*
X125000Y131029D02*
X123824Y130913D01*
X122693Y130570D01*
X121651Y130013D01*
X120737Y129263D01*
X119987Y128349D01*
X119430Y127307D01*
X119087Y126176D01*
X118971Y125000D01*
X119087Y123824D01*
X119430Y122693D01*
X119987Y121651D01*
X120737Y120737D01*
X121651Y119987D01*
X122693Y119430D01*
X123824Y119087D01*
X125000Y118971D01*
X126176Y119087D01*
X127307Y119430D01*
X128349Y119987D01*
X129263Y120737D01*
X130013Y121651D01*
X130570Y122693D01*
X130913Y123824D01*
X131029Y125000D01*
X130913Y126176D01*
X130570Y127307D01*
X130013Y128349D01*
X129263Y129263D01*
X128349Y130013D01*
X127307Y130570D01*
X126176Y130913D01*
X125000Y131029D01*
D02*
G37*
G36*
X25000D02*
X23824Y130913D01*
X22693Y130570D01*
X21651Y130013D01*
X20737Y129263D01*
X19987Y128349D01*
X19430Y127307D01*
X19087Y126176D01*
X18971Y125000D01*
X19087Y123824D01*
X19430Y122693D01*
X19987Y121651D01*
X20737Y120737D01*
X21651Y119987D01*
X22693Y119430D01*
X23824Y119087D01*
X25000Y118971D01*
X26176Y119087D01*
X27307Y119430D01*
X28350Y119987D01*
X29263Y120737D01*
X30013Y121651D01*
X30570Y122693D01*
X30913Y123824D01*
X31029Y125000D01*
X30913Y126176D01*
X30570Y127307D01*
X30013Y128349D01*
X29263Y129263D01*
X28350Y130013D01*
X27307Y130570D01*
X26176Y130913D01*
X25000Y131029D01*
D02*
G37*
G36*
X66000Y118030D02*
X65086Y117910D01*
X64235Y117557D01*
X63504Y116996D01*
X62943Y116265D01*
X62845Y116029D01*
X49500D01*
X48915Y115913D01*
X48419Y115581D01*
X38107Y105270D01*
X37776Y104774D01*
X37660Y104189D01*
Y29846D01*
X37008D01*
Y21154D01*
X49244D01*
Y29846D01*
X48592D01*
Y93429D01*
X53633Y98471D01*
X54845D01*
X54943Y98235D01*
X55504Y97504D01*
X56235Y96943D01*
X57086Y96590D01*
X58000Y96470D01*
X58914Y96590D01*
X59765Y96943D01*
X60496Y97504D01*
X61057Y98235D01*
X61410Y99086D01*
X61530Y100000D01*
X61410Y100914D01*
X61057Y101765D01*
X60496Y102496D01*
X59765Y103057D01*
X58914Y103410D01*
X58000Y103530D01*
X57086Y103410D01*
X56235Y103057D01*
X55504Y102496D01*
X54943Y101765D01*
X54845Y101529D01*
X53000D01*
X52415Y101413D01*
X51919Y101081D01*
X45981Y95144D01*
X45650Y94648D01*
X45534Y94063D01*
Y29846D01*
X44655D01*
Y99493D01*
X51134Y105971D01*
X58845D01*
X58943Y105735D01*
X59504Y105004D01*
X60235Y104443D01*
X61086Y104090D01*
X62000Y103970D01*
X62914Y104090D01*
X63765Y104443D01*
X64496Y105004D01*
X65057Y105735D01*
X65410Y106586D01*
X65530Y107500D01*
X65410Y108414D01*
X65057Y109265D01*
X64496Y109996D01*
X63765Y110557D01*
X62914Y110910D01*
X62000Y111030D01*
X61086Y110910D01*
X60235Y110557D01*
X59504Y109996D01*
X58943Y109265D01*
X58845Y109029D01*
X50500D01*
X49915Y108913D01*
X49419Y108581D01*
X42044Y101207D01*
X41713Y100711D01*
X41597Y100126D01*
Y29846D01*
X40718D01*
Y103556D01*
X50134Y112971D01*
X62845D01*
X62943Y112735D01*
X63504Y112004D01*
X64235Y111443D01*
X65086Y111090D01*
X66000Y110970D01*
X66914Y111090D01*
X67765Y111443D01*
X68496Y112004D01*
X69057Y112735D01*
X69410Y113586D01*
X69530Y114500D01*
X69410Y115414D01*
X69057Y116265D01*
X68496Y116996D01*
X67765Y117557D01*
X66914Y117910D01*
X66000Y118030D01*
D02*
G37*
G36*
X125000Y31029D02*
X123824Y30913D01*
X122693Y30570D01*
X121651Y30013D01*
X120737Y29263D01*
X119987Y28350D01*
X119430Y27307D01*
X119087Y26176D01*
X118971Y25000D01*
X119087Y23824D01*
X119430Y22693D01*
X119987Y21651D01*
X120737Y20737D01*
X121651Y19987D01*
X122693Y19430D01*
X123824Y19087D01*
X125000Y18971D01*
X126176Y19087D01*
X127307Y19430D01*
X128349Y19987D01*
X129263Y20737D01*
X130013Y21651D01*
X130570Y22693D01*
X130913Y23824D01*
X131029Y25000D01*
X130913Y26176D01*
X130570Y27307D01*
X130013Y28350D01*
X129263Y29263D01*
X128349Y30013D01*
X127307Y30570D01*
X126176Y30913D01*
X125000Y31029D01*
D02*
G37*
G36*
X25000D02*
X23824Y30913D01*
X22693Y30570D01*
X21651Y30013D01*
X20737Y29263D01*
X19987Y28350D01*
X19430Y27307D01*
X19087Y26176D01*
X18971Y25000D01*
X19087Y23824D01*
X19430Y22693D01*
X19987Y21651D01*
X20737Y20737D01*
X21651Y19987D01*
X22693Y19430D01*
X23824Y19087D01*
X25000Y18971D01*
X26176Y19087D01*
X27307Y19430D01*
X28350Y19987D01*
X29263Y20737D01*
X30013Y21651D01*
X30570Y22693D01*
X30913Y23824D01*
X31029Y25000D01*
X30913Y26176D01*
X30570Y27307D01*
X30013Y28350D01*
X29263Y29263D01*
X28350Y30013D01*
X27307Y30570D01*
X26176Y30913D01*
X25000Y31029D01*
D02*
G37*
%LPD*%
D10*
X47063Y94063D02*
X53000Y100000D01*
X58000D01*
X47063Y25500D02*
Y94063D01*
X50500Y107500D02*
X62000D01*
X43126Y25500D02*
Y100126D01*
X50500Y107500D01*
X65874Y114500D02*
X65937Y114563D01*
X49500Y114500D02*
X65874D01*
X39189Y25500D02*
Y104189D01*
X49500Y114500D01*
X61968Y107531D02*
X62000Y107500D01*
X65937Y114563D02*
X66000Y114500D01*
D13*
X57693Y4831D02*
D03*
X33283D02*
D03*
D14*
X51000Y25500D02*
D03*
X47063D02*
D03*
X43126D02*
D03*
X39189D02*
D03*
D21*
X81205Y125142D02*
D03*
X106795D02*
D03*
X81205Y142858D02*
D03*
X106795D02*
D03*
D22*
X125000Y25000D02*
D03*
Y125000D02*
D03*
X25000D02*
D03*
Y25000D02*
D03*
D23*
X52461Y75543D02*
D03*
X51500Y33000D02*
D03*
X62000Y107500D02*
D03*
X58000Y100000D02*
D03*
X66000Y114500D02*
D03*
X129000Y114000D02*
D03*
X78000Y23004D02*
D03*
X107000Y28504D02*
D03*
D24*
X132500Y67500D02*
D03*
X126500Y96000D02*
D03*
M02*
