G04*
G04 #@! TF.GenerationSoftware,Altium Limited,Altium Designer,20.0.14 (345)*
G04*
G04 Layer_Physical_Order=2*
G04 Layer_Color=16711680*
%FSLAX25Y25*%
%MOIN*%
G70*
G01*
G75*
%ADD35C,0.02000*%
%ADD37C,0.06000*%
%ADD38R,0.07087X0.07087*%
%ADD39C,0.07087*%
%ADD40C,0.07874*%
%ADD41C,0.07284*%
%ADD42C,0.08858*%
%ADD43C,0.05000*%
G36*
X245500Y2000D02*
X245538Y1962D01*
X245347Y1500D01*
X213500D01*
Y11500D01*
X199500D01*
Y2153D01*
X199038Y1962D01*
X197500Y3500D01*
X2000D01*
Y179000D01*
X245500D01*
Y2000D01*
D02*
G37*
G36*
X447000Y64000D02*
X391000Y64000D01*
X391000Y79000D01*
X372500Y79000D01*
X372500Y97000D01*
X373000Y97500D01*
X409500D01*
Y115500D01*
X447000D01*
Y64000D01*
D02*
G37*
%LPC*%
G36*
X128500Y165034D02*
X127456Y164897D01*
X126483Y164494D01*
X125647Y163853D01*
X125006Y163017D01*
X124603Y162044D01*
X124466Y161000D01*
X124603Y159956D01*
X125006Y158983D01*
X125647Y158147D01*
X126483Y157506D01*
X127456Y157103D01*
X128500Y156965D01*
X129544Y157103D01*
X130517Y157506D01*
X131353Y158147D01*
X131994Y158983D01*
X132397Y159956D01*
X132535Y161000D01*
X132397Y162044D01*
X131994Y163017D01*
X131353Y163853D01*
X130517Y164494D01*
X129544Y164897D01*
X128500Y165034D01*
D02*
G37*
G36*
X53382Y161818D02*
X52338Y161680D01*
X51365Y161277D01*
X50529Y160636D01*
X49888Y159801D01*
X49485Y158828D01*
X49347Y157783D01*
X49485Y156739D01*
X49888Y155766D01*
X50529Y154931D01*
X51365Y154289D01*
X52338Y153886D01*
X53382Y153749D01*
X54426Y153886D01*
X55399Y154289D01*
X56235Y154931D01*
X56876Y155766D01*
X57279Y156739D01*
X57416Y157783D01*
X57279Y158828D01*
X56876Y159801D01*
X56235Y160636D01*
X55399Y161277D01*
X54426Y161680D01*
X53382Y161818D01*
D02*
G37*
G36*
X155000Y163034D02*
X153628Y162899D01*
X152308Y162498D01*
X151092Y161848D01*
X150026Y160974D01*
X149152Y159908D01*
X148502Y158692D01*
X148101Y157372D01*
X147966Y156000D01*
X148101Y154628D01*
X148502Y153308D01*
X149152Y152092D01*
X150026Y151026D01*
X151092Y150152D01*
X152308Y149502D01*
X153628Y149101D01*
X155000Y148966D01*
X156372Y149101D01*
X157692Y149502D01*
X158908Y150152D01*
X159974Y151026D01*
X160848Y152092D01*
X161498Y153308D01*
X161899Y154628D01*
X162034Y156000D01*
X161899Y157372D01*
X161498Y158692D01*
X160848Y159908D01*
X159974Y160974D01*
X158908Y161848D01*
X157692Y162498D01*
X156372Y162899D01*
X155000Y163034D01*
D02*
G37*
G36*
X128500Y155034D02*
X127456Y154897D01*
X126483Y154494D01*
X125647Y153853D01*
X125006Y153017D01*
X124603Y152044D01*
X124466Y151000D01*
X124603Y149956D01*
X125006Y148983D01*
X125647Y148147D01*
X126483Y147506D01*
X127456Y147103D01*
X128500Y146966D01*
X129544Y147103D01*
X130517Y147506D01*
X131353Y148147D01*
X131994Y148983D01*
X132397Y149956D01*
X132535Y151000D01*
X132397Y152044D01*
X131994Y153017D01*
X131353Y153853D01*
X130517Y154494D01*
X129544Y154897D01*
X128500Y155034D01*
D02*
G37*
G36*
X8500Y154338D02*
X7456Y154200D01*
X6483Y153797D01*
X5647Y153156D01*
X5006Y152320D01*
X4603Y151347D01*
X4465Y150303D01*
X4603Y149259D01*
X5006Y148286D01*
X5647Y147450D01*
X6483Y146809D01*
X7456Y146406D01*
X8500Y146269D01*
X9544Y146406D01*
X10517Y146809D01*
X11353Y147450D01*
X11994Y148286D01*
X12397Y149259D01*
X12535Y150303D01*
X12397Y151347D01*
X11994Y152320D01*
X11353Y153156D01*
X10517Y153797D01*
X9544Y154200D01*
X8500Y154338D01*
D02*
G37*
G36*
X53382Y146857D02*
X52338Y146720D01*
X51365Y146317D01*
X50529Y145676D01*
X49888Y144840D01*
X49485Y143867D01*
X49347Y142823D01*
X49485Y141779D01*
X49888Y140806D01*
X50529Y139970D01*
X51365Y139329D01*
X52338Y138926D01*
X53382Y138788D01*
X54426Y138926D01*
X55399Y139329D01*
X56235Y139970D01*
X56876Y140806D01*
X57279Y141779D01*
X57416Y142823D01*
X57279Y143867D01*
X56876Y144840D01*
X56235Y145676D01*
X55399Y146317D01*
X54426Y146720D01*
X53382Y146857D01*
D02*
G37*
G36*
X128500Y145035D02*
X127456Y144897D01*
X126483Y144494D01*
X125647Y143853D01*
X125006Y143017D01*
X124603Y142044D01*
X124466Y141000D01*
X124603Y139956D01*
X125006Y138983D01*
X125647Y138147D01*
X126483Y137506D01*
X127456Y137103D01*
X128500Y136966D01*
X129544Y137103D01*
X130517Y137506D01*
X131353Y138147D01*
X131994Y138983D01*
X132397Y139956D01*
X132535Y141000D01*
X132397Y142044D01*
X131994Y143017D01*
X131353Y143853D01*
X130517Y144494D01*
X129544Y144897D01*
X128500Y145035D01*
D02*
G37*
G36*
X8500Y139377D02*
X7456Y139240D01*
X6483Y138837D01*
X5647Y138195D01*
X5006Y137360D01*
X4603Y136387D01*
X4465Y135343D01*
X4603Y134298D01*
X5006Y133325D01*
X5647Y132490D01*
X6483Y131849D01*
X7456Y131446D01*
X8500Y131308D01*
X9544Y131446D01*
X10517Y131849D01*
X11353Y132490D01*
X11994Y133325D01*
X12397Y134298D01*
X12535Y135343D01*
X12397Y136387D01*
X11994Y137360D01*
X11353Y138195D01*
X10517Y138837D01*
X9544Y139240D01*
X8500Y139377D01*
D02*
G37*
G36*
X53382Y131897D02*
X52338Y131759D01*
X51365Y131356D01*
X50529Y130715D01*
X49888Y129879D01*
X49485Y128906D01*
X49347Y127862D01*
X49485Y126818D01*
X49888Y125845D01*
X50529Y125009D01*
X51365Y124368D01*
X52338Y123965D01*
X53382Y123828D01*
X54426Y123965D01*
X55399Y124368D01*
X56235Y125009D01*
X56876Y125845D01*
X57279Y126818D01*
X57416Y127862D01*
X57279Y128906D01*
X56876Y129879D01*
X56235Y130715D01*
X55399Y131356D01*
X54426Y131759D01*
X53382Y131897D01*
D02*
G37*
G36*
X210264Y127901D02*
X209220Y127763D01*
X208246Y127360D01*
X207411Y126719D01*
X206770Y125883D01*
X206367Y124910D01*
X206229Y123866D01*
X206367Y122822D01*
X206770Y121849D01*
X207411Y121013D01*
X208246Y120372D01*
X209220Y119969D01*
X210264Y119832D01*
X211308Y119969D01*
X212281Y120372D01*
X213117Y121013D01*
X213758Y121849D01*
X214161Y122822D01*
X214298Y123866D01*
X214161Y124910D01*
X213758Y125883D01*
X213117Y126719D01*
X212281Y127360D01*
X211308Y127763D01*
X210264Y127901D01*
D02*
G37*
G36*
X8500Y124416D02*
X7456Y124279D01*
X6483Y123876D01*
X5647Y123235D01*
X5006Y122399D01*
X4603Y121426D01*
X4465Y120382D01*
X4603Y119338D01*
X5006Y118365D01*
X5647Y117529D01*
X6483Y116888D01*
X7456Y116485D01*
X8500Y116347D01*
X9544Y116485D01*
X10517Y116888D01*
X11353Y117529D01*
X11994Y118365D01*
X12397Y119338D01*
X12535Y120382D01*
X12397Y121426D01*
X11994Y122399D01*
X11353Y123235D01*
X10517Y123876D01*
X9544Y124279D01*
X8500Y124416D01*
D02*
G37*
G36*
X53382Y116936D02*
X52338Y116799D01*
X51365Y116396D01*
X50529Y115754D01*
X49888Y114919D01*
X49485Y113946D01*
X49347Y112902D01*
X49485Y111857D01*
X49888Y110884D01*
X50529Y110049D01*
X51365Y109408D01*
X52338Y109004D01*
X53382Y108867D01*
X54426Y109004D01*
X55399Y109408D01*
X56235Y110049D01*
X56876Y110884D01*
X57279Y111857D01*
X57416Y112902D01*
X57279Y113946D01*
X56876Y114919D01*
X56235Y115754D01*
X55399Y116396D01*
X54426Y116799D01*
X53382Y116936D01*
D02*
G37*
G36*
X128500Y115034D02*
X127456Y114897D01*
X126483Y114494D01*
X125647Y113853D01*
X125006Y113017D01*
X124603Y112044D01*
X124466Y111000D01*
X124603Y109956D01*
X125006Y108983D01*
X125647Y108147D01*
X126483Y107506D01*
X127456Y107103D01*
X128500Y106965D01*
X129544Y107103D01*
X130517Y107506D01*
X131353Y108147D01*
X131994Y108983D01*
X132397Y109956D01*
X132535Y111000D01*
X132397Y112044D01*
X131994Y113017D01*
X131353Y113853D01*
X130517Y114494D01*
X129544Y114897D01*
X128500Y115034D01*
D02*
G37*
G36*
X8500Y109456D02*
X7456Y109318D01*
X6483Y108915D01*
X5647Y108274D01*
X5006Y107439D01*
X4603Y106465D01*
X4465Y105421D01*
X4603Y104377D01*
X5006Y103404D01*
X5647Y102568D01*
X6483Y101927D01*
X7456Y101524D01*
X8500Y101387D01*
X9544Y101524D01*
X10517Y101927D01*
X11353Y102568D01*
X11994Y103404D01*
X12397Y104377D01*
X12535Y105421D01*
X12397Y106465D01*
X11994Y107439D01*
X11353Y108274D01*
X10517Y108915D01*
X9544Y109318D01*
X8500Y109456D01*
D02*
G37*
G36*
X128500Y105034D02*
X127456Y104897D01*
X126483Y104494D01*
X125647Y103853D01*
X125006Y103017D01*
X124603Y102044D01*
X124466Y101000D01*
X124603Y99956D01*
X125006Y98983D01*
X125647Y98147D01*
X126483Y97506D01*
X127456Y97103D01*
X128500Y96965D01*
X129544Y97103D01*
X130517Y97506D01*
X131353Y98147D01*
X131994Y98983D01*
X132397Y99956D01*
X132535Y101000D01*
X132397Y102044D01*
X131994Y103017D01*
X131353Y103853D01*
X130517Y104494D01*
X129544Y104897D01*
X128500Y105034D01*
D02*
G37*
G36*
X53382Y101976D02*
X52338Y101838D01*
X51365Y101435D01*
X50529Y100794D01*
X49888Y99958D01*
X49485Y98985D01*
X49347Y97941D01*
X49485Y96897D01*
X49888Y95924D01*
X50529Y95088D01*
X51365Y94447D01*
X52338Y94044D01*
X53382Y93906D01*
X54426Y94044D01*
X55399Y94447D01*
X56235Y95088D01*
X56876Y95924D01*
X57279Y96897D01*
X57416Y97941D01*
X57279Y98985D01*
X56876Y99958D01*
X56235Y100794D01*
X55399Y101435D01*
X54426Y101838D01*
X53382Y101976D01*
D02*
G37*
G36*
X128500Y95034D02*
X127456Y94897D01*
X126483Y94494D01*
X125647Y93853D01*
X125006Y93017D01*
X124603Y92044D01*
X124466Y91000D01*
X124603Y89956D01*
X125006Y88983D01*
X125647Y88147D01*
X126483Y87506D01*
X127456Y87103D01*
X128500Y86966D01*
X129544Y87103D01*
X130517Y87506D01*
X131353Y88147D01*
X131994Y88983D01*
X132397Y89956D01*
X132535Y91000D01*
X132397Y92044D01*
X131994Y93017D01*
X131353Y93853D01*
X130517Y94494D01*
X129544Y94897D01*
X128500Y95034D01*
D02*
G37*
G36*
X8500Y94495D02*
X7456Y94358D01*
X6483Y93955D01*
X5647Y93313D01*
X5006Y92478D01*
X4603Y91505D01*
X4465Y90461D01*
X4603Y89416D01*
X5006Y88443D01*
X5647Y87608D01*
X6483Y86967D01*
X7456Y86564D01*
X8500Y86426D01*
X9544Y86564D01*
X10517Y86967D01*
X11353Y87608D01*
X11994Y88443D01*
X12397Y89416D01*
X12535Y90461D01*
X12397Y91505D01*
X11994Y92478D01*
X11353Y93313D01*
X10517Y93955D01*
X9544Y94358D01*
X8500Y94495D01*
D02*
G37*
G36*
X53382Y87015D02*
X52338Y86877D01*
X51365Y86474D01*
X50529Y85833D01*
X49888Y84998D01*
X49485Y84025D01*
X49347Y82980D01*
X49485Y81936D01*
X49888Y80963D01*
X50529Y80128D01*
X51365Y79486D01*
X52338Y79083D01*
X53382Y78946D01*
X54426Y79083D01*
X55399Y79486D01*
X56235Y80128D01*
X56876Y80963D01*
X57279Y81936D01*
X57416Y82980D01*
X57279Y84025D01*
X56876Y84998D01*
X56235Y85833D01*
X55399Y86474D01*
X54426Y86877D01*
X53382Y87015D01*
D02*
G37*
G36*
X128500Y85035D02*
X127456Y84897D01*
X126483Y84494D01*
X125647Y83853D01*
X125006Y83017D01*
X124603Y82044D01*
X124466Y81000D01*
X124603Y79956D01*
X125006Y78983D01*
X125647Y78147D01*
X126483Y77506D01*
X127456Y77103D01*
X128500Y76965D01*
X129544Y77103D01*
X130517Y77506D01*
X131353Y78147D01*
X131994Y78983D01*
X132397Y79956D01*
X132535Y81000D01*
X132397Y82044D01*
X131994Y83017D01*
X131353Y83853D01*
X130517Y84494D01*
X129544Y84897D01*
X128500Y85035D01*
D02*
G37*
G36*
X8500Y79535D02*
X7456Y79397D01*
X6483Y78994D01*
X5647Y78353D01*
X5006Y77517D01*
X4603Y76544D01*
X4465Y75500D01*
X4603Y74456D01*
X5006Y73483D01*
X5647Y72647D01*
X6483Y72006D01*
X7456Y71603D01*
X8500Y71465D01*
X9544Y71603D01*
X10517Y72006D01*
X11353Y72647D01*
X11994Y73483D01*
X12397Y74456D01*
X12535Y75500D01*
X12397Y76544D01*
X11994Y77517D01*
X11353Y78353D01*
X10517Y78994D01*
X9544Y79397D01*
X8500Y79535D01*
D02*
G37*
G36*
X128500Y75034D02*
X127456Y74897D01*
X126483Y74494D01*
X125647Y73853D01*
X125006Y73017D01*
X124603Y72044D01*
X124466Y71000D01*
X124603Y69956D01*
X125006Y68983D01*
X125647Y68147D01*
X126483Y67506D01*
X127456Y67103D01*
X128500Y66966D01*
X129544Y67103D01*
X130517Y67506D01*
X131353Y68147D01*
X131994Y68983D01*
X132397Y69956D01*
X132535Y71000D01*
X132397Y72044D01*
X131994Y73017D01*
X131353Y73853D01*
X130517Y74494D01*
X129544Y74897D01*
X128500Y75034D01*
D02*
G37*
G36*
X53382Y72054D02*
X52338Y71917D01*
X51365Y71514D01*
X50529Y70872D01*
X49888Y70037D01*
X49485Y69064D01*
X49347Y68020D01*
X49485Y66975D01*
X49888Y66002D01*
X50529Y65167D01*
X51365Y64526D01*
X52338Y64123D01*
X53382Y63985D01*
X54426Y64123D01*
X55399Y64526D01*
X56235Y65167D01*
X56876Y66002D01*
X57279Y66975D01*
X57416Y68020D01*
X57279Y69064D01*
X56876Y70037D01*
X56235Y70872D01*
X55399Y71514D01*
X54426Y71917D01*
X53382Y72054D01*
D02*
G37*
G36*
X128500Y65035D02*
X127456Y64897D01*
X126483Y64494D01*
X125647Y63853D01*
X125006Y63017D01*
X124603Y62044D01*
X124466Y61000D01*
X124603Y59956D01*
X125006Y58983D01*
X125647Y58147D01*
X126483Y57506D01*
X127456Y57103D01*
X128500Y56966D01*
X129544Y57103D01*
X130517Y57506D01*
X131353Y58147D01*
X131994Y58983D01*
X132397Y59956D01*
X132535Y61000D01*
X132397Y62044D01*
X131994Y63017D01*
X131353Y63853D01*
X130517Y64494D01*
X129544Y64897D01*
X128500Y65035D01*
D02*
G37*
G36*
X8500Y64574D02*
X7456Y64436D01*
X6483Y64033D01*
X5647Y63392D01*
X5006Y62557D01*
X4603Y61584D01*
X4465Y60539D01*
X4603Y59495D01*
X5006Y58522D01*
X5647Y57687D01*
X6483Y57045D01*
X7456Y56642D01*
X8500Y56505D01*
X9544Y56642D01*
X10517Y57045D01*
X11353Y57687D01*
X11994Y58522D01*
X12397Y59495D01*
X12535Y60539D01*
X12397Y61584D01*
X11994Y62557D01*
X11353Y63392D01*
X10517Y64033D01*
X9544Y64436D01*
X8500Y64574D01*
D02*
G37*
G36*
X53382Y57094D02*
X52338Y56956D01*
X51365Y56553D01*
X50529Y55912D01*
X49888Y55076D01*
X49485Y54103D01*
X49347Y53059D01*
X49485Y52015D01*
X49888Y51042D01*
X50529Y50206D01*
X51365Y49565D01*
X52338Y49162D01*
X53382Y49025D01*
X54426Y49162D01*
X55399Y49565D01*
X56235Y50206D01*
X56876Y51042D01*
X57279Y52015D01*
X57416Y53059D01*
X57279Y54103D01*
X56876Y55076D01*
X56235Y55912D01*
X55399Y56553D01*
X54426Y56956D01*
X53382Y57094D01*
D02*
G37*
G36*
X128500Y55035D02*
X127456Y54897D01*
X126483Y54494D01*
X125647Y53853D01*
X125006Y53017D01*
X124603Y52044D01*
X124466Y51000D01*
X124603Y49956D01*
X125006Y48983D01*
X125647Y48147D01*
X126483Y47506D01*
X127456Y47103D01*
X128500Y46966D01*
X129544Y47103D01*
X130517Y47506D01*
X131353Y48147D01*
X131994Y48983D01*
X132397Y49956D01*
X132535Y51000D01*
X132397Y52044D01*
X131994Y53017D01*
X131353Y53853D01*
X130517Y54494D01*
X129544Y54897D01*
X128500Y55035D01*
D02*
G37*
G36*
X8500Y49613D02*
X7456Y49476D01*
X6483Y49073D01*
X5647Y48432D01*
X5006Y47596D01*
X4603Y46623D01*
X4465Y45579D01*
X4603Y44535D01*
X5006Y43562D01*
X5647Y42726D01*
X6483Y42085D01*
X7456Y41682D01*
X8500Y41544D01*
X9544Y41682D01*
X10517Y42085D01*
X11353Y42726D01*
X11994Y43562D01*
X12397Y44535D01*
X12535Y45579D01*
X12397Y46623D01*
X11994Y47596D01*
X11353Y48432D01*
X10517Y49073D01*
X9544Y49476D01*
X8500Y49613D01*
D02*
G37*
G36*
X230025Y51693D02*
X180025D01*
X178603Y51553D01*
X177237Y51139D01*
X175977Y50465D01*
X174873Y49559D01*
X173967Y48455D01*
X173294Y47196D01*
X172880Y45829D01*
X172740Y44408D01*
X172880Y42987D01*
X173294Y41620D01*
X173967Y40361D01*
X174873Y39257D01*
X175977Y38351D01*
X177237Y37677D01*
X178603Y37263D01*
X180025Y37123D01*
X230025D01*
X231446Y37263D01*
X232813Y37677D01*
X234072Y38351D01*
X235176Y39257D01*
X236082Y40361D01*
X236755Y41620D01*
X237170Y42987D01*
X237310Y44408D01*
X237170Y45829D01*
X236755Y47196D01*
X236082Y48455D01*
X235176Y49559D01*
X234072Y50465D01*
X232813Y51139D01*
X231446Y51553D01*
X230025Y51693D01*
D02*
G37*
G36*
X128500Y45035D02*
X127456Y44897D01*
X126483Y44494D01*
X125647Y43853D01*
X125006Y43017D01*
X124603Y42044D01*
X124466Y41000D01*
X124603Y39956D01*
X125006Y38983D01*
X125647Y38147D01*
X126483Y37506D01*
X127456Y37103D01*
X128500Y36966D01*
X129544Y37103D01*
X130517Y37506D01*
X131353Y38147D01*
X131994Y38983D01*
X132397Y39956D01*
X132535Y41000D01*
X132397Y42044D01*
X131994Y43017D01*
X131353Y43853D01*
X130517Y44494D01*
X129544Y44897D01*
X128500Y45035D01*
D02*
G37*
G36*
X53594Y42133D02*
X52550Y41995D01*
X51577Y41592D01*
X50742Y40951D01*
X50100Y40116D01*
X49697Y39143D01*
X49560Y38098D01*
X49697Y37054D01*
X50100Y36081D01*
X50742Y35246D01*
X51577Y34604D01*
X52550Y34201D01*
X53594Y34064D01*
X54639Y34201D01*
X55612Y34604D01*
X56447Y35246D01*
X57089Y36081D01*
X57491Y37054D01*
X57629Y38098D01*
X57491Y39143D01*
X57089Y40116D01*
X56447Y40951D01*
X55612Y41592D01*
X54639Y41995D01*
X53594Y42133D01*
D02*
G37*
G36*
X128500Y35034D02*
X127456Y34897D01*
X126483Y34494D01*
X125647Y33853D01*
X125006Y33017D01*
X124603Y32044D01*
X124466Y31000D01*
X124603Y29956D01*
X125006Y28983D01*
X125647Y28147D01*
X126483Y27506D01*
X127456Y27103D01*
X128500Y26965D01*
X129544Y27103D01*
X130517Y27506D01*
X131353Y28147D01*
X131994Y28983D01*
X132397Y29956D01*
X132535Y31000D01*
X132397Y32044D01*
X131994Y33017D01*
X131353Y33853D01*
X130517Y34494D01*
X129544Y34897D01*
X128500Y35034D01*
D02*
G37*
G36*
X8500Y34653D02*
X7456Y34515D01*
X6483Y34112D01*
X5647Y33471D01*
X5006Y32635D01*
X4603Y31662D01*
X4465Y30618D01*
X4603Y29574D01*
X5006Y28601D01*
X5647Y27765D01*
X6483Y27124D01*
X7456Y26721D01*
X8500Y26584D01*
X9544Y26721D01*
X10517Y27124D01*
X11353Y27765D01*
X11994Y28601D01*
X12397Y29574D01*
X12535Y30618D01*
X12397Y31662D01*
X11994Y32635D01*
X11353Y33471D01*
X10517Y34112D01*
X9544Y34515D01*
X8500Y34653D01*
D02*
G37*
G36*
X53382Y27172D02*
X52338Y27035D01*
X51365Y26632D01*
X50529Y25991D01*
X49888Y25155D01*
X49485Y24182D01*
X49347Y23138D01*
X49485Y22094D01*
X49888Y21121D01*
X50529Y20285D01*
X51365Y19644D01*
X52338Y19241D01*
X53382Y19103D01*
X54426Y19241D01*
X55399Y19644D01*
X56235Y20285D01*
X56876Y21121D01*
X57279Y22094D01*
X57416Y23138D01*
X57279Y24182D01*
X56876Y25155D01*
X56235Y25991D01*
X55399Y26632D01*
X54426Y27035D01*
X53382Y27172D01*
D02*
G37*
G36*
X128500Y25034D02*
X127456Y24897D01*
X126483Y24494D01*
X125647Y23853D01*
X125006Y23017D01*
X124603Y22044D01*
X124466Y21000D01*
X124603Y19956D01*
X125006Y18983D01*
X125647Y18147D01*
X126483Y17506D01*
X127456Y17103D01*
X128500Y16965D01*
X129544Y17103D01*
X130517Y17506D01*
X131353Y18147D01*
X131994Y18983D01*
X132397Y19956D01*
X132535Y21000D01*
X132397Y22044D01*
X131994Y23017D01*
X131353Y23853D01*
X130517Y24494D01*
X129544Y24897D01*
X128500Y25034D01*
D02*
G37*
G36*
X8500Y19692D02*
X7456Y19555D01*
X6483Y19151D01*
X5647Y18510D01*
X5006Y17675D01*
X4603Y16702D01*
X4465Y15657D01*
X4603Y14613D01*
X5006Y13640D01*
X5647Y12805D01*
X6483Y12163D01*
X7456Y11760D01*
X8500Y11623D01*
X9544Y11760D01*
X10517Y12163D01*
X11353Y12805D01*
X11994Y13640D01*
X12397Y14613D01*
X12535Y15657D01*
X12397Y16702D01*
X11994Y17675D01*
X11353Y18510D01*
X10517Y19151D01*
X9544Y19555D01*
X8500Y19692D01*
D02*
G37*
G36*
X154500Y29615D02*
X152860Y29486D01*
X151261Y29102D01*
X149742Y28473D01*
X148339Y27613D01*
X147089Y26545D01*
X146021Y25294D01*
X145161Y23892D01*
X144532Y22373D01*
X144148Y20773D01*
X144019Y19134D01*
X144148Y17494D01*
X144532Y15895D01*
X145161Y14376D01*
X146021Y12973D01*
X147089Y11722D01*
X148339Y10654D01*
X149742Y9795D01*
X151261Y9166D01*
X152860Y8782D01*
X154500Y8653D01*
X156140Y8782D01*
X157739Y9166D01*
X159258Y9795D01*
X160661Y10654D01*
X161911Y11722D01*
X162979Y12973D01*
X163839Y14376D01*
X164468Y15895D01*
X164852Y17494D01*
X164981Y19134D01*
X164852Y20773D01*
X164468Y22373D01*
X163839Y23892D01*
X162979Y25294D01*
X161911Y26545D01*
X160661Y27613D01*
X159258Y28473D01*
X157739Y29102D01*
X156140Y29486D01*
X154500Y29615D01*
D02*
G37*
G36*
X103319D02*
X101679Y29486D01*
X100080Y29102D01*
X98561Y28473D01*
X97158Y27613D01*
X95908Y26545D01*
X94840Y25294D01*
X93980Y23892D01*
X93351Y22373D01*
X92967Y20773D01*
X92838Y19134D01*
X92967Y17494D01*
X93351Y15895D01*
X93980Y14376D01*
X94840Y12973D01*
X95908Y11722D01*
X97158Y10654D01*
X98561Y9795D01*
X100080Y9166D01*
X101679Y8782D01*
X103319Y8653D01*
X104958Y8782D01*
X106558Y9166D01*
X108077Y9795D01*
X109479Y10654D01*
X110730Y11722D01*
X111798Y12973D01*
X112658Y14376D01*
X113287Y15895D01*
X113671Y17494D01*
X113800Y19134D01*
X113671Y20773D01*
X113287Y22373D01*
X112658Y23892D01*
X111798Y25294D01*
X110730Y26545D01*
X109479Y27613D01*
X108077Y28473D01*
X106558Y29102D01*
X104958Y29486D01*
X103319Y29615D01*
D02*
G37*
%LPD*%
D35*
X393721Y27220D02*
X419000D01*
X376098Y12500D02*
X377411Y13812D01*
X380312D02*
X393721Y27220D01*
X377411Y13812D02*
X380312D01*
D37*
X155000Y156000D02*
D03*
X330000Y64000D02*
D03*
X128500Y161000D02*
D03*
Y151000D02*
D03*
Y141000D02*
D03*
Y21000D02*
D03*
Y31000D02*
D03*
Y41000D02*
D03*
Y51000D02*
D03*
Y61000D02*
D03*
Y71000D02*
D03*
Y81000D02*
D03*
Y91000D02*
D03*
Y101000D02*
D03*
Y111000D02*
D03*
Y121000D02*
D03*
Y131000D02*
D03*
X8500Y15657D02*
D03*
Y30618D02*
D03*
Y45579D02*
D03*
Y60539D02*
D03*
Y75500D02*
D03*
Y90461D02*
D03*
Y105421D02*
D03*
Y120382D02*
D03*
Y135343D02*
D03*
X53382Y23138D02*
D03*
X53594Y38098D02*
D03*
X53382Y53059D02*
D03*
Y68020D02*
D03*
Y82980D02*
D03*
Y97941D02*
D03*
Y112902D02*
D03*
Y127862D02*
D03*
X8500Y150303D02*
D03*
X53382Y142823D02*
D03*
Y157783D02*
D03*
X262588Y49637D02*
D03*
X320500Y93945D02*
D03*
Y153000D02*
D03*
X210264Y93945D02*
D03*
Y123866D02*
D03*
X354815Y157500D02*
D03*
X374500D02*
D03*
D38*
X431500Y145000D02*
D03*
Y81000D02*
D03*
D39*
Y165000D02*
D03*
Y101000D02*
D03*
D40*
X419000Y13441D02*
D03*
Y27220D02*
D03*
Y41000D02*
D03*
D41*
X375000Y94000D02*
D03*
Y121559D02*
D03*
D42*
X289090Y42500D02*
D03*
X363500D02*
D03*
X388697D02*
D03*
X376098Y12500D02*
D03*
X289090D02*
D03*
D43*
X229500Y14500D02*
D03*
M02*
