G04*
G04 #@! TF.GenerationSoftware,Altium Limited,Altium Designer,20.0.14 (345)*
G04*
G04 Layer_Color=65535*
%FSLAX25Y25*%
%MOIN*%
G70*
G01*
G75*
%ADD10C,0.00984*%
%ADD11C,0.00787*%
%ADD12C,0.00591*%
%ADD13C,0.01000*%
D10*
X249153Y22709D02*
G03*
X249153Y22709I-492J0D01*
G01*
D11*
X415556Y175000D02*
X447445D01*
X415556Y135000D02*
X447445D01*
Y175000D01*
X415556Y135000D02*
Y175000D01*
Y111000D02*
X447445D01*
X415556Y71000D02*
X447445D01*
Y111000D01*
X415556Y71000D02*
Y111000D01*
X255157Y12669D02*
Y14441D01*
X252008Y12669D02*
X255157D01*
Y19559D02*
Y21331D01*
X252008D02*
X255157D01*
D12*
X33409Y176453D02*
X34591D01*
X33409Y170547D02*
X34591D01*
X172650Y109303D02*
Y109697D01*
X166350Y109303D02*
Y109697D01*
X239953Y16409D02*
Y17591D01*
X234047Y16409D02*
Y17591D01*
D13*
X406000Y49500D02*
X411998D01*
X406000Y45501D01*
X411998D01*
Y40503D02*
Y42502D01*
X410998Y43502D01*
X407000D01*
X406000Y42502D01*
Y40503D01*
X407000Y39503D01*
X410998D01*
X411998Y40503D01*
X410998Y31501D02*
X411998Y32501D01*
Y34500D01*
X410998Y35500D01*
X407000D01*
X406000Y34500D01*
Y32501D01*
X407000Y31501D01*
X411998Y26503D02*
Y28502D01*
X410998Y29502D01*
X407000D01*
X406000Y28502D01*
Y26503D01*
X407000Y25503D01*
X410998D01*
X411998Y26503D01*
X406000Y23504D02*
X411998D01*
X409999Y21505D01*
X411998Y19505D01*
X406000D01*
Y15000D02*
X411998D01*
X406000Y11001D01*
X411998D01*
X410998Y5003D02*
X411998Y6003D01*
Y8002D01*
X410998Y9002D01*
X407000D01*
X406000Y8002D01*
Y6003D01*
X407000Y5003D01*
X128849Y175648D02*
X126849D01*
X127849D01*
Y170650D01*
X126849Y169650D01*
X125850D01*
X124850Y170650D01*
X130848Y175648D02*
X134847D01*
Y174648D01*
X130848Y170650D01*
Y169650D01*
X402000Y108499D02*
X400001D01*
X401001D01*
Y103501D01*
X400001Y102501D01*
X399001D01*
X398002Y103501D01*
X407998Y108499D02*
X404000D01*
Y105500D01*
X405999Y106500D01*
X406999D01*
X407998Y105500D01*
Y103501D01*
X406999Y102501D01*
X404999D01*
X404000Y103501D01*
X200000Y169945D02*
Y175943D01*
X202999D01*
X203999Y174943D01*
Y172944D01*
X202999Y171944D01*
X200000D01*
X209997Y174943D02*
X208997Y175943D01*
X206998D01*
X205998Y174943D01*
Y173944D01*
X206998Y172944D01*
X208997D01*
X209997Y171944D01*
Y170945D01*
X208997Y169945D01*
X206998D01*
X205998Y170945D01*
X211996Y175943D02*
Y170945D01*
X212996Y169945D01*
X214995D01*
X215995Y170945D01*
Y175943D01*
X217994Y169945D02*
X219993D01*
X218994D01*
Y175943D01*
X217994Y174943D01*
X285012Y52972D02*
X284995Y58970D01*
X287994Y58979D01*
X288996Y57982D01*
X289002Y55983D01*
X288005Y54980D01*
X285006Y54972D01*
X287005Y54977D02*
X289011Y52984D01*
X290993Y58987D02*
X291010Y52990D01*
X295009Y53001D01*
X296991Y59005D02*
X296994Y58005D01*
X298999Y56011D01*
X300992Y58017D01*
X300989Y59016D01*
X298999Y56011D02*
X299007Y53013D01*
X303006Y53024D02*
X305005Y53030D01*
X304006Y53027D01*
X303989Y59025D01*
X302992Y58022D01*
X44002Y171001D02*
Y176999D01*
X47001D01*
X48001Y175999D01*
Y174000D01*
X47001Y173000D01*
X44002D01*
X46002D02*
X48001Y171001D01*
X50001D02*
X52000D01*
X51000D01*
Y176999D01*
X50001Y175999D01*
X54999D02*
X55999Y176999D01*
X57998D01*
X58998Y175999D01*
Y172001D01*
X57998Y171001D01*
X55999D01*
X54999Y172001D01*
Y175999D01*
X231502Y29501D02*
Y35499D01*
X234501D01*
X235500Y34499D01*
Y32500D01*
X234501Y31500D01*
X231502D01*
X233501D02*
X235500Y29501D01*
X237500Y35499D02*
X241498D01*
Y34499D01*
X237500Y30501D01*
Y29501D01*
X252500Y30501D02*
Y34499D01*
X251500Y35499D01*
X249501D01*
X248501Y34499D01*
Y30501D01*
X249501Y29501D01*
X251500D01*
X250501Y31500D02*
X252500Y29501D01*
X251500D02*
X252500Y30501D01*
X254499Y29501D02*
X256499D01*
X255499D01*
Y35499D01*
X254499Y34499D01*
X340800Y170200D02*
Y176198D01*
X343799D01*
X344799Y175198D01*
Y173199D01*
X343799Y172199D01*
X340800D01*
X346798Y176198D02*
X350797D01*
X348797D01*
Y170200D01*
X356795Y175198D02*
X355795Y176198D01*
X353796D01*
X352796Y175198D01*
Y171200D01*
X353796Y170200D01*
X355795D01*
X356795Y171200D01*
X358794Y170200D02*
X360793D01*
X359794D01*
Y176198D01*
X358794Y175198D01*
X366003Y74501D02*
Y80499D01*
X368003Y78500D01*
X370002Y80499D01*
Y74501D01*
X375000Y80499D02*
X373001D01*
X372001Y79499D01*
Y75501D01*
X373001Y74501D01*
X375000D01*
X376000Y75501D01*
Y79499D01*
X375000Y80499D01*
X377999D02*
Y76500D01*
X379999Y74501D01*
X381998Y76500D01*
Y80499D01*
X383997Y74501D02*
X385997D01*
X384997D01*
Y80499D01*
X383997Y79499D01*
X7000Y176999D02*
X5001D01*
X6001D01*
Y172001D01*
X5001Y171001D01*
X4001D01*
X3002Y172001D01*
X11999Y171001D02*
Y176999D01*
X9000Y174000D01*
X12998D01*
X379500Y61499D02*
X377501D01*
X378501D01*
Y56501D01*
X377501Y55501D01*
X376501D01*
X375502Y56501D01*
X381500Y60499D02*
X382499Y61499D01*
X384499D01*
X385498Y60499D01*
Y59500D01*
X384499Y58500D01*
X383499D01*
X384499D01*
X385498Y57500D01*
Y56501D01*
X384499Y55501D01*
X382499D01*
X381500Y56501D01*
X403500Y171499D02*
X401501D01*
X402501D01*
Y166501D01*
X401501Y165501D01*
X400501D01*
X399502Y166501D01*
X409498Y165501D02*
X405500D01*
X409498Y169500D01*
Y170499D01*
X408499Y171499D01*
X406499D01*
X405500Y170499D01*
X168500Y124499D02*
X167501Y125499D01*
X165501D01*
X164502Y124499D01*
Y120501D01*
X165501Y119501D01*
X167501D01*
X168500Y120501D01*
X174498Y119501D02*
X170500D01*
X174498Y123500D01*
Y124499D01*
X173499Y125499D01*
X171499D01*
X170500Y124499D01*
X180999Y136658D02*
X179999Y137658D01*
X178000D01*
X177000Y136658D01*
Y132659D01*
X178000Y131660D01*
X179999D01*
X180999Y132659D01*
X182998Y131660D02*
X184997D01*
X183998D01*
Y137658D01*
X182998Y136658D01*
M02*
