M48
;Layer_Color=9474304
;FILE_FORMAT=2:5
INCH,LZ
;TYPE=PLATED
T1F00S00C0.02800
T2F00S00C0.03000
T3F00S00C0.03937
T4F00S00C0.04331
T5F00S00C0.05118
T6F00S00C0.12000
T8F00S00C0.18898
%
T01
X02295Y00145
T02
X01285Y0021
Y0031
Y0041
Y0051
X03745Y01575
X0354815
X03205Y0153
Y0093945
X0210264
Y0123866
X01285Y0121
Y0111
Y0101
Y0091
Y0081
Y0071
Y0061
Y0131
Y0141
Y0151
Y0161
T03
X0375Y0094
Y0121559
T04
X00085Y0015657
Y0030618
Y0045579
X0053382Y0053059
X0053594Y0038098
X0053382Y0023138
Y006802
Y008298
Y0097941
Y0112902
Y0127862
Y0142823
Y0157783
X00085Y0150303
Y0135343
Y0120382
Y0105421
Y0090461
Y00755
Y0060539
T05
X028909Y00125
Y00425
X03635
X0388697
X0419Y0041
Y002722
Y0013441
X0376098Y00125
X04315Y0081
Y0101
Y0145
Y0165
T06
X033Y0064
X0155Y0156
T08
X0103319Y0019134
X01545
X0262588Y0049637
M30
