G04*
G04 #@! TF.GenerationSoftware,Altium Limited,Altium Designer,20.0.14 (345)*
G04*
G04 Layer_Color=16711935*
%FSLAX25Y25*%
%MOIN*%
G70*
G01*
G75*
%ADD45C,0.00394*%
%ADD46C,0.00400*%
D45*
X442378Y133791D02*
X442969Y134493D01*
Y135000D01*
X442379Y132755D02*
Y133791D01*
Y132756D02*
X442379Y132756D01*
X445189D01*
X415556Y175000D02*
X447445D01*
X415556Y135000D02*
X447445D01*
Y175000D01*
X415556Y135000D02*
Y175000D01*
X445189Y132756D02*
Y133790D01*
X444599Y134493D02*
Y135000D01*
Y134493D02*
X445189Y133791D01*
X442378Y69791D02*
X442969Y70493D01*
Y71000D01*
X442379Y68756D02*
Y69791D01*
Y68756D02*
X442379Y68756D01*
X445189D01*
X415556Y111000D02*
X447445D01*
X415556Y71000D02*
X447445D01*
Y111000D01*
X415556Y71000D02*
Y111000D01*
X445189Y68756D02*
Y69790D01*
X444599Y70493D02*
Y71000D01*
Y70493D02*
X445189Y69791D01*
X29768Y171039D02*
Y175961D01*
X38232Y171039D02*
Y175961D01*
X29768D02*
X38232D01*
X29768Y171039D02*
X38232D01*
X249843Y12669D02*
X255157D01*
X249843Y21331D02*
X255157D01*
Y12669D02*
Y21331D01*
X249843Y12669D02*
Y21331D01*
X239461Y12768D02*
Y21232D01*
X234539Y12768D02*
Y21232D01*
X239461D01*
X234539Y12768D02*
X239461D01*
D46*
X166646Y113831D02*
X172354D01*
Y105169D02*
Y113831D01*
X166646Y105169D02*
X172354D01*
X166646D02*
Y113831D01*
M02*
