G04*
G04 #@! TF.GenerationSoftware,Altium Limited,Altium Designer,21.7.2 (23)*
G04*
G04 Layer_Physical_Order=1*
G04 Layer_Color=255*
%FSLAX25Y25*%
%MOIN*%
G70*
G04*
G04 #@! TF.SameCoordinates,A3CC0EF7-59E5-4A17-9AAF-691C48D25572*
G04*
G04*
G04 #@! TF.FilePolarity,Positive*
G04*
G01*
G75*
%ADD11C,0.01000*%
%ADD15R,0.07505X0.02977*%
%ADD16R,0.08465X0.21654*%
%ADD17R,0.03937X0.05709*%
%ADD18R,0.03347X0.01968*%
%ADD19R,0.05709X0.03937*%
%ADD20R,0.07874X0.02362*%
%ADD35C,0.01000*%
%ADD36C,0.05000*%
%ADD37C,0.03000*%
%ADD38C,0.02000*%
%ADD39C,0.06890*%
%ADD40C,0.06000*%
%ADD41R,0.07087X0.07087*%
%ADD42C,0.07087*%
%ADD43C,0.07874*%
%ADD44C,0.08858*%
%ADD45C,0.05000*%
%ADD46C,0.02000*%
G36*
X447000Y64000D02*
X391000D01*
Y79000D01*
X373000D01*
X373000Y97500D01*
X409500D01*
Y115500D01*
X447000D01*
Y64000D01*
D02*
G37*
G36*
X447538Y179538D02*
X447500Y179500D01*
Y127500D01*
X379000D01*
Y121000D01*
X373000D01*
Y157500D01*
X374500Y160500D01*
X389000D01*
Y180000D01*
X447347D01*
X447538Y179538D01*
D02*
G37*
D11*
X55336Y123809D02*
G03*
X55752Y131687I-1954J4053D01*
G01*
X55212Y138712D02*
G03*
X56564Y139641I-1830J4111D01*
G01*
X74496Y80000D02*
X84000D01*
X74496Y75000D02*
X84000D01*
X53382Y23138D02*
X101500Y71256D01*
Y107752D01*
X65098Y38098D02*
X99500Y72500D01*
Y110752D01*
X53594Y38098D02*
X65098D01*
X71740Y125000D02*
X74496D01*
X71059Y125681D02*
X71740Y125000D01*
X71059Y125681D02*
Y128359D01*
X70000Y129418D02*
X71059Y128359D01*
X70000Y129418D02*
Y130500D01*
X111504Y80000D02*
X114260D01*
X121242Y73018D01*
Y68258D02*
Y73018D01*
Y68258D02*
X128500Y61000D01*
X111504Y75000D02*
X114260D01*
X117500Y71760D01*
Y42000D02*
X128500Y31000D01*
X117500Y42000D02*
Y71760D01*
X111504Y37996D02*
Y70000D01*
Y37996D02*
X128500Y21000D01*
X71586Y135586D02*
X81422Y125750D01*
X74496Y120000D02*
X77252D01*
X81422Y124170D01*
Y125750D01*
X66000Y133000D02*
X68586Y135586D01*
X71586D01*
X66000Y84917D02*
Y133000D01*
X59500Y78417D02*
X66000Y84917D01*
X59500Y67515D02*
Y78417D01*
X53382Y53059D02*
Y61397D01*
X59500Y67515D01*
X72000Y138000D02*
X84500Y125500D01*
X64000Y134172D02*
X67828Y138000D01*
X72000D01*
X64000Y123500D02*
Y134172D01*
X63500Y85245D02*
Y123000D01*
X64000Y123500D01*
X61882Y124882D02*
X62000Y125000D01*
X55328Y123805D02*
X55336Y123809D01*
X57882Y123172D02*
X57884D01*
X55382Y132058D02*
X55752Y131687D01*
X61500Y123960D02*
X61882Y124341D01*
X62000Y125000D02*
Y135000D01*
X59882Y125170D02*
Y135882D01*
X62000Y135000D02*
X67445Y140445D01*
X55382Y132058D02*
Y134382D01*
X57882Y102441D02*
Y123172D01*
X57884D02*
X59882Y125170D01*
X61882Y124341D02*
Y124882D01*
X59882Y135882D02*
X66445Y142445D01*
X55752Y131687D02*
X55752Y131687D01*
X61500Y91098D02*
Y123960D01*
X73000Y140445D02*
X78623Y134823D01*
X78677D01*
X67445Y140445D02*
X73000D01*
X65446Y144446D02*
X76555D01*
X77000Y144000D01*
X66445Y142445D02*
X74054D01*
X55382Y134382D02*
X65446Y144446D01*
X53382Y122868D02*
X55328Y123805D01*
X77000Y144000D02*
X91000Y130000D01*
X74760Y141740D02*
X89000Y127500D01*
X74054Y142445D02*
X74760Y141740D01*
X56564Y139641D02*
X63923Y147000D01*
X77500D02*
X93500Y131000D01*
X63923Y147000D02*
X77500D01*
X53382Y112902D02*
Y122868D01*
Y82980D02*
X61500Y91098D01*
X53382Y75127D02*
X63500Y85245D01*
X91000Y111500D02*
Y130000D01*
X79500Y100000D02*
X91000Y111500D01*
X78000Y150000D02*
X95500Y132500D01*
X60559Y150000D02*
X78000D01*
X53382Y142823D02*
X60559Y150000D01*
X53382Y136882D02*
X55212Y138712D01*
X53382Y127862D02*
Y136882D01*
X79347Y114847D02*
X84500Y120000D01*
Y125500D01*
X74649Y114847D02*
X79347D01*
X74496Y115000D02*
X74649Y114847D01*
X80828Y110000D02*
X87000Y116172D01*
Y126500D01*
X74496Y110000D02*
X80828D01*
X80000Y105000D02*
X89000Y114000D01*
Y127500D01*
X74496Y105000D02*
X80000D01*
X78677Y134823D02*
X87000Y126500D01*
X95500Y108248D02*
Y132500D01*
X77252Y85000D02*
X97500Y105248D01*
X73716Y157783D02*
X97500Y134000D01*
Y105248D02*
Y134000D01*
X79347Y95385D02*
X93500Y109538D01*
Y131000D01*
X77252Y90000D02*
X95500Y108248D01*
X53382Y68020D02*
Y75127D01*
Y97941D02*
X57882Y102441D01*
X53382Y157783D02*
X73716D01*
X99500Y110752D02*
X108748Y120000D01*
X101500Y107752D02*
X108748Y115000D01*
X74496Y100000D02*
X79500D01*
X74496Y95000D02*
X74882Y95385D01*
X79347D01*
X74496Y90000D02*
X77252D01*
X74496Y85000D02*
X77252D01*
X108748Y120000D02*
X111504D01*
X108748Y115000D02*
X111504D01*
X237000Y20740D02*
X238181Y19559D01*
X248661D01*
D15*
X387500Y102209D02*
D03*
Y115791D02*
D03*
X376500Y102209D02*
D03*
Y115791D02*
D03*
X250000Y102209D02*
D03*
Y115791D02*
D03*
D16*
X357579Y116500D02*
D03*
X342421D02*
D03*
D17*
X30260Y173500D02*
D03*
X37740D02*
D03*
D18*
X256339Y17000D02*
D03*
X248661Y14441D02*
D03*
Y19559D02*
D03*
D19*
X237000Y20740D02*
D03*
Y13260D02*
D03*
D20*
X111504Y125000D02*
D03*
Y120000D02*
D03*
Y115000D02*
D03*
Y110000D02*
D03*
Y105000D02*
D03*
Y100000D02*
D03*
Y95000D02*
D03*
Y90000D02*
D03*
Y85000D02*
D03*
Y80000D02*
D03*
Y75000D02*
D03*
Y70000D02*
D03*
X74496D02*
D03*
Y75000D02*
D03*
Y80000D02*
D03*
Y85000D02*
D03*
Y90000D02*
D03*
Y95000D02*
D03*
Y100000D02*
D03*
Y105000D02*
D03*
Y110000D02*
D03*
Y115000D02*
D03*
Y120000D02*
D03*
Y125000D02*
D03*
D35*
X56564Y139641D02*
D03*
D36*
X278026Y95500D02*
X286071D01*
X289000Y92571D01*
Y67500D02*
Y92571D01*
Y43500D02*
Y67500D01*
X288000Y42500D02*
X289000Y43500D01*
X279511Y116500D02*
X342421D01*
X278511Y115500D02*
X279511Y116500D01*
X431500Y81000D02*
Y101000D01*
Y145000D02*
Y165000D01*
X420500Y134000D02*
X431500Y145000D01*
X376500Y134000D02*
X420500D01*
X376500Y115791D02*
Y134000D01*
Y115791D02*
X387500D01*
X358287D02*
X376500D01*
X357579Y116500D02*
X358287Y115791D01*
X376500Y93500D02*
Y102209D01*
X430935Y101000D02*
X431500D01*
D37*
X250000Y94500D02*
Y102209D01*
X278231Y115780D02*
X278511Y115500D01*
X250011Y115780D02*
X278231D01*
X250000Y115791D02*
X250011Y115780D01*
X156000Y146500D02*
X235000Y67500D01*
X289000D01*
X111504Y125000D02*
Y134004D01*
X128500Y151000D01*
X139500Y146500D02*
X156000D01*
X128500Y157500D02*
X139500Y146500D01*
X128500Y157500D02*
Y161000D01*
Y151000D02*
Y157500D01*
X178760Y20740D02*
X237000D01*
X159000Y40500D02*
Y130000D01*
Y40500D02*
X178760Y20740D01*
X148000Y141000D02*
X149499Y139501D01*
X159000Y130000D01*
X128500Y141000D02*
X148000D01*
X37740Y173500D02*
X116000D01*
X128500Y161000D01*
D38*
X376500Y102209D02*
X387500D01*
X74496Y59496D02*
Y70000D01*
X61500Y46500D02*
X74496Y59496D01*
X48000Y46500D02*
X61500D01*
X44000Y42500D02*
X48000Y46500D01*
X44000Y18500D02*
Y42500D01*
X47500Y15000D02*
X57000D01*
X44000Y18500D02*
X47500Y15000D01*
X60000Y18000D02*
Y25500D01*
X57000Y15000D02*
X60000Y18000D01*
Y25500D02*
X104500Y70000D01*
X108748Y85000D02*
X111504D01*
X107153Y83405D02*
X108748Y85000D01*
X106962Y83405D02*
X107153D01*
X104500Y80943D02*
X106962Y83405D01*
X104500Y70000D02*
Y80943D01*
X128500Y120000D02*
Y121000D01*
X118500Y110000D02*
X128500Y120000D01*
X111504Y110000D02*
X118500D01*
X111504Y105000D02*
Y110000D01*
Y100000D02*
Y105000D01*
Y95000D02*
Y100000D01*
Y90000D02*
Y95000D01*
Y85000D02*
Y90000D01*
X229500Y14500D02*
X230000Y14000D01*
X236260D02*
X237000Y13260D01*
X230000Y14000D02*
X236260D01*
X30260Y172614D02*
Y173500D01*
X8500Y150854D02*
X30260Y172614D01*
X8500Y150303D02*
Y150854D01*
Y135343D02*
Y150303D01*
Y120382D02*
Y135343D01*
Y105421D02*
Y120382D01*
Y90461D02*
Y105421D01*
Y75500D02*
Y90461D01*
Y60539D02*
Y75500D01*
Y45579D02*
Y60539D01*
Y30618D02*
Y45579D01*
Y15657D02*
Y30618D01*
X379000Y27000D02*
X393000D01*
X406559Y13441D02*
X419000D01*
X393000Y27000D02*
X406559Y13441D01*
X363500Y42500D02*
X379000Y27000D01*
X388697Y42500D02*
X389447Y41750D01*
X418250D01*
X419000Y41000D01*
X256339Y17000D02*
X283084D01*
X287584Y12500D01*
X289090D01*
X239067Y14441D02*
X248661D01*
X237886Y13260D02*
X239067Y14441D01*
X237000Y13260D02*
X237886D01*
D39*
X277500Y95500D02*
D03*
Y105500D02*
D03*
Y115500D02*
D03*
D40*
X228500Y161000D02*
D03*
X155000Y156000D02*
D03*
X330000Y64000D02*
D03*
X128500Y161000D02*
D03*
Y151000D02*
D03*
Y141000D02*
D03*
Y21000D02*
D03*
Y31000D02*
D03*
Y41000D02*
D03*
Y51000D02*
D03*
Y61000D02*
D03*
Y71000D02*
D03*
Y81000D02*
D03*
Y91000D02*
D03*
Y101000D02*
D03*
Y111000D02*
D03*
Y121000D02*
D03*
Y131000D02*
D03*
X8500Y15657D02*
D03*
Y30618D02*
D03*
Y45579D02*
D03*
Y60539D02*
D03*
Y75500D02*
D03*
Y90461D02*
D03*
Y105421D02*
D03*
Y120382D02*
D03*
Y135343D02*
D03*
X53382Y23138D02*
D03*
X53594Y38098D02*
D03*
X53382Y53059D02*
D03*
Y68020D02*
D03*
Y82980D02*
D03*
Y97941D02*
D03*
Y112902D02*
D03*
Y127862D02*
D03*
X8500Y150303D02*
D03*
X53382Y142823D02*
D03*
Y157783D02*
D03*
X262588Y49637D02*
D03*
D41*
X431500Y145000D02*
D03*
Y81000D02*
D03*
D42*
Y165000D02*
D03*
Y101000D02*
D03*
D43*
X419000Y13441D02*
D03*
Y27220D02*
D03*
Y41000D02*
D03*
D44*
X289090Y42500D02*
D03*
X363500D02*
D03*
X388697D02*
D03*
X376098Y12500D02*
D03*
X289090D02*
D03*
D45*
X250000Y94500D02*
D03*
X70000Y130500D02*
D03*
X229500Y14500D02*
D03*
D46*
X84000Y75000D02*
D03*
Y80000D02*
D03*
M02*
