M48
;Layer_Color=9474304
;FILE_FORMAT=2:5
INCH,LZ
;TYPE=PLATED
T1F00S00C0.00787
T2F00S00C0.01181
T4F00S00C0.02800
;TYPE=NON_PLATED
T6F00S00C0.02362
%
T01
X0064467Y0049711
X0060987Y005319
X0064467Y005667
X0067947Y006015
X0071427Y005667
X0074907Y005319
X0071427Y0049711
X0067947Y0046231
Y005319
T02
X00345Y0003
X00215Y0031
Y0036
Y0042
X00605Y004
X0077Y0041
Y00655
X008Y0063
X0079Y0076
X008Y00915
X0077237Y0096845
X00765Y01015
X00715Y0097
X00665Y01045
X0054839Y0104396
X0055Y01255
X0059Y0125594
X00355Y01255
X0031
X0034839Y0112396
X00335Y00955
X00275Y00775
X0054Y00815
X0058
X00485Y0063
X00035Y01075
T04
X00095Y00305
X00285Y0057
X0042Y00575
X00525Y00375
X00675Y002
X0077Y0027
X0086Y0024
X00865Y00555
X0057Y0088
X00305Y0107
X002Y01075
X0023Y0124
X0016Y01515
X00805Y01495
X0084Y0138
X0083716Y0122216
X0075Y013
T06
X0033583Y0138201
X0056417
M30
