G04*
G04 #@! TF.GenerationSoftware,Altium Limited,Altium Designer,21.7.2 (23)*
G04*
G04 Layer_Color=32896*
%FSLAX25Y25*%
%MOIN*%
G70*
G04*
G04 #@! TF.SameCoordinates,D6489F60-8050-45FC-BC62-49AB9328694B*
G04*
G04*
G04 #@! TF.FilePolarity,Positive*
G04*
G01*
G75*
G36*
X8353Y130047D02*
X8565D01*
Y129941D01*
X8671D01*
Y129835D01*
X8882D01*
Y129729D01*
X8988D01*
Y129623D01*
X9094D01*
Y129518D01*
X9306D01*
Y129412D01*
X9412D01*
Y129306D01*
X9518D01*
Y129200D01*
X9623D01*
Y128988D01*
X9729D01*
Y128882D01*
X9835D01*
Y128777D01*
X9941D01*
Y128671D01*
X10047D01*
Y128459D01*
X10153D01*
Y128353D01*
X10259D01*
Y128141D01*
X10365D01*
Y127929D01*
X10471D01*
Y127718D01*
X10576D01*
Y127506D01*
X10682D01*
Y127294D01*
X10788D01*
Y126871D01*
X10894D01*
Y126023D01*
X10788D01*
Y125812D01*
X10682D01*
Y125706D01*
X10576D01*
Y125494D01*
X10682D01*
Y125282D01*
X10788D01*
Y125177D01*
X10894D01*
Y125071D01*
X11000D01*
Y124859D01*
X11106D01*
Y124753D01*
X11212D01*
Y124541D01*
X11318D01*
Y124435D01*
X11423D01*
Y124223D01*
X11529D01*
Y124118D01*
X11635D01*
Y123906D01*
X11741D01*
Y123800D01*
X11847D01*
Y123588D01*
X11953D01*
Y123482D01*
X12059D01*
Y123377D01*
X12165D01*
Y123165D01*
X12271D01*
Y123059D01*
X12376D01*
Y122847D01*
X12482D01*
Y122741D01*
X12588D01*
Y122635D01*
X12694D01*
Y122424D01*
X12800D01*
Y122318D01*
X12906D01*
Y122106D01*
X13012D01*
Y122000D01*
X13118D01*
Y121788D01*
X13224D01*
Y121682D01*
X13329D01*
Y121471D01*
X13435D01*
Y121365D01*
X13541D01*
Y121153D01*
X13647D01*
Y121047D01*
X13753D01*
Y120835D01*
X13859D01*
Y120729D01*
X13965D01*
Y120624D01*
X14071D01*
Y120412D01*
X14176D01*
Y120306D01*
X14282D01*
Y120200D01*
X14388D01*
Y119988D01*
X14494D01*
Y119882D01*
X14600D01*
Y119776D01*
X14706D01*
Y119671D01*
X14812D01*
Y119459D01*
X14918D01*
Y119353D01*
X15023D01*
Y119247D01*
X15129D01*
Y119141D01*
X15235D01*
Y118929D01*
X15341D01*
Y118824D01*
X15447D01*
Y118718D01*
X15553D01*
Y118612D01*
X15659D01*
Y118506D01*
X15765D01*
Y118400D01*
X15871D01*
Y118294D01*
X15977D01*
Y118188D01*
X16718D01*
Y118082D01*
X16929D01*
Y117976D01*
X17035D01*
Y117765D01*
X16929D01*
Y117659D01*
X16824D01*
Y117553D01*
X16718D01*
Y117341D01*
X16824D01*
Y117235D01*
X16929D01*
Y117129D01*
X17035D01*
Y117024D01*
X17141D01*
Y116918D01*
X17247D01*
Y116812D01*
X17353D01*
Y116706D01*
X17565D01*
Y116494D01*
X17671D01*
Y116176D01*
X17565D01*
Y116282D01*
X17459D01*
Y116388D01*
X17353D01*
Y116494D01*
X17247D01*
Y116600D01*
X17141D01*
Y116706D01*
X17035D01*
Y116812D01*
X16929D01*
Y116918D01*
X16824D01*
Y117129D01*
X16718D01*
Y117235D01*
X16612D01*
Y117341D01*
X16400D01*
Y117235D01*
X16188D01*
Y117129D01*
X16082D01*
Y117024D01*
X15871D01*
Y116918D01*
X15659D01*
Y116812D01*
X15447D01*
Y116706D01*
X15235D01*
Y116600D01*
X15129D01*
Y116494D01*
X14918D01*
Y116388D01*
X14706D01*
Y116282D01*
X14494D01*
Y116176D01*
X14388D01*
Y116071D01*
X14176D01*
Y115965D01*
X13965D01*
Y115859D01*
X13859D01*
Y115753D01*
X13647D01*
Y115647D01*
X13435D01*
Y115541D01*
X13224D01*
Y115435D01*
X13012D01*
Y115329D01*
X12694D01*
Y115224D01*
X12482D01*
Y115118D01*
X12165D01*
Y115012D01*
X11847D01*
Y114906D01*
X11529D01*
Y114800D01*
X11106D01*
Y114694D01*
X10471D01*
Y114588D01*
X8141D01*
Y114694D01*
X7612D01*
Y114800D01*
X7294D01*
Y114906D01*
X6977D01*
Y115012D01*
X6765D01*
Y115118D01*
X6553D01*
Y115224D01*
X6447D01*
Y115329D01*
X6235D01*
Y115435D01*
X6129D01*
Y115541D01*
X5918D01*
Y115647D01*
X5812D01*
Y115753D01*
X5706D01*
Y115859D01*
X5600D01*
Y115965D01*
X5494D01*
Y116071D01*
X5388D01*
Y116176D01*
X5282D01*
Y116388D01*
X5176D01*
Y116494D01*
X5071D01*
Y116600D01*
X4965D01*
Y116706D01*
X4859D01*
Y116918D01*
X4753D01*
Y117024D01*
X4647D01*
Y117235D01*
X4541D01*
Y117341D01*
X4435D01*
Y117553D01*
X4329D01*
Y117765D01*
X4223D01*
Y117976D01*
X4118D01*
Y118188D01*
X4012D01*
Y118506D01*
X3906D01*
Y118824D01*
X3800D01*
Y119141D01*
X3694D01*
Y119565D01*
X3588D01*
Y120200D01*
X3482D01*
Y122000D01*
X3588D01*
Y122847D01*
X3694D01*
Y123377D01*
X3800D01*
Y123800D01*
X3906D01*
Y124118D01*
X4012D01*
Y124435D01*
X4118D01*
Y124753D01*
X4223D01*
Y124965D01*
X4329D01*
Y125177D01*
X4435D01*
Y125388D01*
X4541D01*
Y125600D01*
X4647D01*
Y125812D01*
X4753D01*
Y126129D01*
X4859D01*
Y126341D01*
X4965D01*
Y126553D01*
X5071D01*
Y126765D01*
X5176D01*
Y126977D01*
X5282D01*
Y127082D01*
X5494D01*
Y127188D01*
X6129D01*
Y127082D01*
X6553D01*
Y126977D01*
X6871D01*
Y126871D01*
X7188D01*
Y126765D01*
X7506D01*
Y126659D01*
X7718D01*
Y126553D01*
X7929D01*
Y126447D01*
X8247D01*
Y126341D01*
X8353D01*
Y126235D01*
X8565D01*
Y126129D01*
X8777D01*
Y126023D01*
X8988D01*
Y125918D01*
X9200D01*
Y125812D01*
X9623D01*
Y125706D01*
X10047D01*
Y125812D01*
X10153D01*
Y125918D01*
X10047D01*
Y126023D01*
X9941D01*
Y126235D01*
X9835D01*
Y126341D01*
X9729D01*
Y126447D01*
X9623D01*
Y126659D01*
X9518D01*
Y126765D01*
X9412D01*
Y126977D01*
X9306D01*
Y127188D01*
X9200D01*
Y127294D01*
X9094D01*
Y127506D01*
X8988D01*
Y127718D01*
X8882D01*
Y127823D01*
X8777D01*
Y128035D01*
X8671D01*
Y128247D01*
X8565D01*
Y128353D01*
X8459D01*
Y128565D01*
X8353D01*
Y128777D01*
X8247D01*
Y128882D01*
X8141D01*
Y129094D01*
X8035D01*
Y129306D01*
X7929D01*
Y129518D01*
X7824D01*
Y130153D01*
X8353D01*
Y130047D01*
D02*
G37*
G36*
X9267Y139977D02*
X9376D01*
Y139940D01*
X9412D01*
Y139904D01*
X9485D01*
Y139867D01*
X9521D01*
Y139831D01*
X9558D01*
Y139759D01*
X9594D01*
Y139722D01*
X9630D01*
Y139650D01*
X9667D01*
Y139504D01*
X9703D01*
Y139359D01*
X9667D01*
Y139214D01*
X9630D01*
Y139141D01*
X9594D01*
Y139068D01*
X9558D01*
Y139032D01*
X9521D01*
Y138996D01*
X9485D01*
Y138959D01*
X9449D01*
Y138923D01*
X9376D01*
Y138887D01*
X9303D01*
Y138850D01*
X9158D01*
Y138814D01*
X8940D01*
Y138778D01*
X8795D01*
Y138742D01*
X8613D01*
Y138705D01*
X8432D01*
Y138669D01*
X8214D01*
Y138633D01*
X8068D01*
Y138596D01*
X8032D01*
Y138633D01*
X7996D01*
Y138596D01*
X7887D01*
Y138560D01*
X7705D01*
Y138523D01*
X7487D01*
Y138487D01*
X7306D01*
Y138451D01*
X7160D01*
Y138415D01*
X6979D01*
Y138378D01*
X6797D01*
Y138342D01*
X6615D01*
Y138306D01*
X6434D01*
Y138269D01*
X6252D01*
Y138233D01*
X6070D01*
Y138197D01*
X5889D01*
Y138160D01*
X5453D01*
Y138197D01*
X5380D01*
Y138233D01*
X5308D01*
Y138269D01*
X5271D01*
Y138306D01*
X5235D01*
Y138342D01*
X5199D01*
Y138378D01*
X5162D01*
Y138415D01*
X5126D01*
Y138487D01*
X5090D01*
Y138596D01*
X5053D01*
Y138850D01*
X5090D01*
Y138959D01*
X5126D01*
Y139032D01*
X5162D01*
Y139105D01*
X5199D01*
Y139141D01*
X5235D01*
Y139177D01*
X5271D01*
Y139214D01*
X5344D01*
Y139250D01*
X5380D01*
Y139286D01*
X5489D01*
Y139323D01*
X5671D01*
Y139359D01*
X5853D01*
Y139395D01*
X6034D01*
Y139432D01*
X6216D01*
Y139468D01*
X6397D01*
Y139504D01*
X6579D01*
Y139541D01*
X6761D01*
Y139577D01*
X6942D01*
Y139613D01*
X7088D01*
Y139650D01*
X7306D01*
Y139686D01*
X7487D01*
Y139722D01*
X7632D01*
Y139759D01*
X7814D01*
Y139795D01*
X7996D01*
Y139831D01*
X8214D01*
Y139867D01*
X8359D01*
Y139904D01*
X8541D01*
Y139940D01*
X8722D01*
Y139977D01*
X8904D01*
Y140013D01*
X9267D01*
Y139977D01*
D02*
G37*
G36*
X17549Y135944D02*
X17513D01*
Y135981D01*
X17477D01*
Y136017D01*
X17404D01*
Y136053D01*
X17368D01*
Y136090D01*
X17295D01*
Y136126D01*
X17258D01*
Y136162D01*
X17186D01*
Y136199D01*
X17150D01*
Y136235D01*
X17077D01*
Y136271D01*
X17041D01*
Y136308D01*
X16968D01*
Y136344D01*
X16932D01*
Y136380D01*
X16859D01*
Y136417D01*
X16823D01*
Y136453D01*
X16750D01*
Y136489D01*
X16714D01*
Y136526D01*
X16677D01*
Y136562D01*
X16605D01*
Y136598D01*
X16532D01*
Y136635D01*
X16496D01*
Y136671D01*
X16423D01*
Y136707D01*
X16387D01*
Y136744D01*
X16314D01*
Y136780D01*
X16278D01*
Y136816D01*
X16205D01*
Y136853D01*
X16169D01*
Y136889D01*
X16096D01*
Y136925D01*
X16060D01*
Y136961D01*
X15987D01*
Y136998D01*
X15951D01*
Y137034D01*
X15878D01*
Y137071D01*
X15842D01*
Y137107D01*
X15769D01*
Y137143D01*
X15733D01*
Y137180D01*
X15660D01*
Y137216D01*
X15624D01*
Y137252D01*
X15551D01*
Y137288D01*
X15515D01*
Y137325D01*
X15442D01*
Y137361D01*
X15406D01*
Y137397D01*
X15333D01*
Y137434D01*
X15297D01*
Y137470D01*
X15224D01*
Y137506D01*
X15188D01*
Y137543D01*
X15115D01*
Y137579D01*
X15079D01*
Y137615D01*
X15006D01*
Y137652D01*
X14934D01*
Y137688D01*
X14897D01*
Y137724D01*
X14861D01*
Y137761D01*
X14788D01*
Y137797D01*
X14752D01*
Y137833D01*
X14716D01*
Y137906D01*
X14680D01*
Y137942D01*
X14643D01*
Y138015D01*
X14607D01*
Y138197D01*
X14570D01*
Y138269D01*
X14607D01*
Y138451D01*
X14643D01*
Y138523D01*
X14680D01*
Y138596D01*
X14716D01*
Y138633D01*
X14752D01*
Y138669D01*
X14788D01*
Y138705D01*
X14825D01*
Y138742D01*
X14897D01*
Y138778D01*
X14970D01*
Y138814D01*
X15406D01*
Y138778D01*
X15479D01*
Y138742D01*
X15515D01*
Y138705D01*
X15588D01*
Y138669D01*
X15624D01*
Y138633D01*
X15697D01*
Y138596D01*
X15769D01*
Y138560D01*
X15806D01*
Y138523D01*
X15842D01*
Y138487D01*
X15914D01*
Y138451D01*
X15987D01*
Y138415D01*
X16024D01*
Y138378D01*
X16060D01*
Y138342D01*
X16132D01*
Y138306D01*
X16205D01*
Y138269D01*
X16241D01*
Y138233D01*
X16314D01*
Y138197D01*
X16350D01*
Y138160D01*
X16387D01*
Y138124D01*
X16459D01*
Y138088D01*
X16496D01*
Y138051D01*
X16568D01*
Y138015D01*
X16641D01*
Y137979D01*
X16677D01*
Y137942D01*
X16714D01*
Y137906D01*
X16786D01*
Y137870D01*
X16823D01*
Y137833D01*
X16895D01*
Y137797D01*
X16968D01*
Y137761D01*
X17004D01*
Y137724D01*
X17077D01*
Y137688D01*
X17113D01*
Y137652D01*
X17150D01*
Y137615D01*
X17222D01*
Y137579D01*
X17295D01*
Y137543D01*
X17331D01*
Y137506D01*
X17368D01*
Y137470D01*
X17440D01*
Y137434D01*
X17513D01*
Y137397D01*
X17549D01*
Y137361D01*
X17585D01*
Y137325D01*
X17658D01*
Y137288D01*
X17731D01*
Y137252D01*
X17767D01*
Y137216D01*
X17840D01*
Y137180D01*
X17876D01*
Y137143D01*
X17949D01*
Y137107D01*
X17985D01*
Y137071D01*
X18058D01*
Y137034D01*
X18094D01*
Y136998D01*
X18167D01*
Y136961D01*
X18203D01*
Y136925D01*
X18276D01*
Y136889D01*
X18312D01*
Y136853D01*
X18385D01*
Y136816D01*
X18421D01*
Y136780D01*
X18494D01*
Y136744D01*
X18530D01*
Y136707D01*
X18566D01*
Y136671D01*
X18603D01*
Y136598D01*
X18639D01*
Y136562D01*
X18675D01*
Y136453D01*
X18711D01*
Y136126D01*
X18675D01*
Y136053D01*
X18639D01*
Y135981D01*
X18603D01*
Y135908D01*
X18566D01*
Y135872D01*
X18530D01*
Y135836D01*
X18494D01*
Y135799D01*
X18421D01*
Y135763D01*
X18348D01*
Y135726D01*
X18239D01*
Y135690D01*
X17985D01*
Y135726D01*
X17876D01*
Y135763D01*
X17803D01*
Y135799D01*
X17731D01*
Y135836D01*
X17694D01*
Y135872D01*
X17622D01*
Y135908D01*
X17585D01*
Y135944D01*
X17549D01*
D02*
G37*
G36*
X6797Y144444D02*
X6906D01*
Y144408D01*
X6979D01*
Y144372D01*
X7015D01*
Y144335D01*
X7088D01*
Y144299D01*
X7160D01*
Y144263D01*
X7197D01*
Y144227D01*
X7269D01*
Y144190D01*
X7306D01*
Y144154D01*
X7378D01*
Y144117D01*
X7414D01*
Y144081D01*
X7487D01*
Y144045D01*
X7524D01*
Y144009D01*
X7560D01*
Y143972D01*
X7632D01*
Y143936D01*
X7705D01*
Y143900D01*
X7741D01*
Y143863D01*
X7814D01*
Y143827D01*
X7850D01*
Y143791D01*
X7887D01*
Y143754D01*
X7959D01*
Y143718D01*
X8032D01*
Y143682D01*
X8068D01*
Y143645D01*
X8141D01*
Y143609D01*
X8177D01*
Y143573D01*
X8250D01*
Y143536D01*
X8286D01*
Y143500D01*
X8359D01*
Y143464D01*
X8395D01*
Y143427D01*
X8468D01*
Y143391D01*
X8504D01*
Y143355D01*
X8577D01*
Y143318D01*
X8613D01*
Y143282D01*
X8686D01*
Y143246D01*
X8722D01*
Y143209D01*
X8795D01*
Y143173D01*
X8831D01*
Y143137D01*
X8904D01*
Y143100D01*
X8940D01*
Y143064D01*
X8976D01*
Y143028D01*
X9049D01*
Y142991D01*
X9122D01*
Y142955D01*
X9158D01*
Y142919D01*
X9231D01*
Y142883D01*
X9267D01*
Y142846D01*
X9340D01*
Y142810D01*
X9376D01*
Y142773D01*
X9449D01*
Y142737D01*
X9485D01*
Y142701D01*
X9558D01*
Y142665D01*
X9594D01*
Y142628D01*
X9667D01*
Y142592D01*
X9703D01*
Y142556D01*
X9776D01*
Y142519D01*
X9812D01*
Y142483D01*
X9885D01*
Y142447D01*
X9921D01*
Y142410D01*
X9994D01*
Y142374D01*
X10030D01*
Y142338D01*
X10066D01*
Y142265D01*
X10103D01*
Y142192D01*
X10139D01*
Y142120D01*
X10175D01*
Y141793D01*
X10139D01*
Y141684D01*
X10103D01*
Y141611D01*
X10066D01*
Y141575D01*
X10030D01*
Y141539D01*
X9994D01*
Y141502D01*
X9957D01*
Y141466D01*
X9921D01*
Y141429D01*
X9848D01*
Y141393D01*
X9739D01*
Y141357D01*
X9449D01*
Y141393D01*
X9340D01*
Y141429D01*
X9267D01*
Y141466D01*
X9231D01*
Y141502D01*
X9194D01*
Y141539D01*
X9122D01*
Y141575D01*
X9049D01*
Y141611D01*
X9013D01*
Y141647D01*
X8940D01*
Y141684D01*
X8904D01*
Y141720D01*
X8831D01*
Y141756D01*
X8795D01*
Y141793D01*
X8722D01*
Y141829D01*
X8686D01*
Y141865D01*
X8613D01*
Y141902D01*
X8577D01*
Y141938D01*
X8541D01*
Y141974D01*
X8468D01*
Y142011D01*
X8395D01*
Y142047D01*
X8359D01*
Y142083D01*
X8286D01*
Y142120D01*
X8250D01*
Y142156D01*
X8214D01*
Y142192D01*
X8141D01*
Y142229D01*
X8068D01*
Y142265D01*
X8032D01*
Y142301D01*
X7959D01*
Y142338D01*
X7923D01*
Y142374D01*
X7850D01*
Y142410D01*
X7814D01*
Y142447D01*
X7741D01*
Y142483D01*
X7705D01*
Y142519D01*
X7632D01*
Y142556D01*
X7596D01*
Y142592D01*
X7524D01*
Y142628D01*
X7487D01*
Y142665D01*
X7414D01*
Y142701D01*
X7378D01*
Y142737D01*
X7306D01*
Y142773D01*
X7269D01*
Y142810D01*
X7197D01*
Y142846D01*
X7160D01*
Y142883D01*
X7088D01*
Y142919D01*
X7051D01*
Y142955D01*
X6979D01*
Y142991D01*
X6906D01*
Y143028D01*
X6870D01*
Y143064D01*
X6833D01*
Y143100D01*
X6761D01*
Y143137D01*
X6724D01*
Y143173D01*
X6652D01*
Y143209D01*
X6615D01*
Y143246D01*
X6543D01*
Y143282D01*
X6506D01*
Y143318D01*
X6434D01*
Y143355D01*
X6397D01*
Y143391D01*
X6325D01*
Y143427D01*
X6289D01*
Y143464D01*
X6252D01*
Y143500D01*
X6216D01*
Y143536D01*
X6179D01*
Y143573D01*
X6143D01*
Y143645D01*
X6107D01*
Y143754D01*
X6070D01*
Y144045D01*
X6107D01*
Y144154D01*
X6143D01*
Y144190D01*
X6179D01*
Y144263D01*
X6216D01*
Y144299D01*
X6252D01*
Y144335D01*
X6289D01*
Y144372D01*
X6361D01*
Y144408D01*
X6397D01*
Y144444D01*
X6506D01*
Y144481D01*
X6797D01*
Y144444D01*
D02*
G37*
G36*
X10502Y147060D02*
Y147133D01*
X10538D01*
Y147205D01*
X10575D01*
Y147241D01*
X10611D01*
Y147278D01*
X10647D01*
Y147314D01*
X10720D01*
Y147350D01*
X10793D01*
Y147387D01*
X10865D01*
Y147423D01*
X11156D01*
Y147387D01*
X11301D01*
Y147350D01*
X11338D01*
Y147314D01*
X11410D01*
Y147278D01*
X11447D01*
Y147241D01*
X11483D01*
Y147205D01*
X11519D01*
Y147133D01*
X11556D01*
Y147060D01*
X11592D01*
Y146951D01*
X11628D01*
Y146806D01*
X11665D01*
Y146624D01*
X11701D01*
Y146406D01*
X11737D01*
Y146261D01*
X11773D01*
Y146079D01*
X11810D01*
Y145897D01*
X11846D01*
Y145679D01*
X11883D01*
Y145534D01*
X11919D01*
Y145353D01*
X11955D01*
Y145171D01*
X11992D01*
Y144989D01*
X12028D01*
Y144808D01*
X12064D01*
Y144626D01*
X12100D01*
Y144444D01*
X12137D01*
Y144263D01*
X12173D01*
Y144081D01*
X12209D01*
Y143900D01*
X12246D01*
Y143754D01*
X12282D01*
Y143573D01*
X12318D01*
Y143209D01*
X12282D01*
Y143137D01*
X12246D01*
Y143064D01*
X12209D01*
Y142991D01*
X12173D01*
Y142955D01*
X12137D01*
Y142919D01*
X12064D01*
Y142883D01*
X12028D01*
Y142846D01*
X11955D01*
Y142810D01*
X11810D01*
Y142773D01*
X11628D01*
Y142810D01*
X11483D01*
Y142846D01*
X11410D01*
Y142883D01*
X11374D01*
Y142919D01*
X11338D01*
Y142955D01*
X11301D01*
Y142991D01*
X11265D01*
Y143028D01*
X11229D01*
Y143064D01*
X11192D01*
Y143137D01*
X11156D01*
Y143282D01*
X11120D01*
Y143427D01*
X11083D01*
Y143609D01*
X11047D01*
Y143791D01*
X11011D01*
Y144009D01*
X10974D01*
Y144154D01*
X10938D01*
Y144335D01*
X10902D01*
Y144517D01*
X10865D01*
Y144735D01*
X10829D01*
Y144880D01*
X10793D01*
Y145062D01*
X10756D01*
Y145244D01*
X10720D01*
Y145425D01*
X10684D01*
Y145607D01*
X10647D01*
Y145789D01*
X10611D01*
Y145970D01*
X10575D01*
Y146152D01*
X10538D01*
Y146297D01*
X10502D01*
Y146479D01*
X10466D01*
Y146697D01*
X10430D01*
Y146951D01*
X10466D01*
Y147060D01*
X10502D01*
D02*
G37*
G36*
X19220Y142011D02*
X19365D01*
Y141974D01*
X19438D01*
Y141938D01*
X19474D01*
Y141902D01*
X19511D01*
Y141865D01*
X19547D01*
Y141829D01*
X19583D01*
Y141793D01*
X19620D01*
Y141756D01*
X19656D01*
Y141684D01*
X19692D01*
Y141539D01*
X19729D01*
Y141393D01*
X19692D01*
Y141211D01*
X19656D01*
Y141139D01*
X19620D01*
Y141103D01*
X19583D01*
Y141066D01*
X19547D01*
Y141030D01*
X19511D01*
Y140994D01*
X19474D01*
Y140957D01*
X19402D01*
Y140921D01*
X19365D01*
Y140885D01*
X19220D01*
Y140848D01*
X19184D01*
Y140885D01*
X19147D01*
Y140848D01*
X19002D01*
Y140812D01*
X18821D01*
Y140776D01*
X18675D01*
Y140739D01*
X18494D01*
Y140703D01*
X18312D01*
Y140667D01*
X18130D01*
Y140630D01*
X17949D01*
Y140594D01*
X17767D01*
Y140558D01*
X17585D01*
Y140521D01*
X17404D01*
Y140485D01*
X17222D01*
Y140449D01*
X17041D01*
Y140412D01*
X16859D01*
Y140376D01*
X16677D01*
Y140340D01*
X16496D01*
Y140303D01*
X16314D01*
Y140267D01*
X16169D01*
Y140231D01*
X15951D01*
Y140194D01*
X15769D01*
Y140158D01*
X15624D01*
Y140194D01*
X15442D01*
Y140231D01*
X15370D01*
Y140267D01*
X15333D01*
Y140303D01*
X15297D01*
Y140340D01*
X15261D01*
Y140376D01*
X15224D01*
Y140412D01*
X15188D01*
Y140449D01*
X15152D01*
Y140521D01*
X15115D01*
Y140667D01*
X15079D01*
Y140703D01*
X15115D01*
Y140739D01*
X15079D01*
Y140776D01*
X15115D01*
Y140812D01*
X15079D01*
Y140848D01*
X15115D01*
Y140994D01*
X15152D01*
Y141030D01*
X15188D01*
Y141103D01*
X15224D01*
Y141139D01*
X15261D01*
Y141175D01*
X15297D01*
Y141211D01*
X15333D01*
Y141248D01*
X15370D01*
Y141284D01*
X15479D01*
Y141321D01*
X15588D01*
Y141357D01*
X15769D01*
Y141393D01*
X15951D01*
Y141429D01*
X16132D01*
Y141466D01*
X16314D01*
Y141502D01*
X16496D01*
Y141539D01*
X16677D01*
Y141575D01*
X16859D01*
Y141611D01*
X17041D01*
Y141647D01*
X17222D01*
Y141684D01*
X17404D01*
Y141720D01*
X17513D01*
Y141684D01*
X17549D01*
Y141720D01*
X17585D01*
Y141756D01*
X17767D01*
Y141793D01*
X17912D01*
Y141829D01*
X18130D01*
Y141865D01*
X18312D01*
Y141902D01*
X18494D01*
Y141938D01*
X18639D01*
Y141974D01*
X18857D01*
Y142011D01*
X19002D01*
Y142047D01*
X19220D01*
Y142011D01*
D02*
G37*
G36*
X16350Y146370D02*
X16459D01*
Y146333D01*
X16496D01*
Y146297D01*
X16568D01*
Y146261D01*
X16605D01*
Y146224D01*
X16641D01*
Y146188D01*
X16677D01*
Y146115D01*
X16714D01*
Y146079D01*
X16750D01*
Y145970D01*
X16786D01*
Y145679D01*
X16750D01*
Y145571D01*
X16714D01*
Y145498D01*
X16677D01*
Y145461D01*
X16641D01*
Y145389D01*
X16605D01*
Y145353D01*
X16568D01*
Y145280D01*
X16532D01*
Y145244D01*
X16496D01*
Y145171D01*
X16459D01*
Y145135D01*
X16423D01*
Y145062D01*
X16387D01*
Y145026D01*
X16350D01*
Y144953D01*
X16314D01*
Y144880D01*
X16278D01*
Y144844D01*
X16241D01*
Y144771D01*
X16205D01*
Y144735D01*
X16169D01*
Y144662D01*
X16132D01*
Y144626D01*
X16096D01*
Y144590D01*
X16060D01*
Y144517D01*
X16024D01*
Y144444D01*
X15987D01*
Y144408D01*
X15951D01*
Y144335D01*
X15914D01*
Y144299D01*
X15878D01*
Y144227D01*
X15842D01*
Y144190D01*
X15806D01*
Y144117D01*
X15769D01*
Y144081D01*
X15733D01*
Y144045D01*
X15697D01*
Y143972D01*
X15660D01*
Y143900D01*
X15624D01*
Y143863D01*
X15588D01*
Y143827D01*
X15551D01*
Y143754D01*
X15515D01*
Y143718D01*
X15479D01*
Y143645D01*
X15442D01*
Y143573D01*
X15406D01*
Y143536D01*
X15370D01*
Y143500D01*
X15333D01*
Y143427D01*
X15297D01*
Y143355D01*
X15261D01*
Y143318D01*
X15224D01*
Y143246D01*
X15188D01*
Y143209D01*
X15152D01*
Y143137D01*
X15115D01*
Y143100D01*
X15079D01*
Y143028D01*
X15043D01*
Y142991D01*
X15006D01*
Y142919D01*
X14970D01*
Y142883D01*
X14934D01*
Y142810D01*
X14897D01*
Y142773D01*
X14861D01*
Y142701D01*
X14825D01*
Y142665D01*
X14788D01*
Y142592D01*
X14752D01*
Y142556D01*
X14716D01*
Y142519D01*
X14680D01*
Y142483D01*
Y142447D01*
X14607D01*
Y142410D01*
X14570D01*
Y142374D01*
X14498D01*
Y142338D01*
X14425D01*
Y142301D01*
X14062D01*
Y142338D01*
X13989D01*
Y142374D01*
X13917D01*
Y142410D01*
X13880D01*
Y142447D01*
X13844D01*
Y142483D01*
X13808D01*
Y142519D01*
X13771D01*
Y142556D01*
X13735D01*
Y142628D01*
X13699D01*
Y142701D01*
X13662D01*
Y143064D01*
X13699D01*
Y143137D01*
X13735D01*
Y143209D01*
X13771D01*
Y143282D01*
X13808D01*
Y143318D01*
X13844D01*
Y143391D01*
X13880D01*
Y143427D01*
X13917D01*
Y143500D01*
X13953D01*
Y143536D01*
X13989D01*
Y143609D01*
X14026D01*
Y143645D01*
X14062D01*
Y143718D01*
X14098D01*
Y143754D01*
X14135D01*
Y143827D01*
X14171D01*
Y143863D01*
X14207D01*
Y143936D01*
X14244D01*
Y143972D01*
X14280D01*
Y144045D01*
X14316D01*
Y144081D01*
X14353D01*
Y144154D01*
X14389D01*
Y144190D01*
X14425D01*
Y144263D01*
X14461D01*
Y144299D01*
X14498D01*
Y144372D01*
X14534D01*
Y144408D01*
X14570D01*
Y144481D01*
X14607D01*
Y144517D01*
X14643D01*
Y144590D01*
X14680D01*
Y144626D01*
X14716D01*
Y144699D01*
X14752D01*
Y144735D01*
X14788D01*
Y144808D01*
X14825D01*
Y144844D01*
X14861D01*
Y144917D01*
X14897D01*
Y144953D01*
X14934D01*
Y145026D01*
X14970D01*
Y145062D01*
X15006D01*
Y145135D01*
X15043D01*
Y145171D01*
X15079D01*
Y145244D01*
X15115D01*
Y145280D01*
X15152D01*
Y145353D01*
X15188D01*
Y145389D01*
X15224D01*
Y145461D01*
X15261D01*
Y145498D01*
X15297D01*
Y145571D01*
X15333D01*
Y145607D01*
X15370D01*
Y145679D01*
X15406D01*
Y145716D01*
X15442D01*
Y145789D01*
X15479D01*
Y145825D01*
X15515D01*
Y145897D01*
X15551D01*
Y145934D01*
X15588D01*
Y146006D01*
X15624D01*
Y146043D01*
X15660D01*
Y146115D01*
X15697D01*
Y146152D01*
X15733D01*
Y146224D01*
X15769D01*
Y146261D01*
X15842D01*
Y146297D01*
X15878D01*
Y146333D01*
X15951D01*
Y146370D01*
X16060D01*
Y146406D01*
X16350D01*
Y146370D01*
D02*
G37*
%LPC*%
G36*
X8247Y129941D02*
X8035D01*
Y129518D01*
X8141D01*
Y129306D01*
X8247D01*
Y129094D01*
X8353D01*
Y128988D01*
X8459D01*
Y128777D01*
X8565D01*
Y128671D01*
X8671D01*
Y128459D01*
X8777D01*
Y128247D01*
X8882D01*
Y128141D01*
X8988D01*
Y127929D01*
X9094D01*
Y127823D01*
X9200D01*
Y127612D01*
X9306D01*
Y127400D01*
X9412D01*
Y127294D01*
X9518D01*
Y127082D01*
X9623D01*
Y126871D01*
X9729D01*
Y126765D01*
X9835D01*
Y126553D01*
X9941D01*
Y126447D01*
X10047D01*
Y126235D01*
X10153D01*
Y126129D01*
X10259D01*
Y125918D01*
X10365D01*
Y125812D01*
X10471D01*
Y125918D01*
X10576D01*
Y126129D01*
X10682D01*
Y126871D01*
X10576D01*
Y127188D01*
X10471D01*
Y127506D01*
X10365D01*
Y127718D01*
X10259D01*
Y127929D01*
X10153D01*
Y128035D01*
X10047D01*
Y128247D01*
X9941D01*
Y128353D01*
X9835D01*
Y128565D01*
X9729D01*
Y128671D01*
X9623D01*
Y128777D01*
X9518D01*
Y128882D01*
X9412D01*
Y129094D01*
X9306D01*
Y129200D01*
X9200D01*
Y129306D01*
X9094D01*
Y129412D01*
X8882D01*
Y129518D01*
X8777D01*
Y129623D01*
X8671D01*
Y129729D01*
X8459D01*
Y129835D01*
X8247D01*
Y129941D01*
D02*
G37*
G36*
X6129Y126977D02*
X5494D01*
Y126871D01*
X5388D01*
Y126659D01*
X5282D01*
Y126447D01*
X5176D01*
Y126235D01*
X5071D01*
Y126023D01*
X4965D01*
Y125812D01*
X4859D01*
Y125494D01*
X4753D01*
Y125282D01*
X4647D01*
Y125071D01*
X4541D01*
Y124859D01*
X4435D01*
Y124647D01*
X4329D01*
Y124329D01*
X4223D01*
Y124012D01*
X4118D01*
Y123694D01*
X4012D01*
Y123271D01*
X3906D01*
Y122635D01*
X3800D01*
Y121682D01*
X3694D01*
Y120518D01*
X3800D01*
Y119776D01*
X3906D01*
Y119247D01*
X4012D01*
Y118929D01*
X4118D01*
Y118612D01*
X4223D01*
Y118294D01*
X4329D01*
Y118082D01*
X4435D01*
Y117871D01*
X4541D01*
Y117659D01*
X4647D01*
Y117553D01*
X4753D01*
Y117341D01*
X4859D01*
Y117129D01*
X4965D01*
Y117024D01*
X5071D01*
Y116812D01*
X5176D01*
Y116706D01*
X5282D01*
Y116600D01*
X5388D01*
Y116494D01*
X5494D01*
Y116282D01*
X5600D01*
Y116176D01*
X5706D01*
Y116071D01*
X5812D01*
Y115965D01*
X5918D01*
Y115859D01*
X6129D01*
Y115753D01*
X6235D01*
Y115647D01*
X6341D01*
Y115541D01*
X6553D01*
Y115435D01*
X6659D01*
Y115329D01*
X6871D01*
Y115224D01*
X7188D01*
Y115118D01*
X7400D01*
Y115012D01*
X7718D01*
Y114906D01*
X8353D01*
Y114800D01*
X10259D01*
Y114906D01*
X10894D01*
Y115012D01*
X11318D01*
Y115118D01*
X11741D01*
Y115224D01*
X12059D01*
Y115329D01*
X12376D01*
Y115435D01*
X12588D01*
Y115541D01*
X12906D01*
Y115647D01*
X13118D01*
Y115753D01*
X13329D01*
Y115859D01*
X13541D01*
Y115965D01*
X13753D01*
Y116071D01*
X13859D01*
Y116176D01*
X14071D01*
Y116282D01*
X14282D01*
Y116388D01*
X14388D01*
Y116494D01*
X14600D01*
Y116600D01*
X14812D01*
Y116706D01*
X15023D01*
Y116812D01*
X15129D01*
Y116918D01*
X15341D01*
Y117024D01*
X15553D01*
Y117129D01*
X15765D01*
Y117235D01*
X15977D01*
Y117341D01*
X16082D01*
Y117447D01*
X16294D01*
Y117659D01*
X16188D01*
Y117765D01*
X16082D01*
Y117871D01*
X15977D01*
Y117976D01*
X15659D01*
Y118082D01*
X15023D01*
Y118188D01*
X14494D01*
Y118294D01*
X13965D01*
Y118400D01*
X13435D01*
Y118506D01*
X12800D01*
Y118612D01*
X12165D01*
Y118718D01*
X11529D01*
Y118824D01*
X11000D01*
Y118929D01*
X10471D01*
Y119035D01*
X10365D01*
Y118929D01*
X10259D01*
Y118718D01*
X10153D01*
Y118612D01*
X9729D01*
Y118718D01*
X9623D01*
Y118824D01*
X9412D01*
Y118929D01*
X9200D01*
Y119035D01*
X9094D01*
Y119141D01*
X8882D01*
Y119247D01*
X8671D01*
Y119353D01*
X8459D01*
Y119459D01*
X8141D01*
Y119565D01*
X7824D01*
Y119671D01*
X7612D01*
Y119776D01*
X7400D01*
Y119988D01*
X7824D01*
Y119882D01*
X8353D01*
Y119776D01*
X8565D01*
Y119671D01*
X8777D01*
Y119565D01*
X9094D01*
Y119459D01*
X9518D01*
Y119353D01*
X10153D01*
Y119671D01*
X10047D01*
Y119988D01*
X9941D01*
Y120306D01*
X9835D01*
Y120624D01*
X9729D01*
Y120941D01*
X9623D01*
Y121153D01*
X9518D01*
Y121471D01*
X9412D01*
Y121682D01*
X9306D01*
Y121894D01*
X9200D01*
Y122106D01*
X9094D01*
Y122318D01*
X8988D01*
Y122529D01*
X8882D01*
Y122741D01*
X8777D01*
Y122953D01*
X8671D01*
Y123165D01*
X8565D01*
Y123694D01*
X8777D01*
Y123588D01*
X8882D01*
Y123482D01*
X8988D01*
Y123377D01*
X9094D01*
Y123271D01*
X9200D01*
Y123165D01*
X9306D01*
Y123059D01*
X9412D01*
Y122953D01*
X9518D01*
Y122847D01*
X9623D01*
Y122953D01*
X9729D01*
Y123165D01*
X10153D01*
Y123059D01*
X10365D01*
Y122953D01*
X10471D01*
Y122847D01*
X10576D01*
Y122741D01*
X10682D01*
Y122635D01*
X10788D01*
Y122424D01*
X10894D01*
Y122318D01*
X11000D01*
Y122953D01*
X11423D01*
Y122847D01*
X11635D01*
Y122741D01*
X11741D01*
Y122635D01*
X11847D01*
Y122529D01*
X11953D01*
Y122424D01*
X12059D01*
Y122318D01*
X12165D01*
Y122212D01*
X12271D01*
Y122106D01*
X12376D01*
Y121894D01*
X12482D01*
Y121682D01*
X12588D01*
Y121259D01*
X12482D01*
Y121471D01*
X12376D01*
Y121682D01*
X12271D01*
Y121894D01*
X12165D01*
Y122000D01*
X12059D01*
Y122106D01*
X11953D01*
Y122212D01*
X11847D01*
Y122318D01*
X11741D01*
Y122424D01*
X11635D01*
Y122529D01*
X11529D01*
Y122635D01*
X11318D01*
Y122741D01*
X11212D01*
Y122212D01*
X11318D01*
Y121894D01*
X11423D01*
Y121576D01*
X11529D01*
Y121365D01*
X11635D01*
Y121047D01*
X11741D01*
Y120835D01*
X11847D01*
Y120624D01*
X11953D01*
Y120412D01*
X12059D01*
Y120094D01*
X12165D01*
Y119671D01*
X11953D01*
Y119882D01*
X11847D01*
Y120094D01*
X11741D01*
Y120412D01*
X11635D01*
Y120729D01*
X11529D01*
Y120941D01*
X11423D01*
Y121259D01*
X11318D01*
Y121471D01*
X11212D01*
Y121682D01*
X11106D01*
Y121788D01*
X11000D01*
Y122000D01*
X10894D01*
Y122106D01*
X10788D01*
Y122212D01*
X10682D01*
Y122424D01*
X10576D01*
Y122529D01*
X10471D01*
Y122635D01*
X10365D01*
Y122741D01*
X10259D01*
Y122847D01*
X10153D01*
Y122953D01*
X9835D01*
Y122635D01*
X9941D01*
Y122318D01*
X10047D01*
Y122106D01*
X10153D01*
Y122000D01*
X10259D01*
Y121788D01*
X10365D01*
Y121576D01*
X10471D01*
Y121365D01*
X10576D01*
Y121153D01*
X10682D01*
Y121047D01*
X10576D01*
Y120941D01*
X10471D01*
Y121047D01*
X10365D01*
Y121259D01*
X10259D01*
Y121471D01*
X10153D01*
Y121682D01*
X10047D01*
Y121894D01*
X9941D01*
Y122000D01*
X9835D01*
Y122212D01*
X9729D01*
Y122318D01*
X9623D01*
Y122424D01*
X9518D01*
Y122635D01*
X9412D01*
Y122741D01*
X9306D01*
Y122847D01*
X9200D01*
Y122953D01*
X9094D01*
Y123059D01*
X8988D01*
Y123165D01*
X8882D01*
Y123059D01*
X8988D01*
Y122847D01*
X9094D01*
Y122635D01*
X9200D01*
Y122424D01*
X9306D01*
Y122212D01*
X9412D01*
Y122000D01*
X9518D01*
Y121788D01*
X9623D01*
Y121471D01*
X9729D01*
Y121259D01*
X9835D01*
Y120941D01*
X9941D01*
Y120624D01*
X10047D01*
Y120306D01*
X10153D01*
Y120094D01*
X10259D01*
Y119776D01*
X10365D01*
Y119247D01*
X10682D01*
Y119141D01*
X11212D01*
Y119035D01*
X11741D01*
Y118929D01*
X12376D01*
Y118824D01*
X13012D01*
Y118718D01*
X13647D01*
Y118612D01*
X14071D01*
Y118506D01*
X14600D01*
Y118400D01*
X15129D01*
Y118294D01*
X15553D01*
Y118400D01*
X15447D01*
Y118506D01*
X15341D01*
Y118612D01*
X15235D01*
Y118824D01*
X15129D01*
Y118929D01*
X15023D01*
Y119035D01*
X14918D01*
Y119141D01*
X14812D01*
Y119247D01*
X14706D01*
Y119459D01*
X14600D01*
Y119565D01*
X14494D01*
Y119671D01*
X14388D01*
Y119776D01*
X14282D01*
Y119988D01*
X14176D01*
Y120094D01*
X14071D01*
Y120200D01*
X13965D01*
Y120412D01*
X13859D01*
Y120518D01*
X13753D01*
Y120624D01*
X13647D01*
Y120835D01*
X13541D01*
Y120941D01*
X13435D01*
Y121153D01*
X13329D01*
Y121259D01*
X13224D01*
Y121471D01*
X13118D01*
Y121576D01*
X13012D01*
Y121788D01*
X12906D01*
Y121894D01*
X12800D01*
Y122106D01*
X12694D01*
Y122212D01*
X12588D01*
Y122424D01*
X12482D01*
Y122529D01*
X12376D01*
Y122635D01*
X12271D01*
Y122847D01*
X12165D01*
Y122953D01*
X12059D01*
Y123059D01*
X11953D01*
Y123271D01*
X11847D01*
Y123377D01*
X11741D01*
Y123588D01*
X11635D01*
Y123694D01*
X11529D01*
Y123906D01*
X11423D01*
Y124012D01*
X11318D01*
Y124118D01*
X11212D01*
Y124329D01*
X11106D01*
Y124435D01*
X11000D01*
Y124647D01*
X10894D01*
Y124753D01*
X10788D01*
Y124965D01*
X10682D01*
Y125071D01*
X10576D01*
Y125282D01*
X10471D01*
Y125388D01*
X10365D01*
Y125600D01*
X10153D01*
Y125494D01*
X9518D01*
Y125600D01*
X9200D01*
Y125706D01*
X8882D01*
Y125812D01*
X8777D01*
Y125918D01*
X8565D01*
Y126023D01*
X8353D01*
Y126129D01*
X8141D01*
Y126235D01*
X7929D01*
Y126341D01*
X7718D01*
Y126447D01*
X7400D01*
Y126553D01*
X7188D01*
Y126659D01*
X6871D01*
Y126765D01*
X6553D01*
Y126871D01*
X6129D01*
Y126977D01*
D02*
G37*
G36*
X9941Y119141D02*
X9518D01*
Y119035D01*
X9729D01*
Y118929D01*
X9941D01*
Y118824D01*
X10047D01*
Y119035D01*
X9941D01*
Y119141D01*
D02*
G37*
G36*
X16612Y117976D02*
X16294D01*
Y117765D01*
X16400D01*
Y117659D01*
X16612D01*
Y117765D01*
X16718D01*
Y117871D01*
X16612D01*
Y117976D01*
D02*
G37*
G36*
X8032Y139504D02*
X7996D01*
Y139468D01*
X8032D01*
Y139504D01*
D02*
G37*
G36*
X8613Y139068D02*
X8577D01*
Y139032D01*
X8613D01*
Y139068D01*
D02*
G37*
G36*
X8250Y138996D02*
X8214D01*
Y138959D01*
X8250D01*
Y138996D01*
D02*
G37*
G36*
X6070Y138887D02*
X6034D01*
Y138850D01*
X6070D01*
Y138887D01*
D02*
G37*
G36*
X6688Y138742D02*
X6652D01*
Y138705D01*
X6688D01*
Y138742D01*
D02*
G37*
G36*
X5962D02*
X5925D01*
Y138705D01*
X5962D01*
Y138742D01*
D02*
G37*
G36*
X8577Y139686D02*
X8541D01*
Y139650D01*
X8577D01*
Y139686D01*
D02*
G37*
G36*
X9158Y142083D02*
X9122D01*
Y142047D01*
X9158D01*
Y142083D01*
D02*
G37*
G36*
X6797Y143827D02*
X6761D01*
Y143791D01*
X6797D01*
Y143827D01*
D02*
G37*
G36*
X18421Y141502D02*
X18385D01*
Y141466D01*
X18421D01*
Y141429D01*
X18457D01*
Y141466D01*
X18421Y141502D01*
D02*
G37*
G36*
X17731Y141393D02*
X17694D01*
Y141357D01*
X17731D01*
Y141393D01*
D02*
G37*
G36*
X19293Y141321D02*
X19256D01*
Y141284D01*
X19293D01*
Y141321D01*
D02*
G37*
G36*
X17731D02*
X17694D01*
Y141284D01*
X17731D01*
Y141321D01*
D02*
G37*
G36*
X17404Y140957D02*
X17368D01*
Y140921D01*
X17404D01*
Y140957D01*
D02*
G37*
G36*
X15697Y145389D02*
X15660D01*
Y145353D01*
X15697D01*
Y145389D01*
D02*
G37*
G36*
X16024Y145207D02*
X15987D01*
Y145171D01*
X16024D01*
Y145207D01*
D02*
G37*
G36*
X15624Y145135D02*
X15588D01*
Y145098D01*
X15624D01*
Y145135D01*
D02*
G37*
G36*
X15370Y144808D02*
X15333D01*
Y144771D01*
X15370D01*
Y144808D01*
D02*
G37*
G36*
X14498Y143609D02*
X14461D01*
Y143573D01*
X14498D01*
Y143609D01*
D02*
G37*
G36*
X16169Y145571D02*
X16132D01*
Y145534D01*
X16169D01*
Y145571D01*
D02*
G37*
%LPD*%
M02*
