G04*
G04 #@! TF.GenerationSoftware,Altium Limited,Altium Designer,21.7.2 (23)*
G04*
G04 Layer_Color=16711935*
%FSLAX25Y25*%
%MOIN*%
G70*
G04*
G04 #@! TF.SameCoordinates,D6489F60-8050-45FC-BC62-49AB9328694B*
G04*
G04*
G04 #@! TF.FilePolarity,Negative*
G04*
G01*
G75*
%ADD49O,0.20485X0.08674*%
%ADD50C,0.04724*%
%ADD51O,0.04331X0.09055*%
%ADD52O,0.04331X0.07874*%
%ADD53C,0.05800*%
%ADD54C,0.03556*%
D49*
X36500Y31307D02*
D03*
Y65953D02*
D03*
D50*
X33583Y138201D02*
D03*
X56417D02*
D03*
D51*
X62028Y136232D02*
D03*
X27972D02*
D03*
D52*
Y152768D02*
D03*
X62028D02*
D03*
D53*
X86000Y24000D02*
D03*
X67500Y20000D02*
D03*
X9500Y30500D02*
D03*
X52500Y37500D02*
D03*
X28500Y57000D02*
D03*
X42000Y57500D02*
D03*
X57000Y88000D02*
D03*
X30500Y107000D02*
D03*
X23000Y124000D02*
D03*
X16000Y151500D02*
D03*
X75000Y130000D02*
D03*
X84000Y138000D02*
D03*
X80500Y149500D02*
D03*
X86500Y55500D02*
D03*
X77000Y27000D02*
D03*
X20000Y107500D02*
D03*
X83716Y122216D02*
D03*
D54*
X3500Y107500D02*
D03*
X48500Y63000D02*
D03*
X21500Y36000D02*
D03*
Y42000D02*
D03*
Y31000D02*
D03*
X80000Y91500D02*
D03*
X59000Y125594D02*
D03*
X60500Y40000D02*
D03*
X77000Y41000D02*
D03*
X34839Y112396D02*
D03*
X54839Y104396D02*
D03*
X66500Y104500D02*
D03*
X76500Y101500D02*
D03*
X79000Y76000D02*
D03*
X34500Y3000D02*
D03*
X71500Y97000D02*
D03*
X77237Y96845D02*
D03*
X77000Y65500D02*
D03*
X80000Y63000D02*
D03*
X54000Y81500D02*
D03*
X58000D02*
D03*
X27500Y77500D02*
D03*
X33500Y95500D02*
D03*
X55000Y125500D02*
D03*
X31000D02*
D03*
X35500D02*
D03*
M02*
