G04*
G04 #@! TF.GenerationSoftware,Altium Limited,Altium Designer,21.7.2 (23)*
G04*
G04 Layer_Color=8388736*
%FSLAX25Y25*%
%MOIN*%
G70*
G04*
G04 #@! TF.SameCoordinates,D6489F60-8050-45FC-BC62-49AB9328694B*
G04*
G04*
G04 #@! TF.FilePolarity,Negative*
G04*
G01*
G75*
G04:AMPARAMS|DCode=20|XSize=35.43mil|YSize=31.5mil|CornerRadius=1.58mil|HoleSize=0mil|Usage=FLASHONLY|Rotation=270.000|XOffset=0mil|YOffset=0mil|HoleType=Round|Shape=RoundedRectangle|*
%AMROUNDEDRECTD20*
21,1,0.03543,0.02835,0,0,270.0*
21,1,0.03228,0.03150,0,0,270.0*
1,1,0.00315,-0.01417,-0.01614*
1,1,0.00315,-0.01417,0.01614*
1,1,0.00315,0.01417,0.01614*
1,1,0.00315,0.01417,-0.01614*
%
%ADD20ROUNDEDRECTD20*%
%ADD32R,0.03556X0.03162*%
G04:AMPARAMS|DCode=33|XSize=31.62mil|YSize=35.56mil|CornerRadius=0mil|HoleSize=0mil|Usage=FLASHONLY|Rotation=45.000|XOffset=0mil|YOffset=0mil|HoleType=Round|Shape=Rectangle|*
%AMROTATEDRECTD33*
4,1,4,0.00139,-0.02375,-0.02375,0.00139,-0.00139,0.02375,0.02375,-0.00139,0.00139,-0.02375,0.0*
%
%ADD33ROTATEDRECTD33*%

G04:AMPARAMS|DCode=34|XSize=31.62mil|YSize=35.56mil|CornerRadius=0mil|HoleSize=0mil|Usage=FLASHONLY|Rotation=315.000|XOffset=0mil|YOffset=0mil|HoleType=Round|Shape=Rectangle|*
%AMROTATEDRECTD34*
4,1,4,-0.02375,-0.00139,0.00139,0.02375,0.02375,0.00139,-0.00139,-0.02375,-0.02375,-0.00139,0.0*
%
%ADD34ROTATEDRECTD34*%

%ADD35R,0.03950X0.04737*%
%ADD36R,0.03162X0.03556*%
%ADD37R,0.04934X0.03162*%
G04:AMPARAMS|DCode=38|XSize=13.78mil|YSize=31.5mil|CornerRadius=2.46mil|HoleSize=0mil|Usage=FLASHONLY|Rotation=135.000|XOffset=0mil|YOffset=0mil|HoleType=Round|Shape=RoundedRectangle|*
%AMROUNDEDRECTD38*
21,1,0.01378,0.02657,0,0,135.0*
21,1,0.00886,0.03150,0,0,135.0*
1,1,0.00492,0.00626,0.01253*
1,1,0.00492,0.01253,0.00626*
1,1,0.00492,-0.00626,-0.01253*
1,1,0.00492,-0.01253,-0.00626*
%
%ADD38ROUNDEDRECTD38*%
G04:AMPARAMS|DCode=39|XSize=13.78mil|YSize=31.5mil|CornerRadius=2.46mil|HoleSize=0mil|Usage=FLASHONLY|Rotation=225.000|XOffset=0mil|YOffset=0mil|HoleType=Round|Shape=RoundedRectangle|*
%AMROUNDEDRECTD39*
21,1,0.01378,0.02657,0,0,225.0*
21,1,0.00886,0.03150,0,0,225.0*
1,1,0.00492,-0.01253,0.00626*
1,1,0.00492,-0.00626,0.01253*
1,1,0.00492,0.01253,-0.00626*
1,1,0.00492,0.00626,-0.01253*
%
%ADD39ROUNDEDRECTD39*%
G04:AMPARAMS|DCode=40|XSize=141.34mil|YSize=141.34mil|CornerRadius=9.55mil|HoleSize=0mil|Usage=FLASHONLY|Rotation=225.000|XOffset=0mil|YOffset=0mil|HoleType=Round|Shape=RoundedRectangle|*
%AMROUNDEDRECTD40*
21,1,0.14134,0.12224,0,0,225.0*
21,1,0.12224,0.14134,0,0,225.0*
1,1,0.01909,-0.08644,0.00000*
1,1,0.01909,0.00000,0.08644*
1,1,0.01909,0.08644,0.00000*
1,1,0.01909,0.00000,-0.08644*
%
%ADD40ROUNDEDRECTD40*%
%ADD41R,0.02205X0.04567*%
%ADD42R,0.07296X0.01784*%
%ADD43R,0.03359X0.04934*%
%ADD44R,0.03465X0.07008*%
%ADD45R,0.02913X0.06457*%
%ADD46R,0.02284X0.07008*%
%ADD47R,0.04737X0.03950*%
%ADD48R,0.03162X0.05524*%
%ADD49O,0.20485X0.08674*%
%ADD50C,0.04724*%
%ADD51O,0.04331X0.09055*%
%ADD52O,0.04331X0.07874*%
%ADD53C,0.05800*%
%ADD54C,0.03556*%
D20*
X27646Y90142D02*
D03*
Y82858D02*
D03*
X33354Y90142D02*
D03*
Y82858D02*
D03*
D32*
X45500Y87968D02*
D03*
Y84031D02*
D03*
X43500Y40532D02*
D03*
Y44469D02*
D03*
X27500Y54469D02*
D03*
Y50532D02*
D03*
X43500Y54469D02*
D03*
Y50532D02*
D03*
X27500Y40031D02*
D03*
Y43968D02*
D03*
X54500Y24468D02*
D03*
Y20531D02*
D03*
X44500Y24468D02*
D03*
Y20531D02*
D03*
X34500Y24468D02*
D03*
Y20531D02*
D03*
X74000Y35469D02*
D03*
Y31532D02*
D03*
X71000Y140969D02*
D03*
Y137031D02*
D03*
X71500Y149000D02*
D03*
Y152937D02*
D03*
X51000Y75968D02*
D03*
Y72031D02*
D03*
X56500Y75968D02*
D03*
Y72031D02*
D03*
X60500Y108531D02*
D03*
Y112469D02*
D03*
X55000Y108531D02*
D03*
Y112469D02*
D03*
X40000Y89000D02*
D03*
Y92937D02*
D03*
Y83969D02*
D03*
Y80032D02*
D03*
X80000Y86468D02*
D03*
Y82531D02*
D03*
D33*
X49608Y58608D02*
D03*
X52392Y61392D02*
D03*
D34*
X82108Y72392D02*
D03*
X84892Y69608D02*
D03*
D35*
X80547Y31500D02*
D03*
X86453D02*
D03*
X32547Y38000D02*
D03*
X38453D02*
D03*
D36*
X33531Y50500D02*
D03*
X37468D02*
D03*
X33531Y44000D02*
D03*
X37468D02*
D03*
X9532Y107500D02*
D03*
X13468D02*
D03*
X59969Y118000D02*
D03*
X56032D02*
D03*
X79532Y101500D02*
D03*
X83469D02*
D03*
X86468Y44000D02*
D03*
X82531D02*
D03*
X12968Y140500D02*
D03*
X9031D02*
D03*
X86468Y38500D02*
D03*
X82531D02*
D03*
D37*
X73283Y115240D02*
D03*
Y111500D02*
D03*
Y107760D02*
D03*
X83716D02*
D03*
Y115240D02*
D03*
D38*
X56394Y51381D02*
D03*
X57786Y49989D02*
D03*
X59178Y48597D02*
D03*
X60570Y47205D02*
D03*
X61962Y45813D02*
D03*
X63354Y44421D02*
D03*
X64745Y43029D02*
D03*
X66137Y41637D02*
D03*
X79500Y55000D02*
D03*
X78108Y56392D02*
D03*
X76716Y57784D02*
D03*
X75324Y59176D02*
D03*
X73932Y60568D02*
D03*
X72540Y61960D02*
D03*
X71148Y63352D02*
D03*
X69756Y64744D02*
D03*
D39*
Y41637D02*
D03*
X71148Y43029D02*
D03*
X72540Y44421D02*
D03*
X73932Y45813D02*
D03*
X75324Y47205D02*
D03*
X76716Y48597D02*
D03*
X78108Y49989D02*
D03*
X79500Y51381D02*
D03*
X66137Y64744D02*
D03*
X64745Y63352D02*
D03*
X63354Y61960D02*
D03*
X61962Y60568D02*
D03*
X60570Y59176D02*
D03*
X59178Y57784D02*
D03*
X57786Y56392D02*
D03*
X56394Y55000D02*
D03*
D40*
X67947Y53190D02*
D03*
D41*
X70095Y91130D02*
D03*
X72063D02*
D03*
X74032D02*
D03*
X76000D02*
D03*
X70095Y80500D02*
D03*
X72063D02*
D03*
X74032D02*
D03*
X76000D02*
D03*
D42*
X73047Y85815D02*
D03*
D43*
X15232Y132169D02*
D03*
Y115831D02*
D03*
X6768Y132169D02*
D03*
Y115831D02*
D03*
D44*
X54449Y133280D02*
D03*
X35551D02*
D03*
D45*
X57598D02*
D03*
X32402D02*
D03*
D46*
X51890D02*
D03*
X49921D02*
D03*
X47953D02*
D03*
X38110D02*
D03*
X40079D02*
D03*
X42047D02*
D03*
X44016D02*
D03*
X45984D02*
D03*
D47*
X54500Y12953D02*
D03*
Y7047D02*
D03*
X44500Y12953D02*
D03*
Y7047D02*
D03*
X34500Y12953D02*
D03*
Y7047D02*
D03*
X66500Y114453D02*
D03*
Y108547D02*
D03*
X86000Y82047D02*
D03*
Y87953D02*
D03*
D48*
X41020Y107445D02*
D03*
X44760D02*
D03*
X48500D02*
D03*
Y116500D02*
D03*
X44760D02*
D03*
X41020D02*
D03*
D49*
X36500Y31307D02*
D03*
Y65953D02*
D03*
D50*
X33583Y138201D02*
D03*
X56417D02*
D03*
D51*
X62028Y136232D02*
D03*
X27972D02*
D03*
D52*
Y152768D02*
D03*
X62028D02*
D03*
D53*
X86000Y24000D02*
D03*
X67500Y20000D02*
D03*
X9500Y30500D02*
D03*
X52500Y37500D02*
D03*
X28500Y57000D02*
D03*
X42000Y57500D02*
D03*
X57000Y88000D02*
D03*
X30500Y107000D02*
D03*
X23000Y124000D02*
D03*
X16000Y151500D02*
D03*
X75000Y130000D02*
D03*
X84000Y138000D02*
D03*
X80500Y149500D02*
D03*
X86500Y55500D02*
D03*
X77000Y27000D02*
D03*
X20000Y107500D02*
D03*
X83716Y122216D02*
D03*
D54*
X3500Y107500D02*
D03*
X48500Y63000D02*
D03*
X21500Y36000D02*
D03*
Y42000D02*
D03*
Y31000D02*
D03*
X80000Y91500D02*
D03*
X59000Y125594D02*
D03*
X60500Y40000D02*
D03*
X77000Y41000D02*
D03*
X34839Y112396D02*
D03*
X54839Y104396D02*
D03*
X66500Y104500D02*
D03*
X76500Y101500D02*
D03*
X79000Y76000D02*
D03*
X34500Y3000D02*
D03*
X71500Y97000D02*
D03*
X77237Y96845D02*
D03*
X77000Y65500D02*
D03*
X80000Y63000D02*
D03*
X54000Y81500D02*
D03*
X58000D02*
D03*
X27500Y77500D02*
D03*
X33500Y95500D02*
D03*
X55000Y125500D02*
D03*
X31000D02*
D03*
X35500D02*
D03*
M02*
