G04*
G04 #@! TF.GenerationSoftware,Altium Limited,Altium Designer,21.7.2 (23)*
G04*
G04 Layer_Physical_Order=3*
G04 Layer_Color=16440176*
%FSLAX25Y25*%
%MOIN*%
G70*
G04*
G04 #@! TF.SameCoordinates,D6489F60-8050-45FC-BC62-49AB9328694B*
G04*
G04*
G04 #@! TF.FilePolarity,Positive*
G04*
G01*
G75*
%ADD73O,0.19685X0.07874*%
%ADD77C,0.05000*%
%ADD78C,0.02756*%
%ADD79C,0.02559*%
G36*
X70562Y160109D02*
X73177Y159335D01*
X75654Y158194D01*
X76797Y157452D01*
X76798Y157452D01*
X77586Y156941D01*
X79077Y155801D01*
X80476Y154549D01*
X81774Y153192D01*
X82368Y152465D01*
X82368D01*
X82369Y152465D01*
X82925Y151787D01*
X83917Y150337D01*
X84782Y148808D01*
X85512Y147211D01*
X86103Y145557D01*
X86550Y143858D01*
X86849Y142128D01*
X86999Y140378D01*
X86999Y139500D01*
X86999Y139500D01*
X87000Y139499D01*
Y124529D01*
X86579Y124387D01*
X86500Y124383D01*
X85866Y125017D01*
X85067Y125478D01*
X84177Y125716D01*
X83256D01*
X82366Y125478D01*
X81568Y125017D01*
X80916Y124366D01*
X80455Y123567D01*
X80216Y122677D01*
Y121756D01*
X80455Y120866D01*
X80916Y120068D01*
X81568Y119416D01*
X82366Y118955D01*
X83256Y118717D01*
X84177D01*
X85067Y118955D01*
X85866Y119416D01*
X86500Y120050D01*
X86579Y120046D01*
X87000Y119904D01*
X87000Y59030D01*
X86961Y59000D01*
X86039D01*
X85149Y58762D01*
X84351Y58301D01*
X83699Y57649D01*
X83239Y56851D01*
X83000Y55961D01*
Y55039D01*
X83239Y54149D01*
X83699Y53351D01*
X84351Y52699D01*
X85149Y52239D01*
X86039Y52000D01*
X86500D01*
X87000Y51516D01*
Y22500D01*
X86917Y21214D01*
X86444Y18680D01*
X85670Y16222D01*
X84607Y13874D01*
X83271Y11670D01*
X81680Y9642D01*
X79857Y7820D01*
X77830Y6229D01*
X75626Y4893D01*
X73278Y3830D01*
X70819Y3056D01*
X68286Y2583D01*
X67000Y2500D01*
X67000Y2500D01*
X67000Y2500D01*
X63428D01*
X63395Y3000D01*
X65652Y3297D01*
X65716Y3319D01*
X65783Y3323D01*
X68062Y3934D01*
X68123Y3964D01*
X68189Y3977D01*
X70368Y4880D01*
X70424Y4917D01*
X70488Y4939D01*
X72531Y6118D01*
X72582Y6163D01*
X72642Y6193D01*
X74514Y7629D01*
X74559Y7679D01*
X74615Y7717D01*
X76283Y9385D01*
X76320Y9441D01*
X76371Y9486D01*
X77807Y11358D01*
X77837Y11418D01*
X77882Y11468D01*
X79061Y13512D01*
X79083Y13576D01*
X79120Y13632D01*
X80023Y15811D01*
X80036Y15877D01*
X80066Y15938D01*
X80677Y18217D01*
X80681Y18284D01*
X80703Y18348D01*
X81011Y20687D01*
X81006Y20754D01*
X81020Y20820D01*
Y22000D01*
X80942Y22390D01*
X80721Y22721D01*
X80390Y22942D01*
X80000Y23020D01*
X77600D01*
X77534Y23520D01*
X78351Y23739D01*
X79149Y24199D01*
X79801Y24851D01*
X80261Y25649D01*
X80500Y26539D01*
Y27461D01*
X80261Y28351D01*
X79801Y29149D01*
X79149Y29801D01*
X78351Y30261D01*
X77461Y30500D01*
X76539D01*
X75649Y30261D01*
X74851Y29801D01*
X74199Y29149D01*
X73738Y28351D01*
X73500Y27461D01*
Y26539D01*
X73738Y25649D01*
X74199Y24851D01*
X74851Y24199D01*
X75649Y23739D01*
X76466Y23520D01*
X76400Y23020D01*
X74000D01*
X73821Y22984D01*
X73641Y22954D01*
X73627Y22945D01*
X73610Y22942D01*
X73458Y22840D01*
X73303Y22744D01*
X73293Y22730D01*
X73279Y22721D01*
X73178Y22569D01*
X73071Y22421D01*
X73067Y22404D01*
X73058Y22390D01*
X73022Y22211D01*
X72981Y22033D01*
X72957Y21299D01*
X72767Y19858D01*
X72396Y18471D01*
X71846Y17144D01*
X71128Y15901D01*
X70254Y14762D01*
X69238Y13746D01*
X68099Y12872D01*
X66856Y12154D01*
X65529Y11604D01*
X64142Y11233D01*
X62701Y11043D01*
X61967Y11019D01*
X61789Y10978D01*
X61610Y10942D01*
X61596Y10933D01*
X61579Y10929D01*
X61431Y10822D01*
X61279Y10721D01*
X61270Y10707D01*
X61256Y10697D01*
X61159Y10542D01*
X61058Y10390D01*
X61055Y10373D01*
X61046Y10359D01*
X61016Y10179D01*
X60980Y10000D01*
Y4000D01*
X61058Y3610D01*
X61279Y3279D01*
X61610Y3058D01*
X61901Y3000D01*
X61852Y2500D01*
X37367Y2500D01*
X36878Y3000D01*
Y3473D01*
X36516Y4347D01*
X35847Y5016D01*
X34973Y5378D01*
X34027D01*
X33153Y5016D01*
X32484Y4347D01*
X32122Y3473D01*
Y2527D01*
X32104Y2500D01*
X28148D01*
X28098Y3000D01*
X28390Y3058D01*
X28721Y3279D01*
X28942Y3610D01*
X29020Y4000D01*
Y10000D01*
X28984Y10179D01*
X28954Y10359D01*
X28945Y10373D01*
X28942Y10390D01*
X28841Y10542D01*
X28744Y10697D01*
X28730Y10707D01*
X28721Y10721D01*
X28569Y10822D01*
X28421Y10929D01*
X28404Y10933D01*
X28390Y10942D01*
X28211Y10978D01*
X28033Y11019D01*
X27299Y11043D01*
X25858Y11233D01*
X24471Y11604D01*
X23144Y12154D01*
X21901Y12872D01*
X20762Y13746D01*
X19746Y14762D01*
X18872Y15901D01*
X18154Y17144D01*
X17604Y18471D01*
X17233Y19858D01*
X17043Y21299D01*
X17019Y22033D01*
X16978Y22211D01*
X16942Y22390D01*
X16933Y22404D01*
X16929Y22421D01*
X16822Y22569D01*
X16721Y22721D01*
X16707Y22730D01*
X16697Y22744D01*
X16542Y22840D01*
X16390Y22942D01*
X16374Y22945D01*
X16359Y22954D01*
X16179Y22984D01*
X16000Y23020D01*
X10000D01*
X9610Y22942D01*
X9279Y22721D01*
X9058Y22390D01*
X8980Y22000D01*
Y20820D01*
X8993Y20754D01*
X8989Y20687D01*
X9297Y18348D01*
X9319Y18284D01*
X9323Y18217D01*
X9934Y15938D01*
X9964Y15877D01*
X9977Y15811D01*
X10880Y13632D01*
X10917Y13576D01*
X10939Y13512D01*
X12118Y11468D01*
X12163Y11418D01*
X12192Y11358D01*
X13629Y9486D01*
X13679Y9441D01*
X13717Y9385D01*
X15385Y7717D01*
X15441Y7679D01*
X15486Y7629D01*
X17358Y6193D01*
X17418Y6163D01*
X17469Y6118D01*
X19512Y4939D01*
X19576Y4917D01*
X19632Y4880D01*
X21812Y3977D01*
X21877Y3964D01*
X21938Y3934D01*
X24217Y3323D01*
X24284Y3319D01*
X24348Y3297D01*
X26605Y3000D01*
X26572Y2500D01*
X22500D01*
X21091Y2565D01*
X18314Y3063D01*
X15625Y3919D01*
X13072Y5119D01*
X10696Y6642D01*
X8540Y8461D01*
X6640Y10547D01*
X5028Y12863D01*
X3733Y15369D01*
X2775Y18023D01*
X2172Y20779D01*
X1934Y23591D01*
X2000Y25000D01*
Y35635D01*
X2011Y36120D01*
X2404Y37006D01*
X3108Y37673D01*
X4015Y38016D01*
X4500Y38000D01*
X4500Y38000D01*
X6250Y37991D01*
X9749Y37979D01*
X13249Y37976D01*
X16748Y37982D01*
X18498Y37988D01*
X18498Y37988D01*
X18986Y38038D01*
X19889Y38415D01*
X20579Y39107D01*
X20952Y40011D01*
X21000Y40500D01*
X21000Y40500D01*
X21000Y97414D01*
X20920Y97881D01*
X20635Y98782D01*
X20193Y99618D01*
X19609Y100361D01*
X18900Y100986D01*
X18090Y101474D01*
X17206Y101809D01*
X16275Y101979D01*
X15803Y102000D01*
X15803Y102000D01*
X15803Y102000D01*
X5106Y102000D01*
X4333Y102154D01*
X3605Y102455D01*
X2950Y102893D01*
X2393Y103450D01*
X1955Y104105D01*
X1654Y104833D01*
X1544Y105386D01*
X2004Y105633D01*
X2153Y105484D01*
X3027Y105122D01*
X3973D01*
X4847Y105484D01*
X5516Y106153D01*
X5878Y107027D01*
Y107973D01*
X5516Y108847D01*
X4847Y109516D01*
X3973Y109878D01*
X3027D01*
X2153Y109516D01*
X1962Y109325D01*
X1500Y109516D01*
Y141641D01*
X1500Y142067D01*
X1563Y142917D01*
X1688Y143761D01*
X1876Y144592D01*
X2000Y145000D01*
X2404Y146055D01*
X3403Y148080D01*
X4587Y150003D01*
X5944Y151809D01*
X7463Y153480D01*
X9130Y155004D01*
X10931Y156366D01*
X12852Y157555D01*
X14874Y158561D01*
X16981Y159374D01*
X19154Y159988D01*
X21375Y160398D01*
X22500Y160499D01*
X22500Y160499D01*
X66500Y160500D01*
X67864Y160500D01*
X70562Y160109D01*
D02*
G37*
%LPC*%
G36*
X62028Y157534D02*
X61253Y157431D01*
X60531Y157132D01*
X59910Y156657D01*
X59435Y156036D01*
X59136Y155314D01*
X59033Y154539D01*
Y150996D01*
X59136Y150221D01*
X59435Y149499D01*
X59910Y148879D01*
X60531Y148403D01*
X61253Y148104D01*
X62028Y148002D01*
X62802Y148104D01*
X63525Y148403D01*
X64145Y148879D01*
X64621Y149499D01*
X64920Y150221D01*
X65022Y150996D01*
Y154539D01*
X64920Y155314D01*
X64621Y156036D01*
X64145Y156657D01*
X63525Y157132D01*
X62802Y157431D01*
X62028Y157534D01*
D02*
G37*
G36*
X27972D02*
X27198Y157431D01*
X26475Y157132D01*
X25855Y156657D01*
X25379Y156036D01*
X25080Y155314D01*
X24978Y154539D01*
Y150996D01*
X25080Y150221D01*
X25379Y149499D01*
X25855Y148879D01*
X26475Y148403D01*
X27198Y148104D01*
X27972Y148002D01*
X28747Y148104D01*
X29469Y148403D01*
X30090Y148879D01*
X30565Y149499D01*
X30865Y150221D01*
X30967Y150996D01*
Y154539D01*
X30865Y155314D01*
X30565Y156036D01*
X30090Y156657D01*
X29469Y157132D01*
X28747Y157431D01*
X27972Y157534D01*
D02*
G37*
G36*
X62028Y141589D02*
X61253Y141487D01*
X60531Y141188D01*
X59910Y140712D01*
X59435Y140092D01*
X59136Y139369D01*
X59060Y138799D01*
X58550Y138752D01*
X58266Y139436D01*
X57653Y140050D01*
X56851Y140382D01*
X55984D01*
X55182Y140050D01*
X54568Y139436D01*
X54236Y138635D01*
Y137767D01*
X54568Y136965D01*
X55182Y136352D01*
X55984Y136020D01*
X56851D01*
X57653Y136352D01*
X58266Y136965D01*
X58533Y137610D01*
X59033Y137511D01*
Y133870D01*
X59136Y133095D01*
X59435Y132373D01*
X59910Y131753D01*
X60531Y131277D01*
X61253Y130978D01*
X62028Y130876D01*
X62802Y130978D01*
X63525Y131277D01*
X64145Y131753D01*
X64621Y132373D01*
X64920Y133095D01*
X65022Y133870D01*
Y138594D01*
X64920Y139369D01*
X64621Y140092D01*
X64145Y140712D01*
X63525Y141188D01*
X62802Y141487D01*
X62028Y141589D01*
D02*
G37*
G36*
X27972D02*
X27198Y141487D01*
X26475Y141188D01*
X25855Y140712D01*
X25379Y140092D01*
X25080Y139369D01*
X24978Y138594D01*
Y133870D01*
X25080Y133095D01*
X25379Y132373D01*
X25855Y131753D01*
X26475Y131277D01*
X27198Y130978D01*
X27972Y130876D01*
X28747Y130978D01*
X29469Y131277D01*
X30090Y131753D01*
X30565Y132373D01*
X30865Y133095D01*
X30967Y133870D01*
Y137511D01*
X31467Y137610D01*
X31734Y136965D01*
X32347Y136352D01*
X33149Y136020D01*
X34016D01*
X34818Y136352D01*
X35432Y136965D01*
X35764Y137767D01*
Y138635D01*
X35432Y139436D01*
X34818Y140050D01*
X34016Y140382D01*
X33149D01*
X32347Y140050D01*
X31734Y139436D01*
X31450Y138752D01*
X30940Y138799D01*
X30865Y139369D01*
X30565Y140092D01*
X30090Y140712D01*
X29469Y141188D01*
X28747Y141487D01*
X27972Y141589D01*
D02*
G37*
G36*
X55473Y127878D02*
X54527D01*
X53653Y127516D01*
X52984Y126847D01*
X52622Y125973D01*
Y125027D01*
X52984Y124153D01*
X53653Y123484D01*
X54527Y123122D01*
X55473D01*
X56347Y123484D01*
X57016Y124153D01*
X57378Y125027D01*
Y125973D01*
X57016Y126847D01*
X56347Y127516D01*
X55473Y127878D01*
D02*
G37*
G36*
X35973D02*
X35027D01*
X34153Y127516D01*
X33484Y126847D01*
X33122Y125973D01*
Y125027D01*
X33484Y124153D01*
X34153Y123484D01*
X35027Y123122D01*
X35973D01*
X36847Y123484D01*
X37516Y124153D01*
X37878Y125027D01*
Y125973D01*
X37516Y126847D01*
X36847Y127516D01*
X35973Y127878D01*
D02*
G37*
G36*
X20461Y111000D02*
X19539D01*
X18649Y110761D01*
X17851Y110301D01*
X17199Y109649D01*
X16738Y108851D01*
X16500Y107961D01*
Y107039D01*
X16738Y106149D01*
X17199Y105351D01*
X17851Y104699D01*
X18649Y104238D01*
X19539Y104000D01*
X20461D01*
X21351Y104238D01*
X22149Y104699D01*
X22801Y105351D01*
X23261Y106149D01*
X23500Y107039D01*
Y107961D01*
X23261Y108851D01*
X22801Y109649D01*
X22149Y110301D01*
X21351Y110761D01*
X20461Y111000D01*
D02*
G37*
G36*
X71973Y99378D02*
X71027D01*
X70153Y99016D01*
X69484Y98347D01*
X69122Y97473D01*
Y96527D01*
X69484Y95653D01*
X70153Y94984D01*
X71027Y94622D01*
X71973D01*
X72847Y94984D01*
X73516Y95653D01*
X73878Y96527D01*
Y97473D01*
X73516Y98347D01*
X72847Y99016D01*
X71973Y99378D01*
D02*
G37*
G36*
X77710Y99222D02*
X76764D01*
X75890Y98861D01*
X75221Y98192D01*
X74859Y97318D01*
Y96372D01*
X75221Y95498D01*
X75890Y94829D01*
X76764Y94467D01*
X77710D01*
X78584Y94829D01*
X79253Y95498D01*
X79615Y96372D01*
Y97318D01*
X79253Y98192D01*
X78584Y98861D01*
X77710Y99222D01*
D02*
G37*
G36*
X58473Y83878D02*
X57527D01*
X56653Y83516D01*
X56000Y82863D01*
X55347Y83516D01*
X54473Y83878D01*
X53527D01*
X52653Y83516D01*
X51984Y82847D01*
X51622Y81973D01*
Y81027D01*
X51984Y80153D01*
X52653Y79484D01*
X53527Y79122D01*
X54473D01*
X55347Y79484D01*
X56000Y80137D01*
X56653Y79484D01*
X57527Y79122D01*
X58473D01*
X59347Y79484D01*
X60016Y80153D01*
X60378Y81027D01*
Y81973D01*
X60016Y82847D01*
X59347Y83516D01*
X58473Y83878D01*
D02*
G37*
G36*
X77473Y67878D02*
X76527D01*
X75653Y67516D01*
X74984Y66847D01*
X74622Y65973D01*
Y65027D01*
X74984Y64153D01*
X75653Y63484D01*
X76527Y63122D01*
X77473D01*
X77622Y63023D01*
Y62527D01*
X77984Y61653D01*
X78653Y60984D01*
X79527Y60622D01*
X80473D01*
X81347Y60984D01*
X82016Y61653D01*
X82378Y62527D01*
Y63473D01*
X82016Y64347D01*
X81347Y65016D01*
X80473Y65378D01*
X79527D01*
X79378Y65478D01*
Y65973D01*
X79016Y66847D01*
X78347Y67516D01*
X77473Y67878D01*
D02*
G37*
G36*
X48973Y65378D02*
X48027D01*
X47153Y65016D01*
X46484Y64347D01*
X46122Y63473D01*
Y62527D01*
X46484Y61653D01*
X47153Y60984D01*
X48027Y60622D01*
X48973D01*
X49847Y60984D01*
X50516Y61653D01*
X50878Y62527D01*
Y63473D01*
X50516Y64347D01*
X49847Y65016D01*
X48973Y65378D01*
D02*
G37*
G36*
X77473Y43378D02*
X76527D01*
X75653Y43016D01*
X74984Y42347D01*
X74622Y41473D01*
Y40527D01*
X74984Y39653D01*
X75653Y38984D01*
X76527Y38622D01*
X77473D01*
X78347Y38984D01*
X79016Y39653D01*
X79378Y40527D01*
Y41473D01*
X79016Y42347D01*
X78347Y43016D01*
X77473Y43378D01*
D02*
G37*
G36*
X60973Y42378D02*
X60027D01*
X59153Y42016D01*
X58484Y41347D01*
X58122Y40473D01*
Y39527D01*
X58484Y38653D01*
X59153Y37984D01*
X60027Y37622D01*
X60973D01*
X61847Y37984D01*
X62516Y38653D01*
X62878Y39527D01*
Y40473D01*
X62516Y41347D01*
X61847Y42016D01*
X60973Y42378D01*
D02*
G37*
G36*
X21973Y33378D02*
X21027D01*
X20153Y33016D01*
X19484Y32347D01*
X19122Y31473D01*
Y30527D01*
X19484Y29653D01*
X20153Y28984D01*
X21027Y28622D01*
X21973D01*
X22847Y28984D01*
X23516Y29653D01*
X23878Y30527D01*
Y31473D01*
X23516Y32347D01*
X22847Y33016D01*
X21973Y33378D01*
D02*
G37*
G36*
X42406Y36287D02*
X30595D01*
X29306Y36117D01*
X28105Y35620D01*
X27073Y34828D01*
X26282Y33797D01*
X25785Y32596D01*
X25615Y31307D01*
X25785Y30018D01*
X26282Y28817D01*
X27073Y27786D01*
X28105Y26995D01*
X29306Y26497D01*
X30595Y26327D01*
X42406D01*
X43694Y26497D01*
X44895Y26995D01*
X45927Y27786D01*
X46718Y28817D01*
X47215Y30018D01*
X47385Y31307D01*
X47215Y32596D01*
X46718Y33797D01*
X45927Y34828D01*
X44895Y35620D01*
X43694Y36117D01*
X42406Y36287D01*
D02*
G37*
%LPD*%
D73*
X36500Y65953D02*
D03*
D77*
X86000Y24000D02*
D03*
X67500Y20000D02*
D03*
X9500Y30500D02*
D03*
X52500Y37500D02*
D03*
X28500Y57000D02*
D03*
X42000Y57500D02*
D03*
X57000Y88000D02*
D03*
X30500Y107000D02*
D03*
X23000Y124000D02*
D03*
X16000Y151500D02*
D03*
X75000Y130000D02*
D03*
X84000Y138000D02*
D03*
X80500Y149500D02*
D03*
D78*
X21500Y36000D02*
D03*
Y42000D02*
D03*
X80000Y91500D02*
D03*
X59000Y125594D02*
D03*
X34839Y112396D02*
D03*
X54839Y104396D02*
D03*
X66500Y104500D02*
D03*
X76500Y101500D02*
D03*
X79000Y76000D02*
D03*
X27500Y77500D02*
D03*
X33500Y95500D02*
D03*
X31000Y125500D02*
D03*
D79*
X74907Y53190D02*
D03*
X71427Y56670D02*
D03*
X67947Y60150D02*
D03*
X60987Y53190D02*
D03*
X64467Y49711D02*
D03*
X67947Y46231D02*
D03*
X71427Y49711D02*
D03*
X64467Y56670D02*
D03*
X67947Y53190D02*
D03*
M02*
