G04*
G04 #@! TF.GenerationSoftware,Altium Limited,Altium Designer,21.7.2 (23)*
G04*
G04 Layer_Color=8421504*
%FSLAX25Y25*%
%MOIN*%
G70*
G04*
G04 #@! TF.SameCoordinates,D6489F60-8050-45FC-BC62-49AB9328694B*
G04*
G04*
G04 #@! TF.FilePolarity,Positive*
G04*
G01*
G75*
%ADD14R,0.06299X0.00787*%
%ADD15R,0.02756X0.02362*%
G04:AMPARAMS|DCode=16|XSize=23.62mil|YSize=27.56mil|CornerRadius=0mil|HoleSize=0mil|Usage=FLASHONLY|Rotation=45.000|XOffset=0mil|YOffset=0mil|HoleType=Round|Shape=Rectangle|*
%AMROTATEDRECTD16*
4,1,4,0.00139,-0.01810,-0.01810,0.00139,-0.00139,0.01810,0.01810,-0.00139,0.00139,-0.01810,0.0*
%
%ADD16ROTATEDRECTD16*%

G04:AMPARAMS|DCode=17|XSize=23.62mil|YSize=27.56mil|CornerRadius=0mil|HoleSize=0mil|Usage=FLASHONLY|Rotation=315.000|XOffset=0mil|YOffset=0mil|HoleType=Round|Shape=Rectangle|*
%AMROTATEDRECTD17*
4,1,4,-0.01810,-0.00139,0.00139,0.01810,0.01810,0.00139,-0.00139,-0.01810,-0.01810,-0.00139,0.0*
%
%ADD17ROTATEDRECTD17*%

%ADD18R,0.03150X0.03937*%
%ADD19R,0.02362X0.02756*%
G04:AMPARAMS|DCode=20|XSize=35.43mil|YSize=31.5mil|CornerRadius=1.58mil|HoleSize=0mil|Usage=FLASHONLY|Rotation=270.000|XOffset=0mil|YOffset=0mil|HoleType=Round|Shape=RoundedRectangle|*
%AMROUNDEDRECTD20*
21,1,0.03543,0.02835,0,0,270.0*
21,1,0.03228,0.03150,0,0,270.0*
1,1,0.00315,-0.01417,-0.01614*
1,1,0.00315,-0.01417,0.01614*
1,1,0.00315,0.01417,0.01614*
1,1,0.00315,0.01417,-0.01614*
%
%ADD20ROUNDEDRECTD20*%
%ADD21R,0.04134X0.02362*%
G04:AMPARAMS|DCode=22|XSize=9.84mil|YSize=27.56mil|CornerRadius=0.49mil|HoleSize=0mil|Usage=FLASHONLY|Rotation=135.000|XOffset=0mil|YOffset=0mil|HoleType=Round|Shape=RoundedRectangle|*
%AMROUNDEDRECTD22*
21,1,0.00984,0.02657,0,0,135.0*
21,1,0.00886,0.02756,0,0,135.0*
1,1,0.00098,0.00626,0.01253*
1,1,0.00098,0.01253,0.00626*
1,1,0.00098,-0.00626,-0.01253*
1,1,0.00098,-0.01253,-0.00626*
%
%ADD22ROUNDEDRECTD22*%
G04:AMPARAMS|DCode=23|XSize=9.84mil|YSize=27.56mil|CornerRadius=0.49mil|HoleSize=0mil|Usage=FLASHONLY|Rotation=225.000|XOffset=0mil|YOffset=0mil|HoleType=Round|Shape=RoundedRectangle|*
%AMROUNDEDRECTD23*
21,1,0.00984,0.02657,0,0,225.0*
21,1,0.00886,0.02756,0,0,225.0*
1,1,0.00098,-0.01253,0.00626*
1,1,0.00098,-0.00626,0.01253*
1,1,0.00098,0.01253,-0.00626*
1,1,0.00098,0.00626,-0.01253*
%
%ADD23ROUNDEDRECTD23*%
G04:AMPARAMS|DCode=24|XSize=135.83mil|YSize=135.83mil|CornerRadius=6.79mil|HoleSize=0mil|Usage=FLASHONLY|Rotation=225.000|XOffset=0mil|YOffset=0mil|HoleType=Round|Shape=RoundedRectangle|*
%AMROUNDEDRECTD24*
21,1,0.13583,0.12224,0,0,225.0*
21,1,0.12224,0.13583,0,0,225.0*
1,1,0.01358,-0.08644,0.00000*
1,1,0.01358,0.00000,0.08644*
1,1,0.01358,0.08644,0.00000*
1,1,0.01358,0.00000,-0.08644*
%
%ADD24ROUNDEDRECTD24*%
%ADD25R,0.01181X0.03543*%
%ADD26R,0.05709X0.00197*%
%ADD27R,0.02559X0.04134*%
%ADD28R,0.02362X0.05906*%
%ADD29R,0.01181X0.05906*%
%ADD30R,0.03937X0.03150*%
%ADD31R,0.02362X0.04724*%
D14*
X73047Y85815D02*
D03*
D15*
X45500Y87968D02*
D03*
Y84031D02*
D03*
X43500Y40532D02*
D03*
Y44469D02*
D03*
X27500Y54469D02*
D03*
Y50532D02*
D03*
X43500Y54469D02*
D03*
Y50532D02*
D03*
X27500Y40031D02*
D03*
Y43968D02*
D03*
X54500Y24468D02*
D03*
Y20531D02*
D03*
X44500Y24468D02*
D03*
Y20531D02*
D03*
X34500Y24468D02*
D03*
Y20531D02*
D03*
X74000Y35469D02*
D03*
Y31532D02*
D03*
X71000Y140969D02*
D03*
Y137031D02*
D03*
X71500Y149000D02*
D03*
Y152937D02*
D03*
X51000Y75968D02*
D03*
Y72031D02*
D03*
X56500Y75968D02*
D03*
Y72031D02*
D03*
X60500Y108531D02*
D03*
Y112469D02*
D03*
X55000Y108531D02*
D03*
Y112469D02*
D03*
X40000Y89000D02*
D03*
Y92937D02*
D03*
Y83969D02*
D03*
Y80032D02*
D03*
X80000Y86468D02*
D03*
Y82531D02*
D03*
D16*
X49608Y58608D02*
D03*
X52392Y61392D02*
D03*
D17*
X82108Y72392D02*
D03*
X84892Y69608D02*
D03*
D18*
X80547Y31500D02*
D03*
X86453D02*
D03*
X32547Y38000D02*
D03*
X38453D02*
D03*
D19*
X33531Y50500D02*
D03*
X37468D02*
D03*
X33531Y44000D02*
D03*
X37468D02*
D03*
X9532Y107500D02*
D03*
X13468D02*
D03*
X59969Y118000D02*
D03*
X56032D02*
D03*
X79532Y101500D02*
D03*
X83469D02*
D03*
X86468Y44000D02*
D03*
X82531D02*
D03*
X12968Y140500D02*
D03*
X9031D02*
D03*
X86468Y38500D02*
D03*
X82531D02*
D03*
D20*
X27646Y90142D02*
D03*
Y82858D02*
D03*
X33354Y90142D02*
D03*
Y82858D02*
D03*
D21*
X73283Y115240D02*
D03*
Y111500D02*
D03*
Y107760D02*
D03*
X83716D02*
D03*
Y115240D02*
D03*
D22*
X56394Y51381D02*
D03*
X57786Y49989D02*
D03*
X59178Y48597D02*
D03*
X60570Y47205D02*
D03*
X61962Y45813D02*
D03*
X63354Y44421D02*
D03*
X64745Y43029D02*
D03*
X66137Y41637D02*
D03*
X79500Y55000D02*
D03*
X78108Y56392D02*
D03*
X76716Y57784D02*
D03*
X75324Y59176D02*
D03*
X73932Y60568D02*
D03*
X72540Y61960D02*
D03*
X71148Y63352D02*
D03*
X69756Y64744D02*
D03*
D23*
Y41637D02*
D03*
X71148Y43029D02*
D03*
X72540Y44421D02*
D03*
X73932Y45813D02*
D03*
X75324Y47205D02*
D03*
X76716Y48597D02*
D03*
X78108Y49989D02*
D03*
X79500Y51381D02*
D03*
X66137Y64744D02*
D03*
X64745Y63352D02*
D03*
X63354Y61960D02*
D03*
X61962Y60568D02*
D03*
X60570Y59176D02*
D03*
X59178Y57784D02*
D03*
X57786Y56392D02*
D03*
X56394Y55000D02*
D03*
D24*
X67947Y53190D02*
D03*
D25*
X70095Y91130D02*
D03*
X72063D02*
D03*
X74032D02*
D03*
X76000D02*
D03*
X70095Y80500D02*
D03*
X72063D02*
D03*
X74032D02*
D03*
X76000D02*
D03*
D26*
X73047Y85815D02*
D03*
D27*
X15232Y132169D02*
D03*
Y115831D02*
D03*
X6768Y132169D02*
D03*
Y115831D02*
D03*
D28*
X54449Y133280D02*
D03*
X57598D02*
D03*
X32402D02*
D03*
X35551D02*
D03*
D29*
X51890D02*
D03*
X49921D02*
D03*
X47953D02*
D03*
X38110D02*
D03*
X40079D02*
D03*
X42047D02*
D03*
X44016D02*
D03*
X45984D02*
D03*
D30*
X54500Y12953D02*
D03*
Y7047D02*
D03*
X44500Y12953D02*
D03*
Y7047D02*
D03*
X34500Y12953D02*
D03*
Y7047D02*
D03*
X66500Y114453D02*
D03*
Y108547D02*
D03*
X86000Y82047D02*
D03*
Y87953D02*
D03*
D31*
X41020Y107445D02*
D03*
X44760D02*
D03*
X48500D02*
D03*
Y116500D02*
D03*
X44760D02*
D03*
X41020D02*
D03*
M02*
