G04*
G04 #@! TF.GenerationSoftware,Altium Limited,Altium Designer,20.0.14 (345)*
G04*
G04 Layer_Color=32896*
%FSLAX25Y25*%
%MOIN*%
G70*
G01*
G75*
%ADD10C,0.01000*%
%ADD24C,0.00591*%
D10*
X103166Y145000D02*
X100500D01*
Y148999D01*
X103166D01*
X100500Y146999D02*
X101833D01*
X104499Y148999D02*
X105832D01*
X105165D01*
Y145000D01*
X104499Y145666D01*
X107831D02*
X108497Y145000D01*
X109830D01*
X110497Y145666D01*
Y146333D01*
X109830Y146999D01*
X110497Y147666D01*
Y148332D01*
X109830Y148999D01*
X108497D01*
X107831Y148332D01*
Y147666D01*
X108497Y146999D01*
X107831Y146333D01*
Y145666D01*
X108497Y146999D02*
X109830D01*
X111830Y148999D02*
X113163D01*
X112496D01*
Y145000D01*
X111830Y145666D01*
X115162Y148999D02*
X116495D01*
X115828D01*
Y145000D01*
X115162Y145666D01*
X118494Y148999D02*
Y145000D01*
X120494D01*
X121160Y145666D01*
Y146999D01*
X120494Y147666D01*
X118494D01*
X125159Y145666D02*
X124492Y145000D01*
X123159D01*
X122493Y145666D01*
Y148332D01*
X123159Y148999D01*
X124492D01*
X125159Y148332D01*
X126492Y145000D02*
Y148999D01*
X128491D01*
X129157Y148332D01*
Y147666D01*
X128491Y146999D01*
X126492D01*
X128491D01*
X129157Y146333D01*
Y145666D01*
X128491Y145000D01*
X126492D01*
X130490Y148999D02*
Y146333D01*
X131823Y145000D01*
X133156Y146333D01*
Y148999D01*
Y146999D01*
X130490D01*
X134489Y148999D02*
X135822D01*
X135155D01*
Y145000D01*
X134489Y145666D01*
X141820Y148999D02*
Y145000D01*
X143819D01*
X144486Y145666D01*
Y146999D01*
X143819Y147666D01*
X141820D01*
X143153D02*
X144486Y148999D01*
X147818D02*
X146485D01*
X145819Y148332D01*
Y146999D01*
X146485Y146333D01*
X147818D01*
X148485Y146999D01*
Y147666D01*
X145819D01*
X149817Y146333D02*
X151150Y148999D01*
X152483Y146333D01*
X153816Y148999D02*
X155149D01*
X154483D01*
Y146333D01*
X153816D01*
X157148Y148999D02*
X159148D01*
X159814Y148332D01*
X159148Y147666D01*
X157815D01*
X157148Y146999D01*
X157815Y146333D01*
X159814D01*
X161147Y148999D02*
X162480D01*
X161814D01*
Y146333D01*
X161147D01*
X165146Y148999D02*
X166479D01*
X167145Y148332D01*
Y146999D01*
X166479Y146333D01*
X165146D01*
X164479Y146999D01*
Y148332D01*
X165146Y148999D01*
X168478D02*
Y146333D01*
X170477D01*
X171144Y146999D01*
Y148999D01*
X176476D02*
X177808D01*
X177142D01*
Y145000D01*
X176476Y145666D01*
X42002Y103999D02*
X42002Y98001D01*
X45002Y98001D01*
X46001Y99001D01*
X46001Y101000D01*
X45002Y102000D01*
X42002Y102000D01*
X44002Y102000D02*
X46001Y103999D01*
X48000Y103999D02*
X50000Y103999D01*
X49000Y103999D01*
X49000Y98001D01*
X48000Y99001D01*
X56998Y103999D02*
X52999Y103999D01*
X56998Y100000D01*
X56998Y99001D01*
X55998Y98001D01*
X53999Y98001D01*
X52999Y99001D01*
X43002Y53999D02*
Y48001D01*
X46001D01*
X47001Y49001D01*
Y51000D01*
X46001Y52000D01*
X43002D01*
X45002D02*
X47001Y53999D01*
X49000D02*
X50999D01*
X50000D01*
Y48001D01*
X49000Y49001D01*
X53999Y53999D02*
X55998D01*
X54998D01*
Y48001D01*
X53999Y49001D01*
X44002Y93999D02*
Y88001D01*
X47001D01*
X48000Y89001D01*
Y91000D01*
X47001Y92000D01*
X44002D01*
X46001D02*
X48000Y93999D01*
X50000Y92999D02*
X50999Y93999D01*
X52999D01*
X53998Y92999D01*
Y89001D01*
X52999Y88001D01*
X50999D01*
X50000Y89001D01*
Y90000D01*
X50999Y91000D01*
X53998D01*
X43011Y44015D02*
X42992Y38017D01*
X45991Y38007D01*
X46994Y39004D01*
X47000Y41003D01*
X46004Y42006D01*
X43005Y42015D01*
X45004Y42009D02*
X47010Y44002D01*
X48993Y38998D02*
X49990Y37995D01*
X51989Y37988D01*
X52992Y38985D01*
X52995Y39985D01*
X51999Y40988D01*
X53001Y41984D01*
X53005Y42984D01*
X52008Y43986D01*
X50009Y43993D01*
X49006Y42996D01*
X49003Y41996D01*
X49999Y40994D01*
X48997Y39997D01*
X48993Y38998D01*
X49999Y40994D02*
X51999Y40988D01*
X43035Y84054D02*
X42969Y78056D01*
X45968Y78023D01*
X46979Y79012D01*
X47000Y81011D01*
X46012Y82021D01*
X43013Y82054D01*
X45012Y82032D02*
X47033Y84010D01*
X52965Y77947D02*
X50977Y78968D01*
X49000Y80989D01*
X49022Y82988D01*
X50032Y83977D01*
X52031Y83955D01*
X53020Y82945D01*
X53009Y81945D01*
X51999Y80956D01*
X49000Y80989D01*
X42534Y34052D02*
X42470Y28054D01*
X45469Y28022D01*
X46479Y29011D01*
X46500Y31010D01*
X45511Y32021D01*
X42513Y32052D01*
X44512Y32031D02*
X46532Y34009D01*
X52466Y27948D02*
X48468Y27991D01*
X48500Y30989D01*
X50488Y29969D01*
X51488Y29958D01*
X52498Y30947D01*
X52519Y32946D01*
X51530Y33957D01*
X49531Y33978D01*
X48521Y32989D01*
X43002Y73999D02*
Y68001D01*
X46001D01*
X47000Y69001D01*
Y71000D01*
X46001Y72000D01*
X43002D01*
X45001D02*
X47000Y73999D01*
X51999D02*
Y68001D01*
X49000Y71000D01*
X52998D01*
X42261Y23499D02*
Y17501D01*
X45261D01*
X46260Y18501D01*
Y20500D01*
X45261Y21500D01*
X42261D01*
X44261D02*
X46260Y23499D01*
X48259Y18501D02*
X49259Y17501D01*
X51259D01*
X52258Y18501D01*
Y19500D01*
X51259Y20500D01*
X50259D01*
X51259D01*
X52258Y21500D01*
Y22499D01*
X51259Y23499D01*
X49259D01*
X48259Y22499D01*
X42502Y63999D02*
Y58001D01*
X45501D01*
X46500Y59001D01*
Y61000D01*
X45501Y62000D01*
X42502D01*
X44501D02*
X46500Y63999D01*
X52498D02*
X48500D01*
X52498Y60000D01*
Y59001D01*
X51499Y58001D01*
X49499D01*
X48500Y59001D01*
X42001Y13999D02*
Y8001D01*
X45000D01*
X46000Y9001D01*
Y11000D01*
X45000Y12000D01*
X42001D01*
X44001D02*
X46000Y13999D01*
X47999D02*
X49999D01*
X48999D01*
Y8001D01*
X47999Y9001D01*
D24*
X32409Y28047D02*
X33591D01*
X32409Y33953D02*
X33591D01*
X32409Y98047D02*
X33591D01*
X32409Y103953D02*
X33591D01*
X32409Y88047D02*
X33591D01*
X32409Y93953D02*
X33591D01*
X32409Y78047D02*
X33591D01*
X32409Y83953D02*
X33591D01*
X32409Y68047D02*
X33590D01*
X32409Y73953D02*
X33590D01*
X32409Y58047D02*
X33591D01*
X32409Y63953D02*
X33591D01*
X32409Y48047D02*
X33591D01*
X32409Y53953D02*
X33591D01*
X32409Y18047D02*
X33591D01*
X32409Y23953D02*
X33591D01*
X32409Y38047D02*
X33591D01*
X32409Y43953D02*
X33591D01*
X32409Y8047D02*
X33591D01*
X32409Y13953D02*
X33591D01*
M02*
