G04*
G04 #@! TF.GenerationSoftware,Altium Limited,Altium Designer,20.0.14 (345)*
G04*
G04 Layer_Color=65535*
%FSLAX25Y25*%
%MOIN*%
G70*
G01*
G75*
%ADD10C,0.01000*%
D10*
X203709Y16516D02*
Y44075D01*
X225756D01*
Y16516D02*
Y44075D01*
X203709Y16516D02*
X225756D01*
X183500Y74500D02*
X197500D01*
Y37500D02*
Y74500D01*
X183500Y37500D02*
X197500D01*
X183500D02*
Y74500D01*
X203546Y54239D02*
X201547D01*
X202546D01*
Y49241D01*
X201547Y48241D01*
X200547D01*
X199547Y49241D01*
X205545Y53239D02*
X206545Y54239D01*
X208544D01*
X209544Y53239D01*
Y52240D01*
X208544Y51240D01*
X209544Y50240D01*
Y49241D01*
X208544Y48241D01*
X206545D01*
X205545Y49241D01*
Y50240D01*
X206545Y51240D01*
X205545Y52240D01*
Y53239D01*
X206545Y51240D02*
X208544D01*
X56500Y151999D02*
X54501D01*
X55501D01*
Y147001D01*
X54501Y146001D01*
X53501D01*
X52502Y147001D01*
X62498Y151999D02*
X60499Y150999D01*
X58500Y149000D01*
Y147001D01*
X59499Y146001D01*
X61499D01*
X62498Y147001D01*
Y148000D01*
X61499Y149000D01*
X58500D01*
X27200Y114934D02*
Y109936D01*
X28200Y108936D01*
X30199D01*
X31199Y109936D01*
Y114934D01*
X33198Y108936D02*
X35197D01*
X34198D01*
Y114934D01*
X33198Y113935D01*
M02*
